M48
;Layer_Color=9474304
;FILE_FORMAT=2:5
INCH
;TYPE=PLATED
T01F00S00C0.01181
T02F00S00C0.03937
T03F00S00C0.04016
T04F00S00C0.12992
%
T01
X0150394Y0095472
X0154352Y0106124
X0152327Y0154425
X0165354Y0151575
X0169291
X0175197
X0181102Y0146653
Y0141732
Y0136811
X0183563Y0135318
X0181102Y0131890
Y0125984
X0185039Y0125000
X0187992
X0190453
X0195866
Y0128937
X0201772Y0125984
Y0131890
X0201612Y0136811
X0201772Y0140748
Y0146653
X0195845Y0141732
X0186024Y0140748
X0187008Y0128937
X0191206Y0112749
X0195866Y0113189
X0205709Y0113189
X0207677Y0110236
Y0104331
X0205709Y0099410
X0201772Y0107283
X0207677Y0119095
X0212992Y0122047
X0215748Y0125984
X0216142Y0129921
X0218279Y0132958
X0218293Y0135662
X0217918Y0138386
X0217520Y0142717
X0213583Y0140748
X0215748Y0150000
X0229331Y0149606
X0232721Y0144248
X0206791Y0155413
X0162402Y0146653
X0160630Y0143701
X0164173Y0142913
X0166339Y0121063
X0171457Y0122069
X0169291Y0115157
X0177165Y0112205
X0181102Y0113189
Y0107283
X0175000Y0104331
X0160531Y0102756
Y0106201
X0160630Y0091732
X0172244Y0088583
X0181319Y0090976
X0181102Y0082677
X0188199Y0082759
X0191929Y0082677
X0195733Y0082836
X0206693Y0083661
X0210630Y0089567
Y0068110
X0213386
Y0065354
X0210630
X0210236Y0052756
X0212992
Y0050000
X0210236
X0194488Y0061811
X0187402
X0172441Y0065354
Y0068110
X0169685
Y0065354
X0170079Y0052756
X0172835
Y0050000
X0170079
X0159449Y0059055
X0201772Y0074803
X0191929Y0098425
X0192913Y0157480
X0195374
X0198611Y0157568
X0201772Y0157480
X0206791Y0161319
X0207473Y0174873
X0208268Y0182677
X0202165
Y0188583
X0207874
Y0194488
X0202165
X0208268Y0200394
X0214567Y0205118
X0214173Y0210236
X0199803Y0204724
X0192913Y0201772
X0187008
X0189764Y0194095
X0194414Y0187870
X0193307Y0177559
X0175984Y0181890
X0174016Y0189764
Y0195866
X0180118
Y0189961
X0165532Y0199567
Y0205079
Y0210591
Y0216102
X0174213Y0211614
X0165532Y0177520
X0165291Y0171433
X0171024Y0168484
X0169291Y0157480
X0175197
X0182677Y0161417
X0187402Y0157874
X0190044Y0159169
X0222441Y0160433
X0234252
Y0170276
Y0191929
X0222441Y0182087
X0217520Y0177165
X0146653Y0181102
Y0171260
T02
X0227461Y0087598
Y0097441
Y0107283
Y0117126
Y0126969
T03
X0135295Y0081953
Y0091953
Y0101953
Y0111953
Y0121953
Y0131953
Y0141953
Y0151953
X0245295
Y0141953
Y0131953
Y0121953
Y0111953
Y0101953
Y0091953
Y0081953
Y0161953
Y0171953
Y0181953
Y0191953
X0135295
Y0181953
Y0171953
Y0161953
T04
X0140945Y0058268
X0240945
Y0209842
X0140945
M30
