G04*
G04 #@! TF.GenerationSoftware,Altium Limited,Altium Designer,25.8.1 (18)*
G04*
G04 Layer_Color=128*
%FSLAX25Y25*%
%MOIN*%
G70*
G04*
G04 #@! TF.SameCoordinates,D775D7AA-2E8E-4D3B-9509-54632A005B4D*
G04*
G04*
G04 #@! TF.FilePolarity,Positive*
G04*
G01*
G75*
%ADD54R,0.01181X0.05807*%
%ADD55R,0.05807X0.01181*%
%ADD56R,0.02913X0.10984*%
%ADD57R,0.09646X0.03937*%
%ADD58R,0.03937X0.09646*%
D54*
X180728Y152709D02*
D03*
X182697D02*
D03*
X184665D02*
D03*
X186634D02*
D03*
X188602D02*
D03*
X190571D02*
D03*
X192539D02*
D03*
X194508D02*
D03*
X196476D02*
D03*
X198445D02*
D03*
X200413D02*
D03*
X202382D02*
D03*
Y119339D02*
D03*
X200413D02*
D03*
X198445D02*
D03*
X196476D02*
D03*
X194508D02*
D03*
X192539D02*
D03*
X190571D02*
D03*
X188602D02*
D03*
X186634D02*
D03*
X184665D02*
D03*
X182697D02*
D03*
X180728D02*
D03*
D55*
X208240Y146850D02*
D03*
Y144882D02*
D03*
Y142913D02*
D03*
Y140945D02*
D03*
Y138976D02*
D03*
Y137008D02*
D03*
Y135039D02*
D03*
Y133071D02*
D03*
Y131102D02*
D03*
Y129134D02*
D03*
Y127165D02*
D03*
Y125197D02*
D03*
X174870D02*
D03*
Y127165D02*
D03*
Y129134D02*
D03*
Y131102D02*
D03*
Y133071D02*
D03*
Y135039D02*
D03*
Y137008D02*
D03*
Y138976D02*
D03*
Y140945D02*
D03*
Y142913D02*
D03*
Y144882D02*
D03*
Y146850D02*
D03*
D56*
X176319Y90976D02*
D03*
X181319D02*
D03*
X201319Y74953D02*
D03*
X196319D02*
D03*
X191319D02*
D03*
X196319Y90976D02*
D03*
X201319D02*
D03*
X176319Y74953D02*
D03*
X181319D02*
D03*
X186319Y90976D02*
D03*
X191319D02*
D03*
X206319D02*
D03*
X186319Y74953D02*
D03*
X206319D02*
D03*
D57*
X165532Y194055D02*
D03*
Y205079D02*
D03*
X215098Y177520D02*
D03*
X165532Y216102D02*
D03*
Y210591D02*
D03*
Y199567D02*
D03*
X215098Y205079D02*
D03*
X165532Y188543D02*
D03*
Y183031D02*
D03*
Y177520D02*
D03*
X215098Y210591D02*
D03*
Y194055D02*
D03*
Y188543D02*
D03*
Y183031D02*
D03*
Y216102D02*
D03*
Y199567D02*
D03*
D58*
X171024Y168484D02*
D03*
X209606D02*
D03*
X204095D02*
D03*
X198583D02*
D03*
X193071D02*
D03*
X187559D02*
D03*
X182047D02*
D03*
X176535D02*
D03*
M02*
