M48
;Layer_Color=9474304
;FILE_FORMAT=2:5
INCH
;TYPE=PLATED
T01F00S00C0.01181
T02F00S00C0.03937
T03F00S00C0.04016
T04F00S00C0.12992
%
T01
X0146653Y0070866
X0152559Y0095472
X0152559Y0128937
X0144685Y0146653
X0144685Y0152559
X0165354Y0152559
X0169291Y0151575
X0170276Y0146653
X0162402
X0163386Y0143701
X0160630
X0158563Y0128839
X0167323Y0121063
X0165354Y0114173
X0162402
X0170276Y0113189
X0177165Y0112205
X0181102Y0113189
Y0107283
X0191206Y0112749
X0195866Y0113189
X0205709Y0113189
X0207677Y0110236
Y0104331
X0205709Y0099410
X0201772Y0107283
X0207677Y0119095
X0201772Y0125984
Y0131890
X0201612Y0136811
X0201772Y0140748
Y0146653
X0195845Y0141732
X0186024Y0140748
X0181102
Y0136811
X0183563Y0135318
X0181102Y0131890
Y0125984
X0185039Y0125000
X0187992
X0190453
X0195866
Y0128937
X0187008
X0181102Y0146653
X0175197Y0151575
X0213583Y0140748
X0218311Y0138583
X0218504Y0135827
Y0132874
Y0129921
Y0126969
X0223425Y0143701
X0231496
X0229331Y0149606
X0210630Y0089567
X0206693Y0083661
X0195733Y0082836
X0191929Y0082677
X0188199Y0082759
X0181102Y0082677
X0181319Y0090976
X0172244Y0088583
X0161909Y0088386
Y0092126
X0158465Y0095472
X0158465Y0101378
Y0107283
X0164370Y0107283
Y0101378
X0165766Y0080651
X0162402Y0080709
X0169291
X0170079Y0069685
X0172835
Y0066929
X0170079
X0169914Y0054005
X0172670
Y0051249
X0169914
X0159449Y0059055
X0184055Y0063672
X0198819Y0063622
X0201772Y0074803
X0210236Y0069685
X0212992
Y0066929
X0210236
Y0053937
X0212992
Y0051181
X0210236
X0191929Y0099410
X0192913Y0157480
X0195245Y0158268
X0198455Y0157756
X0208661Y0160433
X0222441
X0234252
Y0170276
Y0191929
X0222441Y0182087
X0217520Y0177165
X0208661Y0175197
X0207677Y0183071
Y0187992
X0202756Y0188976
X0196650Y0192129
X0190945Y0193898
X0184055Y0191929
Y0187008
X0183601Y0184263
X0174213Y0183071
X0173228Y0180118
X0164370Y0177165
X0165291Y0171433
X0171024Y0168484
X0169291Y0157480
X0175197
X0184055Y0161417
X0187992Y0175197
X0195866
X0207677Y0193898
X0177165Y0196850
X0173228Y0201772
X0165532Y0199567
Y0205079
Y0210591
Y0216102
X0159326Y0207800
X0180118Y0213583
X0152559Y0188976
X0146653
Y0181102
X0151575Y0177165
X0146653Y0171260
T02
X0227461Y0087598
Y0097441
Y0107283
Y0117126
Y0126969
T03
X0135295Y0081953
Y0091953
Y0101953
Y0111953
Y0121953
Y0131953
Y0141953
Y0151953
X0245295
Y0141953
Y0131953
Y0121953
Y0111953
Y0101953
Y0091953
Y0081953
Y0161953
Y0171953
Y0181953
Y0191953
X0135295
Y0181953
Y0171953
Y0161953
T04
X0140551Y0059449
X0240551Y0058661
X0240945Y0209842
X0140945Y0210630
M30
