G04*
G04 #@! TF.GenerationSoftware,Altium Limited,Altium Designer,25.8.1 (18)*
G04*
G04 Layer_Physical_Order=3*
G04 Layer_Color=16440176*
%FSLAX25Y25*%
%MOIN*%
G70*
G04*
G04 #@! TF.SameCoordinates,D775D7AA-2E8E-4D3B-9509-54632A005B4D*
G04*
G04*
G04 #@! TF.FilePolarity,Positive*
G04*
G01*
G75*
%ADD32C,0.05394*%
%ADD33C,0.05937*%
%ADD36R,0.05394X0.05394*%
%ADD37C,0.01280*%
%ADD38C,0.01772*%
%ADD39C,0.01968*%
%ADD40C,0.01181*%
%ADD42C,0.02362*%
%ADD43C,0.14173*%
%ADD52C,0.00406*%
D32*
X245295Y111953D02*
D03*
X135295Y151953D02*
D03*
Y131953D02*
D03*
X245295D02*
D03*
Y121953D02*
D03*
Y101953D02*
D03*
X135295Y161953D02*
D03*
X245295Y191953D02*
D03*
X135295D02*
D03*
Y141953D02*
D03*
Y171953D02*
D03*
X245295Y91953D02*
D03*
Y161953D02*
D03*
X135295Y91953D02*
D03*
Y101953D02*
D03*
Y111953D02*
D03*
Y121953D02*
D03*
Y181953D02*
D03*
X245295Y141953D02*
D03*
Y151953D02*
D03*
Y171953D02*
D03*
Y181953D02*
D03*
D33*
X227461Y107283D02*
D03*
Y97441D02*
D03*
Y117126D02*
D03*
Y126969D02*
D03*
Y87598D02*
D03*
D36*
X245295Y81953D02*
D03*
X135295D02*
D03*
D37*
X180177Y66201D02*
D03*
X202933D02*
D03*
D38*
X205709Y99410D02*
D03*
X191206Y112749D02*
D03*
X177165Y112205D02*
D03*
X195866Y125000D02*
D03*
X170276Y146653D02*
D03*
X183563Y135318D02*
D03*
X167323Y121063D02*
D03*
X173228Y201772D02*
D03*
X162402Y146653D02*
D03*
X207677Y119095D02*
D03*
X195845Y141732D02*
D03*
X201612Y136811D02*
D03*
X192913Y157480D02*
D03*
X181319Y90976D02*
D03*
X164370Y101378D02*
D03*
X152559Y188976D02*
D03*
X234252Y170276D02*
D03*
X195866Y175197D02*
D03*
X201772Y146653D02*
D03*
Y125984D02*
D03*
Y74803D02*
D03*
X181102Y146653D02*
D03*
Y125984D02*
D03*
X174213Y183071D02*
D03*
X175197Y151575D02*
D03*
X169291D02*
D03*
X144685Y152559D02*
D03*
X144685Y146653D02*
D03*
X161909Y88386D02*
D03*
Y92126D02*
D03*
X158465Y95472D02*
D03*
X165354Y152559D02*
D03*
X177165Y196850D02*
D03*
X218504Y126969D02*
D03*
X213583Y140748D02*
D03*
X195866Y113189D02*
D03*
X198455Y157756D02*
D03*
X208661Y175197D02*
D03*
X165532Y205079D02*
D03*
X186024Y140748D02*
D03*
X207677Y110236D02*
D03*
X223425Y143701D02*
D03*
X184055Y161417D02*
D03*
X183601Y184263D02*
D03*
X163386Y143701D02*
D03*
X160630D02*
D03*
X205709Y113189D02*
D03*
X231496Y143701D02*
D03*
X218311Y138583D02*
D03*
X218504Y132874D02*
D03*
Y135827D02*
D03*
Y129921D02*
D03*
X207677Y104331D02*
D03*
X195245Y158268D02*
D03*
X180118Y213583D02*
D03*
X165354Y114173D02*
D03*
X162402D02*
D03*
X164370Y107283D02*
D03*
X234252Y191929D02*
D03*
X222441Y182087D02*
D03*
X202756Y188976D02*
D03*
X196650Y192129D02*
D03*
X234252Y160433D02*
D03*
X222441D02*
D03*
X229331Y149606D02*
D03*
X217520Y177165D02*
D03*
X201772Y140748D02*
D03*
Y131890D02*
D03*
X190945Y193898D02*
D03*
X187992Y175197D02*
D03*
X210630Y89567D02*
D03*
X212992Y66929D02*
D03*
Y53937D02*
D03*
Y69685D02*
D03*
Y51181D02*
D03*
X210236D02*
D03*
Y66929D02*
D03*
Y69685D02*
D03*
Y53937D02*
D03*
X195866Y128937D02*
D03*
X201772Y107283D02*
D03*
X187008Y128937D02*
D03*
X191929Y82677D02*
D03*
X184055Y191929D02*
D03*
Y187008D02*
D03*
X173228Y180118D02*
D03*
X181102Y140748D02*
D03*
X175197Y157480D02*
D03*
X181102Y131890D02*
D03*
X171024Y168484D02*
D03*
X165532Y210591D02*
D03*
Y216102D02*
D03*
Y199567D02*
D03*
X165291Y171433D02*
D03*
X169291Y157480D02*
D03*
X146653Y188976D02*
D03*
X152559Y128937D02*
D03*
X181102Y107283D02*
D03*
Y113189D02*
D03*
X172244Y88583D02*
D03*
X172835Y69685D02*
D03*
Y66929D02*
D03*
X172670Y51249D02*
D03*
X170079Y69685D02*
D03*
X172670Y54005D02*
D03*
X158465Y107283D02*
D03*
Y101378D02*
D03*
X152559Y95472D02*
D03*
X169291Y80709D02*
D03*
X165766Y80651D02*
D03*
X170079Y66929D02*
D03*
X169914Y51249D02*
D03*
Y54005D02*
D03*
X162402Y80709D02*
D03*
X208661Y160433D02*
D03*
X190453Y125000D02*
D03*
X187992D02*
D03*
X185039D02*
D03*
X170276Y113189D02*
D03*
X181102Y136811D02*
D03*
X146653Y171260D02*
D03*
Y181102D02*
D03*
X151575Y177165D02*
D03*
X164370D02*
D03*
X159326Y207800D02*
D03*
X207677Y193898D02*
D03*
Y187992D02*
D03*
Y183071D02*
D03*
X158563Y128839D02*
D03*
X181102Y82677D02*
D03*
X159449Y59055D02*
D03*
X206693Y83661D02*
D03*
X198819Y63622D02*
D03*
X191929Y99410D02*
D03*
X184055Y63672D02*
D03*
X188199Y82759D02*
D03*
X195733Y82836D02*
D03*
X146653Y70866D02*
D03*
D39*
X159326Y207800D02*
X193774D01*
X207677Y193898D01*
Y183071D02*
Y187992D01*
Y193898D01*
Y182087D02*
Y183071D01*
D40*
X135295Y141953D02*
X145669Y131579D01*
Y127843D02*
Y131579D01*
Y127843D02*
X162489Y111024D01*
X172602D01*
X173783Y112205D01*
X177165D01*
X191206Y112749D02*
X191319Y112636D01*
X192482D01*
X205709Y99410D01*
X170276Y146653D02*
X174016Y142913D01*
X191984Y128882D02*
X195783Y125083D01*
Y125083D02*
Y125083D01*
X183858Y138976D02*
Y141054D01*
X191984Y128882D02*
Y130851D01*
X183858Y138976D02*
X191984Y130851D01*
X183403Y135318D02*
X183563D01*
X182140Y134055D02*
X183403Y135318D01*
X178150Y134055D02*
X182140D01*
X167436Y123341D02*
X178150Y134055D01*
X167436Y121176D02*
Y123341D01*
X167323Y121063D02*
X167436Y121176D01*
X168307Y169291D02*
Y178259D01*
X162402Y163386D02*
X168307Y169291D01*
Y178259D02*
X170276Y180228D01*
Y198819D01*
X173228Y201772D01*
X162402Y146653D02*
Y163386D01*
X165354Y152559D02*
Y159753D01*
X177165Y180228D02*
Y196850D01*
X173189Y176251D02*
X177165Y180228D01*
X173189Y167587D02*
Y176251D01*
X165354Y159753D02*
X173189Y167587D01*
X205416Y140748D02*
X213583D01*
X204724Y140056D02*
X205416Y140748D01*
X204724Y122047D02*
Y140056D01*
X195866Y113189D02*
X204724Y122047D01*
X203740Y175197D02*
X208661D01*
X199803Y179134D02*
X203740Y175197D01*
X199803Y179134D02*
Y196850D01*
X165532Y205079D02*
X191575D01*
X199803Y196850D01*
X183601Y161872D02*
Y184263D01*
Y161872D02*
X184055Y161417D01*
X163386Y143701D02*
X169095Y149409D01*
X181780D01*
X149606Y149606D02*
X155512Y143701D01*
X160630D01*
X149606Y149606D02*
Y168307D01*
X147638Y147638D02*
X158465Y136811D01*
X181102D01*
X174016Y142913D02*
X181999D01*
X183858Y141054D01*
X231496Y143701D02*
X235236Y139961D01*
Y97441D02*
Y139961D01*
X192804Y160433D02*
X208661D01*
X181780Y149409D02*
X192804Y160433D01*
X190453Y125000D02*
Y128554D01*
X187905Y131102D02*
X190453Y128554D01*
X177220Y128992D02*
X181267D01*
X170276Y122047D02*
X177220Y128992D01*
X170276Y113189D02*
Y122047D01*
X181267Y128992D02*
X183377Y131102D01*
X187905D01*
X143701Y178150D02*
X146653Y181102D01*
X143701Y168307D02*
X147638Y164370D01*
X143701Y168307D02*
Y178150D01*
X147638Y147638D02*
Y164370D01*
X146653Y171260D02*
X149606Y168307D01*
X230315Y92520D02*
X235236Y97441D01*
X225394Y92520D02*
X230315D01*
X216535Y83661D02*
X225394Y92520D01*
X206693Y83661D02*
X216535D01*
D42*
X168311Y56299D02*
X169098Y57087D01*
X207047D01*
X227461Y77500D01*
X135295Y91953D02*
X143898Y83350D01*
Y69725D02*
Y83350D01*
Y69725D02*
X157323Y56299D01*
X168311D01*
X227461Y77500D02*
Y87598D01*
X135295Y101953D02*
X151618Y85630D01*
X168268D01*
X173228Y80669D01*
Y78740D02*
Y80669D01*
X159449Y59055D02*
Y64961D01*
X173228Y78740D01*
X198819D01*
Y83661D01*
X206693D01*
X198819D02*
Y87598D01*
Y63622D02*
Y78740D01*
X191929Y92531D02*
X194888Y89573D01*
X196845D01*
X191929Y92531D02*
Y99410D01*
X196845Y89573D02*
X198819Y87598D01*
X184055Y63672D02*
X198769D01*
X198819Y63622D01*
D43*
X240945Y209842D02*
D03*
X240551Y58661D02*
D03*
X140945Y210630D02*
D03*
X140551Y59449D02*
D03*
D52*
X184551Y123303D02*
X189197Y118657D01*
X187992Y100394D02*
Y118158D01*
X183262Y122888D02*
X187992Y118158D01*
X189197Y100394D02*
Y118657D01*
Y96858D02*
Y100394D01*
X188254Y95915D02*
X189197Y96858D01*
X183356Y95915D02*
X188254D01*
X183356Y93510D02*
Y95915D01*
Y93510D02*
X188499D01*
X188499D02*
X190497Y91512D01*
X190497Y91512D01*
X187992Y97357D02*
Y100394D01*
X187755Y97120D02*
X187992Y97357D01*
X182857Y97120D02*
X187755D01*
X182151Y96414D02*
X182857Y97120D01*
X182151Y93011D02*
Y96414D01*
Y93011D02*
X182857Y92305D01*
X188000D01*
X188793Y91512D01*
X190497D02*
X192552Y89456D01*
X188793Y91512D02*
X191348Y88957D01*
X183262Y122888D02*
Y125736D01*
X186215Y126778D02*
X187992Y125000D01*
X184303Y126778D02*
X186215D01*
X184551Y123303D02*
X184778Y123530D01*
X183262Y125736D02*
X184303Y126778D01*
X184778Y124739D02*
X185039Y125000D01*
X184778Y123530D02*
Y124739D01*
X192552Y84692D02*
Y89456D01*
X191348Y84692D02*
Y88957D01*
X192552Y84692D02*
X194239Y83006D01*
X195563D01*
X195733Y82836D01*
X188199Y82759D02*
X188460Y83020D01*
X189675D01*
X191348Y84692D01*
M02*
