G04*
G04 #@! TF.GenerationSoftware,Altium Limited,Altium Designer,25.8.1 (18)*
G04*
G04 Layer_Color=8421504*
%FSLAX25Y25*%
%MOIN*%
G70*
G04*
G04 #@! TF.SameCoordinates,D775D7AA-2E8E-4D3B-9509-54632A005B4D*
G04*
G04*
G04 #@! TF.FilePolarity,Positive*
G04*
G01*
G75*
%ADD15R,0.03400X0.01200*%
%ADD16C,0.00945*%
%ADD17R,0.03937X0.03740*%
%ADD18R,0.03740X0.03937*%
%ADD19R,0.03937X0.07087*%
%ADD20R,0.05315X0.07087*%
%ADD21R,0.01200X0.03400*%
%ADD22R,0.03740X0.02362*%
%ADD23R,0.05906X0.05906*%
%ADD24R,0.02362X0.04528*%
%ADD25R,0.02362X0.03543*%
%ADD26R,0.03543X0.03740*%
%ADD27R,0.01181X0.04528*%
D15*
X196929Y187039D02*
D03*
Y181139D02*
D03*
X186929Y185039D02*
D03*
X196929Y188939D02*
D03*
X186929Y187039D02*
D03*
Y183039D02*
D03*
Y181139D02*
D03*
Y188939D02*
D03*
X196929Y185039D02*
D03*
Y183039D02*
D03*
D16*
X148819Y196653D02*
D03*
X150394Y195079D02*
D03*
Y196653D02*
D03*
X148819Y195079D02*
D03*
D17*
X155512Y146653D02*
D03*
X187008Y113189D02*
D03*
X216535Y182087D02*
D03*
X194882Y174213D02*
D03*
X152559Y188976D02*
D03*
X149606Y152559D02*
D03*
X158465Y95472D02*
D03*
X149606Y146653D02*
D03*
X155512Y152559D02*
D03*
X195866Y113189D02*
D03*
X174213Y205709D02*
D03*
X223425Y149606D02*
D03*
X223425Y143701D02*
D03*
X222441Y182087D02*
D03*
Y160433D02*
D03*
X234252D02*
D03*
X229331Y149606D02*
D03*
X188976Y174213D02*
D03*
X201772Y113189D02*
D03*
X180118Y205709D02*
D03*
X146653Y188976D02*
D03*
X165291Y171433D02*
D03*
Y181276D02*
D03*
X181102Y113189D02*
D03*
X158465Y107283D02*
D03*
Y101378D02*
D03*
X152559Y128937D02*
D03*
Y95472D02*
D03*
X228346Y160433D02*
D03*
X216535D02*
D03*
X158465Y128937D02*
D03*
X229331Y143701D02*
D03*
X152559Y101378D02*
D03*
Y107283D02*
D03*
X159386Y181276D02*
D03*
Y171433D02*
D03*
D18*
X195866Y134843D02*
D03*
X187008Y107283D02*
D03*
X201772Y146653D02*
D03*
Y125984D02*
D03*
X180118Y182087D02*
D03*
X175197Y151575D02*
D03*
X181102Y146653D02*
D03*
X169291Y151575D02*
D03*
X181102Y125984D02*
D03*
X164370Y101378D02*
D03*
X195866Y107283D02*
D03*
X187008Y134843D02*
D03*
X202756Y188976D02*
D03*
X201772Y140748D02*
D03*
X207024Y89346D02*
D03*
X201772Y131890D02*
D03*
Y107283D02*
D03*
X187008Y128937D02*
D03*
X195866D02*
D03*
X180118Y187992D02*
D03*
X181102Y140748D02*
D03*
Y131890D02*
D03*
X175197Y157480D02*
D03*
X164370Y107283D02*
D03*
X169291Y157480D02*
D03*
X181102Y107283D02*
D03*
X175921Y88953D02*
D03*
X207024Y83441D02*
D03*
X159449Y59055D02*
D03*
X223425D02*
D03*
X159449Y64961D02*
D03*
X223425D02*
D03*
X202756Y183071D02*
D03*
X175921Y83047D02*
D03*
X201772Y101378D02*
D03*
X187008D02*
D03*
X181102D02*
D03*
X195866D02*
D03*
D19*
X195845Y141732D02*
D03*
X186024D02*
D03*
D20*
X217224Y191929D02*
D03*
X233563Y170276D02*
D03*
Y191929D02*
D03*
X217224Y170276D02*
D03*
D21*
X189929Y180039D02*
D03*
X193929Y190039D02*
D03*
X191929D02*
D03*
X193929Y180039D02*
D03*
X191929D02*
D03*
X189929Y190039D02*
D03*
D22*
X161909Y88386D02*
D03*
Y114370D02*
D03*
Y80905D02*
D03*
Y121850D02*
D03*
X151083Y84646D02*
D03*
Y118110D02*
D03*
D23*
X211713Y68169D02*
D03*
Y52697D02*
D03*
X171398Y68169D02*
D03*
Y52697D02*
D03*
D24*
X204153Y70433D02*
D03*
X178957D02*
D03*
X201004D02*
D03*
X182106D02*
D03*
D25*
X191929Y82087D02*
D03*
Y91142D02*
D03*
X195669Y82087D02*
D03*
X188189D02*
D03*
Y91142D02*
D03*
X195669D02*
D03*
D26*
X146492Y171433D02*
D03*
Y181276D02*
D03*
X152594D02*
D03*
Y171433D02*
D03*
D27*
X188602Y70433D02*
D03*
X192539D02*
D03*
X194508D02*
D03*
X190571D02*
D03*
X186634D02*
D03*
X196476D02*
D03*
X198445D02*
D03*
X184665D02*
D03*
M02*
