G04*
G04 #@! TF.GenerationSoftware,Altium Limited,Altium Designer,25.8.1 (18)*
G04*
G04 Layer_Color=16711935*
%FSLAX25Y25*%
%MOIN*%
G70*
G04*
G04 #@! TF.SameCoordinates,D775D7AA-2E8E-4D3B-9509-54632A005B4D*
G04*
G04*
G04 #@! TF.FilePolarity,Negative*
G04*
G01*
G75*
%ADD32C,0.05394*%
%ADD33C,0.05937*%
%ADD34R,0.05937X0.05937*%
%ADD35C,0.18110*%
%ADD36R,0.05394X0.05394*%
%ADD37C,0.01280*%
%ADD38C,0.01772*%
%ADD54R,0.01181X0.05807*%
%ADD55R,0.05807X0.01181*%
%ADD56R,0.02913X0.10984*%
%ADD57R,0.09646X0.03937*%
%ADD58R,0.03937X0.09646*%
D32*
X245295Y111953D02*
D03*
X135295Y151953D02*
D03*
Y131953D02*
D03*
X245295D02*
D03*
Y121953D02*
D03*
Y101953D02*
D03*
X135295Y161953D02*
D03*
X245295Y191953D02*
D03*
X135295D02*
D03*
Y141953D02*
D03*
Y171953D02*
D03*
X245295Y91953D02*
D03*
Y161953D02*
D03*
X135295Y91953D02*
D03*
Y101953D02*
D03*
Y111953D02*
D03*
Y121953D02*
D03*
Y181953D02*
D03*
X245295Y141953D02*
D03*
Y151953D02*
D03*
Y171953D02*
D03*
Y181953D02*
D03*
D33*
X227461Y107283D02*
D03*
Y97441D02*
D03*
Y117126D02*
D03*
Y87598D02*
D03*
D34*
Y126969D02*
D03*
D35*
X240945Y209842D02*
D03*
X240551Y58661D02*
D03*
X140945Y210630D02*
D03*
X140551Y59449D02*
D03*
D36*
X245295Y81953D02*
D03*
X135295D02*
D03*
D37*
X180177Y66201D02*
D03*
X202933D02*
D03*
D38*
X205709Y99410D02*
D03*
X191206Y112749D02*
D03*
X177165Y112205D02*
D03*
X195866Y125000D02*
D03*
X170276Y146653D02*
D03*
X183563Y135318D02*
D03*
X167323Y121063D02*
D03*
X173228Y201772D02*
D03*
X162402Y146653D02*
D03*
X207677Y119095D02*
D03*
X195845Y141732D02*
D03*
X201612Y136811D02*
D03*
X192913Y157480D02*
D03*
X181319Y90976D02*
D03*
X164370Y101378D02*
D03*
X152559Y188976D02*
D03*
X234252Y170276D02*
D03*
X195866Y175197D02*
D03*
X201772Y146653D02*
D03*
Y125984D02*
D03*
Y74803D02*
D03*
X181102Y146653D02*
D03*
Y125984D02*
D03*
X174213Y183071D02*
D03*
X175197Y151575D02*
D03*
X169291D02*
D03*
X144685Y152559D02*
D03*
X144685Y146653D02*
D03*
X161909Y88386D02*
D03*
Y92126D02*
D03*
X158465Y95472D02*
D03*
X165354Y152559D02*
D03*
X177165Y196850D02*
D03*
X218504Y126969D02*
D03*
X213583Y140748D02*
D03*
X195866Y113189D02*
D03*
X198455Y157756D02*
D03*
X208661Y175197D02*
D03*
X165532Y205079D02*
D03*
X186024Y140748D02*
D03*
X207677Y110236D02*
D03*
X223425Y143701D02*
D03*
X184055Y161417D02*
D03*
X183601Y184263D02*
D03*
X163386Y143701D02*
D03*
X160630D02*
D03*
X205709Y113189D02*
D03*
X231496Y143701D02*
D03*
X218311Y138583D02*
D03*
X218504Y132874D02*
D03*
Y135827D02*
D03*
Y129921D02*
D03*
X207677Y104331D02*
D03*
X195245Y158268D02*
D03*
X180118Y213583D02*
D03*
X165354Y114173D02*
D03*
X162402D02*
D03*
X164370Y107283D02*
D03*
X234252Y191929D02*
D03*
X222441Y182087D02*
D03*
X202756Y188976D02*
D03*
X196650Y192129D02*
D03*
X234252Y160433D02*
D03*
X222441D02*
D03*
X229331Y149606D02*
D03*
X217520Y177165D02*
D03*
X201772Y140748D02*
D03*
Y131890D02*
D03*
X190945Y193898D02*
D03*
X187992Y175197D02*
D03*
X210630Y89567D02*
D03*
X212992Y66929D02*
D03*
Y53937D02*
D03*
Y69685D02*
D03*
Y51181D02*
D03*
X210236D02*
D03*
Y66929D02*
D03*
Y69685D02*
D03*
Y53937D02*
D03*
X195866Y128937D02*
D03*
X201772Y107283D02*
D03*
X187008Y128937D02*
D03*
X191929Y82677D02*
D03*
X184055Y191929D02*
D03*
Y187008D02*
D03*
X173228Y180118D02*
D03*
X181102Y140748D02*
D03*
X175197Y157480D02*
D03*
X181102Y131890D02*
D03*
X171024Y168484D02*
D03*
X165532Y210591D02*
D03*
Y216102D02*
D03*
Y199567D02*
D03*
X165291Y171433D02*
D03*
X169291Y157480D02*
D03*
X146653Y188976D02*
D03*
X152559Y128937D02*
D03*
X181102Y107283D02*
D03*
Y113189D02*
D03*
X172244Y88583D02*
D03*
X172835Y69685D02*
D03*
Y66929D02*
D03*
X172670Y51249D02*
D03*
X170079Y69685D02*
D03*
X172670Y54005D02*
D03*
X158465Y107283D02*
D03*
Y101378D02*
D03*
X152559Y95472D02*
D03*
X169291Y80709D02*
D03*
X165766Y80651D02*
D03*
X170079Y66929D02*
D03*
X169914Y51249D02*
D03*
Y54005D02*
D03*
X162402Y80709D02*
D03*
X208661Y160433D02*
D03*
X190453Y125000D02*
D03*
X187992D02*
D03*
X185039D02*
D03*
X170276Y113189D02*
D03*
X181102Y136811D02*
D03*
X146653Y171260D02*
D03*
Y181102D02*
D03*
X151575Y177165D02*
D03*
X164370D02*
D03*
X159326Y207800D02*
D03*
X207677Y193898D02*
D03*
Y187992D02*
D03*
Y183071D02*
D03*
X158563Y128839D02*
D03*
X181102Y82677D02*
D03*
X159449Y59055D02*
D03*
X206693Y83661D02*
D03*
X198819Y63622D02*
D03*
X191929Y99410D02*
D03*
X184055Y63672D02*
D03*
X188199Y82759D02*
D03*
X195733Y82836D02*
D03*
X146653Y70866D02*
D03*
D54*
X180728Y152709D02*
D03*
X182697D02*
D03*
X184665D02*
D03*
X186634D02*
D03*
X188602D02*
D03*
X190571D02*
D03*
X192539D02*
D03*
X194508D02*
D03*
X196476D02*
D03*
X198445D02*
D03*
X200413D02*
D03*
X202382D02*
D03*
Y119339D02*
D03*
X200413D02*
D03*
X198445D02*
D03*
X196476D02*
D03*
X194508D02*
D03*
X192539D02*
D03*
X190571D02*
D03*
X188602D02*
D03*
X186634D02*
D03*
X184665D02*
D03*
X182697D02*
D03*
X180728D02*
D03*
D55*
X208240Y146850D02*
D03*
Y144882D02*
D03*
Y142913D02*
D03*
Y140945D02*
D03*
Y138976D02*
D03*
Y137008D02*
D03*
Y135039D02*
D03*
Y133071D02*
D03*
Y131102D02*
D03*
Y129134D02*
D03*
Y127165D02*
D03*
Y125197D02*
D03*
X174870D02*
D03*
Y127165D02*
D03*
Y129134D02*
D03*
Y131102D02*
D03*
Y133071D02*
D03*
Y135039D02*
D03*
Y137008D02*
D03*
Y138976D02*
D03*
Y140945D02*
D03*
Y142913D02*
D03*
Y144882D02*
D03*
Y146850D02*
D03*
D56*
X176319Y90976D02*
D03*
X181319D02*
D03*
X201319Y74953D02*
D03*
X196319D02*
D03*
X191319D02*
D03*
X196319Y90976D02*
D03*
X201319D02*
D03*
X176319Y74953D02*
D03*
X181319D02*
D03*
X186319Y90976D02*
D03*
X191319D02*
D03*
X206319D02*
D03*
X186319Y74953D02*
D03*
X206319D02*
D03*
D57*
X165532Y194055D02*
D03*
Y205079D02*
D03*
X215098Y177520D02*
D03*
X165532Y216102D02*
D03*
Y210591D02*
D03*
Y199567D02*
D03*
X215098Y205079D02*
D03*
X165532Y188543D02*
D03*
Y183031D02*
D03*
Y177520D02*
D03*
X215098Y210591D02*
D03*
Y194055D02*
D03*
Y188543D02*
D03*
Y183031D02*
D03*
Y216102D02*
D03*
Y199567D02*
D03*
D58*
X171024Y168484D02*
D03*
X209606D02*
D03*
X204095D02*
D03*
X198583D02*
D03*
X193071D02*
D03*
X187559D02*
D03*
X182047D02*
D03*
X176535D02*
D03*
M02*
