G04*
G04 #@! TF.GenerationSoftware,Altium Limited,Altium Designer,25.8.1 (18)*
G04*
G04 Layer_Color=65535*
%FSLAX25Y25*%
%MOIN*%
G70*
G04*
G04 #@! TF.SameCoordinates,D775D7AA-2E8E-4D3B-9509-54632A005B4D*
G04*
G04*
G04 #@! TF.FilePolarity,Positive*
G04*
G01*
G75*
%ADD10C,0.00787*%
%ADD11C,0.00394*%
%ADD12C,0.00984*%
%ADD13C,0.00500*%
%ADD14C,0.00602*%
D10*
X227854Y139764D02*
G03*
X227854Y139764I-394J0D01*
G01*
X189664Y145177D02*
X192026D01*
X189664Y138287D02*
X192026D01*
X152953Y112008D02*
X158465D01*
X152953D02*
Y115354D01*
Y124213D02*
X158465D01*
X152953Y120866D02*
Y124213D01*
X173957Y58327D02*
Y62264D01*
Y41472D02*
Y48484D01*
Y41472D02*
X209154D01*
Y48484D01*
Y58327D02*
Y62264D01*
X152953Y78543D02*
X158465D01*
X152953D02*
Y81890D01*
Y90748D02*
X158465D01*
X152953Y87401D02*
Y90748D01*
X186024Y88386D02*
X197835D01*
X186024Y84842D02*
X197835D01*
Y88386D01*
X186024Y84842D02*
Y88386D01*
D11*
X147835Y193898D02*
G03*
X147835Y193898I-197J0D01*
G01*
X155398Y178570D02*
G03*
X155398Y178570I-197J0D01*
G01*
Y168728D02*
G03*
X155398Y168728I-197J0D01*
G01*
X178957Y74457D02*
G03*
X178957Y74850I0J197D01*
G01*
D02*
G03*
X178957Y74457I0J-197D01*
G01*
D12*
X162402Y111024D02*
G03*
X162402Y111024I-492J0D01*
G01*
Y77559D02*
G03*
X162402Y77559I-492J0D01*
G01*
X185335Y82087D02*
G03*
X185335Y82087I-492J0D01*
G01*
D13*
X214075Y77953D02*
Y136614D01*
X236713D01*
Y77953D02*
Y136614D01*
X214075Y77953D02*
X236713D01*
X217520Y164567D02*
Y165472D01*
Y175079D02*
Y175984D01*
X233268Y164567D02*
Y165472D01*
Y175079D02*
Y175984D01*
X217520Y164567D02*
X233268D01*
X217520Y175984D02*
X233268D01*
X217520Y186221D02*
Y187126D01*
Y196732D02*
Y197638D01*
X233268Y186221D02*
Y187126D01*
Y196732D02*
Y197638D01*
X217520Y186221D02*
X233268D01*
X217520Y197638D02*
X233268D01*
D14*
X216224Y147136D02*
X214912D01*
X215568D01*
Y143856D01*
X214912Y143200D01*
X214256D01*
X213600Y143856D01*
X219504Y143200D02*
Y147136D01*
X217536Y145168D01*
X220160D01*
X177409Y197858D02*
Y194578D01*
X178065Y193922D01*
X179377D01*
X180033Y194578D01*
Y197858D01*
X181345D02*
X183969D01*
Y197202D01*
X181345Y194578D01*
Y193922D01*
X188231Y151519D02*
X190854Y147583D01*
Y151519D02*
X188231Y147583D01*
X192166D02*
X193478D01*
X192822D01*
Y151519D01*
X192166Y150863D01*
X147812Y200523D02*
X151091D01*
X151747Y201179D01*
Y202491D01*
X151091Y203147D01*
X147812D01*
Y207083D02*
X148468Y205771D01*
X149779Y204459D01*
X151091D01*
X151747Y205115D01*
Y206427D01*
X151091Y207083D01*
X150435D01*
X149779Y206427D01*
Y204459D01*
X164043Y114173D02*
Y110893D01*
X164699Y110237D01*
X166011D01*
X166667Y110893D01*
Y114173D01*
X169947Y110237D02*
Y114173D01*
X167979Y112205D01*
X170603D01*
X164043Y76771D02*
Y73491D01*
X164699Y72835D01*
X166011D01*
X166667Y73491D01*
Y76771D01*
X167979Y76115D02*
X168635Y76771D01*
X169947D01*
X170603Y76115D01*
Y75459D01*
X169947Y74803D01*
X169291D01*
X169947D01*
X170603Y74147D01*
Y73491D01*
X169947Y72835D01*
X168635D01*
X167979Y73491D01*
X198909Y99936D02*
Y96657D01*
X199565Y96001D01*
X200877D01*
X201533Y96657D01*
Y99936D01*
X205469Y96001D02*
X202845D01*
X205469Y98624D01*
Y99280D01*
X204813Y99936D01*
X203501D01*
X202845Y99280D01*
X230017Y182044D02*
X229361Y182700D01*
X228049D01*
X227394Y182044D01*
Y181388D01*
X228049Y180732D01*
X229361D01*
X230017Y180076D01*
Y179420D01*
X229361Y178764D01*
X228049D01*
X227394Y179420D01*
X233953Y178764D02*
X231329D01*
X233953Y181388D01*
Y182044D01*
X233297Y182700D01*
X231985D01*
X231329Y182044D01*
X230279Y203599D02*
X229624Y204255D01*
X228312D01*
X227656Y203599D01*
Y202943D01*
X228312Y202287D01*
X229624D01*
X230279Y201631D01*
Y200975D01*
X229624Y200320D01*
X228312D01*
X227656Y200975D01*
X231592Y200320D02*
X232903D01*
X232247D01*
Y204255D01*
X231592Y203599D01*
X223427Y67914D02*
Y71850D01*
X225395D01*
X226051Y71194D01*
Y69882D01*
X225395Y69226D01*
X223427D01*
X224739D02*
X226051Y67914D01*
X227362D02*
X228674D01*
X228018D01*
Y71850D01*
X227362Y71194D01*
X233266Y67914D02*
X230642D01*
X233266Y70538D01*
Y71194D01*
X232610Y71850D01*
X231298D01*
X230642Y71194D01*
X153216Y67914D02*
Y71850D01*
X155184D01*
X155840Y71194D01*
Y69882D01*
X155184Y69226D01*
X153216D01*
X154528D02*
X155840Y67914D01*
X157152Y68570D02*
X157808Y67914D01*
X159120D01*
X159776Y68570D01*
Y71194D01*
X159120Y71850D01*
X157808D01*
X157152Y71194D01*
Y70538D01*
X157808Y69882D01*
X159776D01*
X180053Y79133D02*
X178741D01*
X179397D01*
Y75853D01*
X178741Y75197D01*
X178085D01*
X177429Y75853D01*
X181365Y78477D02*
X182021Y79133D01*
X183333D01*
X183988Y78477D01*
Y77821D01*
X183333Y77165D01*
X182676D01*
X183333D01*
X183988Y76509D01*
Y75853D01*
X183333Y75197D01*
X182021D01*
X181365Y75853D01*
X145539Y167322D02*
Y163386D01*
X147507D01*
X148163Y164042D01*
Y166666D01*
X147507Y167322D01*
X145539D01*
X152099Y163386D02*
X149475D01*
X152099Y166010D01*
Y166666D01*
X151443Y167322D01*
X150131D01*
X149475Y166666D01*
X145408Y178346D02*
Y174410D01*
X147376D01*
X148031Y175066D01*
Y177690D01*
X147376Y178346D01*
X145408D01*
X149343Y174410D02*
X150655D01*
X149999D01*
Y178346D01*
X149343Y177690D01*
M02*
