G04*
G04 #@! TF.GenerationSoftware,Altium Limited,Altium Designer,25.8.1 (18)*
G04*
G04 Layer_Color=8421504*
%FSLAX25Y25*%
%MOIN*%
G70*
G04*
G04 #@! TF.SameCoordinates,47D8EFF9-3140-4044-9253-19D122A8EBA5*
G04*
G04*
G04 #@! TF.FilePolarity,Positive*
G04*
G01*
G75*
%ADD16R,0.03740X0.02362*%
%ADD17R,0.03937X0.07087*%
%ADD18R,0.03937X0.03740*%
%ADD19R,0.03740X0.03937*%
%ADD20R,0.03400X0.01200*%
%ADD21R,0.01200X0.03400*%
%ADD22C,0.00945*%
%ADD23R,0.02362X0.03543*%
%ADD24R,0.05315X0.07087*%
%ADD25R,0.05906X0.05906*%
%ADD26R,0.02362X0.04528*%
%ADD27R,0.03543X0.03740*%
%ADD28R,0.01181X0.04528*%
D16*
X151083Y118110D02*
D03*
X161909Y121850D02*
D03*
Y114370D02*
D03*
Y80905D02*
D03*
Y88386D02*
D03*
X151083Y84646D02*
D03*
D17*
X195845Y141732D02*
D03*
X186024D02*
D03*
D18*
X195866Y113189D02*
D03*
X180118Y205709D02*
D03*
X234252Y160433D02*
D03*
X229331Y149606D02*
D03*
X201772Y113189D02*
D03*
X181102D02*
D03*
X165291Y171433D02*
D03*
Y181276D02*
D03*
X188976Y174213D02*
D03*
X146653Y188976D02*
D03*
X152559Y128937D02*
D03*
X158465Y101378D02*
D03*
X152559Y95472D02*
D03*
X158465Y107283D02*
D03*
X222441Y160433D02*
D03*
Y182087D02*
D03*
X216535D02*
D03*
X223425Y149606D02*
D03*
X223425Y143701D02*
D03*
X149606Y146653D02*
D03*
Y152559D02*
D03*
X194882Y174213D02*
D03*
X152559Y188976D02*
D03*
X158465Y95472D02*
D03*
X174213Y205709D02*
D03*
X155512Y152559D02*
D03*
X187008Y113189D02*
D03*
X228346Y160433D02*
D03*
X216535D02*
D03*
X155512Y146653D02*
D03*
X229331Y143701D02*
D03*
X159386Y171433D02*
D03*
Y181276D02*
D03*
X158465Y128937D02*
D03*
X152559Y101378D02*
D03*
Y107283D02*
D03*
D19*
X195866Y107283D02*
D03*
X175921Y88953D02*
D03*
X201772Y107283D02*
D03*
X181102D02*
D03*
X180118Y187992D02*
D03*
X202756Y188976D02*
D03*
X207024Y89346D02*
D03*
X195866Y128937D02*
D03*
X187008D02*
D03*
X181102Y140748D02*
D03*
X169291Y157480D02*
D03*
X201772Y140748D02*
D03*
X175197Y157480D02*
D03*
X181102Y131890D02*
D03*
X201772D02*
D03*
X164370Y107283D02*
D03*
X187008Y134843D02*
D03*
X180118Y182087D02*
D03*
X181102Y146653D02*
D03*
X169291Y151575D02*
D03*
X201772Y146653D02*
D03*
X175197Y151575D02*
D03*
X181102Y125984D02*
D03*
X201772D02*
D03*
X164370Y101378D02*
D03*
X187008Y107283D02*
D03*
X195866Y134843D02*
D03*
X175921Y83047D02*
D03*
X223425Y64961D02*
D03*
Y59055D02*
D03*
X159449Y64961D02*
D03*
Y59055D02*
D03*
X201772Y101378D02*
D03*
X181102D02*
D03*
X195866D02*
D03*
X187008D02*
D03*
X202756Y183071D02*
D03*
X207024Y83441D02*
D03*
D20*
X196929Y188939D02*
D03*
X186929Y187039D02*
D03*
Y183039D02*
D03*
X196929Y181139D02*
D03*
X186929Y185039D02*
D03*
X196929Y187039D02*
D03*
Y183039D02*
D03*
Y185039D02*
D03*
X186929Y188939D02*
D03*
Y181139D02*
D03*
D21*
X191929Y190039D02*
D03*
X189929Y180039D02*
D03*
X193929Y190039D02*
D03*
X189929D02*
D03*
X191929Y180039D02*
D03*
X193929D02*
D03*
D22*
X148819Y195079D02*
D03*
X150394D02*
D03*
Y196653D02*
D03*
X148819D02*
D03*
D23*
X191929Y82087D02*
D03*
X188189D02*
D03*
X195669D02*
D03*
Y91142D02*
D03*
X191929D02*
D03*
X188189D02*
D03*
D24*
X233563Y191929D02*
D03*
X217224D02*
D03*
X233563Y170276D02*
D03*
X217224D02*
D03*
D25*
X211735Y66869D02*
D03*
Y51396D02*
D03*
X171421Y66869D02*
D03*
Y51396D02*
D03*
D26*
X204176Y69132D02*
D03*
X178980D02*
D03*
X201027D02*
D03*
X182129D02*
D03*
D27*
X146492Y171433D02*
D03*
Y181276D02*
D03*
X152594Y171433D02*
D03*
Y181276D02*
D03*
D28*
X192562Y69132D02*
D03*
X188625D02*
D03*
X194531D02*
D03*
X190594D02*
D03*
X184688D02*
D03*
X198468D02*
D03*
X196499D02*
D03*
X186657D02*
D03*
M02*
