G04*
G04 #@! TF.GenerationSoftware,Altium Limited,Altium Designer,26.1.1 (7)*
G04*
G04 Layer_Color=65535*
%FSLAX25Y25*%
%MOIN*%
G70*
G04*
G04 #@! TF.SameCoordinates,2C92732F-79F3-4126-9C79-97B6404CCAC7*
G04*
G04*
G04 #@! TF.FilePolarity,Positive*
G04*
G01*
G75*
%ADD10C,0.00984*%
%ADD11C,0.00394*%
%ADD12C,0.00787*%
%ADD13C,0.00500*%
%ADD14C,0.00600*%
%ADD15C,0.00602*%
D10*
X150886Y102559D02*
G03*
X150886Y102559I-492J0D01*
G01*
X199606Y188681D02*
G03*
X199606Y188681I-492J0D01*
G01*
X185335Y82087D02*
G03*
X185335Y82087I-492J0D01*
G01*
D11*
X155398Y178570D02*
G03*
X155398Y178570I-197J0D01*
G01*
Y168728D02*
G03*
X155398Y168728I-197J0D01*
G01*
X178980Y73550D02*
G03*
X178980Y73156I0J-197D01*
G01*
D02*
G03*
X178980Y73550I0J197D01*
G01*
D12*
X227854Y139764D02*
G03*
X227854Y139764I-394J0D01*
G01*
X153543Y101575D02*
X157480D01*
X153543Y89370D02*
X157480D01*
X153543D02*
Y101575D01*
X157480Y89370D02*
Y101575D01*
X189664Y145177D02*
X192026D01*
X189664Y138287D02*
X192026D01*
X186024Y84842D02*
X188976D01*
X194882D02*
X197835D01*
X186024D02*
Y88386D01*
X197835Y84842D02*
Y88386D01*
X188976Y84842D02*
X194882D01*
X186024Y88386D02*
X197835D01*
X209176Y57026D02*
Y60963D01*
Y40172D02*
Y47183D01*
X173979Y40172D02*
X209176D01*
X173979D02*
Y47183D01*
Y57026D02*
Y60963D01*
D13*
X217520Y198031D02*
X233268D01*
X217520Y186614D02*
X233268D01*
X217520D02*
Y187520D01*
X233268Y197126D02*
Y198031D01*
Y186614D02*
Y187520D01*
X217520Y197126D02*
Y198031D01*
Y175079D02*
Y175984D01*
Y164567D02*
Y165472D01*
Y164567D02*
X233268D01*
Y175079D02*
Y175984D01*
Y164567D02*
Y165472D01*
X217520Y175984D02*
X233268D01*
X214075Y77953D02*
X236713D01*
Y136614D01*
X214075D02*
X236713D01*
X214075Y77953D02*
Y136614D01*
D14*
X193284Y187313D02*
X196364D01*
X183164D02*
Y188409D01*
Y198513D02*
X186243D01*
X196364Y197418D02*
Y198513D01*
Y187313D02*
Y188409D01*
X183164Y187313D02*
X186243D01*
X183164Y197418D02*
Y198513D01*
X193284D02*
X196364D01*
D15*
X144674Y131367D02*
X147953D01*
X148609Y132023D01*
Y133334D01*
X147953Y133990D01*
X144674D01*
Y135302D02*
X148609D01*
X147297Y136614D01*
X148609Y137926D01*
X144674D01*
Y139238D02*
X148609D01*
Y141206D01*
X147953Y141862D01*
X147297D01*
X146641Y141206D01*
Y139238D01*
Y141206D01*
X145985Y141862D01*
X145329D01*
X144674Y141206D01*
Y139238D01*
X150842Y119559D02*
X154778D01*
Y121527D01*
X154122Y122183D01*
X151498D01*
X150842Y121527D01*
Y119559D01*
X154778Y125463D02*
Y124151D01*
X154122Y123495D01*
X152810D01*
X152154Y124151D01*
Y125463D01*
X152810Y126119D01*
X153466D01*
Y123495D01*
X152154Y127431D02*
X154778Y128743D01*
X152154Y130055D01*
X155434Y131367D02*
Y133990D01*
X150842Y135302D02*
X154778D01*
Y137270D01*
X154122Y137926D01*
X153466D01*
X152810Y137270D01*
Y135302D01*
Y137270D01*
X152154Y137926D01*
X151498D01*
X150842Y137270D01*
Y135302D01*
X154778Y139894D02*
Y141206D01*
X154122Y141862D01*
X152810D01*
X152154Y141206D01*
Y139894D01*
X152810Y139238D01*
X154122D01*
X154778Y139894D01*
X152154Y143830D02*
Y145142D01*
X152810Y145798D01*
X154778D01*
Y143830D01*
X154122Y143174D01*
X153466Y143830D01*
Y145798D01*
X152154Y147109D02*
X154778D01*
X153466D01*
X152810Y147766D01*
X152154Y148421D01*
Y149077D01*
X150842Y153669D02*
X154778D01*
Y151701D01*
X154122Y151045D01*
X152810D01*
X152154Y151701D01*
Y153669D01*
X157667Y128087D02*
X160290D01*
X161602Y129399D01*
X160290Y130711D01*
X157667D01*
X161602Y135958D02*
Y137270D01*
Y136614D01*
X157667D01*
X158323Y135958D01*
X161602Y139238D02*
X160946D01*
Y139894D01*
X161602D01*
Y139238D01*
X158323Y142518D02*
X157667Y143174D01*
Y144486D01*
X158323Y145142D01*
X160946D01*
X161602Y144486D01*
Y143174D01*
X160946Y142518D01*
X158323D01*
X218375Y199815D02*
Y203751D01*
X220999Y199815D01*
Y203751D01*
X222311Y199815D02*
Y203751D01*
X224279D01*
X224935Y203095D01*
Y201783D01*
X224279Y201127D01*
X222311D01*
X223623D02*
X224935Y199815D01*
X228870Y203095D02*
X228214Y203751D01*
X226903D01*
X226247Y203095D01*
Y202439D01*
X226903Y201783D01*
X228214D01*
X228870Y201127D01*
Y200471D01*
X228214Y199815D01*
X226903D01*
X226247Y200471D01*
X230182Y203751D02*
X232806D01*
X231494D01*
Y199815D01*
X218375Y156900D02*
Y152965D01*
X220343D01*
X220999Y153621D01*
Y154277D01*
X220343Y154932D01*
X218375D01*
X220343D01*
X220999Y155588D01*
Y156244D01*
X220343Y156900D01*
X218375D01*
X224279D02*
X222967D01*
X222311Y156244D01*
Y153621D01*
X222967Y152965D01*
X224279D01*
X224935Y153621D01*
Y156244D01*
X224279Y156900D01*
X228214D02*
X226903D01*
X226247Y156244D01*
Y153621D01*
X226903Y152965D01*
X228214D01*
X228870Y153621D01*
Y156244D01*
X228214Y156900D01*
X230182D02*
X232806D01*
X231494D01*
Y152965D01*
X210051Y87643D02*
X212675D01*
X211363Y88955D02*
Y86331D01*
X210051Y96567D02*
X212675D01*
X206115Y128751D02*
X208739D01*
X207427D01*
Y124815D01*
X210051Y128751D02*
X212675Y124815D01*
Y128751D02*
X210051Y124815D01*
X206115Y115366D02*
Y119302D01*
X208083D01*
X208739Y118646D01*
Y117334D01*
X208083Y116678D01*
X206115D01*
X207427D02*
X208739Y115366D01*
X210051Y119302D02*
X212675Y115366D01*
Y119302D02*
X210051Y115366D01*
X208739Y108410D02*
X208083Y109066D01*
X206771D01*
X206115Y108410D01*
Y105786D01*
X206771Y105130D01*
X208083D01*
X208739Y105786D01*
X210051Y109066D02*
Y105130D01*
Y106442D01*
X212675Y109066D01*
X210707Y107098D01*
X212675Y105130D01*
X177823Y184055D02*
Y180775D01*
X178479Y180119D01*
X179790D01*
X180446Y180775D01*
Y184055D01*
X183726Y180119D02*
Y184055D01*
X181758Y182087D01*
X184382D01*
X214698Y149999D02*
X213387D01*
X214042D01*
Y146720D01*
X213387Y146064D01*
X212731D01*
X212074Y146720D01*
X217978Y146064D02*
Y149999D01*
X216010Y148031D01*
X218634D01*
X188231Y151519D02*
X190854Y147583D01*
Y151519D02*
X188231Y147583D01*
X192166D02*
X193478D01*
X192822D01*
Y151519D01*
X192166Y150863D01*
X198492Y97637D02*
Y94357D01*
X199148Y93701D01*
X200460D01*
X201116Y94357D01*
Y97637D01*
X205051Y93701D02*
X202428D01*
X205051Y96325D01*
Y96981D01*
X204396Y97637D01*
X203084D01*
X202428Y96981D01*
X223427Y67914D02*
Y71850D01*
X225395D01*
X226051Y71194D01*
Y69882D01*
X225395Y69226D01*
X223427D01*
X224739D02*
X226051Y67914D01*
X227362D02*
X228674D01*
X228018D01*
Y71850D01*
X227362Y71194D01*
X233266Y67914D02*
X230642D01*
X233266Y70538D01*
Y71194D01*
X232610Y71850D01*
X231298D01*
X230642Y71194D01*
X153216Y67914D02*
Y71850D01*
X155184D01*
X155840Y71194D01*
Y69882D01*
X155184Y69226D01*
X153216D01*
X154528D02*
X155840Y67914D01*
X157152Y68570D02*
X157808Y67914D01*
X159120D01*
X159776Y68570D01*
Y71194D01*
X159120Y71850D01*
X157808D01*
X157152Y71194D01*
Y70538D01*
X157808Y69882D01*
X159776D01*
X167454Y75984D02*
X166142D01*
X166798D01*
Y72704D01*
X166142Y72048D01*
X165486D01*
X164831Y72704D01*
X168766Y75328D02*
X169422Y75984D01*
X170734D01*
X171390Y75328D01*
Y74672D01*
X170734Y74016D01*
X170078D01*
X170734D01*
X171390Y73360D01*
Y72704D01*
X170734Y72048D01*
X169422D01*
X168766Y72704D01*
X143964Y167322D02*
Y163386D01*
X145932D01*
X146588Y164042D01*
Y166666D01*
X145932Y167322D01*
X143964D01*
X150524Y163386D02*
X147900D01*
X150524Y166010D01*
Y166666D01*
X149868Y167322D01*
X148556D01*
X147900Y166666D01*
X143439Y178346D02*
Y174410D01*
X145407D01*
X146063Y175066D01*
Y177690D01*
X145407Y178346D01*
X143439D01*
X147375Y174410D02*
X148687D01*
X148031D01*
Y178346D01*
X147375Y177690D01*
M02*
