G04*
G04 #@! TF.GenerationSoftware,Altium Limited,Altium Designer,26.1.1 (7)*
G04*
G04 Layer_Color=128*
%FSLAX25Y25*%
%MOIN*%
G70*
G04*
G04 #@! TF.SameCoordinates,21E4D09F-D184-4A1B-8AE9-C821449E0F92*
G04*
G04*
G04 #@! TF.FilePolarity,Positive*
G04*
G01*
G75*
%ADD43R,0.05807X0.01181*%
%ADD44R,0.01181X0.05807*%
%ADD45R,0.02913X0.10984*%
%ADD46R,0.09646X0.03937*%
%ADD47R,0.03937X0.09646*%
D43*
X174870Y140945D02*
D03*
X208240Y125197D02*
D03*
X174870Y146850D02*
D03*
Y142913D02*
D03*
Y131102D02*
D03*
Y144882D02*
D03*
X208240Y127165D02*
D03*
X174870D02*
D03*
Y133071D02*
D03*
Y129134D02*
D03*
X208240Y140945D02*
D03*
Y137008D02*
D03*
X174870Y135039D02*
D03*
X208240Y142913D02*
D03*
Y135039D02*
D03*
X174870Y125197D02*
D03*
Y137008D02*
D03*
X208240Y146850D02*
D03*
Y138976D02*
D03*
Y133071D02*
D03*
Y131102D02*
D03*
X174870Y138976D02*
D03*
X208240Y144882D02*
D03*
Y129134D02*
D03*
D44*
X182697Y152709D02*
D03*
X194508D02*
D03*
X180728D02*
D03*
Y119339D02*
D03*
X190571Y152709D02*
D03*
X182697Y119339D02*
D03*
X196476Y152709D02*
D03*
X198445D02*
D03*
X188602D02*
D03*
X194508Y119339D02*
D03*
X190571D02*
D03*
X184665D02*
D03*
X192539Y152709D02*
D03*
X202382D02*
D03*
X200413Y119339D02*
D03*
X188602D02*
D03*
X184665Y152709D02*
D03*
X192539Y119339D02*
D03*
X198445D02*
D03*
X186634D02*
D03*
Y152709D02*
D03*
X200413D02*
D03*
X202382Y119339D02*
D03*
X196476D02*
D03*
D45*
X201319Y74953D02*
D03*
X191319D02*
D03*
X196319D02*
D03*
X176319D02*
D03*
X201319Y90976D02*
D03*
X181319D02*
D03*
X176319D02*
D03*
X196319D02*
D03*
X186319D02*
D03*
X191319D02*
D03*
X206319D02*
D03*
X181319Y74953D02*
D03*
X186319D02*
D03*
X206319D02*
D03*
D46*
X215098Y205079D02*
D03*
X165532Y188543D02*
D03*
X215098Y177520D02*
D03*
X165532Y210591D02*
D03*
Y216102D02*
D03*
Y199567D02*
D03*
Y177520D02*
D03*
Y183031D02*
D03*
Y205079D02*
D03*
X215098Y210591D02*
D03*
X165532Y194055D02*
D03*
X215098Y183031D02*
D03*
Y188543D02*
D03*
Y194055D02*
D03*
Y199567D02*
D03*
Y216102D02*
D03*
D47*
X171024Y168484D02*
D03*
X176535D02*
D03*
X182047D02*
D03*
X187559D02*
D03*
X193071D02*
D03*
X198583D02*
D03*
X204095D02*
D03*
X209606D02*
D03*
M02*
