G04*
G04 #@! TF.GenerationSoftware,Altium Limited,Altium Designer,25.8.1 (18)*
G04*
G04 Layer_Physical_Order=6*
G04 Layer_Color=16711680*
%FSLAX25Y25*%
%MOIN*%
G70*
G04*
G04 #@! TF.SameCoordinates,47D8EFF9-3140-4044-9253-19D122A8EBA5*
G04*
G04*
G04 #@! TF.FilePolarity,Positive*
G04*
G01*
G75*
%ADD31C,0.05394*%
%ADD32C,0.05937*%
%ADD33R,0.05394X0.05394*%
%ADD35R,0.05937X0.05937*%
%ADD36C,0.01280*%
%ADD37C,0.01772*%
%ADD38C,0.01181*%
%ADD39C,0.01968*%
%ADD42C,0.14173*%
%ADD44R,0.09646X0.03937*%
%ADD45R,0.01181X0.05807*%
%ADD46R,0.05807X0.01181*%
%ADD47R,0.03937X0.09646*%
%ADD48R,0.02913X0.10984*%
%ADD49C,0.00591*%
G36*
X251953Y46472D02*
X128755D01*
Y221638D01*
X251953D01*
Y46472D01*
D02*
G37*
%LPC*%
G36*
X170704Y218421D02*
X165707D01*
Y216277D01*
X170704D01*
Y218421D01*
D02*
G37*
G36*
X165357D02*
X160359D01*
Y216277D01*
X165357D01*
Y218421D01*
D02*
G37*
G36*
X220271D02*
X209926D01*
Y213784D01*
X220271D01*
Y218421D01*
D02*
G37*
G36*
X170704Y215927D02*
X165707D01*
Y213784D01*
X170704D01*
Y215927D01*
D02*
G37*
G36*
X165357D02*
X160359D01*
Y213784D01*
X165357D01*
Y215927D01*
D02*
G37*
G36*
X170704Y212909D02*
X165707D01*
Y210766D01*
X170704D01*
Y212909D01*
D02*
G37*
G36*
X165357D02*
X160359D01*
Y210766D01*
X165357D01*
Y212909D01*
D02*
G37*
G36*
Y210416D02*
X160359D01*
Y209452D01*
X160009Y209222D01*
X159639Y209375D01*
X159012D01*
X158605Y209206D01*
X154697D01*
X154176Y209103D01*
X153735Y208808D01*
X148483Y203556D01*
X148188Y203115D01*
X148084Y202594D01*
Y182394D01*
X147734Y182248D01*
X147546Y182437D01*
X146967Y182677D01*
X146340D01*
X145762Y182437D01*
X145318Y181994D01*
X145079Y181416D01*
Y180789D01*
X145318Y180210D01*
X145762Y179767D01*
X146340Y179528D01*
X146967D01*
X147546Y179767D01*
X147734Y179956D01*
X148084Y179811D01*
Y179218D01*
X148054Y179187D01*
X147759Y178746D01*
X147655Y178225D01*
Y176105D01*
X147759Y175585D01*
X148054Y175143D01*
X148246Y174951D01*
Y172376D01*
X147896Y172245D01*
X147546Y172595D01*
X146967Y172835D01*
X146340D01*
X145762Y172595D01*
X145318Y172152D01*
X145079Y171573D01*
Y170947D01*
X145318Y170368D01*
X145762Y169925D01*
X146340Y169685D01*
X146967D01*
X147546Y169925D01*
X147896Y170275D01*
X148246Y170144D01*
Y137894D01*
X148349Y137373D01*
X148644Y136932D01*
X156988Y128588D01*
Y128525D01*
X157228Y127946D01*
X157671Y127504D01*
X158250Y127264D01*
X158876D01*
X159455Y127504D01*
X159898Y127946D01*
X160138Y128525D01*
Y129152D01*
X159898Y129731D01*
X159455Y130174D01*
X159105Y130318D01*
X150967Y138457D01*
Y175334D01*
X151245Y175577D01*
X151250Y175578D01*
X151600Y175400D01*
Y139764D01*
X151673Y139397D01*
X151881Y139086D01*
X164479Y126487D01*
X164790Y126279D01*
X165157Y126206D01*
X171295D01*
X171616Y126137D01*
X171616Y125856D01*
Y124256D01*
X173911D01*
Y118378D01*
X173675Y118271D01*
X173561Y118259D01*
X170192Y121628D01*
X169881Y121836D01*
X169514Y121909D01*
X168677D01*
X168658Y121955D01*
X168215Y122398D01*
X167636Y122638D01*
X167010D01*
X166431Y122398D01*
X165988Y121955D01*
X165748Y121376D01*
Y120750D01*
X165988Y120171D01*
X166431Y119728D01*
X167010Y119488D01*
X167636D01*
X168215Y119728D01*
X168478Y119991D01*
X169117D01*
X171951Y117157D01*
Y114174D01*
X171654Y114093D01*
X171601Y114091D01*
X171168Y114524D01*
X170589Y114764D01*
X169962D01*
X169384Y114524D01*
X168940Y114081D01*
X168701Y113502D01*
Y112876D01*
X168940Y112297D01*
X169317Y111921D01*
Y100412D01*
X168613Y99708D01*
X168405Y99397D01*
X168332Y99030D01*
Y87795D01*
X168405Y87428D01*
X168613Y87117D01*
X169191Y86539D01*
X169193Y86531D01*
X169401Y86220D01*
X174487Y81134D01*
X174512Y80795D01*
X174512D01*
Y69111D01*
X178126D01*
Y80795D01*
X176584D01*
Y81352D01*
X176512Y81718D01*
X176304Y82030D01*
X170966Y87367D01*
X170965Y87375D01*
X170757Y87686D01*
X170250Y88192D01*
Y98633D01*
X170954Y99336D01*
X171162Y99648D01*
X171235Y100015D01*
Y111921D01*
X171601Y112287D01*
X171654Y112285D01*
X171951Y112204D01*
Y108586D01*
X172024Y108219D01*
X172232Y107908D01*
X175360Y104780D01*
Y96819D01*
X174512D01*
Y85134D01*
X178126D01*
Y96819D01*
X177278D01*
Y105177D01*
X177205Y105544D01*
X176997Y105855D01*
X173869Y108983D01*
Y109629D01*
X174105Y109736D01*
X174219Y109748D01*
X180315Y103653D01*
X180626Y103445D01*
X180993Y103372D01*
X189673D01*
X191737Y101308D01*
X191580Y100970D01*
X191037Y100744D01*
X190594Y100302D01*
X190354Y99723D01*
Y99096D01*
X190594Y98517D01*
X191037Y98074D01*
X191616Y97835D01*
X192242D01*
X192821Y98074D01*
X193264Y98517D01*
X193489Y99060D01*
X193827Y99217D01*
X195360Y97685D01*
Y96819D01*
X194512D01*
Y85134D01*
X198126D01*
Y96819D01*
X197278D01*
Y98082D01*
X197205Y98449D01*
X196997Y98760D01*
X190748Y105009D01*
X190437Y105217D01*
X190070Y105290D01*
X181390D01*
X176080Y110600D01*
X176273Y110870D01*
X176852Y110630D01*
X177384D01*
X178456Y109558D01*
X178767Y109350D01*
X179134Y109277D01*
X191756D01*
X192123Y109350D01*
X192434Y109558D01*
X194050Y111174D01*
X194257Y111485D01*
X194330Y111852D01*
Y112003D01*
X194680Y112148D01*
X194974Y111854D01*
X195553Y111614D01*
X196179D01*
X196758Y111854D01*
X197136Y112232D01*
X197442Y112151D01*
X197486Y112124D01*
Y106673D01*
X197559Y106306D01*
X197767Y105995D01*
X200109Y103653D01*
X200420Y103445D01*
X200787Y103372D01*
X206409D01*
X206785Y102996D01*
X207364Y102756D01*
X207990D01*
X208569Y102996D01*
X209012Y103439D01*
X209252Y104017D01*
Y104644D01*
X209012Y105223D01*
X208569Y105666D01*
X207990Y105905D01*
X207364D01*
X206785Y105666D01*
X206409Y105290D01*
X201185D01*
X199404Y107071D01*
Y110673D01*
X199675Y110782D01*
X199754Y110788D01*
X200984Y109558D01*
X201295Y109350D01*
X201662Y109277D01*
X206409D01*
X206785Y108901D01*
X207364Y108661D01*
X207990D01*
X208569Y108901D01*
X209012Y109344D01*
X209252Y109923D01*
Y110549D01*
X209012Y111128D01*
X208569Y111571D01*
X207990Y111811D01*
X207364D01*
X206785Y111571D01*
X206409Y111195D01*
X202059D01*
X201372Y111882D01*
Y115764D01*
X201441Y116085D01*
X201722Y116085D01*
X203322D01*
Y118380D01*
X206269D01*
X206342Y118202D01*
X206785Y117759D01*
X207364Y117520D01*
X207990D01*
X208569Y117759D01*
X209012Y118202D01*
X209252Y118781D01*
Y119408D01*
X209012Y119986D01*
X208569Y120430D01*
X207990Y120669D01*
X207364D01*
X206785Y120430D01*
X206653Y120298D01*
X203322D01*
Y122592D01*
X201704D01*
X201441Y122592D01*
X201091Y122592D01*
X199473Y122592D01*
X199123Y122592D01*
X197504Y122592D01*
X197154Y122592D01*
X195536D01*
X195467Y122914D01*
Y123245D01*
X195648Y123425D01*
X196179D01*
X196758Y123665D01*
X197201Y124108D01*
X197441Y124687D01*
Y125313D01*
X197201Y125892D01*
X196758Y126335D01*
X196179Y126575D01*
X195553D01*
X194974Y126335D01*
X194531Y125892D01*
X194291Y125313D01*
Y124781D01*
X193927Y124417D01*
X193577Y124555D01*
Y126389D01*
X193504Y126756D01*
X193296Y127067D01*
X185138Y135225D01*
Y135631D01*
X184898Y136210D01*
X184455Y136653D01*
X183876Y136893D01*
X183250D01*
X182968Y136776D01*
X182677Y136971D01*
Y137124D01*
X182437Y137703D01*
X181994Y138146D01*
X181416Y138386D01*
X180789D01*
X180210Y138146D01*
X180031Y137967D01*
X178445D01*
X178124Y138036D01*
X178124Y138317D01*
Y139917D01*
X178124D01*
Y140004D01*
X178124D01*
Y141623D01*
X178124Y141885D01*
X178124Y142235D01*
X178124Y143854D01*
X178124Y144204D01*
Y144707D01*
X174870D01*
Y145057D01*
X178124D01*
X178124Y145822D01*
X178445Y145891D01*
X179713D01*
X179767Y145762D01*
X180210Y145318D01*
X180789Y145079D01*
X181416D01*
X181994Y145318D01*
X182437Y145762D01*
X182677Y146340D01*
Y146967D01*
X182437Y147546D01*
X181994Y147989D01*
X181416Y148228D01*
X180789D01*
X180210Y147989D01*
X180031Y147809D01*
X174870D01*
X174777Y147791D01*
X171617D01*
X171617Y147791D01*
Y147791D01*
X171616Y147791D01*
X171295Y147861D01*
X170971Y148185D01*
X170392Y148425D01*
X169765D01*
X169187Y148185D01*
X168744Y147742D01*
X168504Y147164D01*
Y146733D01*
X168154Y146588D01*
X166426Y148316D01*
Y151404D01*
X166689Y151667D01*
X166929Y152246D01*
Y152872D01*
X166689Y153451D01*
X166246Y153894D01*
X165668Y154134D01*
X165041D01*
X164462Y153894D01*
X164019Y153451D01*
X163779Y152872D01*
Y152246D01*
X164019Y151667D01*
X164462Y151224D01*
X164508Y151205D01*
Y147918D01*
X164581Y147552D01*
X164673Y147415D01*
X164401Y147191D01*
X164368Y147224D01*
X164057Y147432D01*
X163759Y147491D01*
X163737Y147546D01*
X163294Y147989D01*
X162715Y148228D01*
X162088D01*
X161510Y147989D01*
X161066Y147546D01*
X160827Y146967D01*
Y146340D01*
X161066Y145762D01*
X161337Y145492D01*
X161138Y145195D01*
X160943Y145276D01*
X160317D01*
X159774Y145051D01*
X159424Y145179D01*
Y180902D01*
X160009Y181487D01*
X160359Y181462D01*
Y180713D01*
X170704D01*
Y185350D01*
X160359D01*
Y183423D01*
X159629D01*
X159262Y183350D01*
X158951Y183142D01*
X157805Y181996D01*
X157726Y182002D01*
X157455Y182111D01*
Y184052D01*
X160009Y186605D01*
X160359Y186581D01*
Y186225D01*
X170704D01*
Y190862D01*
X160359D01*
Y188541D01*
X159629D01*
X159262Y188468D01*
X158951Y188260D01*
X155836Y185145D01*
X155757Y185151D01*
X155487Y185261D01*
Y186020D01*
X156584Y187117D01*
X156791Y187428D01*
X156865Y187795D01*
Y190154D01*
X159632Y192922D01*
X160359D01*
Y191737D01*
X170704D01*
Y196374D01*
X160359D01*
Y194840D01*
X159235D01*
X158868Y194767D01*
X158557Y194559D01*
X155227Y191229D01*
X155019Y190918D01*
X154946Y190551D01*
Y188192D01*
X153849Y187095D01*
X153642Y186784D01*
X153569Y186417D01*
Y177638D01*
X153219Y177438D01*
X153150Y177479D01*
X152910Y178057D01*
X152467Y178500D01*
X151888Y178740D01*
X151262D01*
X151155Y178696D01*
X150805Y178930D01*
Y188181D01*
X151155Y188250D01*
X151224Y188084D01*
X151667Y187641D01*
X152246Y187402D01*
X152872D01*
X153451Y187641D01*
X153894Y188084D01*
X154134Y188663D01*
Y189290D01*
X153894Y189868D01*
X153451Y190311D01*
X152872Y190551D01*
X152246D01*
X151667Y190311D01*
X151224Y189868D01*
X151155Y189702D01*
X150805Y189772D01*
Y202031D01*
X155260Y206486D01*
X158413D01*
X158434Y206465D01*
X159012Y206226D01*
X159639D01*
X160009Y206379D01*
X160359Y206149D01*
Y202760D01*
X170704D01*
Y207397D01*
X160960D01*
X160900Y207487D01*
Y208114D01*
X161006Y208272D01*
X165357D01*
Y210416D01*
D02*
G37*
G36*
X220271Y212909D02*
X209926D01*
Y210702D01*
X209736D01*
X209484Y210652D01*
X209271Y210509D01*
X191447Y192685D01*
X190847D01*
X190595Y192635D01*
X190381Y192493D01*
X185558Y187670D01*
X185416Y187457D01*
X185366Y187205D01*
Y185031D01*
X185016Y184962D01*
X184936Y185154D01*
X184493Y185598D01*
X183914Y185837D01*
X183288D01*
X182709Y185598D01*
X182266Y185154D01*
X182026Y184576D01*
Y183949D01*
X182266Y183370D01*
X182709Y182927D01*
X183288Y182688D01*
X183914D01*
X184493Y182927D01*
X184936Y183370D01*
X185016Y183563D01*
X185366Y183494D01*
Y174925D01*
X184480Y174040D01*
X184337Y173826D01*
X184304Y173657D01*
X179729D01*
Y163311D01*
X183598D01*
X183668Y162961D01*
X183163Y162752D01*
X182720Y162309D01*
X182480Y161731D01*
Y161104D01*
X182499Y161058D01*
X182019Y160577D01*
X181811Y160266D01*
X181738Y159899D01*
Y156284D01*
X181669Y155962D01*
X181388Y155962D01*
X179788D01*
Y152801D01*
X179769Y152709D01*
Y152534D01*
X176465D01*
X176089Y152910D01*
X175510Y153150D01*
X174884D01*
X174305Y152910D01*
X173929Y152534D01*
X170560D01*
X170183Y152910D01*
X169605Y153150D01*
X168978D01*
X168399Y152910D01*
X167956Y152467D01*
X167717Y151888D01*
Y151262D01*
X167956Y150683D01*
X168399Y150240D01*
X168978Y150000D01*
X169605D01*
X170183Y150240D01*
X170560Y150616D01*
X173929D01*
X174305Y150240D01*
X174884Y150000D01*
X175510D01*
X176089Y150240D01*
X176465Y150616D01*
X179788D01*
Y149455D01*
X181406D01*
X181669Y149455D01*
X182019Y149455D01*
X183637Y149455D01*
X183706Y149134D01*
Y142266D01*
X183779Y141899D01*
X183987Y141588D01*
X184468Y141107D01*
X184449Y141061D01*
Y140435D01*
X184689Y139856D01*
X185132Y139413D01*
X185710Y139173D01*
X186337D01*
X186916Y139413D01*
X187359Y139856D01*
X187598Y140435D01*
Y141061D01*
X187359Y141640D01*
X186916Y142083D01*
X186337Y142323D01*
X185965D01*
X185624Y142663D01*
Y144750D01*
X185895Y144860D01*
X185974Y144866D01*
X189786Y141054D01*
X190097Y140846D01*
X190464Y140773D01*
X194577D01*
X194953Y140397D01*
X195532Y140157D01*
X196158D01*
X196737Y140397D01*
X197180Y140840D01*
X197420Y141419D01*
Y142045D01*
X197180Y142624D01*
X196737Y143067D01*
X196158Y143307D01*
X195532D01*
X194953Y143067D01*
X194577Y142691D01*
X190861D01*
X187593Y145959D01*
Y149134D01*
X187662Y149455D01*
X187943Y149455D01*
X189543D01*
Y149455D01*
X189630D01*
Y149455D01*
X191249D01*
X191511Y149455D01*
X191861Y149455D01*
X193480Y149455D01*
X193549Y149134D01*
Y148330D01*
X193622Y147963D01*
X193830Y147652D01*
X195632Y145850D01*
X195943Y145642D01*
X196310Y145569D01*
X198898D01*
X199265Y145642D01*
X199344Y145695D01*
X200503D01*
X200880Y145318D01*
X201458Y145079D01*
X202085D01*
X202664Y145318D01*
X203107Y145762D01*
X203346Y146340D01*
Y146967D01*
X203107Y147546D01*
X202664Y147989D01*
X202085Y148228D01*
X201458D01*
X200880Y147989D01*
X200503Y147613D01*
X199024D01*
X198657Y147539D01*
X198578Y147487D01*
X196707D01*
X195467Y148727D01*
Y149134D01*
X195536Y149455D01*
X195817Y149455D01*
X196301D01*
Y152709D01*
Y155962D01*
X195536D01*
X195186Y155962D01*
X194117D01*
X193972Y156312D01*
X194248Y156588D01*
X194488Y157167D01*
Y157794D01*
X194248Y158372D01*
X193805Y158815D01*
X193227Y159055D01*
X192600D01*
X192021Y158815D01*
X191578Y158372D01*
X191339Y157794D01*
Y157167D01*
X191578Y156588D01*
X191580Y156586D01*
Y156284D01*
X191511Y155962D01*
X191078Y155962D01*
X190831Y156210D01*
Y163311D01*
X195389D01*
Y173311D01*
X195553Y173622D01*
X195739Y173622D01*
X196179Y173622D01*
X196264Y173299D01*
Y163311D01*
X200901D01*
Y173657D01*
X197048D01*
X196904Y174007D01*
X197201Y174305D01*
X197441Y174884D01*
Y175510D01*
X197201Y176089D01*
X196758Y176532D01*
X196179Y176772D01*
X195553D01*
X194974Y176532D01*
X194531Y176089D01*
X194291Y175510D01*
Y174884D01*
X194531Y174305D01*
X194829Y174007D01*
X194684Y173657D01*
X190831D01*
Y187932D01*
X195245Y192346D01*
X195388Y192560D01*
X195393Y192587D01*
X196193Y193386D01*
X196220Y193392D01*
X196433Y193534D01*
X207320Y204421D01*
X209926D01*
Y202760D01*
X220271D01*
Y207397D01*
X209926D01*
Y205737D01*
X207047D01*
X206796Y205687D01*
X206598Y205975D01*
X209602Y208980D01*
X209926Y208846D01*
Y208272D01*
X220271D01*
Y212909D01*
D02*
G37*
G36*
X170704Y210416D02*
X165707D01*
Y208272D01*
X170704D01*
Y210416D01*
D02*
G37*
G36*
X173542Y203346D02*
X172915D01*
X172336Y203107D01*
X171893Y202664D01*
X171653Y202085D01*
Y201458D01*
X171893Y200880D01*
X172336Y200437D01*
X172915Y200197D01*
X173542D01*
X174120Y200437D01*
X174563Y200880D01*
X174803Y201458D01*
Y202085D01*
X174563Y202664D01*
X174120Y203107D01*
X173542Y203346D01*
D02*
G37*
G36*
X170704Y201885D02*
X165707D01*
Y199742D01*
X170704D01*
Y201885D01*
D02*
G37*
G36*
X165357D02*
X160359D01*
Y199742D01*
X165357D01*
Y201885D01*
D02*
G37*
G36*
X220271D02*
X209926D01*
Y197248D01*
X220271D01*
Y201885D01*
D02*
G37*
G36*
X170704Y199392D02*
X165707D01*
Y197248D01*
X170704D01*
Y199392D01*
D02*
G37*
G36*
X165357D02*
X160359D01*
Y197248D01*
X165357D01*
Y199392D01*
D02*
G37*
G36*
X177479Y198425D02*
X176852D01*
X176273Y198185D01*
X175830Y197742D01*
X175591Y197164D01*
Y196537D01*
X175830Y195958D01*
X176273Y195515D01*
X176852Y195276D01*
X177479D01*
X178057Y195515D01*
X178500Y195958D01*
X178740Y196537D01*
Y197164D01*
X178500Y197742D01*
X178057Y198185D01*
X177479Y198425D01*
D02*
G37*
G36*
X220271Y196374D02*
X209926D01*
Y194857D01*
X208945D01*
X208569Y195233D01*
X207990Y195472D01*
X207364D01*
X206785Y195233D01*
X206342Y194790D01*
X206102Y194211D01*
Y193584D01*
X206342Y193006D01*
X206785Y192563D01*
X207364Y192323D01*
X207990D01*
X208569Y192563D01*
X208945Y192939D01*
X209926D01*
Y191737D01*
X220271D01*
Y196374D01*
D02*
G37*
G36*
X245696Y195000D02*
X245470D01*
Y192128D01*
X248342D01*
Y192354D01*
X248134Y193129D01*
X247733Y193824D01*
X247166Y194391D01*
X246471Y194792D01*
X245696Y195000D01*
D02*
G37*
G36*
X135696D02*
X135470D01*
Y192128D01*
X138342D01*
Y192354D01*
X138135Y193129D01*
X137733Y193824D01*
X137166Y194391D01*
X136471Y194792D01*
X135696Y195000D01*
D02*
G37*
G36*
X245120D02*
X244894D01*
X244119Y194792D01*
X243425Y194391D01*
X242857Y193824D01*
X242456Y193129D01*
X242248Y192354D01*
Y192128D01*
X245120D01*
Y195000D01*
D02*
G37*
G36*
X135120D02*
X134894D01*
X134119Y194792D01*
X133424Y194391D01*
X132857Y193824D01*
X132456Y193129D01*
X132248Y192354D01*
Y192128D01*
X135120D01*
Y195000D01*
D02*
G37*
G36*
X220271Y190862D02*
X209926D01*
Y189502D01*
X208388D01*
X208225Y189470D01*
X207990Y189567D01*
X207364D01*
X206785Y189327D01*
X206342Y188884D01*
X206102Y188305D01*
Y187679D01*
X206342Y187100D01*
X206785Y186657D01*
X207364Y186417D01*
X207990D01*
X208569Y186657D01*
X209012Y187100D01*
X209213Y187584D01*
X209926D01*
Y186225D01*
X220271D01*
Y190862D01*
D02*
G37*
G36*
X248342Y191778D02*
X245470D01*
Y188906D01*
X245696D01*
X246471Y189114D01*
X247166Y189515D01*
X247733Y190082D01*
X248134Y190777D01*
X248342Y191552D01*
Y191778D01*
D02*
G37*
G36*
X245120D02*
X242248D01*
Y191552D01*
X242456Y190777D01*
X242857Y190082D01*
X243425Y189515D01*
X244119Y189114D01*
X244894Y188906D01*
X245120D01*
Y191778D01*
D02*
G37*
G36*
X138342D02*
X135470D01*
Y188906D01*
X135696D01*
X136471Y189114D01*
X137166Y189515D01*
X137733Y190082D01*
X138135Y190777D01*
X138342Y191552D01*
Y191778D01*
D02*
G37*
G36*
X135120D02*
X132248D01*
Y191552D01*
X132456Y190777D01*
X132857Y190082D01*
X133424Y189515D01*
X134119Y189114D01*
X134894Y188906D01*
X135120D01*
Y191778D01*
D02*
G37*
G36*
X220271Y185350D02*
X209926D01*
Y184030D01*
X208945D01*
X208569Y184406D01*
X207990Y184646D01*
X207364D01*
X206785Y184406D01*
X206342Y183963D01*
X206102Y183384D01*
Y182758D01*
X206342Y182179D01*
X206785Y181736D01*
X207364Y181496D01*
X207990D01*
X208569Y181736D01*
X208945Y182112D01*
X209926D01*
Y180713D01*
X220271D01*
Y185350D01*
D02*
G37*
G36*
X174526Y184646D02*
X173899D01*
X173321Y184406D01*
X172878Y183963D01*
X172638Y183384D01*
Y182758D01*
X172878Y182179D01*
X173321Y181736D01*
X173899Y181496D01*
X174526D01*
X175105Y181736D01*
X175548Y182179D01*
X175787Y182758D01*
Y183384D01*
X175548Y183963D01*
X175105Y184406D01*
X174526Y184646D01*
D02*
G37*
G36*
X245696Y185000D02*
X244894D01*
X244119Y184792D01*
X243425Y184391D01*
X242857Y183824D01*
X242456Y183129D01*
X242398Y182912D01*
X235479D01*
X235112Y182839D01*
X234801Y182631D01*
X211396Y159227D01*
X210139D01*
X210011Y159577D01*
X210236Y160120D01*
Y160746D01*
X209997Y161325D01*
X209554Y161768D01*
X208975Y162008D01*
X208348D01*
X207769Y161768D01*
X207326Y161325D01*
X207087Y160746D01*
Y160120D01*
X207312Y159577D01*
X207183Y159227D01*
X202559D01*
X202192Y159154D01*
X201881Y158946D01*
X200380Y157445D01*
X200030Y157589D01*
Y158069D01*
X199790Y158648D01*
X199347Y159091D01*
X198768Y159331D01*
X198142D01*
X197563Y159091D01*
X197120Y158648D01*
X196880Y158069D01*
Y157443D01*
X197120Y156864D01*
X197486Y156498D01*
Y156284D01*
X197417Y155962D01*
X197136Y155962D01*
X196651D01*
Y152709D01*
Y149455D01*
X197417D01*
X197767Y149455D01*
X199385Y149455D01*
X199735Y149455D01*
X201354D01*
Y149455D01*
X201441D01*
Y149455D01*
X203322D01*
Y151750D01*
X222769D01*
X225607Y148911D01*
X225435Y148589D01*
X225394Y148597D01*
X212992D01*
X212625Y148524D01*
X212314Y148316D01*
X211807Y147809D01*
X208240D01*
X208148Y147791D01*
X204987D01*
Y145910D01*
X204987D01*
Y145822D01*
X204987D01*
Y144204D01*
X204987Y143941D01*
X204987Y143591D01*
Y141973D01*
X204987D01*
Y141885D01*
X204987D01*
X204987Y140004D01*
X204665Y139935D01*
X203937D01*
X203570Y139862D01*
X203259Y139655D01*
X201971Y138367D01*
X201925Y138386D01*
X201299D01*
X200720Y138146D01*
X200277Y137703D01*
X200037Y137124D01*
Y136498D01*
X200277Y135919D01*
X200720Y135476D01*
X201299Y135236D01*
X201925D01*
X202504Y135476D01*
X202947Y135919D01*
X203187Y136498D01*
Y136870D01*
X204334Y138017D01*
X204665D01*
X204987Y137948D01*
X204987Y137667D01*
Y136067D01*
X204987D01*
Y135980D01*
X204987D01*
Y134099D01*
X204987D01*
Y134011D01*
X204987D01*
Y132393D01*
X204987Y132130D01*
X204987Y131780D01*
X204987Y130162D01*
X204987Y129812D01*
X204987Y128193D01*
X204987Y127843D01*
Y127340D01*
X208240D01*
X211494D01*
X211494Y128106D01*
X211815Y128175D01*
X212201D01*
X214173Y126203D01*
Y125671D01*
X214413Y125092D01*
X214856Y124649D01*
X215435Y124409D01*
X216061D01*
X216640Y124649D01*
X217083Y125092D01*
X217323Y125671D01*
Y126297D01*
X217083Y126876D01*
X216640Y127319D01*
X216061Y127559D01*
X215529D01*
X213295Y129793D01*
X213301Y129873D01*
X213410Y130143D01*
X214404D01*
X214567Y129980D01*
Y129608D01*
X214807Y129029D01*
X215250Y128586D01*
X215828Y128347D01*
X216455D01*
X217034Y128586D01*
X217477Y129029D01*
X217717Y129608D01*
Y130235D01*
X217477Y130813D01*
X217034Y131256D01*
X216455Y131496D01*
X215828D01*
X215782Y131477D01*
X215497Y131762D01*
X215504Y131841D01*
X215613Y132112D01*
X216925D01*
X216944Y132066D01*
X217387Y131623D01*
X217966Y131383D01*
X218592D01*
X219171Y131623D01*
X219614Y132066D01*
X219854Y132645D01*
Y133271D01*
X219614Y133850D01*
X219390Y134074D01*
X219194Y134317D01*
X219390Y134532D01*
X219629Y134770D01*
X219868Y135349D01*
Y135976D01*
X219629Y136554D01*
X219185Y136997D01*
X219173Y137003D01*
X219105Y137346D01*
X219253Y137494D01*
X219493Y138073D01*
Y138699D01*
X219253Y139278D01*
X218810Y139721D01*
X218601Y139807D01*
X218670Y140157D01*
X218817D01*
X219396Y140397D01*
X219839Y140840D01*
X220079Y141419D01*
Y142045D01*
X219839Y142624D01*
X219396Y143067D01*
X218817Y143307D01*
X218191D01*
X217612Y143067D01*
X217576Y143032D01*
X217035Y143573D01*
X217041Y143652D01*
X217151Y143923D01*
X222336D01*
X222466Y143793D01*
Y136224D01*
X220779Y134536D01*
X220571Y134225D01*
X220498Y133858D01*
Y117126D01*
X220571Y116759D01*
X220779Y116448D01*
X226076Y111151D01*
Y110316D01*
X225423Y109939D01*
X224805Y109321D01*
X224368Y108564D01*
X224142Y107720D01*
Y106847D01*
X224368Y106003D01*
X224805Y105246D01*
X225423Y104628D01*
X226180Y104191D01*
X227024Y103965D01*
X227898D01*
X228742Y104191D01*
X229498Y104628D01*
X230116Y105246D01*
X230553Y106003D01*
X230779Y106847D01*
Y107720D01*
X230553Y108564D01*
X230116Y109321D01*
X229498Y109939D01*
X228742Y110376D01*
X227994Y110576D01*
Y111548D01*
X227921Y111915D01*
X227713Y112226D01*
X226300Y113639D01*
X226481Y113953D01*
X227024Y113807D01*
X227898D01*
X228742Y114034D01*
X229498Y114471D01*
X230116Y115088D01*
X230553Y115845D01*
X230779Y116689D01*
Y117563D01*
X230553Y118407D01*
X230116Y119164D01*
X229498Y119781D01*
X228742Y120218D01*
X227898Y120445D01*
X227024D01*
X226180Y120218D01*
X225891Y120052D01*
X224511Y121432D01*
Y123650D01*
X230779D01*
Y130287D01*
X230290D01*
Y142223D01*
X230640Y142351D01*
X231183Y142126D01*
X231809D01*
X232388Y142366D01*
X232831Y142809D01*
X233071Y143387D01*
Y144014D01*
X232831Y144593D01*
X232388Y145036D01*
X231809Y145276D01*
X231183D01*
X230640Y145051D01*
X230290Y145179D01*
Y146544D01*
X230217Y146911D01*
X230009Y147222D01*
X223844Y153387D01*
X223533Y153595D01*
X223166Y153668D01*
X203322D01*
Y155962D01*
X202067D01*
X201933Y156286D01*
X202956Y157309D01*
X211793D01*
X212160Y157382D01*
X212472Y157590D01*
X235876Y180994D01*
X242398D01*
X242456Y180777D01*
X242857Y180082D01*
X243425Y179515D01*
X244119Y179114D01*
X244894Y178906D01*
X245696D01*
X246471Y179114D01*
X247166Y179515D01*
X247733Y180082D01*
X248134Y180777D01*
X248342Y181552D01*
Y182354D01*
X248134Y183129D01*
X247733Y183824D01*
X247166Y184391D01*
X246471Y184792D01*
X245696Y185000D01*
D02*
G37*
G36*
X135696D02*
X134894D01*
X134119Y184792D01*
X133424Y184391D01*
X132857Y183824D01*
X132456Y183129D01*
X132248Y182354D01*
Y181552D01*
X132456Y180777D01*
X132857Y180082D01*
X133424Y179515D01*
X134119Y179114D01*
X134894Y178906D01*
X135696D01*
X136471Y179114D01*
X137166Y179515D01*
X137733Y180082D01*
X138135Y180777D01*
X138342Y181552D01*
Y182354D01*
X138135Y183129D01*
X137733Y183824D01*
X137166Y184391D01*
X136471Y184792D01*
X135696Y185000D01*
D02*
G37*
G36*
X220271Y179838D02*
X215273D01*
Y177695D01*
X220271D01*
Y179838D01*
D02*
G37*
G36*
X214923D02*
X209926D01*
Y177695D01*
X214923D01*
Y179838D01*
D02*
G37*
G36*
Y177345D02*
X209926D01*
Y176617D01*
X209602Y176483D01*
X209554Y176532D01*
X208975Y176772D01*
X208348D01*
X207769Y176532D01*
X207326Y176089D01*
X207087Y175510D01*
Y174884D01*
X207326Y174305D01*
X207624Y174007D01*
X207479Y173657D01*
X207288D01*
Y163311D01*
X211925D01*
Y173657D01*
X209844D01*
X209699Y174007D01*
X209997Y174305D01*
X210236Y174884D01*
Y175201D01*
X214923D01*
Y177345D01*
D02*
G37*
G36*
X220271D02*
X215273D01*
Y175201D01*
X220271D01*
Y177345D01*
D02*
G37*
G36*
X170704Y179838D02*
X160359D01*
Y175201D01*
X170704D01*
Y179838D01*
D02*
G37*
G36*
X245696Y175000D02*
X244894D01*
X244119Y174792D01*
X243425Y174391D01*
X242857Y173824D01*
X242456Y173129D01*
X242248Y172354D01*
Y171552D01*
X242456Y170777D01*
X242857Y170082D01*
X243425Y169515D01*
X244119Y169114D01*
X244894Y168906D01*
X245696D01*
X246471Y169114D01*
X247166Y169515D01*
X247733Y170082D01*
X248134Y170777D01*
X248342Y171552D01*
Y172354D01*
X248134Y173129D01*
X247733Y173824D01*
X247166Y174391D01*
X246471Y174792D01*
X245696Y175000D01*
D02*
G37*
G36*
X135696D02*
X134894D01*
X134119Y174792D01*
X133424Y174391D01*
X132857Y173824D01*
X132456Y173129D01*
X132248Y172354D01*
Y171552D01*
X132456Y170777D01*
X132857Y170082D01*
X133424Y169515D01*
X134119Y169114D01*
X134894Y168906D01*
X135696D01*
X136471Y169114D01*
X137166Y169515D01*
X137733Y170082D01*
X138135Y170777D01*
X138342Y171552D01*
Y172354D01*
X138135Y173129D01*
X137733Y173824D01*
X137166Y174391D01*
X136471Y174792D01*
X135696Y175000D01*
D02*
G37*
G36*
X234565Y171850D02*
X233939D01*
X233360Y171611D01*
X232917Y171168D01*
X232677Y170589D01*
Y169962D01*
X232917Y169384D01*
X233360Y168940D01*
X233939Y168701D01*
X234565D01*
X235144Y168940D01*
X235587Y169384D01*
X235827Y169962D01*
Y170589D01*
X235587Y171168D01*
X235144Y171611D01*
X234565Y171850D01*
D02*
G37*
G36*
X173342Y173657D02*
X171199D01*
Y168659D01*
X173342D01*
Y173657D01*
D02*
G37*
G36*
X170849D02*
X168705D01*
Y168659D01*
X170849D01*
Y173657D01*
D02*
G37*
G36*
X206413D02*
X201776D01*
Y163311D01*
X206413D01*
Y173657D01*
D02*
G37*
G36*
X178854D02*
X174217D01*
Y163311D01*
X178854D01*
Y173657D01*
D02*
G37*
G36*
X173342Y168309D02*
X171199D01*
Y163311D01*
X173342D01*
Y168309D01*
D02*
G37*
G36*
X170849D02*
X168705D01*
Y163311D01*
X170849D01*
Y168309D01*
D02*
G37*
G36*
X245696Y165000D02*
X244894D01*
X244119Y164792D01*
X243425Y164391D01*
X242857Y163824D01*
X242456Y163129D01*
X242248Y162354D01*
Y161552D01*
X242456Y160777D01*
X242857Y160082D01*
X243425Y159515D01*
X244119Y159114D01*
X244894Y158906D01*
X245696D01*
X246471Y159114D01*
X247166Y159515D01*
X247733Y160082D01*
X248134Y160777D01*
X248342Y161552D01*
Y162354D01*
X248134Y163129D01*
X247733Y163824D01*
X247166Y164391D01*
X246471Y164792D01*
X245696Y165000D01*
D02*
G37*
G36*
X135696D02*
X134894D01*
X134119Y164792D01*
X133424Y164391D01*
X132857Y163824D01*
X132456Y163129D01*
X132248Y162354D01*
Y161552D01*
X132456Y160777D01*
X132857Y160082D01*
X133424Y159515D01*
X134119Y159114D01*
X134894Y158906D01*
X135696D01*
X136471Y159114D01*
X137166Y159515D01*
X137733Y160082D01*
X138135Y160777D01*
X138342Y161552D01*
Y162354D01*
X138135Y163129D01*
X137733Y163824D01*
X137166Y164391D01*
X136471Y164792D01*
X135696Y165000D01*
D02*
G37*
G36*
X145786Y154331D02*
X145159D01*
X144580Y154091D01*
X144137Y153648D01*
X143898Y153069D01*
Y152443D01*
X144137Y151864D01*
X144580Y151421D01*
X145159Y151181D01*
X145786D01*
X146364Y151421D01*
X146808Y151864D01*
X147047Y152443D01*
Y153069D01*
X146808Y153648D01*
X146364Y154091D01*
X145786Y154331D01*
D02*
G37*
G36*
X245696Y155000D02*
X244894D01*
X244119Y154792D01*
X243425Y154391D01*
X242857Y153824D01*
X242456Y153129D01*
X242248Y152354D01*
Y151552D01*
X242456Y150777D01*
X242857Y150082D01*
X243425Y149515D01*
X244119Y149114D01*
X244894Y148906D01*
X245696D01*
X246471Y149114D01*
X247166Y149515D01*
X247733Y150082D01*
X248134Y150777D01*
X248342Y151552D01*
Y152354D01*
X248134Y153129D01*
X247733Y153824D01*
X247166Y154391D01*
X246471Y154792D01*
X245696Y155000D01*
D02*
G37*
G36*
X135696D02*
X134894D01*
X134119Y154792D01*
X133424Y154391D01*
X132857Y153824D01*
X132456Y153129D01*
X132248Y152354D01*
Y151552D01*
X132456Y150777D01*
X132857Y150082D01*
X133424Y149515D01*
X134119Y149114D01*
X134894Y148906D01*
X135696D01*
X136471Y149114D01*
X137166Y149515D01*
X137733Y150082D01*
X138135Y150777D01*
X138342Y151552D01*
Y152354D01*
X138135Y153129D01*
X137733Y153824D01*
X137166Y154391D01*
X136471Y154792D01*
X135696Y155000D01*
D02*
G37*
G36*
X145941Y148408D02*
X145314D01*
X144735Y148169D01*
X144292Y147726D01*
X144053Y147147D01*
Y146520D01*
X144292Y145942D01*
X144735Y145499D01*
X145314Y145259D01*
X145941D01*
X146519Y145499D01*
X146962Y145942D01*
X147202Y146520D01*
Y147147D01*
X146962Y147726D01*
X146519Y148169D01*
X145941Y148408D01*
D02*
G37*
G36*
X245696Y145000D02*
X244894D01*
X244119Y144792D01*
X243425Y144391D01*
X242857Y143824D01*
X242456Y143129D01*
X242248Y142354D01*
Y141552D01*
X242456Y140777D01*
X242857Y140082D01*
X243425Y139515D01*
X244119Y139114D01*
X244894Y138906D01*
X245696D01*
X246471Y139114D01*
X247166Y139515D01*
X247733Y140082D01*
X248134Y140777D01*
X248342Y141552D01*
Y142354D01*
X248134Y143129D01*
X247733Y143824D01*
X247166Y144391D01*
X246471Y144792D01*
X245696Y145000D01*
D02*
G37*
G36*
X135696D02*
X134894D01*
X134119Y144792D01*
X133424Y144391D01*
X132857Y143824D01*
X132456Y143129D01*
X132248Y142354D01*
Y141552D01*
X132456Y140777D01*
X132857Y140082D01*
X133424Y139515D01*
X134119Y139114D01*
X134894Y138906D01*
X135696D01*
X136471Y139114D01*
X137166Y139515D01*
X137733Y140082D01*
X138135Y140777D01*
X138342Y141552D01*
Y142354D01*
X138135Y143129D01*
X137733Y143824D01*
X137166Y144391D01*
X136471Y144792D01*
X135696Y145000D01*
D02*
G37*
G36*
X245696Y135000D02*
X244894D01*
X244119Y134792D01*
X243425Y134391D01*
X242857Y133824D01*
X242456Y133129D01*
X242248Y132354D01*
Y131552D01*
X242456Y130777D01*
X242857Y130082D01*
X243425Y129515D01*
X244119Y129114D01*
X244894Y128906D01*
X245696D01*
X246471Y129114D01*
X247166Y129515D01*
X247733Y130082D01*
X248134Y130777D01*
X248342Y131552D01*
Y132354D01*
X248134Y133129D01*
X247733Y133824D01*
X247166Y134391D01*
X246471Y134792D01*
X245696Y135000D01*
D02*
G37*
G36*
X135696D02*
X134894D01*
X134119Y134792D01*
X133424Y134391D01*
X132857Y133824D01*
X132456Y133129D01*
X132248Y132354D01*
Y131552D01*
X132456Y130777D01*
X132857Y130082D01*
X133424Y129515D01*
X134119Y129114D01*
X134894Y128906D01*
X135696D01*
X136471Y129114D01*
X137166Y129515D01*
X137733Y130082D01*
X138135Y130777D01*
X138342Y131552D01*
Y132354D01*
X138135Y133129D01*
X137733Y133824D01*
X137166Y134391D01*
X136471Y134792D01*
X135696Y135000D01*
D02*
G37*
G36*
X202085Y127559D02*
X201458D01*
X200880Y127319D01*
X200437Y126876D01*
X200197Y126297D01*
Y125671D01*
X200437Y125092D01*
X200880Y124649D01*
X201458Y124409D01*
X202085D01*
X202159Y124440D01*
X202352Y124311D01*
X202719Y124238D01*
X208240D01*
X208333Y124256D01*
X211494D01*
Y125875D01*
X211494Y126137D01*
X211494Y126487D01*
Y126990D01*
X208240D01*
X204987D01*
X204987Y126225D01*
X204665Y126156D01*
X203346D01*
Y126297D01*
X203107Y126876D01*
X202664Y127319D01*
X202085Y127559D01*
D02*
G37*
G36*
X245696Y125000D02*
X244894D01*
X244119Y124792D01*
X243425Y124391D01*
X242857Y123824D01*
X242456Y123129D01*
X242248Y122354D01*
Y121552D01*
X242456Y120777D01*
X242857Y120082D01*
X243425Y119515D01*
X244119Y119114D01*
X244894Y118906D01*
X245696D01*
X246471Y119114D01*
X247166Y119515D01*
X247733Y120082D01*
X248134Y120777D01*
X248342Y121552D01*
Y122354D01*
X248134Y123129D01*
X247733Y123824D01*
X247166Y124391D01*
X246471Y124792D01*
X245696Y125000D01*
D02*
G37*
G36*
X135696D02*
X134894D01*
X134119Y124792D01*
X133424Y124391D01*
X132857Y123824D01*
X132456Y123129D01*
X132248Y122354D01*
Y121552D01*
X132456Y120777D01*
X132857Y120082D01*
X133424Y119515D01*
X134119Y119114D01*
X134894Y118906D01*
X135696D01*
X136471Y119114D01*
X137166Y119515D01*
X137733Y120082D01*
X138135Y120777D01*
X138342Y121552D01*
Y122354D01*
X138135Y123129D01*
X137733Y123824D01*
X137166Y124391D01*
X136471Y124792D01*
X135696Y125000D01*
D02*
G37*
G36*
X245696Y115000D02*
X244894D01*
X244119Y114792D01*
X243425Y114391D01*
X242857Y113824D01*
X242456Y113129D01*
X242248Y112354D01*
Y111552D01*
X242456Y110777D01*
X242857Y110082D01*
X243425Y109515D01*
X244119Y109114D01*
X244894Y108906D01*
X245696D01*
X246471Y109114D01*
X247166Y109515D01*
X247733Y110082D01*
X248134Y110777D01*
X248342Y111552D01*
Y112354D01*
X248134Y113129D01*
X247733Y113824D01*
X247166Y114391D01*
X246471Y114792D01*
X245696Y115000D01*
D02*
G37*
G36*
X135696D02*
X134894D01*
X134119Y114792D01*
X133424Y114391D01*
X132857Y113824D01*
X132456Y113129D01*
X132248Y112354D01*
Y111552D01*
X132456Y110777D01*
X132857Y110082D01*
X133424Y109515D01*
X134119Y109114D01*
X134894Y108906D01*
X135696D01*
X136471Y109114D01*
X137166Y109515D01*
X137733Y110082D01*
X138135Y110777D01*
X138342Y111552D01*
Y112354D01*
X138135Y113129D01*
X137733Y113824D01*
X137166Y114391D01*
X136471Y114792D01*
X135696Y115000D01*
D02*
G37*
G36*
X164683Y102953D02*
X164057D01*
X163478Y102713D01*
X163035Y102270D01*
X162795Y101691D01*
Y101065D01*
X163035Y100486D01*
X163478Y100043D01*
X164057Y99803D01*
X164683D01*
X165262Y100043D01*
X165705Y100486D01*
X165945Y101065D01*
Y101691D01*
X165705Y102270D01*
X165262Y102713D01*
X164683Y102953D01*
D02*
G37*
G36*
X245696Y105000D02*
X244894D01*
X244119Y104792D01*
X243425Y104391D01*
X242857Y103824D01*
X242456Y103129D01*
X242248Y102354D01*
Y101552D01*
X242456Y100777D01*
X242857Y100082D01*
X243425Y99515D01*
X244119Y99114D01*
X244894Y98906D01*
X245696D01*
X246471Y99114D01*
X247166Y99515D01*
X247733Y100082D01*
X248134Y100777D01*
X248342Y101552D01*
Y102354D01*
X248134Y103129D01*
X247733Y103824D01*
X247166Y104391D01*
X246471Y104792D01*
X245696Y105000D01*
D02*
G37*
G36*
X135696D02*
X134894D01*
X134119Y104792D01*
X133424Y104391D01*
X132857Y103824D01*
X132456Y103129D01*
X132248Y102354D01*
Y101552D01*
X132456Y100777D01*
X132857Y100082D01*
X133424Y99515D01*
X134119Y99114D01*
X134894Y98906D01*
X135696D01*
X136471Y99114D01*
X137166Y99515D01*
X137733Y100082D01*
X138135Y100777D01*
X138342Y101552D01*
Y102354D01*
X138135Y103129D01*
X137733Y103824D01*
X137166Y104391D01*
X136471Y104792D01*
X135696Y105000D01*
D02*
G37*
G36*
X206022Y100984D02*
X205395D01*
X204817Y100744D01*
X204440Y100368D01*
X203346D01*
X202979Y100295D01*
X202668Y100087D01*
X200807Y98226D01*
X200599Y97915D01*
X200526Y97548D01*
Y96819D01*
X199512D01*
Y85134D01*
X203126D01*
Y96819D01*
X202486D01*
X202462Y97168D01*
X203744Y98450D01*
X204440D01*
X204817Y98074D01*
X205395Y97835D01*
X206022D01*
X206601Y98074D01*
X207044Y98517D01*
X207283Y99096D01*
Y99723D01*
X207044Y100302D01*
X206601Y100744D01*
X206022Y100984D01*
D02*
G37*
G36*
X227898Y100759D02*
X227636D01*
Y97616D01*
X230779D01*
Y97878D01*
X230553Y98722D01*
X230116Y99479D01*
X229498Y100096D01*
X228742Y100533D01*
X227898Y100759D01*
D02*
G37*
G36*
X227286D02*
X227024D01*
X226180Y100533D01*
X225423Y100096D01*
X224805Y99479D01*
X224368Y98722D01*
X224142Y97878D01*
Y97616D01*
X227286D01*
Y100759D01*
D02*
G37*
G36*
X230779Y97266D02*
X227636D01*
Y94122D01*
X227898D01*
X228742Y94349D01*
X229498Y94785D01*
X230116Y95403D01*
X230553Y96160D01*
X230779Y97004D01*
Y97266D01*
D02*
G37*
G36*
X227286D02*
X224142D01*
Y97004D01*
X224368Y96160D01*
X224805Y95403D01*
X225423Y94785D01*
X226180Y94349D01*
X227024Y94122D01*
X227286D01*
Y97266D01*
D02*
G37*
G36*
X158778Y97047D02*
X158151D01*
X157572Y96807D01*
X157130Y96364D01*
X156890Y95786D01*
Y95159D01*
X157130Y94580D01*
X157572Y94137D01*
X158151Y93898D01*
X158778D01*
X159357Y94137D01*
X159800Y94580D01*
X160039Y95159D01*
Y95786D01*
X159800Y96364D01*
X159357Y96807D01*
X158778Y97047D01*
D02*
G37*
G36*
X245696Y95000D02*
X244894D01*
X244119Y94792D01*
X243425Y94391D01*
X242857Y93824D01*
X242456Y93129D01*
X242248Y92354D01*
Y91552D01*
X242456Y90777D01*
X242857Y90082D01*
X243425Y89515D01*
X244119Y89113D01*
X244894Y88906D01*
X245696D01*
X246471Y89113D01*
X247166Y89515D01*
X247733Y90082D01*
X248134Y90777D01*
X248342Y91552D01*
Y92354D01*
X248134Y93129D01*
X247733Y93824D01*
X247166Y94391D01*
X246471Y94792D01*
X245696Y95000D01*
D02*
G37*
G36*
X135696D02*
X134894D01*
X134119Y94792D01*
X133424Y94391D01*
X132857Y93824D01*
X132456Y93129D01*
X132248Y92354D01*
Y91552D01*
X132456Y90777D01*
X132857Y90082D01*
X133424Y89515D01*
X134119Y89113D01*
X134894Y88906D01*
X135696D01*
X136471Y89113D01*
X137166Y89515D01*
X137733Y90082D01*
X138135Y90777D01*
X138342Y91552D01*
Y92354D01*
X138135Y93129D01*
X137733Y93824D01*
X137166Y94391D01*
X136471Y94792D01*
X135696Y95000D01*
D02*
G37*
G36*
X165766Y89961D02*
X165139D01*
X164561Y89721D01*
X164118Y89278D01*
X163878Y88699D01*
Y88073D01*
X164118Y87494D01*
X164561Y87051D01*
X165139Y86811D01*
X165766D01*
X166345Y87051D01*
X166788Y87494D01*
X167028Y88073D01*
Y88699D01*
X166788Y89278D01*
X166345Y89721D01*
X165766Y89961D01*
D02*
G37*
G36*
X162223Y92716D02*
X161596D01*
X161017Y92477D01*
X160574Y92034D01*
X160335Y91455D01*
Y90829D01*
X160574Y90250D01*
X160832Y89992D01*
X160988Y89764D01*
X160832Y89535D01*
X160574Y89278D01*
X160335Y88699D01*
Y88073D01*
X160574Y87494D01*
X161017Y87051D01*
X161596Y86811D01*
X162223D01*
X162802Y87051D01*
X163244Y87494D01*
X163484Y88073D01*
Y88699D01*
X163244Y89278D01*
X162987Y89535D01*
X162831Y89764D01*
X162987Y89992D01*
X163244Y90250D01*
X163484Y90829D01*
Y91455D01*
X163244Y92034D01*
X162802Y92477D01*
X162223Y92716D01*
D02*
G37*
G36*
X193126Y96819D02*
X189512D01*
Y85134D01*
X193126D01*
Y96819D01*
D02*
G37*
G36*
X188126D02*
X184512D01*
Y85134D01*
X188126D01*
Y96819D01*
D02*
G37*
G36*
X183126D02*
X179512D01*
Y85134D01*
X183126D01*
Y96819D01*
D02*
G37*
G36*
X227898Y90917D02*
X227024D01*
X226180Y90691D01*
X225423Y90254D01*
X224805Y89636D01*
X224368Y88879D01*
X224142Y88035D01*
Y87161D01*
X224368Y86317D01*
X224805Y85561D01*
X225423Y84943D01*
X226180Y84506D01*
X227024Y84280D01*
X227898D01*
X228742Y84506D01*
X229498Y84943D01*
X230116Y85561D01*
X230553Y86317D01*
X230779Y87161D01*
Y88035D01*
X230553Y88879D01*
X230116Y89636D01*
X229498Y90254D01*
X228742Y90691D01*
X227898Y90917D01*
D02*
G37*
G36*
X248342Y85000D02*
X245470D01*
Y82128D01*
X248342D01*
Y85000D01*
D02*
G37*
G36*
X138342D02*
X135470D01*
Y82128D01*
X138342D01*
Y85000D01*
D02*
G37*
G36*
X245120D02*
X242248D01*
Y82128D01*
X245120D01*
Y85000D01*
D02*
G37*
G36*
X135120D02*
X132248D01*
Y82128D01*
X135120D01*
Y85000D01*
D02*
G37*
G36*
X208126Y96819D02*
X204512D01*
Y85134D01*
X205444D01*
X205589Y84784D01*
X205358Y84553D01*
X205118Y83975D01*
Y83348D01*
X205358Y82769D01*
X205801Y82326D01*
X206380Y82087D01*
X207006D01*
X207585Y82326D01*
X208028Y82769D01*
X208268Y83348D01*
Y83975D01*
X208028Y84553D01*
X207797Y84784D01*
X207942Y85134D01*
X208126D01*
Y96819D01*
D02*
G37*
G36*
X196046Y84411D02*
X195420D01*
X194841Y84171D01*
X194398Y83728D01*
X194158Y83149D01*
Y82522D01*
X194398Y81944D01*
X194841Y81501D01*
X195420Y81261D01*
X196046D01*
X196625Y81501D01*
X197068Y81944D01*
X197308Y82522D01*
Y83149D01*
X197068Y83728D01*
X196625Y84171D01*
X196046Y84411D01*
D02*
G37*
G36*
X188512Y84333D02*
X187886D01*
X187307Y84094D01*
X186864Y83651D01*
X186624Y83072D01*
Y82445D01*
X186864Y81867D01*
X187307Y81423D01*
X187886Y81184D01*
X188512D01*
X189091Y81423D01*
X189534Y81867D01*
X189774Y82445D01*
Y83072D01*
X189534Y83651D01*
X189091Y84094D01*
X188512Y84333D01*
D02*
G37*
G36*
X248342Y81778D02*
X245470D01*
Y78906D01*
X248342D01*
Y81778D01*
D02*
G37*
G36*
X245120D02*
X242248D01*
Y78906D01*
X245120D01*
Y81778D01*
D02*
G37*
G36*
X138342D02*
X135470D01*
Y78906D01*
X138342D01*
Y81778D01*
D02*
G37*
G36*
X135120D02*
X132248D01*
Y78906D01*
X135120D01*
Y81778D01*
D02*
G37*
G36*
X198126Y80795D02*
X196494D01*
Y75128D01*
X198126D01*
Y80795D01*
D02*
G37*
G36*
X193126D02*
X191494D01*
Y75128D01*
X193126D01*
Y80795D01*
D02*
G37*
G36*
X196144D02*
X194512D01*
Y75128D01*
X196144D01*
Y80795D01*
D02*
G37*
G36*
X191144D02*
X189512D01*
Y75128D01*
X191144D01*
Y80795D01*
D02*
G37*
G36*
X208126D02*
X204512D01*
Y69111D01*
X208126D01*
Y80795D01*
D02*
G37*
G36*
X203126D02*
X199512D01*
Y69111D01*
X203126D01*
Y73957D01*
X203346Y74490D01*
Y75116D01*
X203126Y75650D01*
Y80795D01*
D02*
G37*
G36*
X198126Y74778D02*
X196494D01*
Y69111D01*
X198126D01*
Y74778D01*
D02*
G37*
G36*
X196144D02*
X194512D01*
Y69111D01*
X196144D01*
Y74778D01*
D02*
G37*
G36*
X193126D02*
X191494D01*
Y69111D01*
X193126D01*
Y74778D01*
D02*
G37*
G36*
X191144D02*
X189512D01*
Y69111D01*
X191144D01*
Y74778D01*
D02*
G37*
G36*
X188126Y80795D02*
X184512D01*
Y69111D01*
X188126D01*
Y80795D01*
D02*
G37*
G36*
X181416Y84252D02*
X180789D01*
X180210Y84012D01*
X179767Y83569D01*
X179528Y82990D01*
Y82364D01*
X179767Y81785D01*
X180210Y81342D01*
X180360Y81280D01*
Y80795D01*
X179512D01*
Y69111D01*
X183126D01*
Y80795D01*
X182278D01*
Y81626D01*
X182437Y81785D01*
X182677Y82364D01*
Y82990D01*
X182437Y83569D01*
X181994Y84012D01*
X181416Y84252D01*
D02*
G37*
G36*
X203406Y67164D02*
X202506D01*
X201674Y66819D01*
X201037Y66182D01*
X200692Y65350D01*
Y64450D01*
X201037Y63618D01*
X201674Y62981D01*
X202506Y62636D01*
X203406D01*
X204238Y62981D01*
X204875Y63618D01*
X205220Y64450D01*
Y65350D01*
X204875Y66182D01*
X204238Y66819D01*
X203406Y67164D01*
D02*
G37*
G36*
X180650D02*
X179750D01*
X178918Y66819D01*
X178281Y66182D01*
X177936Y65350D01*
Y64450D01*
X178281Y63618D01*
X178918Y62981D01*
X179750Y62636D01*
X180650D01*
X181482Y62981D01*
X182119Y63618D01*
X182464Y64450D01*
Y65350D01*
X182119Y66182D01*
X181482Y66819D01*
X180650Y67164D01*
D02*
G37*
G36*
X194801Y63386D02*
X194175D01*
X193596Y63146D01*
X193153Y62703D01*
X192913Y62124D01*
Y61498D01*
X193153Y60919D01*
X193596Y60476D01*
X194175Y60236D01*
X194801D01*
X195380Y60476D01*
X195823Y60919D01*
X196063Y61498D01*
Y62124D01*
X195823Y62703D01*
X195380Y63146D01*
X194801Y63386D01*
D02*
G37*
G36*
X187715D02*
X187088D01*
X186510Y63146D01*
X186066Y62703D01*
X185827Y62124D01*
Y61498D01*
X186066Y60919D01*
X186510Y60476D01*
X187088Y60236D01*
X187715D01*
X188294Y60476D01*
X188737Y60919D01*
X188976Y61498D01*
Y62124D01*
X188737Y62703D01*
X188294Y63146D01*
X187715Y63386D01*
D02*
G37*
G36*
X159762Y60630D02*
X159136D01*
X158557Y60390D01*
X158114Y59947D01*
X157874Y59368D01*
Y58742D01*
X158114Y58163D01*
X158557Y57720D01*
X159136Y57480D01*
X159762D01*
X160341Y57720D01*
X160784Y58163D01*
X161024Y58742D01*
Y59368D01*
X160784Y59947D01*
X160341Y60390D01*
X159762Y60630D01*
D02*
G37*
%LPD*%
G36*
X179767Y135919D02*
X180210Y135476D01*
X180789Y135236D01*
X181416D01*
X181697Y135353D01*
X181988Y135158D01*
Y135005D01*
X182228Y134426D01*
X182671Y133983D01*
X183250Y133743D01*
X183876D01*
X183898Y133753D01*
X190726Y126925D01*
X190581Y126575D01*
X190139D01*
X189561Y126335D01*
X189222Y125997D01*
X188884Y126335D01*
X188305Y126575D01*
X187679D01*
X187100Y126335D01*
X186725Y125960D01*
X186516Y125919D01*
X186306Y125960D01*
X185931Y126335D01*
X185353Y126575D01*
X184726D01*
X184147Y126335D01*
X183704Y125892D01*
X183465Y125313D01*
Y124687D01*
X183704Y124108D01*
X184147Y123665D01*
X184726Y123425D01*
X185073D01*
Y122873D01*
X184807Y122592D01*
X183725Y122592D01*
X183375Y122592D01*
X182872D01*
Y119339D01*
Y116085D01*
X183375D01*
X183637Y116085D01*
X183916Y115912D01*
X183987Y115805D01*
X187721Y112071D01*
X188032Y111863D01*
X188399Y111790D01*
X189938D01*
X190183Y111545D01*
X190038Y111195D01*
X179531D01*
X178740Y111986D01*
Y112518D01*
X178500Y113097D01*
X178057Y113540D01*
X177479Y113779D01*
X176852D01*
X176273Y113540D01*
X176179Y113445D01*
X175829Y113591D01*
Y124256D01*
X178124D01*
Y125875D01*
X178124Y126137D01*
X178124Y126487D01*
X178124Y128106D01*
X178124Y128456D01*
X178124Y130074D01*
X178124Y130424D01*
X178124Y132043D01*
X178124Y132393D01*
Y134011D01*
X178124D01*
Y134099D01*
X178124D01*
X178124Y135980D01*
X178445Y136049D01*
X179713D01*
X179767Y135919D01*
D02*
G37*
%LPC*%
G36*
X181416Y127559D02*
X180789D01*
X180210Y127319D01*
X179767Y126876D01*
X179528Y126297D01*
Y125671D01*
X179767Y125092D01*
X179769Y125090D01*
Y119339D01*
X179788Y119246D01*
Y116085D01*
X181406D01*
X181669Y116085D01*
X182019Y116085D01*
X182522D01*
Y119339D01*
Y122592D01*
X181756Y122592D01*
X181687Y122914D01*
Y124522D01*
X181994Y124649D01*
X182437Y125092D01*
X182677Y125671D01*
Y126297D01*
X182437Y126876D01*
X181994Y127319D01*
X181416Y127559D01*
D02*
G37*
%LPD*%
G36*
X192169Y191131D02*
X189708Y188670D01*
X189565Y188456D01*
X189515Y188204D01*
Y173657D01*
X186416D01*
X186282Y173980D01*
X186489Y174188D01*
X186631Y174401D01*
X186681Y174653D01*
Y186932D01*
X191119Y191370D01*
X191719D01*
X191971Y191420D01*
X192169Y191131D01*
D02*
G37*
D31*
X245295Y171953D02*
D03*
X135295Y191953D02*
D03*
X245295D02*
D03*
X135295Y151953D02*
D03*
Y171953D02*
D03*
Y131953D02*
D03*
X245295Y101953D02*
D03*
Y161953D02*
D03*
Y131953D02*
D03*
X135295Y161953D02*
D03*
X245295Y91953D02*
D03*
X135295Y181953D02*
D03*
X245295Y151953D02*
D03*
Y141953D02*
D03*
Y181953D02*
D03*
Y121953D02*
D03*
Y111953D02*
D03*
X135295Y141953D02*
D03*
Y91953D02*
D03*
Y101953D02*
D03*
Y111953D02*
D03*
Y121953D02*
D03*
D32*
X227461Y97441D02*
D03*
Y117126D02*
D03*
Y107283D02*
D03*
Y87598D02*
D03*
D33*
X135295Y81953D02*
D03*
X245295D02*
D03*
D35*
X227461Y126969D02*
D03*
D36*
X202956Y64900D02*
D03*
X180200D02*
D03*
D37*
X195866Y113189D02*
D03*
X213583Y140748D02*
D03*
X217918Y138386D02*
D03*
X165256Y82284D02*
D03*
Y79331D02*
D03*
X234252Y191929D02*
D03*
X222441Y182087D02*
D03*
X202756Y188976D02*
D03*
X196650Y192129D02*
D03*
X234252Y160433D02*
D03*
X217520Y177165D02*
D03*
X222441Y160433D02*
D03*
X229331Y149606D02*
D03*
X201772Y140748D02*
D03*
Y131890D02*
D03*
X190945Y193898D02*
D03*
X184055Y191929D02*
D03*
Y187008D02*
D03*
X195245Y158268D02*
D03*
X187992Y175197D02*
D03*
X187008Y128937D02*
D03*
X212992Y122047D02*
D03*
X210630Y89567D02*
D03*
X213386Y68110D02*
D03*
Y65354D02*
D03*
X212992Y50000D02*
D03*
Y52756D02*
D03*
X210630Y65354D02*
D03*
Y68110D02*
D03*
X210236Y50000D02*
D03*
Y52756D02*
D03*
X205709Y113189D02*
D03*
X201772Y107283D02*
D03*
X195866Y128937D02*
D03*
X191929Y82677D02*
D03*
X180118Y213583D02*
D03*
X175197Y157480D02*
D03*
X173228Y180118D02*
D03*
X171024Y168484D02*
D03*
X181102Y131890D02*
D03*
Y140748D02*
D03*
X165532Y216102D02*
D03*
Y210591D02*
D03*
Y199567D02*
D03*
X146653Y188976D02*
D03*
X165291Y171433D02*
D03*
X169291Y157480D02*
D03*
X152559Y128937D02*
D03*
X181102Y113189D02*
D03*
Y107283D02*
D03*
X172244Y88583D02*
D03*
X172441Y68110D02*
D03*
X172835Y52756D02*
D03*
Y50000D02*
D03*
X172441Y65354D02*
D03*
X169685D02*
D03*
Y68110D02*
D03*
X170079Y50000D02*
D03*
Y52756D02*
D03*
X165354Y114173D02*
D03*
X162402D02*
D03*
X164370Y107283D02*
D03*
X158465Y107283D02*
D03*
Y101378D02*
D03*
X162402Y80709D02*
D03*
X152559Y95472D02*
D03*
X170079Y146850D02*
D03*
X195866Y125000D02*
D03*
X170276Y113189D02*
D03*
X190453Y125000D02*
D03*
X191206Y112749D02*
D03*
X205709Y99410D02*
D03*
X160630Y143701D02*
D03*
X146653Y171260D02*
D03*
X181319Y90976D02*
D03*
X192913Y157480D02*
D03*
X218504Y141732D02*
D03*
X207677Y110236D02*
D03*
X188199Y82759D02*
D03*
X187992Y125000D02*
D03*
X186024Y140748D02*
D03*
X218293Y135662D02*
D03*
X167323Y121063D02*
D03*
X183563Y135318D02*
D03*
X164370Y177165D02*
D03*
X151575D02*
D03*
X165453Y88386D02*
D03*
X161909Y91142D02*
D03*
X145473Y152756D02*
D03*
X145627Y146834D02*
D03*
X158465Y95472D02*
D03*
X161909Y88386D02*
D03*
X169291Y151575D02*
D03*
X175197D02*
D03*
X174213Y183071D02*
D03*
X181102Y125984D02*
D03*
Y146653D02*
D03*
X201772Y74803D02*
D03*
Y125984D02*
D03*
Y146653D02*
D03*
X195866Y175197D02*
D03*
X234252Y170276D02*
D03*
X152559Y188976D02*
D03*
X164370Y101378D02*
D03*
X183601Y184263D02*
D03*
X184055Y161417D02*
D03*
X165532Y205079D02*
D03*
X208661Y175197D02*
D03*
X198455Y157756D02*
D03*
X207677Y104331D02*
D03*
X146653Y181102D02*
D03*
X181102Y136811D02*
D03*
X177165Y196850D02*
D03*
X165354Y152559D02*
D03*
X201612Y136811D02*
D03*
X218279Y132958D02*
D03*
X216142Y129921D02*
D03*
X195733Y82836D02*
D03*
X185039Y125000D02*
D03*
X195845Y141732D02*
D03*
X208661Y160433D02*
D03*
X163386Y143701D02*
D03*
X215748Y125984D02*
D03*
X207677Y119095D02*
D03*
X177165Y112205D02*
D03*
X162402Y146653D02*
D03*
X173228Y201772D02*
D03*
X194488Y61811D02*
D03*
X187402D02*
D03*
X191929Y99410D02*
D03*
X206693Y83661D02*
D03*
X159449Y59055D02*
D03*
X231496Y143701D02*
D03*
X181102Y82677D02*
D03*
X158563Y128839D02*
D03*
X207677Y183071D02*
D03*
Y187992D02*
D03*
Y193898D02*
D03*
X159326Y207800D02*
D03*
D38*
X213423Y140748D02*
X213583D01*
X213226Y140945D02*
X213423Y140748D01*
X208240Y140945D02*
X213226D01*
X217758Y138386D02*
X217918D01*
X208240Y137008D02*
X216380D01*
X217758Y138386D01*
X156496Y184449D02*
X159629Y187582D01*
X164570D01*
X165532Y188543D01*
X156496Y141732D02*
Y184449D01*
Y141732D02*
X167126Y131102D01*
X174870D01*
X195245Y158108D02*
Y158268D01*
Y158108D02*
X196476Y156876D01*
Y152709D02*
Y156876D01*
X211417Y127165D02*
X212992Y125591D01*
Y122047D02*
Y125591D01*
X208240Y127165D02*
X211417D01*
X191929Y82517D02*
Y82677D01*
X196319Y67621D02*
Y74953D01*
X195627Y66929D02*
X196319Y67621D01*
X192154Y66929D02*
X195627D01*
X191319Y81907D02*
X191929Y82517D01*
X191319Y74953D02*
X191462Y74810D01*
X191319Y74953D02*
Y81907D01*
X191462Y67621D02*
X192154Y66929D01*
X191462Y67621D02*
Y74810D01*
X179416Y142434D02*
X181102Y140748D01*
X182697Y114784D02*
Y119339D01*
X177953Y144882D02*
X178714Y144121D01*
Y144121D02*
Y144121D01*
X174870Y144882D02*
X177953D01*
X179416Y142434D02*
Y143419D01*
X178714Y144121D02*
X179416Y143419D01*
X181102Y113189D02*
X182697Y114784D01*
X194508Y119339D02*
Y123642D01*
X195866Y125000D01*
X169291Y87795D02*
X170079Y87008D01*
Y86898D02*
Y87008D01*
X175626Y75646D02*
X176319Y74953D01*
X175626Y75646D02*
Y81352D01*
X170079Y86898D02*
X175626Y81352D01*
X169291Y87795D02*
Y99030D01*
X170276Y100015D02*
Y113189D01*
X169291Y99030D02*
X170276Y100015D01*
X190571Y119339D02*
Y124722D01*
X190453Y124840D02*
X190571Y124722D01*
X190453Y124840D02*
Y125000D01*
X203346Y99410D02*
X205709D01*
X201485Y97548D02*
X203346Y99410D01*
X201319Y90976D02*
X201485Y91143D01*
Y97548D01*
X188399Y112749D02*
X191206D01*
X184665Y116483D02*
Y119339D01*
Y116483D02*
X188399Y112749D01*
X160630Y143541D02*
Y143701D01*
Y143541D02*
X160925Y143246D01*
X168985Y135039D02*
X174870D01*
X160925Y143099D02*
Y143246D01*
Y143099D02*
X168985Y135039D01*
X192539Y152709D02*
Y156947D01*
X192913Y157320D01*
Y157480D01*
X227461Y126969D02*
X229331Y128839D01*
X202382Y152709D02*
X223166D01*
X229331Y146544D01*
Y128839D02*
Y146544D01*
X208240Y142913D02*
X216339D01*
X217407Y141845D02*
X218391D01*
X216339Y142913D02*
X217407Y141845D01*
X218391D02*
X218504Y141732D01*
X201662Y110236D02*
X207677D01*
X200413Y111485D02*
X201662Y110236D01*
X200413Y111485D02*
Y119339D01*
X188000Y123612D02*
X188602Y123010D01*
X188000Y123612D02*
Y124992D01*
X188602Y119339D02*
Y123010D01*
X187992Y125000D02*
X188000Y124992D01*
X184665Y142266D02*
Y152709D01*
Y142266D02*
X186024Y140908D01*
Y140748D02*
Y140908D01*
X217087Y135549D02*
X218180D01*
X208240Y135039D02*
X216577D01*
X218180Y135549D02*
X218293Y135662D01*
X216577Y135039D02*
X217087Y135549D01*
X172910Y108586D02*
Y117554D01*
X169514Y120950D02*
X172910Y117554D01*
Y108586D02*
X176319Y105177D01*
Y90976D02*
Y105177D01*
X167323Y121063D02*
X167436Y120950D01*
X169514D01*
X192539Y119339D02*
Y124014D01*
X192618Y124092D01*
Y126389D01*
X183689Y135318D02*
X192618Y126389D01*
X183563Y135318D02*
X183689D01*
X165157Y127165D02*
X174870D01*
X152559Y139764D02*
X165157Y127165D01*
X152559Y139764D02*
Y176488D01*
X152412D02*
X152559D01*
X151735Y177165D02*
X152412Y176488D01*
X151575Y177165D02*
X151735D01*
X164963Y182464D02*
X165532Y183031D01*
X158465Y142717D02*
Y181299D01*
X159629Y182464D02*
X164963D01*
X158465Y181299D02*
X159629Y182464D01*
X158465Y142717D02*
X168110Y133071D01*
X174870D01*
X180728Y125450D02*
X181102Y125824D01*
X174870Y146850D02*
X180746D01*
X169291Y151575D02*
X175197D01*
X180728D01*
Y119339D02*
Y125450D01*
X181102Y125824D02*
Y125984D01*
X196310Y146528D02*
X198898D01*
X180943Y146653D02*
X181102D01*
X198898Y146528D02*
X199024Y146653D01*
X194508Y148330D02*
X196310Y146528D01*
X199024Y146653D02*
X201772D01*
X201932Y125984D02*
X202719Y125197D01*
X208240D01*
X201772Y125984D02*
X201932D01*
X180728Y151575D02*
Y152709D01*
X180746Y146850D02*
X180943Y146653D01*
X194508Y148330D02*
Y152709D01*
X182697D02*
Y159899D01*
X184055Y161258D01*
Y161417D01*
X198445Y152709D02*
Y157746D01*
X198455Y157756D01*
X198445Y106673D02*
X200787Y104331D01*
X207677D01*
X198445Y106673D02*
Y119339D01*
X196319Y90976D02*
Y98082D01*
X190070Y104331D02*
X196319Y98082D01*
X174870Y110453D02*
Y125197D01*
X180993Y104331D02*
X190070D01*
X174870Y110453D02*
X180993Y104331D01*
X174870Y137008D02*
X180746D01*
X180943Y136811D02*
X181102D01*
X180746Y137008D02*
X180943Y136811D01*
X165467Y147918D02*
Y152446D01*
X170473Y142913D02*
X174870D01*
X165467Y147918D02*
X170473Y142913D01*
X165354Y152559D02*
X165467Y152446D01*
X212205Y146850D02*
X212992Y147638D01*
X208240Y146850D02*
X212205D01*
X212992Y147638D02*
X225394D01*
X223552Y132440D02*
X226378Y135267D01*
X225394Y147638D02*
X226378Y146653D01*
Y135267D02*
Y146653D01*
X223552Y121035D02*
X227461Y117126D01*
X223552Y121035D02*
Y132440D01*
X203937Y138976D02*
X208240D01*
X201772Y136811D02*
X203937Y138976D01*
X201612Y136811D02*
X201772D01*
X208240Y133071D02*
X218166D01*
X218279Y132958D01*
X214801Y131102D02*
X215982Y129921D01*
X208240Y131102D02*
X214801D01*
X215982Y129921D02*
X216142D01*
X186032Y122797D02*
X186634Y122194D01*
X185039Y124840D02*
X186032Y123848D01*
Y122797D02*
Y123848D01*
X186634Y119339D02*
Y122194D01*
X185039Y124840D02*
Y125000D01*
X186634Y145562D02*
Y152709D01*
Y145562D02*
X190464Y141732D01*
X195845D01*
X155905Y190551D02*
X159235Y193881D01*
X155905Y187795D02*
Y190551D01*
X154528Y186417D02*
X155905Y187795D01*
X154528Y140748D02*
Y186417D01*
X159235Y193881D02*
X165357D01*
X165532Y194055D01*
X166142Y129134D02*
X174870D01*
X154528Y140748D02*
X166142Y129134D01*
X168110Y138976D02*
X174870D01*
X163386Y143701D02*
X168110Y138976D01*
X211793Y158268D02*
X235479Y181953D01*
X245295D01*
X200413Y156122D02*
X202559Y158268D01*
X200413Y152709D02*
Y156122D01*
X202559Y158268D02*
X211793D01*
X222733Y144882D02*
X223425Y144190D01*
X208240Y144882D02*
X222733D01*
X223425Y135827D02*
Y144190D01*
X221457Y133858D02*
X223425Y135827D01*
X227035Y107709D02*
X227461Y107283D01*
X221457Y117126D02*
Y133858D01*
Y117126D02*
X227035Y111548D01*
Y107709D02*
Y111548D01*
X212598Y129134D02*
X215748Y125984D01*
Y125984D02*
Y125984D01*
X208240Y129134D02*
X212598D01*
X202382Y119339D02*
X207433D01*
X207677Y119095D01*
X195784Y115354D02*
X196476Y116046D01*
Y119339D01*
X177165Y112205D02*
X179134Y110236D01*
X191756D02*
X193371Y111852D01*
X179134Y110236D02*
X191756D01*
X194063Y115354D02*
X195784D01*
X193371Y111852D02*
Y114662D01*
X194063Y115354D01*
X162402Y146653D02*
X162509Y146546D01*
X169291Y140945D02*
X174870D01*
X162509Y146546D02*
X163690D01*
X169291Y140945D01*
X181319Y74953D02*
Y82301D01*
X181102Y82517D02*
X181319Y82301D01*
X181102Y82517D02*
Y82677D01*
X215059Y183071D02*
X215098Y183031D01*
X207677Y183071D02*
X215059D01*
X207677Y187992D02*
X207837D01*
X208388Y188543D01*
X215098D01*
X207677Y193898D02*
X214941D01*
X215098Y194055D01*
D39*
X158563Y128839D02*
Y128937D01*
X159280Y207846D02*
X159326Y207800D01*
X149606Y137894D02*
Y175515D01*
Y137894D02*
X158563Y128937D01*
X149016Y176105D02*
Y178225D01*
X149445Y178655D01*
X149016Y176105D02*
X149606Y175515D01*
X149445Y202594D02*
X154697Y207846D01*
X149445Y178655D02*
Y202594D01*
X154697Y207846D02*
X159280D01*
D42*
X240945Y209842D02*
D03*
Y58268D02*
D03*
X140945Y209842D02*
D03*
Y58268D02*
D03*
D44*
X215098Y205079D02*
D03*
X165532Y188543D02*
D03*
X215098Y177520D02*
D03*
X165532Y210591D02*
D03*
Y216102D02*
D03*
Y199567D02*
D03*
Y177520D02*
D03*
Y183031D02*
D03*
Y205079D02*
D03*
X215098Y210591D02*
D03*
X165532Y194055D02*
D03*
X215098Y183031D02*
D03*
Y188543D02*
D03*
Y194055D02*
D03*
Y199567D02*
D03*
Y216102D02*
D03*
D45*
X190571Y152709D02*
D03*
X196476D02*
D03*
X182697Y119339D02*
D03*
X194508D02*
D03*
X190571D02*
D03*
X184665D02*
D03*
X192539Y152709D02*
D03*
X202382D02*
D03*
X200413Y119339D02*
D03*
X188602D02*
D03*
X184665Y152709D02*
D03*
X192539Y119339D02*
D03*
X194508Y152709D02*
D03*
X180728D02*
D03*
Y119339D02*
D03*
X182697Y152709D02*
D03*
X198445D02*
D03*
Y119339D02*
D03*
X188602Y152709D02*
D03*
X186634Y119339D02*
D03*
Y152709D02*
D03*
X200413D02*
D03*
X202382Y119339D02*
D03*
X196476D02*
D03*
D46*
X208240Y140945D02*
D03*
Y137008D02*
D03*
X174870Y131102D02*
D03*
X208240Y127165D02*
D03*
X174870Y144882D02*
D03*
Y135039D02*
D03*
X208240Y142913D02*
D03*
Y135039D02*
D03*
X174870Y127165D02*
D03*
Y133071D02*
D03*
X208240Y125197D02*
D03*
X174870Y146850D02*
D03*
Y125197D02*
D03*
Y137008D02*
D03*
Y142913D02*
D03*
X208240Y146850D02*
D03*
Y138976D02*
D03*
Y133071D02*
D03*
Y131102D02*
D03*
X174870Y129134D02*
D03*
Y138976D02*
D03*
X208240Y144882D02*
D03*
Y129134D02*
D03*
X174870Y140945D02*
D03*
D47*
X171024Y168484D02*
D03*
X176535D02*
D03*
X182047D02*
D03*
X187559D02*
D03*
X193071D02*
D03*
X198583D02*
D03*
X204095D02*
D03*
X209606D02*
D03*
D48*
X196319Y74953D02*
D03*
X191319D02*
D03*
X176319D02*
D03*
X201319Y90976D02*
D03*
X181319D02*
D03*
X176319D02*
D03*
X201319Y74953D02*
D03*
X196319Y90976D02*
D03*
X186319D02*
D03*
X191319D02*
D03*
X206319D02*
D03*
X181319Y74953D02*
D03*
X186319D02*
D03*
X206319D02*
D03*
D49*
X195968Y194000D02*
X207047Y205079D01*
X194780Y192904D02*
X195876Y194000D01*
X207047Y205079D02*
X215098D01*
X190173Y155663D02*
Y188204D01*
X194780Y192812D01*
Y192904D01*
X195876Y194000D02*
X195968D01*
X190173Y155663D02*
X190276Y155560D01*
Y153004D02*
Y155560D01*
Y153004D02*
X190571Y152709D01*
X191719Y192028D02*
X209736Y210044D01*
X214552D02*
X215098Y210591D01*
X209736Y210044D02*
X214552D01*
X190847Y192028D02*
X191719D01*
X186024Y174653D02*
Y187205D01*
X190847Y192028D01*
X188602Y152709D02*
Y159737D01*
X184945Y163394D02*
X188602Y159737D01*
X184945Y163394D02*
Y173574D01*
X186024Y174653D01*
M02*
