G04*
G04 #@! TF.GenerationSoftware,Altium Limited,Altium Designer,26.1.1 (7)*
G04*
G04 Layer_Color=8421504*
%FSLAX25Y25*%
%MOIN*%
G70*
G04*
G04 #@! TF.SameCoordinates,21E4D09F-D184-4A1B-8AE9-C821449E0F92*
G04*
G04*
G04 #@! TF.FilePolarity,Positive*
G04*
G01*
G75*
%ADD16R,0.01200X0.02100*%
%ADD17R,0.02100X0.01200*%
%ADD18R,0.03937X0.03740*%
%ADD19R,0.03740X0.03937*%
%ADD20R,0.05315X0.07087*%
%ADD21R,0.03740X0.02362*%
%ADD22R,0.05906X0.05906*%
%ADD23R,0.02362X0.04528*%
%ADD24R,0.02362X0.03543*%
%ADD25R,0.03937X0.07087*%
%ADD26R,0.03543X0.03740*%
%ADD27R,0.01181X0.04528*%
G36*
X195464Y189361D02*
X193364D01*
Y190561D01*
X195464D01*
Y189361D01*
D02*
G37*
D16*
X191732Y189263D02*
D03*
X189764D02*
D03*
X187795D02*
D03*
Y196563D02*
D03*
X189764D02*
D03*
X191732D02*
D03*
D17*
X185114Y189961D02*
D03*
Y191929D02*
D03*
Y193898D02*
D03*
Y195866D02*
D03*
X194414D02*
D03*
Y193898D02*
D03*
Y191929D02*
D03*
D18*
X208071Y182677D02*
D03*
X202165D02*
D03*
X193110Y201575D02*
D03*
X158465Y95472D02*
D03*
X208071Y194488D02*
D03*
X202165D02*
D03*
X208071Y188583D02*
D03*
X202165D02*
D03*
X208071Y200394D02*
D03*
X202165D02*
D03*
X187205Y201575D02*
D03*
X222441Y182480D02*
D03*
Y160433D02*
D03*
X158465Y107283D02*
D03*
X152559Y95472D02*
D03*
X158465Y101378D02*
D03*
X152559Y128937D02*
D03*
X165291Y181276D02*
D03*
Y171433D02*
D03*
X181102Y113189D02*
D03*
X201772D02*
D03*
X229331Y149606D02*
D03*
X234252Y160433D02*
D03*
X180118Y205709D02*
D03*
X174213D02*
D03*
X158465Y128937D02*
D03*
X195866Y113189D02*
D03*
X216535Y182480D02*
D03*
X223425Y149606D02*
D03*
X223425Y143701D02*
D03*
X187008Y113189D02*
D03*
X228346Y160433D02*
D03*
X216535D02*
D03*
X229331Y143701D02*
D03*
X159386Y171433D02*
D03*
Y181276D02*
D03*
X152559Y101378D02*
D03*
Y107283D02*
D03*
D19*
X174016Y189961D02*
D03*
X201772Y146653D02*
D03*
Y125984D02*
D03*
X179921Y189961D02*
D03*
X174016Y195866D02*
D03*
X175197Y151575D02*
D03*
X168110Y195866D02*
D03*
X169291Y151575D02*
D03*
X181102Y146653D02*
D03*
Y125984D02*
D03*
X164370Y101378D02*
D03*
X168110Y189961D02*
D03*
X179921Y195866D02*
D03*
X164370Y107283D02*
D03*
X201772Y131890D02*
D03*
X181102D02*
D03*
X175197Y157480D02*
D03*
X201772Y140748D02*
D03*
X169291Y157480D02*
D03*
X181102Y140748D02*
D03*
X187008Y128937D02*
D03*
X195866D02*
D03*
X207024Y89346D02*
D03*
X181102Y107283D02*
D03*
X201772D02*
D03*
X175921Y88953D02*
D03*
X195866Y107283D02*
D03*
X187008Y134843D02*
D03*
X187008Y107283D02*
D03*
X195866Y134843D02*
D03*
X175921Y83047D02*
D03*
X223425Y64961D02*
D03*
Y59055D02*
D03*
X159449Y64961D02*
D03*
Y59055D02*
D03*
X201772Y101378D02*
D03*
X181102D02*
D03*
X195866D02*
D03*
X187008D02*
D03*
X207024Y83441D02*
D03*
D20*
X233563Y170276D02*
D03*
Y192323D02*
D03*
X217224D02*
D03*
Y170276D02*
D03*
D21*
X161909Y88386D02*
D03*
Y80905D02*
D03*
Y114370D02*
D03*
Y121850D02*
D03*
X151083Y118110D02*
D03*
Y84646D02*
D03*
D22*
X171421Y51396D02*
D03*
Y66869D02*
D03*
X211735Y51396D02*
D03*
Y66869D02*
D03*
D23*
X178980Y69132D02*
D03*
X204176D02*
D03*
X201027D02*
D03*
X182129D02*
D03*
D24*
X191929Y82087D02*
D03*
X188189D02*
D03*
X195669D02*
D03*
Y91142D02*
D03*
X191929D02*
D03*
X188189D02*
D03*
D25*
X195845Y141732D02*
D03*
X186024D02*
D03*
D26*
X146492Y171433D02*
D03*
Y181276D02*
D03*
X152594Y171433D02*
D03*
Y181276D02*
D03*
D27*
X192562Y69132D02*
D03*
X188625D02*
D03*
X194531D02*
D03*
X190594D02*
D03*
X184688D02*
D03*
X198468D02*
D03*
X196499D02*
D03*
X186657D02*
D03*
M02*
