G04*
G04 #@! TF.GenerationSoftware,Altium Limited,Altium Designer,25.8.1 (18)*
G04*
G04 Layer_Physical_Order=5*
G04 Layer_Color=128*
%FSLAX25Y25*%
%MOIN*%
G70*
G04*
G04 #@! TF.SameCoordinates,0E9B16F7-5698-45EC-AEFC-154AF3007A5A*
G04*
G04*
G04 #@! TF.FilePolarity,Negative*
G04*
G01*
G75*
%ADD41C,0.04000*%
G04:AMPARAMS|DCode=42|XSize=70.779mil|YSize=70.779mil|CornerRadius=0mil|HoleSize=0mil|Usage=FLASHONLY|Rotation=0.000|XOffset=0mil|YOffset=0mil|HoleType=Round|Shape=Relief|Width=3.5mil|Gap=3.5mil|Entries=4|*
%AMTHD42*
7,0,0,0.07078,0.06378,0.00350,45*
%
%ADD42THD42*%
%ADD43C,0.04716*%
G04:AMPARAMS|DCode=44|XSize=160.543mil|YSize=160.543mil|CornerRadius=0mil|HoleSize=0mil|Usage=FLASHONLY|Rotation=0.000|XOffset=0mil|YOffset=0mil|HoleType=Round|Shape=Relief|Width=3.5mil|Gap=3.5mil|Entries=4|*
%AMTHD44*
7,0,0,0.16054,0.15354,0.00350,45*
%
%ADD44THD44*%
G04:AMPARAMS|DCode=45|XSize=69.992mil|YSize=69.992mil|CornerRadius=0mil|HoleSize=0mil|Usage=FLASHONLY|Rotation=0.000|XOffset=0mil|YOffset=0mil|HoleType=Round|Shape=Relief|Width=3.5mil|Gap=3.5mil|Entries=4|*
%AMTHD45*
7,0,0,0.06999,0.06299,0.00350,45*
%
%ADD45THD45*%
%ADD46C,0.04637*%
%ADD47C,0.03259*%
%ADD48C,0.01881*%
D41*
X252756Y45669D02*
Y222441D01*
X127953D02*
X252756D01*
X127953Y45669D02*
Y222441D01*
Y45669D02*
X252756D01*
D42*
X245295Y191953D02*
D03*
Y81953D02*
D03*
X135295Y191953D02*
D03*
Y81953D02*
D03*
D43*
X245295Y181953D02*
D03*
Y171953D02*
D03*
Y161953D02*
D03*
Y151953D02*
D03*
Y141953D02*
D03*
Y131953D02*
D03*
Y121953D02*
D03*
Y111953D02*
D03*
Y101953D02*
D03*
Y91953D02*
D03*
X135295Y131953D02*
D03*
Y181953D02*
D03*
Y171953D02*
D03*
Y161953D02*
D03*
Y151953D02*
D03*
Y141953D02*
D03*
Y121953D02*
D03*
Y111953D02*
D03*
Y101953D02*
D03*
Y91953D02*
D03*
D44*
X240945Y209842D02*
D03*
Y58268D02*
D03*
X140945Y209842D02*
D03*
Y58268D02*
D03*
D45*
X227461Y97441D02*
D03*
D46*
Y107283D02*
D03*
Y117126D02*
D03*
Y126969D02*
D03*
Y87598D02*
D03*
D47*
X180200Y64900D02*
D03*
X202956D02*
D03*
D48*
X191206Y112749D02*
D03*
X205709Y99410D02*
D03*
X170276Y113189D02*
D03*
X190453Y125000D02*
D03*
X181319Y90976D02*
D03*
X192913Y157480D02*
D03*
X167323Y121063D02*
D03*
X183563Y135318D02*
D03*
X145473Y152756D02*
D03*
X145627Y146834D02*
D03*
X158465Y95472D02*
D03*
X161909Y92126D02*
D03*
Y88386D02*
D03*
X169291Y151575D02*
D03*
X175197D02*
D03*
X174213Y183071D02*
D03*
X181102Y125984D02*
D03*
Y146653D02*
D03*
X201772Y74803D02*
D03*
Y125984D02*
D03*
Y146653D02*
D03*
X195866Y175197D02*
D03*
X234252Y170276D02*
D03*
X152559Y188976D02*
D03*
X164370Y101378D02*
D03*
X181102Y82677D02*
D03*
X164370Y177165D02*
D03*
X151575D02*
D03*
X165532Y205079D02*
D03*
X208661Y175197D02*
D03*
X198455Y157756D02*
D03*
X158563Y128839D02*
D03*
X207677Y183071D02*
D03*
Y187992D02*
D03*
Y193898D02*
D03*
X159326Y207800D02*
D03*
X170079Y146850D02*
D03*
X215748Y125984D02*
D03*
X216142Y129921D02*
D03*
X218293Y135662D02*
D03*
X217918Y138386D02*
D03*
X218279Y132958D02*
D03*
X194488Y61811D02*
D03*
X187402D02*
D03*
X191929Y99410D02*
D03*
X206693Y83661D02*
D03*
X159449Y59055D02*
D03*
X231496Y143701D02*
D03*
X188199Y82759D02*
D03*
X187992Y125000D02*
D03*
X195733Y82836D02*
D03*
X185039Y125000D02*
D03*
X218504Y141732D02*
D03*
X177165Y112205D02*
D03*
X195866Y125000D02*
D03*
X173228Y201772D02*
D03*
X162402Y146653D02*
D03*
X207677Y119095D02*
D03*
X195845Y141732D02*
D03*
X201612Y136811D02*
D03*
X165354Y152559D02*
D03*
X177165Y196850D02*
D03*
X213583Y140748D02*
D03*
X195866Y113189D02*
D03*
X186024Y140748D02*
D03*
X207677Y110236D02*
D03*
X184055Y161417D02*
D03*
X183601Y184263D02*
D03*
X163386Y143701D02*
D03*
X160630D02*
D03*
X207677Y104331D02*
D03*
X208661Y160433D02*
D03*
X181102Y136811D02*
D03*
X146653Y171260D02*
D03*
Y181102D02*
D03*
M02*
