G04*
G04 #@! TF.GenerationSoftware,Altium Limited,Altium Designer,26.1.1 (7)*
G04*
G04 Layer_Color=16711935*
%FSLAX25Y25*%
%MOIN*%
G70*
G04*
G04 #@! TF.SameCoordinates,2C92732F-79F3-4126-9C79-97B6404CCAC7*
G04*
G04*
G04 #@! TF.FilePolarity,Negative*
G04*
G01*
G75*
%ADD29C,0.05394*%
%ADD30R,0.05394X0.05394*%
%ADD31C,0.18110*%
%ADD32C,0.05937*%
%ADD33R,0.05937X0.05937*%
%ADD34C,0.01280*%
%ADD43R,0.01181X0.05807*%
%ADD44R,0.05807X0.01181*%
%ADD45R,0.02913X0.10984*%
%ADD46R,0.09646X0.03937*%
%ADD47R,0.03937X0.09646*%
D29*
X245295Y91953D02*
D03*
Y101953D02*
D03*
Y111953D02*
D03*
Y121953D02*
D03*
Y131953D02*
D03*
Y141953D02*
D03*
Y151953D02*
D03*
Y161953D02*
D03*
Y171953D02*
D03*
Y181953D02*
D03*
Y191953D02*
D03*
X135295D02*
D03*
Y161953D02*
D03*
Y121953D02*
D03*
Y151953D02*
D03*
Y171953D02*
D03*
Y131953D02*
D03*
Y181953D02*
D03*
Y141953D02*
D03*
Y91953D02*
D03*
Y101953D02*
D03*
Y111953D02*
D03*
D30*
X245295Y81953D02*
D03*
X135295D02*
D03*
D31*
X240945Y209842D02*
D03*
Y58268D02*
D03*
X140945Y209842D02*
D03*
Y58268D02*
D03*
D32*
X227461Y97441D02*
D03*
Y117126D02*
D03*
Y107283D02*
D03*
Y87598D02*
D03*
D33*
Y126969D02*
D03*
D34*
X202956Y64900D02*
D03*
X180200D02*
D03*
D43*
X198445Y119339D02*
D03*
X200413D02*
D03*
X202382D02*
D03*
X194508Y152709D02*
D03*
X180728D02*
D03*
Y119339D02*
D03*
X198445Y152709D02*
D03*
X196476D02*
D03*
X182697Y119339D02*
D03*
Y152709D02*
D03*
X190571D02*
D03*
X188602D02*
D03*
X194508Y119339D02*
D03*
X190571D02*
D03*
X184665D02*
D03*
X192539Y152709D02*
D03*
X202382D02*
D03*
X188602Y119339D02*
D03*
X184665Y152709D02*
D03*
X192539Y119339D02*
D03*
X186634D02*
D03*
Y152709D02*
D03*
X200413D02*
D03*
X196476Y119339D02*
D03*
D44*
X208240Y129134D02*
D03*
Y125197D02*
D03*
X174870Y146850D02*
D03*
X208240Y131102D02*
D03*
Y133071D02*
D03*
Y135039D02*
D03*
Y137008D02*
D03*
Y127165D02*
D03*
X174870Y144882D02*
D03*
Y140945D02*
D03*
Y142913D02*
D03*
Y131102D02*
D03*
Y127165D02*
D03*
Y133071D02*
D03*
Y129134D02*
D03*
X208240Y140945D02*
D03*
X174870Y135039D02*
D03*
X208240Y142913D02*
D03*
X174870Y125197D02*
D03*
Y137008D02*
D03*
X208240Y146850D02*
D03*
Y138976D02*
D03*
X174870D02*
D03*
X208240Y144882D02*
D03*
D45*
X201319Y74953D02*
D03*
X196319D02*
D03*
X191319D02*
D03*
X176319D02*
D03*
X201319Y90976D02*
D03*
X181319D02*
D03*
X176319D02*
D03*
X196319D02*
D03*
X186319D02*
D03*
X191319D02*
D03*
X206319D02*
D03*
X181319Y74953D02*
D03*
X186319D02*
D03*
X206319D02*
D03*
D46*
X165532Y205079D02*
D03*
X215098Y177520D02*
D03*
X165532Y216102D02*
D03*
Y210591D02*
D03*
Y199567D02*
D03*
X215098Y205079D02*
D03*
X165532Y188543D02*
D03*
Y177520D02*
D03*
Y183031D02*
D03*
X215098Y210591D02*
D03*
X165532Y194055D02*
D03*
X215098Y183031D02*
D03*
Y188543D02*
D03*
Y194055D02*
D03*
Y199567D02*
D03*
Y216102D02*
D03*
D47*
X171024Y168484D02*
D03*
X176535D02*
D03*
X182047D02*
D03*
X187559D02*
D03*
X193071D02*
D03*
X198583D02*
D03*
X204095D02*
D03*
X209606D02*
D03*
M02*
