G04*
G04 #@! TF.GenerationSoftware,Altium Limited,Altium Designer,26.1.1 (7)*
G04*
G04 Layer_Physical_Order=1*
G04 Layer_Color=255*
%FSLAX25Y25*%
%MOIN*%
G70*
G04*
G04 #@! TF.SameCoordinates,21E4D09F-D184-4A1B-8AE9-C821449E0F92*
G04*
G04*
G04 #@! TF.FilePolarity,Positive*
G04*
G01*
G75*
%ADD11C,0.00787*%
%ADD16R,0.01200X0.02100*%
%ADD17R,0.02100X0.01200*%
%ADD18R,0.03937X0.03740*%
%ADD19R,0.03740X0.03937*%
%ADD20R,0.05315X0.07087*%
%ADD21R,0.03740X0.02362*%
%ADD22R,0.05906X0.05906*%
%ADD23R,0.02362X0.04528*%
%ADD24R,0.02362X0.03543*%
%ADD25R,0.03937X0.07087*%
%ADD26R,0.03543X0.03740*%
%ADD27R,0.01181X0.04528*%
%ADD29C,0.05394*%
%ADD31R,0.05394X0.05394*%
%ADD32C,0.05937*%
%ADD33R,0.05937X0.05937*%
%ADD34C,0.01280*%
%AMCUSTOMSHAPE35*
4,1,4,-0.01050,-0.00600,0.01050,-0.00600,0.01050,0.00600,-0.01050,0.00600,-0.01050,-0.00600,0.0*%
%ADD35CUSTOMSHAPE35*%

%ADD36C,0.01968*%
%ADD37C,0.01181*%
%ADD38C,0.01500*%
%ADD39C,0.02362*%
%ADD40C,0.14173*%
%ADD41C,0.01772*%
G36*
X251953Y46472D02*
X128755D01*
Y221638D01*
X251953D01*
Y46472D01*
D02*
G37*
%LPC*%
G36*
X214487Y211811D02*
X213860D01*
X213281Y211571D01*
X212838Y211128D01*
X212598Y210549D01*
Y209923D01*
X212838Y209344D01*
X213281Y208901D01*
X213860Y208661D01*
X214487D01*
X215065Y208901D01*
X215508Y209344D01*
X215748Y209923D01*
Y210549D01*
X215508Y211128D01*
X215065Y211571D01*
X214487Y211811D01*
D02*
G37*
G36*
X159639Y209375D02*
X159012D01*
X158434Y209135D01*
X157991Y208692D01*
X157751Y208114D01*
Y207487D01*
X157991Y206908D01*
X158434Y206465D01*
X159012Y206226D01*
X159639D01*
X160218Y206465D01*
X160661Y206908D01*
X160900Y207487D01*
Y208114D01*
X160661Y208692D01*
X160218Y209135D01*
X159639Y209375D01*
D02*
G37*
G36*
X176531Y207929D02*
X171894D01*
Y206038D01*
X166800D01*
X166424Y206414D01*
X165845Y206653D01*
X165218D01*
X164639Y206414D01*
X164197Y205971D01*
X163957Y205392D01*
Y204766D01*
X164197Y204187D01*
X164639Y203744D01*
X165218Y203504D01*
X165845D01*
X166424Y203744D01*
X166800Y204120D01*
X171894D01*
Y203489D01*
X176531D01*
Y207929D01*
D02*
G37*
G36*
X182437D02*
X180293D01*
Y205884D01*
X182437D01*
Y207929D01*
D02*
G37*
G36*
X179943D02*
X177800D01*
Y205884D01*
X179943D01*
Y207929D01*
D02*
G37*
G36*
X214880Y206693D02*
X214254D01*
X213675Y206453D01*
X213232Y206010D01*
X212992Y205431D01*
Y204805D01*
X213232Y204226D01*
X213675Y203783D01*
X214254Y203543D01*
X214880D01*
X215459Y203783D01*
X215902Y204226D01*
X216142Y204805D01*
Y205431D01*
X215902Y206010D01*
X215459Y206453D01*
X214880Y206693D01*
D02*
G37*
G36*
X182437Y205534D02*
X180293D01*
Y203489D01*
X182437D01*
Y205534D01*
D02*
G37*
G36*
X179943D02*
X177800D01*
Y203489D01*
X179943D01*
Y205534D01*
D02*
G37*
G36*
X189523Y203795D02*
X187380D01*
Y201750D01*
X189523D01*
Y203795D01*
D02*
G37*
G36*
X187030D02*
X184886D01*
Y201750D01*
X187030D01*
Y203795D01*
D02*
G37*
G36*
X204484Y202614D02*
X202340D01*
Y200569D01*
X204484D01*
Y202614D01*
D02*
G37*
G36*
X201990D02*
X199847D01*
Y200569D01*
X201990D01*
Y202614D01*
D02*
G37*
G36*
X189523Y201400D02*
X187380D01*
Y199355D01*
X189523D01*
Y201400D01*
D02*
G37*
G36*
X187030D02*
X184886D01*
Y199355D01*
X187030D01*
Y201400D01*
D02*
G37*
G36*
X204484Y200219D02*
X202340D01*
Y198174D01*
X204484D01*
Y200219D01*
D02*
G37*
G36*
X201990D02*
X199847D01*
Y198174D01*
X201990D01*
Y200219D01*
D02*
G37*
G36*
X195429Y203795D02*
X190792D01*
Y199355D01*
X192352D01*
Y198705D01*
X191610Y197963D01*
X190782Y197963D01*
X190432Y197963D01*
X189939D01*
Y196563D01*
Y195163D01*
X190714D01*
X191064Y195163D01*
X192664D01*
X192682Y195163D01*
X192762Y195153D01*
X193014Y194916D01*
Y194848D01*
X193014D01*
Y194073D01*
X194414D01*
Y193723D01*
X193014D01*
Y192948D01*
X193014D01*
Y192879D01*
X193014D01*
Y192104D01*
X194414D01*
Y191754D01*
X193014D01*
Y190979D01*
X193014Y190979D01*
X193013Y190669D01*
X192682Y190663D01*
X192662Y190663D01*
X191064D01*
X190782Y190663D01*
X190432Y190663D01*
X189095D01*
X188814Y190663D01*
Y190663D01*
X188745D01*
Y190663D01*
X186845D01*
Y190663D01*
X186766Y190674D01*
X186514Y190911D01*
Y190979D01*
X186514D01*
Y192879D01*
X186514D01*
Y192948D01*
X186514D01*
Y194848D01*
X186514D01*
Y194916D01*
X186766Y195153D01*
X186845Y195163D01*
X186864Y195163D01*
X187620D01*
Y196563D01*
Y197963D01*
X186845D01*
Y196861D01*
X186514Y196816D01*
X186495Y196816D01*
X183714D01*
Y196391D01*
X183559Y196360D01*
X183313Y196196D01*
X182939Y195822D01*
X182713Y195777D01*
X182491Y195629D01*
X182193Y195742D01*
X182141Y195784D01*
Y198185D01*
X180096D01*
Y195866D01*
Y193548D01*
X182121D01*
Y192279D01*
X177701D01*
Y187744D01*
X177382Y187569D01*
X176236Y188715D01*
Y192279D01*
X171796D01*
Y187975D01*
X171796Y187744D01*
X171478Y187570D01*
X171465Y187580D01*
X170330Y188715D01*
Y192279D01*
X165890D01*
Y190920D01*
X164471D01*
X164104Y190847D01*
X163793Y190639D01*
X163101Y189947D01*
X162894Y189636D01*
X162821Y189269D01*
Y187008D01*
X162894Y186641D01*
X163101Y186330D01*
X164283Y185149D01*
X164594Y184941D01*
X164961Y184868D01*
X166926D01*
X169401Y182393D01*
X169712Y182185D01*
X170079Y182112D01*
X174246D01*
X174409Y181949D01*
Y181577D01*
X174649Y180998D01*
X175092Y180555D01*
X175671Y180315D01*
X176297D01*
X176876Y180555D01*
X177319Y180998D01*
X177559Y181577D01*
Y182203D01*
X177319Y182782D01*
X176876Y183225D01*
X176297Y183465D01*
X175671D01*
X175625Y183446D01*
X175321Y183749D01*
X175010Y183957D01*
X174865Y183986D01*
X174899Y184336D01*
X189425D01*
X189715Y184394D01*
X189961Y184558D01*
X191456Y186053D01*
X191493Y186078D01*
X192259Y186844D01*
X192259Y186844D01*
X192423Y187090D01*
X192481Y187380D01*
X192481Y187380D01*
Y187863D01*
X192682D01*
Y189218D01*
X192942Y189269D01*
X193022Y189270D01*
X193096Y189093D01*
X193364Y188982D01*
X194239D01*
Y189961D01*
X194589D01*
Y188982D01*
X195464D01*
X195695Y188828D01*
Y175631D01*
X183036Y162973D01*
X182990Y162992D01*
X182364D01*
X181785Y162752D01*
X181522Y162489D01*
X138306D01*
X138135Y163129D01*
X137733Y163824D01*
X137166Y164391D01*
X136471Y164792D01*
X135696Y165000D01*
X134894D01*
X134119Y164792D01*
X133424Y164391D01*
X132857Y163824D01*
X132456Y163129D01*
X132248Y162354D01*
Y161552D01*
X132456Y160777D01*
X132857Y160082D01*
X133424Y159515D01*
X134119Y159114D01*
X134894Y158906D01*
X135696D01*
X136471Y159114D01*
X137166Y159515D01*
X137733Y160082D01*
X138016Y160571D01*
X181323D01*
X181342Y160525D01*
X181785Y160082D01*
X182364Y159843D01*
X182990D01*
X183569Y160082D01*
X184012Y160525D01*
X184252Y161104D01*
Y161476D01*
X197332Y174556D01*
X197539Y174867D01*
X197613Y175234D01*
Y195174D01*
X197539Y195541D01*
X197332Y195852D01*
X196649Y196535D01*
X196338Y196743D01*
X195971Y196816D01*
X195814D01*
Y196816D01*
X194459D01*
X194414Y196825D01*
X194369Y196816D01*
X193102D01*
X192918Y197126D01*
X193646Y197855D01*
X193646Y197855D01*
X193811Y198101D01*
X193869Y198391D01*
X193869Y198391D01*
Y199355D01*
X195429D01*
Y203795D01*
D02*
G37*
G36*
X179746Y198185D02*
X177701D01*
Y196041D01*
X179746D01*
Y198185D01*
D02*
G37*
G36*
X188814Y197963D02*
X188464Y197963D01*
X187970D01*
Y196563D01*
Y195163D01*
X188464D01*
X188745Y195163D01*
X189095Y195163D01*
X189589D01*
Y196563D01*
Y197963D01*
X188814D01*
D02*
G37*
G36*
X204484Y196708D02*
X202340D01*
Y194663D01*
X204484D01*
Y196708D01*
D02*
G37*
G36*
X201990D02*
X199847D01*
Y194663D01*
X201990D01*
Y196708D01*
D02*
G37*
G36*
X179746Y195691D02*
X177701D01*
Y193548D01*
X179746D01*
Y195691D01*
D02*
G37*
G36*
X176236Y198185D02*
X171796D01*
Y193548D01*
X176236D01*
Y198185D01*
D02*
G37*
G36*
X170330D02*
X165890D01*
Y193548D01*
X170330D01*
Y198185D01*
D02*
G37*
G36*
X236571Y196216D02*
X233738D01*
Y192498D01*
X236571D01*
Y196216D01*
D02*
G37*
G36*
X233388D02*
X230556D01*
Y192498D01*
X233388D01*
Y196216D01*
D02*
G37*
G36*
X204484Y194313D02*
X202340D01*
Y192268D01*
X204484D01*
Y194313D01*
D02*
G37*
G36*
X201990D02*
X199847D01*
Y192268D01*
X201990D01*
Y194313D01*
D02*
G37*
G36*
X245696Y195000D02*
X245470D01*
Y192128D01*
X248342D01*
Y192354D01*
X248134Y193129D01*
X247733Y193824D01*
X247166Y194391D01*
X246471Y194792D01*
X245696Y195000D01*
D02*
G37*
G36*
X135696D02*
X135470D01*
Y192128D01*
X138342D01*
Y192354D01*
X138135Y193129D01*
X137733Y193824D01*
X137166Y194391D01*
X136471Y194792D01*
X135696Y195000D01*
D02*
G37*
G36*
X245120D02*
X244894D01*
X244119Y194792D01*
X243425Y194391D01*
X242857Y193824D01*
X242456Y193129D01*
X242248Y192354D01*
Y192128D01*
X245120D01*
Y195000D01*
D02*
G37*
G36*
X135120D02*
X134894D01*
X134119Y194792D01*
X133424Y194391D01*
X132857Y193824D01*
X132456Y193129D01*
X132248Y192354D01*
Y192128D01*
X135120D01*
Y195000D01*
D02*
G37*
G36*
X248342Y191778D02*
X245470D01*
Y188906D01*
X245696D01*
X246471Y189114D01*
X247166Y189515D01*
X247733Y190082D01*
X248134Y190777D01*
X248342Y191552D01*
Y191778D01*
D02*
G37*
G36*
X245120D02*
X242248D01*
Y191552D01*
X242456Y190777D01*
X242857Y190082D01*
X243425Y189515D01*
X244119Y189114D01*
X244894Y188906D01*
X245120D01*
Y191778D01*
D02*
G37*
G36*
X138342D02*
X135470D01*
Y188906D01*
X135696D01*
X136471Y189114D01*
X137166Y189515D01*
X137733Y190082D01*
X138135Y190777D01*
X138342Y191552D01*
Y191778D01*
D02*
G37*
G36*
X135120D02*
X132248D01*
Y191552D01*
X132456Y190777D01*
X132857Y190082D01*
X133424Y189515D01*
X134119Y189114D01*
X134894Y188906D01*
X135120D01*
Y191778D01*
D02*
G37*
G36*
X204484Y190803D02*
X202340D01*
Y188758D01*
X204484D01*
Y190803D01*
D02*
G37*
G36*
X201990D02*
X199847D01*
Y188758D01*
X201990D01*
Y190803D01*
D02*
G37*
G36*
X236571Y192148D02*
X233738D01*
Y188429D01*
X236571D01*
Y192148D01*
D02*
G37*
G36*
X233388D02*
X230556D01*
Y188429D01*
X233388D01*
Y192148D01*
D02*
G37*
G36*
X204484Y188408D02*
X202340D01*
Y186363D01*
X204484D01*
Y188408D01*
D02*
G37*
G36*
X201990D02*
X199847D01*
Y186363D01*
X201990D01*
Y188408D01*
D02*
G37*
G36*
X204484Y184897D02*
X202340D01*
Y182852D01*
X204484D01*
Y184897D01*
D02*
G37*
G36*
X201990D02*
X199847D01*
Y182852D01*
X201990D01*
Y184897D01*
D02*
G37*
G36*
X224760Y184700D02*
X222616D01*
Y182655D01*
X224760D01*
Y184700D01*
D02*
G37*
G36*
X222266D02*
X220122D01*
Y182655D01*
X222266D01*
Y184700D01*
D02*
G37*
G36*
X167610Y183496D02*
X165466D01*
Y181451D01*
X167610D01*
Y183496D01*
D02*
G37*
G36*
X165116D02*
X162973D01*
Y181451D01*
X165116D01*
Y183496D01*
D02*
G37*
G36*
X204053Y209252D02*
X203427D01*
X202848Y209012D01*
X202405Y208569D01*
X202165Y207990D01*
Y207364D01*
X202405Y206785D01*
X202848Y206342D01*
X203427Y206102D01*
X204053D01*
X204420Y206254D01*
X206711Y203964D01*
Y202614D01*
X205752D01*
Y198174D01*
X206711D01*
Y196708D01*
X205752D01*
Y192268D01*
X206711D01*
Y190803D01*
X205752D01*
Y186363D01*
X206711D01*
Y184897D01*
X205752D01*
Y180457D01*
X210389D01*
Y184897D01*
X209431D01*
Y186363D01*
X210389D01*
Y190803D01*
X209431D01*
Y192268D01*
X210389D01*
Y196708D01*
X209431D01*
Y198174D01*
X210389D01*
Y202614D01*
X209431D01*
Y204528D01*
X209328Y205048D01*
X209033Y205489D01*
X205883Y208639D01*
X205442Y208934D01*
X204921Y209038D01*
X204571D01*
X204053Y209252D01*
D02*
G37*
G36*
X204484Y182502D02*
X202340D01*
Y180457D01*
X204484D01*
Y182502D01*
D02*
G37*
G36*
X201990D02*
X199847D01*
Y180457D01*
X201990D01*
Y182502D01*
D02*
G37*
G36*
X224760Y182305D02*
X222616D01*
Y180260D01*
X224760D01*
Y182305D01*
D02*
G37*
G36*
X222266D02*
X220122D01*
Y180260D01*
X222266D01*
Y182305D01*
D02*
G37*
G36*
X135696Y185000D02*
X134894D01*
X134119Y184792D01*
X133424Y184391D01*
X132857Y183824D01*
X132456Y183129D01*
X132248Y182354D01*
Y181552D01*
X132456Y180777D01*
X132857Y180082D01*
X133424Y179515D01*
X134119Y179114D01*
X134894Y178906D01*
X135696D01*
X136471Y179114D01*
X137166Y179515D01*
X137733Y180082D01*
X138135Y180777D01*
X138193Y180994D01*
X144370D01*
Y179056D01*
X148614D01*
Y183496D01*
X144370D01*
Y182912D01*
X138193D01*
X138135Y183129D01*
X137733Y183824D01*
X137166Y184391D01*
X136471Y184792D01*
X135696Y185000D01*
D02*
G37*
G36*
X154716Y183496D02*
X150473D01*
Y179056D01*
X154716D01*
Y180317D01*
X157067D01*
Y179056D01*
X161704D01*
Y183496D01*
X157067D01*
Y182235D01*
X154716D01*
Y183496D01*
D02*
G37*
G36*
X245696Y185000D02*
X244894D01*
X244119Y184792D01*
X243425Y184391D01*
X242857Y183824D01*
X242456Y183129D01*
X242248Y182354D01*
Y181552D01*
X242456Y180777D01*
X242857Y180082D01*
X243425Y179515D01*
X244119Y179114D01*
X244894Y178906D01*
X245696D01*
X246471Y179114D01*
X247166Y179515D01*
X247733Y180082D01*
X248134Y180777D01*
X248342Y181552D01*
Y182354D01*
X248134Y183129D01*
X247733Y183824D01*
X247166Y184391D01*
X246471Y184792D01*
X245696Y185000D01*
D02*
G37*
G36*
X167610Y181101D02*
X165291D01*
X162973D01*
Y179056D01*
X164345D01*
X164490Y178706D01*
X164197Y178412D01*
X163957Y177833D01*
Y177206D01*
X164197Y176628D01*
X164639Y176185D01*
X165218Y175945D01*
X165845D01*
X166424Y176185D01*
X166819Y176580D01*
X192059D01*
X192415Y176224D01*
X192994Y175984D01*
X193620D01*
X194199Y176224D01*
X194642Y176667D01*
X194882Y177246D01*
Y177872D01*
X194642Y178451D01*
X194199Y178894D01*
X193620Y179134D01*
X192994D01*
X192415Y178894D01*
X192019Y178498D01*
X166823D01*
X166626Y178744D01*
X166761Y179056D01*
X167610D01*
Y181101D01*
D02*
G37*
G36*
X161704Y173653D02*
X157067D01*
Y172392D01*
X154716D01*
Y173653D01*
X150473D01*
Y169213D01*
X154716D01*
Y170474D01*
X157067D01*
Y169213D01*
X161704D01*
Y173653D01*
D02*
G37*
G36*
X167610D02*
X165466D01*
Y171608D01*
X167610D01*
Y173653D01*
D02*
G37*
G36*
X165116D02*
X162973D01*
Y171608D01*
X165116D01*
Y173653D01*
D02*
G37*
G36*
X167610Y171258D02*
X165466D01*
Y169213D01*
X167610D01*
Y171258D01*
D02*
G37*
G36*
X165116D02*
X162973D01*
Y169213D01*
X165116D01*
Y171258D01*
D02*
G37*
G36*
X135696Y175000D02*
X134894D01*
X134119Y174792D01*
X133424Y174391D01*
X132857Y173824D01*
X132456Y173129D01*
X132248Y172354D01*
Y171552D01*
X132456Y170777D01*
X132857Y170082D01*
X133424Y169515D01*
X134119Y169114D01*
X134894Y168906D01*
X135696D01*
X136471Y169114D01*
X137166Y169515D01*
X137733Y170082D01*
X138135Y170777D01*
X138193Y170994D01*
X144370D01*
Y169213D01*
X148614D01*
Y173653D01*
X144370D01*
Y172912D01*
X138193D01*
X138135Y173129D01*
X137733Y173824D01*
X137166Y174391D01*
X136471Y174792D01*
X135696Y175000D01*
D02*
G37*
G36*
X245696D02*
X244894D01*
X244119Y174792D01*
X243425Y174391D01*
X242857Y173824D01*
X242456Y173129D01*
X242248Y172354D01*
Y171552D01*
X242456Y170777D01*
X242568Y170582D01*
X236829Y164842D01*
X236621Y164531D01*
X236548Y164164D01*
Y162653D01*
X234427D01*
Y160433D01*
Y158213D01*
X236548D01*
Y146369D01*
X234619Y144440D01*
X234281Y144597D01*
X234056Y145140D01*
X233613Y145583D01*
X233034Y145823D01*
X232408D01*
X231999Y145653D01*
X231649Y145860D01*
Y145921D01*
X227012D01*
Y141481D01*
X231165D01*
X231310Y141131D01*
X229524Y139345D01*
X219186D01*
X218810Y139721D01*
X218231Y139961D01*
X217604D01*
X217026Y139721D01*
X216583Y139278D01*
X216343Y138699D01*
Y138073D01*
X216583Y137494D01*
X217026Y137051D01*
X217038Y137046D01*
X217106Y136702D01*
X216958Y136554D01*
X216719Y135976D01*
Y135349D01*
X216958Y134770D01*
X217183Y134546D01*
X217379Y134303D01*
X217183Y134089D01*
X216944Y133850D01*
X216704Y133271D01*
Y132645D01*
X216944Y132066D01*
X217387Y131623D01*
X217966Y131383D01*
X218592D01*
X219171Y131623D01*
X219614Y132066D01*
X219633Y132112D01*
X220740D01*
X221107Y132185D01*
X221418Y132393D01*
X221924Y132899D01*
X222613D01*
X222723Y132629D01*
X222728Y132549D01*
X220947Y130767D01*
X217496D01*
X217477Y130813D01*
X217034Y131256D01*
X216455Y131496D01*
X215828D01*
X215250Y131256D01*
X214807Y130813D01*
X214567Y130235D01*
Y129608D01*
X214807Y129029D01*
X215250Y128586D01*
X215828Y128347D01*
X216455D01*
X217034Y128586D01*
X217297Y128849D01*
X221344D01*
X221711Y128922D01*
X222022Y129130D01*
X223822Y130931D01*
X232283D01*
X232650Y131004D01*
X232962Y131212D01*
X242239Y140490D01*
X242622D01*
X242857Y140082D01*
X243425Y139515D01*
X244119Y139114D01*
X244894Y138906D01*
X245696D01*
X246471Y139114D01*
X247166Y139515D01*
X247733Y140082D01*
X248134Y140777D01*
X248342Y141552D01*
Y142354D01*
X248134Y143129D01*
X247733Y143824D01*
X247166Y144391D01*
X246471Y144792D01*
X245696Y145000D01*
X244894D01*
X244119Y144792D01*
X243425Y144391D01*
X242857Y143824D01*
X242812Y143746D01*
X242480Y143871D01*
X242532Y144132D01*
Y147834D01*
X243925Y149226D01*
X244119Y149114D01*
X244894Y148906D01*
X245696D01*
X246471Y149114D01*
X247166Y149515D01*
X247733Y150082D01*
X248134Y150777D01*
X248342Y151552D01*
Y152354D01*
X248134Y153129D01*
X247733Y153824D01*
X247166Y154391D01*
X246471Y154792D01*
X245696Y155000D01*
X244894D01*
X244119Y154792D01*
X243425Y154391D01*
X242857Y153824D01*
X242456Y153129D01*
X242248Y152354D01*
Y151552D01*
X242456Y150777D01*
X242568Y150582D01*
X240895Y148909D01*
X240739Y148676D01*
X240389Y148758D01*
Y155691D01*
X243925Y159226D01*
X244119Y159114D01*
X244894Y158906D01*
X245696D01*
X246471Y159114D01*
X247166Y159515D01*
X247733Y160082D01*
X248134Y160777D01*
X248342Y161552D01*
Y162354D01*
X248134Y163129D01*
X247733Y163824D01*
X247166Y164391D01*
X246471Y164792D01*
X245696Y165000D01*
X244894D01*
X244119Y164792D01*
X243425Y164391D01*
X242857Y163824D01*
X242456Y163129D01*
X242248Y162354D01*
Y161552D01*
X242456Y160777D01*
X242568Y160582D01*
X238816Y156830D01*
X238568Y156893D01*
X238466Y156963D01*
Y163767D01*
X243925Y169226D01*
X244119Y169114D01*
X244894Y168906D01*
X245696D01*
X246471Y169114D01*
X247166Y169515D01*
X247733Y170082D01*
X248134Y170777D01*
X248342Y171552D01*
Y172354D01*
X248134Y173129D01*
X247733Y173824D01*
X247166Y174391D01*
X246471Y174792D01*
X245696Y175000D01*
D02*
G37*
G36*
X236571Y174169D02*
X230556D01*
Y166382D01*
X236571D01*
Y174169D01*
D02*
G37*
G36*
X220232D02*
X214217D01*
Y171235D01*
X212598D01*
X212231Y171162D01*
X211920Y170954D01*
X210936Y169969D01*
X210728Y169658D01*
X210655Y169291D01*
Y160433D01*
Y157188D01*
X210728Y156821D01*
X210936Y156510D01*
X211628Y155818D01*
X211939Y155610D01*
X212306Y155537D01*
X214789D01*
Y151268D01*
X214413Y150892D01*
X214173Y150313D01*
Y149687D01*
X214413Y149108D01*
X214856Y148665D01*
X215435Y148425D01*
X216061D01*
X216640Y148665D01*
X217083Y149108D01*
X217323Y149687D01*
Y150313D01*
X217083Y150892D01*
X216707Y151268D01*
Y155537D01*
X224311D01*
X224678Y155610D01*
X224989Y155818D01*
X227384Y158213D01*
X230665D01*
Y162653D01*
X226028D01*
Y159569D01*
X225083Y158624D01*
X224760Y158758D01*
Y160258D01*
X222616D01*
Y158213D01*
X224214D01*
X224348Y157890D01*
X223914Y157455D01*
X212703D01*
X212573Y157585D01*
Y159474D01*
X214217D01*
Y158213D01*
X218854D01*
Y162653D01*
X214217D01*
Y161392D01*
X212573D01*
Y168894D01*
X212996Y169317D01*
X214217D01*
Y166382D01*
X220232D01*
Y174169D01*
D02*
G37*
G36*
X224760Y162653D02*
X222616D01*
Y160608D01*
X224760D01*
Y162653D01*
D02*
G37*
G36*
X222266D02*
X220122D01*
Y160608D01*
X222266D01*
Y162653D01*
D02*
G37*
G36*
X234077D02*
X231933D01*
Y160608D01*
X234077D01*
Y162653D01*
D02*
G37*
G36*
Y160258D02*
X231933D01*
Y158213D01*
X234077D01*
Y160258D01*
D02*
G37*
G36*
X222266Y160258D02*
X220122D01*
Y158213D01*
X222266D01*
Y160258D01*
D02*
G37*
G36*
X177417Y159799D02*
X175372D01*
Y157655D01*
X177417D01*
Y159799D01*
D02*
G37*
G36*
X175022D02*
X172977D01*
Y157655D01*
X175022D01*
Y159799D01*
D02*
G37*
G36*
X171511D02*
X169466D01*
Y157655D01*
X171511D01*
Y159799D01*
D02*
G37*
G36*
X169116D02*
X167071D01*
Y157655D01*
X169116D01*
Y159799D01*
D02*
G37*
G36*
X220232Y196216D02*
X214217D01*
Y188429D01*
X216265D01*
Y184700D01*
X214217D01*
Y181124D01*
X212004Y178912D01*
X207233D01*
X206866Y178839D01*
X206555Y178631D01*
X192235Y164311D01*
X192027Y164000D01*
X191954Y163633D01*
Y159517D01*
X191619Y159482D01*
X191379Y160061D01*
X190936Y160503D01*
X190357Y160743D01*
X189731D01*
X189152Y160503D01*
X188709Y160061D01*
X188471Y159486D01*
X188468Y159481D01*
X188119Y159281D01*
X187715Y159449D01*
X187088D01*
X186510Y159209D01*
X186066Y158766D01*
X185827Y158187D01*
Y157561D01*
X186066Y156982D01*
X186510Y156539D01*
X187088Y156299D01*
X187715D01*
X188294Y156539D01*
X188737Y156982D01*
X188975Y157557D01*
X188978Y157562D01*
X189326Y157761D01*
X189731Y157594D01*
X190357D01*
X190936Y157833D01*
X191015Y157913D01*
X191197Y157846D01*
X191339Y157741D01*
Y157262D01*
X186186Y152109D01*
X180430D01*
X180063Y152036D01*
X179752Y151828D01*
X177740Y149816D01*
X177417Y149950D01*
Y153893D01*
X172977D01*
Y149256D01*
X176723D01*
X176857Y148933D01*
X173618Y145694D01*
X173585Y145644D01*
X173535Y145611D01*
X173327Y145299D01*
X173254Y144932D01*
Y132912D01*
X138193D01*
X138135Y133129D01*
X137733Y133824D01*
X137166Y134391D01*
X136471Y134792D01*
X135696Y135000D01*
X134894D01*
X134119Y134792D01*
X133424Y134391D01*
X132857Y133824D01*
X132456Y133129D01*
X132248Y132354D01*
Y131552D01*
X132456Y130777D01*
X132857Y130082D01*
X133424Y129515D01*
X134119Y129114D01*
X134894Y128906D01*
X135696D01*
X136471Y129114D01*
X137166Y129515D01*
X137733Y130082D01*
X138135Y130777D01*
X138193Y130994D01*
X150241D01*
Y129112D01*
X152559D01*
X154877D01*
Y130994D01*
X156146D01*
Y126717D01*
X156711D01*
Y123211D01*
X138087D01*
X137733Y123824D01*
X137166Y124391D01*
X136471Y124792D01*
X135696Y125000D01*
X134894D01*
X134119Y124792D01*
X133424Y124391D01*
X132857Y123824D01*
X132456Y123129D01*
X132248Y122354D01*
Y121552D01*
X132456Y120777D01*
X132857Y120082D01*
X133424Y119515D01*
X134119Y119114D01*
X134894Y118906D01*
X135696D01*
X136471Y119114D01*
X137166Y119515D01*
X137733Y120082D01*
X137969Y120490D01*
X159689D01*
Y120319D01*
X164129D01*
Y123381D01*
X159689D01*
X159431Y123603D01*
Y126717D01*
X160783D01*
Y130994D01*
X173254D01*
Y122761D01*
X172904Y122691D01*
X172792Y122961D01*
X172349Y123404D01*
X171770Y123644D01*
X171143D01*
X170565Y123404D01*
X170122Y122961D01*
X169882Y122383D01*
Y121756D01*
X170122Y121177D01*
X170498Y120801D01*
Y116636D01*
X170148Y116507D01*
X169605Y116732D01*
X168978D01*
X168399Y116492D01*
X167956Y116050D01*
X167717Y115471D01*
Y114844D01*
X167956Y114265D01*
X168399Y113822D01*
X168978Y113583D01*
X169605D01*
X170148Y113808D01*
X170498Y113679D01*
Y107874D01*
X170571Y107507D01*
X170779Y107196D01*
X173425Y104549D01*
Y104017D01*
X173665Y103439D01*
X174108Y102996D01*
X174687Y102756D01*
X175313D01*
X175856Y102981D01*
X176206Y102853D01*
Y98826D01*
X176279Y98459D01*
X176487Y98148D01*
X180360Y94275D01*
Y92244D01*
X179984Y91868D01*
X179744Y91290D01*
Y90663D01*
X179984Y90084D01*
X180427Y89641D01*
X181006Y89402D01*
X181632D01*
X182211Y89641D01*
X182654Y90084D01*
X182746Y90307D01*
X183096Y90237D01*
Y78740D01*
X183169Y78373D01*
X183377Y78062D01*
X185675Y75764D01*
Y72077D01*
X185629Y71746D01*
X185325Y71746D01*
X183748D01*
X183748Y71746D01*
X183660D01*
Y71746D01*
X183398Y71746D01*
X180598D01*
Y71746D01*
X180511D01*
Y71746D01*
X179155D01*
Y69132D01*
X178980D01*
Y68957D01*
X177448D01*
Y66518D01*
X178160D01*
X178294Y66195D01*
X178281Y66182D01*
X177936Y65350D01*
Y64450D01*
X178281Y63618D01*
X178918Y62981D01*
X179750Y62636D01*
X180650D01*
X181482Y62981D01*
X182119Y63618D01*
X182464Y64450D01*
Y64898D01*
X182814Y65043D01*
X185827Y62030D01*
Y61498D01*
X186066Y60919D01*
X186220Y60765D01*
X186075Y60416D01*
X166902D01*
X165731Y61587D01*
Y64961D01*
Y71850D01*
X165627Y72371D01*
X165332Y72812D01*
X161395Y76749D01*
X160954Y77044D01*
X160433Y77148D01*
X149186D01*
X146045Y80288D01*
Y83285D01*
X148863D01*
Y83114D01*
X153303D01*
Y86177D01*
X148863D01*
Y86006D01*
X146045D01*
Y100018D01*
X150241D01*
Y99158D01*
X154878D01*
Y103598D01*
X150241D01*
Y102738D01*
X146045D01*
Y105923D01*
X150241D01*
Y105063D01*
X154878D01*
Y109503D01*
X150241D01*
Y108644D01*
X146045D01*
Y111221D01*
Y114594D01*
X148201Y116750D01*
X148863D01*
Y116579D01*
X153303D01*
Y119641D01*
X148863D01*
Y119471D01*
X147638D01*
X147117Y119367D01*
X146676Y119072D01*
X143723Y116119D01*
X143428Y115678D01*
X143325Y115157D01*
Y113313D01*
X138028D01*
X137733Y113824D01*
X137166Y114391D01*
X136471Y114792D01*
X135696Y115000D01*
X134894D01*
X134119Y114792D01*
X133424Y114391D01*
X132857Y113824D01*
X132456Y113129D01*
X132248Y112354D01*
Y111552D01*
X132456Y110777D01*
X132857Y110082D01*
X133424Y109515D01*
X134119Y109114D01*
X134894Y108906D01*
X135696D01*
X136471Y109114D01*
X137166Y109515D01*
X137733Y110082D01*
X138028Y110592D01*
X143325D01*
Y107283D01*
Y101378D01*
Y84646D01*
Y79724D01*
X143428Y79204D01*
X143723Y78763D01*
X147660Y74826D01*
X148101Y74531D01*
X148622Y74427D01*
X159870D01*
X163010Y71287D01*
Y66321D01*
X161669D01*
Y67279D01*
X157229D01*
Y62642D01*
X161669D01*
Y63600D01*
X163010D01*
Y61024D01*
X163113Y60503D01*
X163408Y60062D01*
X165377Y58093D01*
X165818Y57798D01*
X166339Y57695D01*
X221205D01*
Y56737D01*
X225645D01*
Y61374D01*
X221205D01*
Y60416D01*
X195815D01*
X195670Y60765D01*
X195823Y60919D01*
X195896Y61095D01*
X196122Y61246D01*
X200375Y65499D01*
X200615Y65386D01*
X200692Y65321D01*
Y64450D01*
X201037Y63618D01*
X201674Y62981D01*
X202506Y62636D01*
X203406D01*
X204238Y62981D01*
X204875Y63618D01*
X205220Y64450D01*
Y65350D01*
X204875Y66182D01*
X204862Y66195D01*
X204996Y66518D01*
X205708D01*
Y68957D01*
X204176D01*
Y69132D01*
X204001D01*
Y71746D01*
X202645D01*
Y71746D01*
X202558D01*
Y71746D01*
X199496D01*
X199404Y72058D01*
Y76000D01*
X200481Y77078D01*
X200689Y77389D01*
X200762Y77756D01*
Y97044D01*
X201466Y97747D01*
X201673Y98058D01*
X201746Y98425D01*
Y99059D01*
X203799D01*
X203992Y99059D01*
X204245Y98827D01*
X204374Y98517D01*
X204817Y98074D01*
X205395Y97835D01*
X206022D01*
X206601Y98074D01*
X207044Y98517D01*
X207283Y99096D01*
Y99723D01*
X207044Y100302D01*
X206601Y100744D01*
X206022Y100984D01*
X205395D01*
X204817Y100744D01*
X204374Y100302D01*
X204342Y100224D01*
X203992Y100294D01*
Y103697D01*
X199552D01*
Y99059D01*
X199571D01*
X199715Y98709D01*
X199406Y98400D01*
X196263D01*
X195954Y98709D01*
X196099Y99059D01*
X198086D01*
Y103697D01*
X193646D01*
Y99368D01*
X193646Y99310D01*
X193473Y99275D01*
X193169Y99412D01*
X192821Y99760D01*
X192242Y100000D01*
X191616D01*
X191037Y99760D01*
X190594Y99317D01*
X190354Y98738D01*
Y98112D01*
X190569Y97594D01*
Y93263D01*
X190398D01*
Y89020D01*
X193460D01*
Y93263D01*
X193289D01*
Y97594D01*
X193504Y98112D01*
Y98518D01*
X193845Y98761D01*
X193923Y98730D01*
Y98425D01*
X193996Y98058D01*
X194204Y97747D01*
X195188Y96763D01*
X195499Y96555D01*
X195866Y96482D01*
X198844D01*
Y92101D01*
X197200D01*
Y93263D01*
X194138D01*
Y89020D01*
X197200D01*
Y90183D01*
X198844D01*
Y78153D01*
X197767Y77076D01*
X197559Y76765D01*
X197486Y76398D01*
Y72077D01*
X197440Y71746D01*
X197136Y71746D01*
X195559Y71746D01*
X195467Y72058D01*
Y79347D01*
X195757Y79637D01*
X195965Y79948D01*
X195968Y79965D01*
X197200D01*
Y82263D01*
X197308Y82522D01*
Y83149D01*
X197200Y83408D01*
Y84208D01*
X196534D01*
X196046Y84411D01*
X195420D01*
X194931Y84208D01*
X194138D01*
Y81589D01*
X194120Y81496D01*
Y80712D01*
X193830Y80422D01*
X193810Y80393D01*
X193460Y80499D01*
Y81912D01*
X192104D01*
Y79965D01*
X193236D01*
X193516Y79767D01*
X193549Y79652D01*
Y75908D01*
X193278Y75798D01*
X193199Y75792D01*
X192526Y76465D01*
X192215Y76673D01*
X191848Y76746D01*
X189561D01*
Y79965D01*
X189720D01*
Y82316D01*
X189774Y82445D01*
Y83072D01*
X189720Y83201D01*
Y84208D01*
X188814D01*
X188512Y84333D01*
X187886D01*
X187584Y84208D01*
X186658D01*
Y83153D01*
X186624Y83072D01*
Y82445D01*
X186658Y82364D01*
Y79965D01*
X187643D01*
Y76973D01*
X187373Y76864D01*
X187293Y76858D01*
X185014Y79137D01*
Y90183D01*
X186658D01*
Y89020D01*
X189720D01*
Y93263D01*
X186658D01*
Y92101D01*
X185014D01*
Y96482D01*
X187008D01*
X187375Y96555D01*
X187686Y96763D01*
X188670Y97747D01*
X188878Y98058D01*
X188951Y98425D01*
Y99059D01*
X189228D01*
Y103697D01*
X184788D01*
Y99059D01*
X186775D01*
X186920Y98709D01*
X186611Y98400D01*
X183176D01*
X183046Y98530D01*
Y99059D01*
X183322D01*
Y103697D01*
X178882D01*
Y99059D01*
X181128D01*
Y98133D01*
X181201Y97766D01*
X181409Y97455D01*
X182100Y96763D01*
X182412Y96555D01*
X182779Y96482D01*
X183096D01*
Y91716D01*
X182746Y91646D01*
X182654Y91868D01*
X182278Y92244D01*
Y94672D01*
X182205Y95039D01*
X181997Y95350D01*
X178124Y99223D01*
Y109142D01*
X178051Y109509D01*
X177843Y109821D01*
X177357Y110307D01*
X177514Y110645D01*
X178057Y110870D01*
X178434Y111246D01*
X178746Y111162D01*
X178784Y111139D01*
Y110969D01*
X180927D01*
Y113189D01*
Y115409D01*
X178784D01*
Y113271D01*
X178746Y113247D01*
X178434Y113163D01*
X178057Y113540D01*
X177479Y113779D01*
X176852D01*
X176273Y113540D01*
X175830Y113097D01*
X175711Y112809D01*
X175282Y112668D01*
X175172Y112738D01*
Y144535D01*
X178559Y147923D01*
X178882Y147789D01*
Y144335D01*
X183322D01*
Y148972D01*
X180066D01*
X179932Y149295D01*
X180827Y150191D01*
X186583D01*
X186950Y150264D01*
X187261Y150472D01*
X192695Y155905D01*
X193227D01*
X193805Y156145D01*
X194248Y156588D01*
X194488Y157167D01*
Y157794D01*
X194248Y158372D01*
X193872Y158748D01*
Y163236D01*
X205548Y174912D01*
X205898Y174767D01*
Y174560D01*
X206138Y173981D01*
X206514Y173605D01*
Y172437D01*
X197933Y163856D01*
X197725Y163545D01*
X197652Y163178D01*
Y158836D01*
X197276Y158460D01*
X197036Y157881D01*
Y157255D01*
X197276Y156676D01*
X197719Y156233D01*
X198298Y155993D01*
X198925D01*
X199503Y156233D01*
X199946Y156676D01*
X199984Y156767D01*
X200363D01*
X200437Y156588D01*
X200880Y156145D01*
X201458Y155905D01*
X202085D01*
X202664Y156145D01*
X203107Y156588D01*
X203346Y157167D01*
Y157794D01*
X203107Y158372D01*
X202664Y158815D01*
X202085Y159055D01*
X201458D01*
X200880Y158815D01*
X200437Y158372D01*
X200399Y158282D01*
X200020D01*
X199946Y158460D01*
X199570Y158836D01*
Y162781D01*
X208151Y171362D01*
X208359Y171673D01*
X208432Y172040D01*
Y173605D01*
X208808Y173981D01*
X209048Y174560D01*
Y175187D01*
X208808Y175765D01*
X208365Y176208D01*
X207786Y176448D01*
X207666D01*
X207522Y176774D01*
X207696Y176994D01*
X212402D01*
X212769Y177067D01*
X213080Y177275D01*
X216065Y180260D01*
X218854D01*
Y184700D01*
X218183D01*
Y188429D01*
X220232D01*
Y196216D01*
D02*
G37*
G36*
X177417Y157305D02*
X175372D01*
Y155162D01*
X177417D01*
Y157305D01*
D02*
G37*
G36*
X175022D02*
X172977D01*
Y155162D01*
X175022D01*
Y157305D01*
D02*
G37*
G36*
X171511D02*
X169466D01*
Y155162D01*
X171511D01*
Y157305D01*
D02*
G37*
G36*
X169116D02*
X167071D01*
Y155162D01*
X169116D01*
Y157305D01*
D02*
G37*
G36*
X231649Y151826D02*
X229506D01*
Y149781D01*
X231649D01*
Y151826D01*
D02*
G37*
G36*
X229156D02*
X227012D01*
Y149781D01*
X229156D01*
Y151826D01*
D02*
G37*
G36*
X165668Y154134D02*
X165041D01*
X164462Y153894D01*
X164019Y153451D01*
X163779Y152872D01*
Y152246D01*
X164019Y151667D01*
X164462Y151224D01*
X165041Y150984D01*
X165668D01*
X166246Y151224D01*
X166689Y151667D01*
X166721Y151744D01*
X167071Y151674D01*
Y149256D01*
X171511D01*
Y153893D01*
X167071D01*
Y153444D01*
X166721Y153374D01*
X166689Y153451D01*
X166246Y153894D01*
X165668Y154134D01*
D02*
G37*
G36*
X231649Y149431D02*
X229506D01*
Y147386D01*
X231649D01*
Y149431D01*
D02*
G37*
G36*
X229156D02*
X227012D01*
Y147386D01*
X229156D01*
Y149431D01*
D02*
G37*
G36*
X135696Y155000D02*
X134894D01*
X134119Y154792D01*
X133424Y154391D01*
X132857Y153824D01*
X132456Y153129D01*
X132248Y152354D01*
Y151552D01*
X132456Y150777D01*
X132857Y150082D01*
X133424Y149515D01*
X134119Y149114D01*
X134894Y148906D01*
X135696D01*
X136471Y149114D01*
X136666Y149226D01*
X145035Y140857D01*
X145346Y140649D01*
X145713Y140577D01*
X162636D01*
X163003Y140649D01*
X163314Y140857D01*
X163814Y141358D01*
X163860Y141339D01*
X164487D01*
X165065Y141578D01*
X165508Y142021D01*
X165748Y142600D01*
Y143227D01*
X165508Y143805D01*
X165065Y144248D01*
X164487Y144488D01*
X163860D01*
X163281Y144248D01*
X162838Y143805D01*
X162598Y143227D01*
Y142939D01*
X162315Y142694D01*
X162292Y142699D01*
X162087Y143103D01*
X162205Y143387D01*
Y144014D01*
X161965Y144593D01*
X161695Y144863D01*
X161893Y145159D01*
X162088Y145079D01*
X162715D01*
X163294Y145318D01*
X163737Y145762D01*
X163976Y146340D01*
Y146967D01*
X163737Y147546D01*
X163294Y147989D01*
X162715Y148228D01*
X162088D01*
X161510Y147989D01*
X161066Y147546D01*
X160827Y146967D01*
Y146340D01*
X161066Y145762D01*
X161337Y145492D01*
X161138Y145195D01*
X160943Y145276D01*
X160317D01*
X159738Y145036D01*
X159295Y144593D01*
X159055Y144014D01*
Y143387D01*
X159280Y142844D01*
X159152Y142494D01*
X146110D01*
X138022Y150582D01*
X138135Y150777D01*
X138342Y151552D01*
Y152354D01*
X138135Y153129D01*
X137733Y153824D01*
X137166Y154391D01*
X136471Y154792D01*
X135696Y155000D01*
D02*
G37*
G36*
X203992Y148972D02*
X199552D01*
Y144335D01*
X203992D01*
Y148972D01*
D02*
G37*
G36*
X225744Y151826D02*
X221107D01*
Y147386D01*
X222466D01*
Y145921D01*
X221107D01*
Y143675D01*
X218788D01*
X218412Y144052D01*
X217833Y144291D01*
X217206D01*
X216628Y144052D01*
X216185Y143609D01*
X215945Y143030D01*
Y142403D01*
X216185Y141824D01*
X216628Y141382D01*
X217206Y141142D01*
X217833D01*
X218412Y141382D01*
X218788Y141758D01*
X221107D01*
Y141481D01*
X222053D01*
X222146Y141462D01*
X222238Y141481D01*
X225744D01*
Y145921D01*
X224384D01*
Y147386D01*
X225744D01*
Y151826D01*
D02*
G37*
G36*
X183322Y143067D02*
X181277D01*
Y140923D01*
X183322D01*
Y143067D01*
D02*
G37*
G36*
X203992D02*
X201947D01*
Y140923D01*
X203992D01*
Y143067D01*
D02*
G37*
G36*
X201597D02*
X199552D01*
Y140923D01*
X201597D01*
Y143067D01*
D02*
G37*
G36*
X180927D02*
X178882D01*
Y140923D01*
X180927D01*
Y143067D01*
D02*
G37*
G36*
X213896Y142323D02*
X213269D01*
X212691Y142083D01*
X212248Y141640D01*
X212008Y141061D01*
Y140435D01*
X212248Y139856D01*
X212691Y139413D01*
X213269Y139173D01*
X213896D01*
X214475Y139413D01*
X214918Y139856D01*
X215158Y140435D01*
Y141061D01*
X214918Y141640D01*
X214475Y142083D01*
X213896Y142323D01*
D02*
G37*
G36*
X135696Y145000D02*
X134894D01*
X134119Y144792D01*
X133424Y144391D01*
X132857Y143824D01*
X132456Y143129D01*
X132248Y142354D01*
Y141552D01*
X132456Y140777D01*
X132857Y140082D01*
X133424Y139515D01*
X134119Y139114D01*
X134894Y138906D01*
X135696D01*
X136471Y139114D01*
X137166Y139515D01*
X137733Y140082D01*
X138135Y140777D01*
X138342Y141552D01*
Y142354D01*
X138135Y143129D01*
X137733Y143824D01*
X137166Y144391D01*
X136471Y144792D01*
X135696Y145000D01*
D02*
G37*
G36*
X188342Y145626D02*
X183705D01*
Y137839D01*
X185394D01*
Y137161D01*
X184788D01*
Y136778D01*
X184464Y136644D01*
X184455Y136653D01*
X183876Y136893D01*
X183250D01*
X182968Y136776D01*
X182677Y136971D01*
Y137124D01*
X182437Y137703D01*
X182061Y138080D01*
X182145Y138391D01*
X182168Y138429D01*
X183322D01*
Y140573D01*
X181102D01*
X178882D01*
Y138429D01*
X180036D01*
X180060Y138391D01*
X180144Y138080D01*
X179767Y137703D01*
X179528Y137124D01*
Y136498D01*
X179767Y135919D01*
X180210Y135476D01*
X180789Y135236D01*
X181416D01*
X181697Y135353D01*
X181988Y135158D01*
Y135005D01*
X182173Y134558D01*
X181989Y134208D01*
X181277D01*
Y132065D01*
X183322D01*
Y133743D01*
X183876D01*
X184455Y133983D01*
X184464Y133993D01*
X184788Y133859D01*
Y132524D01*
X189228D01*
Y137161D01*
X187637D01*
Y137839D01*
X188342D01*
Y145626D01*
D02*
G37*
G36*
X198163D02*
X193526D01*
Y137839D01*
X194734D01*
Y137161D01*
X193646D01*
Y132524D01*
X197860D01*
Y131255D01*
X196041D01*
Y128937D01*
X195866D01*
Y128762D01*
X193646D01*
Y126619D01*
X194800D01*
X194824Y126580D01*
X194907Y126268D01*
X194531Y125892D01*
X194291Y125313D01*
Y124687D01*
X194531Y124108D01*
X194974Y123665D01*
X195553Y123425D01*
X196179D01*
X196758Y123665D01*
X197201Y124108D01*
X197441Y124687D01*
Y125313D01*
X197201Y125892D01*
X196825Y126268D01*
X196909Y126580D01*
X196932Y126619D01*
X197860D01*
Y123136D01*
X197730Y123006D01*
X188976D01*
X188609Y122933D01*
X188298Y122725D01*
X186330Y120757D01*
X186122Y120446D01*
X186049Y120079D01*
Y115409D01*
X184689D01*
Y110969D01*
X186049D01*
Y109602D01*
X184788D01*
Y104965D01*
X189228D01*
Y109602D01*
X187967D01*
Y110969D01*
X189326D01*
Y112257D01*
X189676Y112327D01*
X189871Y111857D01*
X190314Y111414D01*
X190893Y111174D01*
X191519D01*
X192098Y111414D01*
X192541Y111857D01*
X192781Y112436D01*
Y113062D01*
X192541Y113641D01*
X192098Y114084D01*
X191519Y114324D01*
X190893D01*
X190314Y114084D01*
X189871Y113641D01*
X189676Y113171D01*
X189326Y113241D01*
Y115409D01*
X187967D01*
Y119682D01*
X189374Y121088D01*
X198127D01*
X198494Y121161D01*
X198805Y121369D01*
X199497Y122061D01*
X199705Y122372D01*
X199778Y122739D01*
Y123666D01*
X203992D01*
Y128303D01*
X199778D01*
Y129571D01*
X201597D01*
Y131890D01*
Y134208D01*
X200036D01*
X199891Y134558D01*
X200782Y135450D01*
X201299Y135236D01*
X201925D01*
X202504Y135476D01*
X202947Y135919D01*
X203187Y136498D01*
Y137124D01*
X202947Y137703D01*
X202570Y138080D01*
X202654Y138391D01*
X202678Y138429D01*
X203992D01*
Y140573D01*
X201772D01*
X199552D01*
Y138429D01*
X200546D01*
X200569Y138391D01*
X200653Y138080D01*
X200277Y137703D01*
X200197Y137510D01*
X199996Y137376D01*
X198436Y135816D01*
X198086Y135961D01*
Y137161D01*
X196977D01*
Y137839D01*
X198163D01*
Y145626D01*
D02*
G37*
G36*
X203992Y134208D02*
X201947D01*
Y132065D01*
X203992D01*
Y134208D01*
D02*
G37*
G36*
X180927D02*
X178882D01*
Y132065D01*
X180927D01*
Y134208D01*
D02*
G37*
G36*
X203992Y131715D02*
X201947D01*
Y129571D01*
X203992D01*
Y131715D01*
D02*
G37*
G36*
X183322D02*
X181277D01*
Y129571D01*
X183322D01*
Y131715D01*
D02*
G37*
G36*
X180927D02*
X178882D01*
Y129571D01*
X180927D01*
Y131715D01*
D02*
G37*
G36*
X189228Y131255D02*
X187183D01*
Y129112D01*
X189228D01*
Y131255D01*
D02*
G37*
G36*
X195691D02*
X193646D01*
Y129112D01*
X195691D01*
Y131255D01*
D02*
G37*
G36*
X186833D02*
X184788D01*
Y129112D01*
X186833D01*
Y131255D01*
D02*
G37*
G36*
X245696Y135000D02*
X244894D01*
X244119Y134792D01*
X243425Y134391D01*
X242857Y133824D01*
X242456Y133129D01*
X242248Y132354D01*
Y131552D01*
X242456Y130777D01*
X242857Y130082D01*
X243425Y129515D01*
X244119Y129114D01*
X244894Y128906D01*
X245696D01*
X246471Y129114D01*
X247166Y129515D01*
X247733Y130082D01*
X248134Y130777D01*
X248342Y131552D01*
Y132354D01*
X248134Y133129D01*
X247733Y133824D01*
X247166Y134391D01*
X246471Y134792D01*
X245696Y135000D01*
D02*
G37*
G36*
X154877Y128762D02*
X152734D01*
Y126717D01*
X154877D01*
Y128762D01*
D02*
G37*
G36*
X152384D02*
X150241D01*
Y126717D01*
X152384D01*
Y128762D01*
D02*
G37*
G36*
X189228Y128762D02*
X187008D01*
X184788D01*
Y126898D01*
X184729Y126591D01*
X184495Y126479D01*
X184147Y126335D01*
X183704Y125892D01*
X183672Y125815D01*
X183322Y125885D01*
Y128303D01*
X178882D01*
Y123666D01*
X183322D01*
Y124115D01*
X183672Y124185D01*
X183704Y124108D01*
X184147Y123665D01*
X184726Y123425D01*
X185353D01*
X185931Y123665D01*
X186306Y124040D01*
X186516Y124081D01*
X186725Y124040D01*
X187100Y123665D01*
X187679Y123425D01*
X188305D01*
X188884Y123665D01*
X189222Y124003D01*
X189561Y123665D01*
X190139Y123425D01*
X190766D01*
X191345Y123665D01*
X191788Y124108D01*
X192028Y124687D01*
Y125313D01*
X191788Y125892D01*
X191345Y126335D01*
X190766Y126575D01*
X190139D01*
X189561Y126335D01*
X189222Y125997D01*
X188951Y126268D01*
X189035Y126580D01*
X189058Y126619D01*
X189228D01*
Y128762D01*
D02*
G37*
G36*
X230779Y130287D02*
X224142D01*
Y123650D01*
X230779D01*
Y130287D01*
D02*
G37*
G36*
X166652Y122638D02*
X166025D01*
X165446Y122398D01*
X165004Y121955D01*
X164764Y121376D01*
Y120750D01*
X165004Y120171D01*
X165446Y119728D01*
X166025Y119488D01*
X166652D01*
X167231Y119728D01*
X167674Y120171D01*
X167913Y120750D01*
Y121376D01*
X167674Y121955D01*
X167231Y122398D01*
X166652Y122638D01*
D02*
G37*
G36*
X216061Y127559D02*
X215435D01*
X214856Y127319D01*
X214413Y126876D01*
X214173Y126297D01*
Y125671D01*
X214413Y125092D01*
X214856Y124649D01*
X215435Y124409D01*
X215967D01*
X219101Y121275D01*
X219412Y121067D01*
X219779Y120994D01*
X242398D01*
X242456Y120777D01*
X242857Y120082D01*
X243425Y119515D01*
X244119Y119114D01*
X244894Y118906D01*
X245696D01*
X246471Y119114D01*
X247166Y119515D01*
X247733Y120082D01*
X248134Y120777D01*
X248342Y121552D01*
Y122354D01*
X248134Y123129D01*
X247733Y123824D01*
X247166Y124391D01*
X246471Y124792D01*
X245696Y125000D01*
X244894D01*
X244119Y124792D01*
X243425Y124391D01*
X242857Y123824D01*
X242456Y123129D01*
X242398Y122912D01*
X220177D01*
X217323Y125766D01*
Y126297D01*
X217083Y126876D01*
X216640Y127319D01*
X216061Y127559D01*
D02*
G37*
G36*
X164129Y115901D02*
X162084D01*
Y114545D01*
X164129D01*
Y115901D01*
D02*
G37*
G36*
X161734D02*
X159689D01*
Y114545D01*
X161734D01*
Y115901D01*
D02*
G37*
G36*
X227898Y120445D02*
X227024D01*
X226180Y120218D01*
X225423Y119781D01*
X224805Y119164D01*
X224368Y118407D01*
X224142Y117563D01*
Y116689D01*
X224368Y115845D01*
X224805Y115088D01*
X225423Y114471D01*
X226180Y114034D01*
X227024Y113807D01*
X227898D01*
X228742Y114034D01*
X229498Y114471D01*
X230116Y115088D01*
X230553Y115845D01*
X230779Y116689D01*
Y117563D01*
X230553Y118407D01*
X230116Y119164D01*
X229498Y119781D01*
X228742Y120218D01*
X227898Y120445D01*
D02*
G37*
G36*
X183421Y115409D02*
X181277D01*
Y113364D01*
X183421D01*
Y115409D01*
D02*
G37*
G36*
X204090D02*
X201947D01*
Y113364D01*
X204090D01*
Y115409D01*
D02*
G37*
G36*
X201597D02*
X199453D01*
Y113364D01*
X201597D01*
Y115409D01*
D02*
G37*
G36*
X164129Y114195D02*
X162084D01*
Y112839D01*
X164129D01*
Y114195D01*
D02*
G37*
G36*
X161734D02*
X159689D01*
Y112839D01*
X161734D01*
Y114195D01*
D02*
G37*
G36*
X204090Y113014D02*
X201947D01*
Y110969D01*
X204090D01*
Y113014D01*
D02*
G37*
G36*
X201597D02*
X199453D01*
Y110969D01*
X201597D01*
Y113014D01*
D02*
G37*
G36*
X183421D02*
X181277D01*
Y110969D01*
X183421D01*
Y113014D01*
D02*
G37*
G36*
X207990Y120669D02*
X207364D01*
X206785Y120430D01*
X206342Y119986D01*
X206102Y119408D01*
Y118781D01*
X206342Y118202D01*
X206785Y117759D01*
X207364Y117520D01*
X207896D01*
X214141Y111275D01*
X214452Y111067D01*
X214819Y110994D01*
X242398D01*
X242456Y110777D01*
X242857Y110082D01*
X243425Y109515D01*
X244119Y109114D01*
X244894Y108906D01*
X245696D01*
X246471Y109114D01*
X247166Y109515D01*
X247733Y110082D01*
X248134Y110777D01*
X248342Y111552D01*
Y112354D01*
X248134Y113129D01*
X247733Y113824D01*
X247166Y114391D01*
X246471Y114792D01*
X245696Y115000D01*
X244894D01*
X244119Y114792D01*
X243425Y114391D01*
X242857Y113824D01*
X242456Y113129D01*
X242398Y112912D01*
X215216D01*
X209252Y118876D01*
Y119408D01*
X209012Y119986D01*
X208569Y120430D01*
X207990Y120669D01*
D02*
G37*
G36*
X203992Y109602D02*
X201947D01*
Y107458D01*
X203992D01*
Y109602D01*
D02*
G37*
G36*
X201597D02*
X199552D01*
Y107458D01*
X201597D01*
Y109602D01*
D02*
G37*
G36*
X183322D02*
X181277D01*
Y107458D01*
X183322D01*
Y109602D01*
D02*
G37*
G36*
X180927D02*
X178882D01*
Y107458D01*
X180927D01*
Y109602D01*
D02*
G37*
G36*
X166590D02*
X164545D01*
Y107458D01*
X166590D01*
Y109602D01*
D02*
G37*
G36*
X164195D02*
X162150D01*
Y107458D01*
X164195D01*
Y109602D01*
D02*
G37*
G36*
X160783Y109503D02*
X158640D01*
Y107458D01*
X160783D01*
Y109503D01*
D02*
G37*
G36*
X158290D02*
X156146D01*
Y107458D01*
X158290D01*
Y109503D01*
D02*
G37*
G36*
X160783Y107108D02*
X158640D01*
Y105063D01*
X160783D01*
Y107108D01*
D02*
G37*
G36*
X158290D02*
X156146D01*
Y105063D01*
X158290D01*
Y107108D01*
D02*
G37*
G36*
X203992Y107108D02*
X201947D01*
Y104965D01*
X203992D01*
Y107108D01*
D02*
G37*
G36*
X201597D02*
X199552D01*
Y104965D01*
X201597D01*
Y107108D01*
D02*
G37*
G36*
X198185Y115409D02*
X193548D01*
Y110969D01*
X194907D01*
Y109602D01*
X193646D01*
Y104965D01*
X198086D01*
Y109602D01*
X196825D01*
Y110969D01*
X198185D01*
Y115409D01*
D02*
G37*
G36*
X183322Y107108D02*
X181277D01*
Y104965D01*
X183322D01*
Y107108D01*
D02*
G37*
G36*
X180927D02*
X178882D01*
Y104965D01*
X180927D01*
Y107108D01*
D02*
G37*
G36*
X166590D02*
X164545D01*
Y104965D01*
X166590D01*
Y107108D01*
D02*
G37*
G36*
X164195D02*
X162150D01*
Y104965D01*
X164195D01*
Y107108D01*
D02*
G37*
G36*
X227898Y110602D02*
X227024D01*
X226180Y110376D01*
X225423Y109939D01*
X224805Y109321D01*
X224368Y108564D01*
X224142Y107720D01*
Y106847D01*
X224368Y106003D01*
X224805Y105246D01*
X225423Y104628D01*
X226180Y104191D01*
X227024Y103965D01*
X227898D01*
X228742Y104191D01*
X229498Y104628D01*
X230116Y105246D01*
X230553Y106003D01*
X230779Y106847D01*
Y107720D01*
X230553Y108564D01*
X230116Y109321D01*
X229498Y109939D01*
X228742Y110376D01*
X227898Y110602D01*
D02*
G37*
G36*
X160783Y103598D02*
X158640D01*
Y101553D01*
X160783D01*
Y103598D01*
D02*
G37*
G36*
X158290D02*
X156146D01*
Y101553D01*
X158290D01*
Y103598D01*
D02*
G37*
G36*
X160783Y101203D02*
X158640D01*
Y99158D01*
X160783D01*
Y101203D01*
D02*
G37*
G36*
X158290D02*
X156146D01*
Y99158D01*
X158290D01*
Y101203D01*
D02*
G37*
G36*
X166590Y103697D02*
X162150D01*
Y99059D01*
X166590D01*
Y103697D01*
D02*
G37*
G36*
X207990Y111811D02*
X207364D01*
X206785Y111571D01*
X206342Y111128D01*
X206102Y110549D01*
Y109923D01*
X206342Y109344D01*
X206785Y108901D01*
X207364Y108661D01*
X207896D01*
X215283Y101275D01*
X215594Y101067D01*
X215961Y100994D01*
X226546D01*
X226592Y100644D01*
X226180Y100533D01*
X225423Y100096D01*
X224805Y99479D01*
X224368Y98722D01*
X224142Y97878D01*
Y97616D01*
X227461D01*
X230779D01*
Y97878D01*
X230553Y98722D01*
X230116Y99479D01*
X229498Y100096D01*
X228742Y100533D01*
X228329Y100644D01*
X228375Y100994D01*
X242398D01*
X242456Y100777D01*
X242857Y100082D01*
X243425Y99515D01*
X244119Y99114D01*
X244894Y98906D01*
X245696D01*
X246471Y99114D01*
X247166Y99515D01*
X247733Y100082D01*
X248134Y100777D01*
X248342Y101552D01*
Y102354D01*
X248134Y103129D01*
X247733Y103824D01*
X247166Y104391D01*
X246471Y104792D01*
X245696Y105000D01*
X244894D01*
X244119Y104792D01*
X243425Y104391D01*
X242857Y103824D01*
X242456Y103129D01*
X242398Y102912D01*
X216358D01*
X209252Y110018D01*
Y110549D01*
X209012Y111128D01*
X208569Y111571D01*
X207990Y111811D01*
D02*
G37*
G36*
X135696Y105000D02*
X134894D01*
X134119Y104792D01*
X133424Y104391D01*
X132857Y103824D01*
X132456Y103129D01*
X132248Y102354D01*
Y101552D01*
X132456Y100777D01*
X132857Y100082D01*
X133424Y99515D01*
X134119Y99114D01*
X134894Y98906D01*
X135696D01*
X136471Y99114D01*
X137166Y99515D01*
X137733Y100082D01*
X138135Y100777D01*
X138342Y101552D01*
Y102354D01*
X138135Y103129D01*
X137733Y103824D01*
X137166Y104391D01*
X136471Y104792D01*
X135696Y105000D01*
D02*
G37*
G36*
X154877Y97693D02*
X152734D01*
Y95647D01*
X154877D01*
Y97693D01*
D02*
G37*
G36*
X152384D02*
X150241D01*
Y95647D01*
X152384D01*
Y97693D01*
D02*
G37*
G36*
X230779Y97266D02*
X227636D01*
Y94122D01*
X227898D01*
X228742Y94349D01*
X229498Y94785D01*
X230116Y95403D01*
X230553Y96160D01*
X230779Y97004D01*
Y97266D01*
D02*
G37*
G36*
X227286D02*
X224142D01*
Y97004D01*
X224368Y96160D01*
X224805Y95403D01*
X225423Y94785D01*
X226180Y94349D01*
X227024Y94122D01*
X227286D01*
Y97266D01*
D02*
G37*
G36*
X154877Y95297D02*
X152734D01*
Y93252D01*
X154877D01*
Y95297D01*
D02*
G37*
G36*
X152384D02*
X150241D01*
Y93252D01*
X152384D01*
Y95297D01*
D02*
G37*
G36*
X209244Y91665D02*
X207199D01*
Y89521D01*
X209244D01*
Y91665D01*
D02*
G37*
G36*
X206849D02*
X204803D01*
Y89521D01*
X206849D01*
Y91665D01*
D02*
G37*
G36*
X178141Y91271D02*
X176096D01*
Y89128D01*
X178141D01*
Y91271D01*
D02*
G37*
G36*
X175746D02*
X173701D01*
Y89128D01*
X175746D01*
Y91271D01*
D02*
G37*
G36*
X207990Y105905D02*
X207364D01*
X206785Y105666D01*
X206342Y105223D01*
X206102Y104644D01*
Y104017D01*
X206342Y103439D01*
X206785Y102996D01*
X207364Y102756D01*
X207896D01*
X219377Y91275D01*
X219688Y91067D01*
X220055Y90994D01*
X226005D01*
X226098Y90644D01*
X225423Y90254D01*
X224805Y89636D01*
X224368Y88879D01*
X224142Y88035D01*
Y87161D01*
X224368Y86317D01*
X224805Y85561D01*
X225423Y84943D01*
X225900Y84668D01*
Y73383D01*
X222514Y69997D01*
X222175Y69491D01*
X222057Y68893D01*
Y67279D01*
X221205D01*
Y62642D01*
X225645D01*
Y67279D01*
X225179D01*
Y68247D01*
X228565Y71632D01*
X228903Y72139D01*
X229022Y72736D01*
Y84668D01*
X229498Y84943D01*
X230116Y85561D01*
X230553Y86317D01*
X230779Y87161D01*
Y88035D01*
X230553Y88879D01*
X230116Y89636D01*
X229498Y90254D01*
X228823Y90644D01*
X228917Y90994D01*
X242398D01*
X242456Y90777D01*
X242857Y90082D01*
X243425Y89515D01*
X244119Y89113D01*
X244894Y88906D01*
X245696D01*
X246471Y89113D01*
X247166Y89515D01*
X247733Y90082D01*
X248134Y90777D01*
X248342Y91552D01*
Y92354D01*
X248134Y93129D01*
X247733Y93824D01*
X247166Y94391D01*
X246471Y94792D01*
X245696Y95000D01*
X244894D01*
X244119Y94792D01*
X243425Y94391D01*
X242857Y93824D01*
X242456Y93129D01*
X242398Y92912D01*
X220452D01*
X209252Y104112D01*
Y104644D01*
X209012Y105223D01*
X208569Y105666D01*
X207990Y105905D01*
D02*
G37*
G36*
X135696Y95000D02*
X134894D01*
X134119Y94792D01*
X133424Y94391D01*
X132857Y93824D01*
X132456Y93129D01*
X132248Y92354D01*
Y91552D01*
X132456Y90777D01*
X132857Y90082D01*
X133424Y89515D01*
X134119Y89113D01*
X134894Y88906D01*
X135696D01*
X136471Y89113D01*
X137166Y89515D01*
X137733Y90082D01*
X138135Y90777D01*
X138342Y91552D01*
Y92354D01*
X138135Y93129D01*
X137733Y93824D01*
X137166Y94391D01*
X136471Y94792D01*
X135696Y95000D01*
D02*
G37*
G36*
X209244Y89171D02*
X207199D01*
Y87028D01*
X209244D01*
Y89171D01*
D02*
G37*
G36*
X206849D02*
X204803D01*
Y87028D01*
X206849D01*
Y89171D01*
D02*
G37*
G36*
X160783Y97693D02*
X156146D01*
Y93252D01*
X158859D01*
X160429Y91683D01*
X160335Y91455D01*
Y90829D01*
X160549Y90311D01*
Y89917D01*
X159689D01*
Y86855D01*
X161491D01*
X161596Y86811D01*
X162223D01*
X162328Y86855D01*
X164129D01*
Y87025D01*
X164622D01*
X165139Y86811D01*
X165766D01*
X166345Y87051D01*
X166788Y87494D01*
X167028Y88073D01*
Y88699D01*
X166788Y89278D01*
X166345Y89721D01*
X165766Y89961D01*
X165139D01*
X164622Y89746D01*
X164129D01*
Y89917D01*
X163270D01*
Y90311D01*
X163484Y90829D01*
Y91455D01*
X163270Y91973D01*
Y92126D01*
X163166Y92647D01*
X162871Y93088D01*
X160783Y95176D01*
Y97693D01*
D02*
G37*
G36*
X178141Y88778D02*
X176096D01*
Y86634D01*
X178141D01*
Y88778D01*
D02*
G37*
G36*
X175746D02*
X173701D01*
Y86634D01*
X175746D01*
Y88778D01*
D02*
G37*
G36*
X193460Y84208D02*
X192104D01*
Y82262D01*
X193460D01*
Y84208D01*
D02*
G37*
G36*
X191754D02*
X190398D01*
Y82262D01*
X191754D01*
Y84208D01*
D02*
G37*
G36*
X248342Y85000D02*
X245470D01*
Y82128D01*
X248342D01*
Y85000D01*
D02*
G37*
G36*
X138342D02*
X135470D01*
Y82128D01*
X138342D01*
Y85000D01*
D02*
G37*
G36*
X245120D02*
X242248D01*
Y82128D01*
X245120D01*
Y85000D01*
D02*
G37*
G36*
X135120D02*
X132248D01*
Y82128D01*
X135120D01*
Y85000D01*
D02*
G37*
G36*
X209244Y85759D02*
X204803D01*
Y81122D01*
X209244D01*
Y85759D01*
D02*
G37*
G36*
X178141Y85366D02*
X173701D01*
Y80729D01*
X178141D01*
Y81718D01*
X179834D01*
X180210Y81342D01*
X180789Y81102D01*
X181416D01*
X181994Y81342D01*
X182437Y81785D01*
X182677Y82364D01*
Y82990D01*
X182437Y83569D01*
X181994Y84012D01*
X181416Y84252D01*
X180789D01*
X180210Y84012D01*
X179834Y83636D01*
X178141D01*
Y85366D01*
D02*
G37*
G36*
X164129Y82437D02*
X162084D01*
Y81081D01*
X164129D01*
Y82437D01*
D02*
G37*
G36*
X161734D02*
X159689D01*
Y81081D01*
X161734D01*
Y82437D01*
D02*
G37*
G36*
X191754Y81912D02*
X190398D01*
Y79965D01*
X191754D01*
Y81912D01*
D02*
G37*
G36*
X164129Y80730D02*
X162084D01*
Y79374D01*
X164129D01*
Y80730D01*
D02*
G37*
G36*
X161734D02*
X159689D01*
Y79374D01*
X161734D01*
Y80730D01*
D02*
G37*
G36*
X248342Y81778D02*
X245470D01*
Y78906D01*
X248342D01*
Y81778D01*
D02*
G37*
G36*
X245120D02*
X242248D01*
Y78906D01*
X245120D01*
Y81778D01*
D02*
G37*
G36*
X138342D02*
X135470D01*
Y78906D01*
X138342D01*
Y81778D01*
D02*
G37*
G36*
X135120D02*
X132248D01*
Y78906D01*
X135120D01*
Y81778D01*
D02*
G37*
G36*
X202085Y76378D02*
X201458D01*
X200880Y76138D01*
X200437Y75695D01*
X200197Y75116D01*
Y74490D01*
X200437Y73911D01*
X200880Y73468D01*
X201458Y73228D01*
X202085D01*
X202664Y73468D01*
X203107Y73911D01*
X203346Y74490D01*
Y75116D01*
X203107Y75695D01*
X202664Y76138D01*
X202085Y76378D01*
D02*
G37*
G36*
X205708Y71746D02*
X204351D01*
Y69307D01*
X205708D01*
Y71746D01*
D02*
G37*
G36*
X178805D02*
X177448D01*
Y69307D01*
X178805D01*
Y71746D01*
D02*
G37*
G36*
X215038Y70171D02*
X211910D01*
Y67044D01*
X215038D01*
Y70171D01*
D02*
G37*
G36*
X174723D02*
X171596D01*
Y67044D01*
X174723D01*
Y70171D01*
D02*
G37*
G36*
X211560D02*
X208433D01*
Y67044D01*
X211560D01*
Y70171D01*
D02*
G37*
G36*
X171246D02*
X168118D01*
Y67044D01*
X171246D01*
Y70171D01*
D02*
G37*
G36*
X215038Y66694D02*
X211910D01*
Y63566D01*
X215038D01*
Y66694D01*
D02*
G37*
G36*
X211560D02*
X208433D01*
Y63566D01*
X211560D01*
Y66694D01*
D02*
G37*
G36*
X174723D02*
X171596D01*
Y63566D01*
X174723D01*
Y66694D01*
D02*
G37*
G36*
X171246D02*
X168118D01*
Y63566D01*
X171246D01*
Y66694D01*
D02*
G37*
G36*
X161669Y61374D02*
X157229D01*
Y56737D01*
X161669D01*
Y61374D01*
D02*
G37*
G36*
X215038Y54699D02*
X211910D01*
Y51571D01*
X215038D01*
Y54699D01*
D02*
G37*
G36*
X174723D02*
X171596D01*
Y51571D01*
X174723D01*
Y54699D01*
D02*
G37*
G36*
X211560D02*
X208433D01*
Y51571D01*
X211560D01*
Y54699D01*
D02*
G37*
G36*
X171246D02*
X168118D01*
Y51571D01*
X171246D01*
Y54699D01*
D02*
G37*
G36*
X215038Y51221D02*
X211910D01*
Y48093D01*
X215038D01*
Y51221D01*
D02*
G37*
G36*
X211560D02*
X208433D01*
Y48093D01*
X211560D01*
Y51221D01*
D02*
G37*
G36*
X174723D02*
X171596D01*
Y48093D01*
X174723D01*
Y51221D01*
D02*
G37*
G36*
X171246D02*
X168118D01*
Y48093D01*
X171246D01*
Y51221D01*
D02*
G37*
%LPD*%
D11*
X200590Y201870D02*
Y201969D01*
Y201870D02*
X202067Y200394D01*
X202165D01*
X189754Y188242D02*
Y189254D01*
X174016Y189862D02*
Y189961D01*
X188137Y186625D02*
X189754Y188242D01*
X177253Y186625D02*
X188137D01*
X174016Y189862D02*
X177253Y186625D01*
X191732Y197013D02*
X193110Y198391D01*
Y201575D01*
X191732Y196563D02*
Y197013D01*
X187795Y188813D02*
Y189263D01*
X183532Y187795D02*
X186777D01*
X183849Y195660D02*
X184907D01*
X185114Y195866D01*
X183080Y194891D02*
X183849Y195660D01*
X183080Y192116D02*
X183268Y191929D01*
X183080Y189961D02*
X185114D01*
X183268Y191929D02*
X185114D01*
X183071Y188257D02*
X183532Y187795D01*
X183071Y189951D02*
X183080Y189961D01*
X183071Y188257D02*
Y189951D01*
X186777Y187795D02*
X187795Y188813D01*
X179921Y189961D02*
X179921Y189961D01*
X191723Y187380D02*
Y189254D01*
X190957Y186614D02*
X191723Y187380D01*
X190945Y186614D02*
X190957D01*
X189425Y185094D02*
X190945Y186614D01*
X172878Y185094D02*
X189425D01*
X168110Y189862D02*
X172878Y185094D01*
X188257Y194095D02*
X189764D01*
X187795Y194556D02*
X188257Y194095D01*
X187795Y194556D02*
Y196563D01*
X189764Y194095D02*
Y196563D01*
X194414Y187870D02*
X194488Y187795D01*
X194414Y187870D02*
Y193898D01*
D16*
X191732Y189263D02*
D03*
X189764D02*
D03*
X187795D02*
D03*
Y196563D02*
D03*
X189764D02*
D03*
X191732D02*
D03*
D17*
X185114Y189961D02*
D03*
Y191929D02*
D03*
Y193898D02*
D03*
Y195866D02*
D03*
X194414D02*
D03*
Y193898D02*
D03*
Y191929D02*
D03*
D18*
X208071Y182677D02*
D03*
X202165D02*
D03*
X193110Y201575D02*
D03*
X158465Y95472D02*
D03*
X208071Y194488D02*
D03*
X202165D02*
D03*
X208071Y188583D02*
D03*
X202165D02*
D03*
X208071Y200394D02*
D03*
X202165D02*
D03*
X187205Y201575D02*
D03*
X222441Y182480D02*
D03*
Y160433D02*
D03*
X158465Y107283D02*
D03*
X152559Y95472D02*
D03*
X158465Y101378D02*
D03*
X152559Y128937D02*
D03*
X165291Y181276D02*
D03*
Y171433D02*
D03*
X181102Y113189D02*
D03*
X201772D02*
D03*
X229331Y149606D02*
D03*
X234252Y160433D02*
D03*
X180118Y205709D02*
D03*
X174213D02*
D03*
X158465Y128937D02*
D03*
X195866Y113189D02*
D03*
X216535Y182480D02*
D03*
X223425Y149606D02*
D03*
X223425Y143701D02*
D03*
X187008Y113189D02*
D03*
X228346Y160433D02*
D03*
X216535D02*
D03*
X229331Y143701D02*
D03*
X159386Y171433D02*
D03*
Y181276D02*
D03*
X152559Y101378D02*
D03*
Y107283D02*
D03*
D19*
X174016Y189961D02*
D03*
X201772Y146653D02*
D03*
Y125984D02*
D03*
X179921Y189961D02*
D03*
X174016Y195866D02*
D03*
X175197Y151575D02*
D03*
X168110Y195866D02*
D03*
X169291Y151575D02*
D03*
X181102Y146653D02*
D03*
Y125984D02*
D03*
X164370Y101378D02*
D03*
X168110Y189961D02*
D03*
X179921Y195866D02*
D03*
X164370Y107283D02*
D03*
X201772Y131890D02*
D03*
X181102D02*
D03*
X175197Y157480D02*
D03*
X201772Y140748D02*
D03*
X169291Y157480D02*
D03*
X181102Y140748D02*
D03*
X187008Y128937D02*
D03*
X195866D02*
D03*
X207024Y89346D02*
D03*
X181102Y107283D02*
D03*
X201772D02*
D03*
X175921Y88953D02*
D03*
X195866Y107283D02*
D03*
X187008Y134843D02*
D03*
X187008Y107283D02*
D03*
X195866Y134843D02*
D03*
X175921Y83047D02*
D03*
X223425Y64961D02*
D03*
Y59055D02*
D03*
X159449Y64961D02*
D03*
Y59055D02*
D03*
X201772Y101378D02*
D03*
X181102D02*
D03*
X195866D02*
D03*
X187008D02*
D03*
X207024Y83441D02*
D03*
D20*
X233563Y170276D02*
D03*
Y192323D02*
D03*
X217224D02*
D03*
Y170276D02*
D03*
D21*
X161909Y88386D02*
D03*
Y80905D02*
D03*
Y114370D02*
D03*
Y121850D02*
D03*
X151083Y118110D02*
D03*
Y84646D02*
D03*
D22*
X171421Y51396D02*
D03*
Y66869D02*
D03*
X211735Y51396D02*
D03*
Y66869D02*
D03*
D23*
X178980Y69132D02*
D03*
X204176D02*
D03*
X201027D02*
D03*
X182129D02*
D03*
D24*
X191929Y82087D02*
D03*
X188189D02*
D03*
X195669D02*
D03*
Y91142D02*
D03*
X191929D02*
D03*
X188189D02*
D03*
D25*
X195845Y141732D02*
D03*
X186024D02*
D03*
D26*
X146492Y171433D02*
D03*
Y181276D02*
D03*
X152594Y171433D02*
D03*
Y181276D02*
D03*
D27*
X192562Y69132D02*
D03*
X188625D02*
D03*
X194531D02*
D03*
X190594D02*
D03*
X184688D02*
D03*
X198468D02*
D03*
X196499D02*
D03*
X186657D02*
D03*
D29*
X135295Y161953D02*
D03*
X245295Y131953D02*
D03*
Y191953D02*
D03*
X135295D02*
D03*
Y121953D02*
D03*
X245295Y171953D02*
D03*
X135295Y151953D02*
D03*
Y171953D02*
D03*
Y131953D02*
D03*
X245295Y101953D02*
D03*
Y161953D02*
D03*
Y91953D02*
D03*
X135295Y181953D02*
D03*
X245295Y151953D02*
D03*
Y141953D02*
D03*
Y181953D02*
D03*
Y121953D02*
D03*
Y111953D02*
D03*
X135295Y141953D02*
D03*
Y91953D02*
D03*
Y101953D02*
D03*
Y111953D02*
D03*
D31*
X245295Y81953D02*
D03*
X135295D02*
D03*
D32*
X227461Y97441D02*
D03*
Y117126D02*
D03*
Y107283D02*
D03*
Y87598D02*
D03*
D33*
Y126969D02*
D03*
D34*
X202956Y64900D02*
D03*
X180200D02*
D03*
D35*
X194414Y189961D02*
D03*
D36*
X161909Y88386D02*
X165453D01*
X161909Y88386D02*
X161909Y88386D01*
X161909Y91142D02*
Y92126D01*
X208071Y200394D02*
Y204528D01*
Y194488D02*
Y200394D01*
X204921Y207677D02*
X208071Y204528D01*
X203740Y207677D02*
X204921D01*
X199803Y202756D02*
Y204724D01*
Y202756D02*
X200590Y201969D01*
X191929Y91142D02*
Y98425D01*
X158563Y95472D02*
X161909Y92126D01*
Y88386D02*
Y91142D01*
X158071Y128347D02*
X158563Y128839D01*
X208071Y188583D02*
Y194488D01*
Y182677D02*
Y188583D01*
X162402Y80709D02*
X162795D01*
X162402Y80709D02*
X162402Y80709D01*
X165256Y79331D02*
Y82284D01*
X164173Y79331D02*
X165256D01*
X162795Y80709D02*
X164173Y79331D01*
X158563Y128839D02*
X158661D01*
X158071Y121850D02*
Y128347D01*
Y121850D02*
X161909D01*
X135398D02*
X158071D01*
X143953Y111953D02*
X144685Y111221D01*
X135295Y111953D02*
X143953D01*
X144685Y111221D02*
Y115157D01*
Y84646D02*
X150098D01*
X144685D02*
Y101378D01*
X164370Y64961D02*
X164370Y64961D01*
X159449Y64961D02*
X164370D01*
X164370Y64961D02*
Y71850D01*
X223425Y59055D02*
X223425Y59055D01*
X166339Y59055D02*
X223425D01*
X164370Y61024D02*
X166339Y59055D01*
X164370Y61024D02*
Y64961D01*
X160433Y75787D02*
X164370Y71850D01*
X148622Y75787D02*
X160433D01*
X144685Y79724D02*
X148622Y75787D01*
X144685Y79724D02*
Y84646D01*
X147638Y118110D02*
X150098D01*
X144685Y115157D02*
X147638Y118110D01*
X144685Y107283D02*
Y111221D01*
Y101378D02*
X152559D01*
X144685Y107283D02*
X152559D01*
X144685Y101378D02*
Y107283D01*
D37*
X222146Y142421D02*
Y142618D01*
X222047Y142717D02*
X222146Y142618D01*
X217520Y142717D02*
X222047D01*
X222146Y142421D02*
X223425Y143701D01*
X229331Y143701D02*
X229878Y144248D01*
X232721D01*
X171457Y107874D02*
X175000Y104331D01*
X171457Y107874D02*
Y122069D01*
X174213Y112095D02*
Y144932D01*
X174296Y145016D02*
X180430Y151150D01*
X135295Y131953D02*
X174094D01*
X174213Y112095D02*
X177165Y109142D01*
Y98826D02*
Y109142D01*
Y98826D02*
X181319Y94672D01*
X180430Y151150D02*
X186583D01*
X192913Y157480D01*
Y163633D01*
X207233Y177953D01*
X207473Y172040D02*
Y174873D01*
X198611Y163178D02*
X207473Y172040D01*
X198611Y157568D02*
Y163178D01*
X215748Y156102D02*
X216142Y156496D01*
X215748Y150000D02*
Y156102D01*
X216142Y156496D02*
X224311D01*
X207233Y177953D02*
X212402D01*
X216535Y182087D01*
X162636Y141535D02*
X164013Y142913D01*
X164173D01*
X145713Y141535D02*
X162636D01*
X135295Y151953D02*
X145713Y141535D01*
X182837Y161417D02*
X196653Y175234D01*
Y195174D01*
X182564Y161530D02*
X182677Y161417D01*
X182837D01*
X135718Y161530D02*
X182564D01*
X135295Y161953D02*
X135718Y161530D01*
X189754Y189254D02*
X189764Y189263D01*
X195971Y195857D02*
X196653Y195174D01*
X194423Y195857D02*
X195971D01*
X194414Y195866D02*
X194423Y195857D01*
X183080Y192116D02*
Y194891D01*
X182998Y189961D02*
X183018Y189981D01*
X183080Y189961D02*
Y192116D01*
X179921Y189961D02*
X182998D01*
X158465Y95472D02*
X158563D01*
X191723Y189254D02*
X191732Y189263D01*
X170079Y183071D02*
X174643D01*
X175824Y181890D02*
X175984D01*
X174643Y183071D02*
X175824Y181890D01*
X164471Y189961D02*
X168110D01*
X167323Y185827D02*
X170079Y183071D01*
X163779Y187008D02*
Y189269D01*
X164471Y189961D01*
X164961Y185827D02*
X167323D01*
X163779Y187008D02*
X164961Y185827D01*
X165551Y177539D02*
X193287D01*
X165532Y177520D02*
X165551Y177539D01*
X193287D02*
X193307Y177559D01*
X179921Y211258D02*
X180118Y211061D01*
Y205709D02*
Y211061D01*
X179921Y211258D02*
Y211417D01*
X174134Y205079D02*
X174346Y205291D01*
X165532Y205079D02*
X174134D01*
X165256Y114272D02*
X165354Y114173D01*
X171421Y66869D02*
Y67090D01*
X172441Y68110D01*
X173783Y69231D02*
X178389D01*
X171421Y66869D02*
X173783Y69231D01*
X172244Y88583D02*
X175551D01*
X175921Y88953D01*
X178957Y69798D02*
Y70433D01*
X178389Y69231D02*
X178957Y69798D01*
X162500Y114272D02*
X165256D01*
X162402Y114173D02*
X162500Y114272D01*
X165291Y181276D02*
X166449Y180118D01*
X173228D01*
X204153Y69844D02*
X204767Y69231D01*
X201772Y113189D02*
X205709D01*
X211735Y66869D02*
Y67005D01*
X210630Y68110D02*
X211735Y67005D01*
X204767Y69231D02*
X209373D01*
X211735Y66869D01*
X210250Y89346D02*
X210470Y89567D01*
X207024Y89346D02*
X210250D01*
X210470Y89567D02*
X210630D01*
X195866Y107382D02*
Y113189D01*
X217918Y138386D02*
X229921D01*
X237507Y145971D01*
Y164164D01*
X245295Y171953D01*
X145961D02*
X146653Y171260D01*
X135295Y171953D02*
X145961D01*
X181319Y90976D02*
Y94672D01*
X217224Y182776D02*
Y191929D01*
X223425Y143701D02*
Y149606D01*
X207677Y110236D02*
X215961Y101953D01*
X245295D01*
X192539Y70433D02*
Y75095D01*
X191848Y75787D02*
X192539Y75095D01*
X189294Y75787D02*
X191848D01*
X188602Y75095D02*
X189294Y75787D01*
X188602Y75095D02*
Y80905D01*
Y70433D02*
Y75095D01*
X187988Y81520D02*
X188602Y80905D01*
X218293Y135662D02*
X230151D01*
X239430Y144942D01*
Y156088D01*
X245295Y161953D01*
X207677Y104331D02*
X220055Y91953D01*
X245295D01*
X145803Y181953D02*
X146653Y181102D01*
X135295Y181953D02*
X145803D01*
X201499Y136698D02*
X201612Y136811D01*
X198819Y134843D02*
X200674Y136698D01*
X201499D01*
X198819Y122739D02*
Y134843D01*
X198127Y122047D02*
X198819Y122739D01*
X188976Y122047D02*
X198127D01*
X187008Y120079D02*
X188976Y122047D01*
X187008Y113189D02*
Y120079D01*
X187008Y113189D02*
X187008Y113189D01*
X187008Y107283D02*
Y113189D01*
X220740Y133071D02*
X221527Y133858D01*
X231299D01*
X218279Y132958D02*
X218392Y133071D01*
X220740D01*
X231299Y133858D02*
X241573Y144132D01*
Y148231D01*
X245295Y151953D01*
X221344Y129808D02*
X223425Y131890D01*
X216255Y129808D02*
X221344D01*
X216142Y129921D02*
X216255Y129808D01*
X223425Y131890D02*
X232283D01*
X241842Y141449D01*
X244791D01*
X245295Y141953D01*
X193816Y64961D02*
X194508Y65653D01*
Y70433D01*
X191263Y64961D02*
X193816D01*
X190571Y65653D02*
Y70433D01*
Y65653D02*
X191263Y64961D01*
X194508Y79744D02*
X195079Y80315D01*
X194508Y70433D02*
Y79744D01*
X195079Y80315D02*
Y81496D01*
X195669Y82087D01*
X211614Y157188D02*
X212306Y156496D01*
X211614Y157188D02*
Y160433D01*
X212306Y156496D02*
X216142D01*
X224311D02*
X228248Y160433D01*
X211614D02*
X216535D01*
X211614Y169291D02*
X212598Y170276D01*
X211614Y160433D02*
Y169291D01*
X228248Y160433D02*
X228346D01*
X212598Y170276D02*
X217224D01*
X215748Y125984D02*
X219779Y121953D01*
X245295D01*
X207677Y119095D02*
X214819Y111953D01*
X245295D01*
X198445Y70433D02*
Y76398D01*
X199803Y77756D01*
X195669Y91142D02*
X199409D01*
X194882Y98425D02*
Y101378D01*
Y98425D02*
X195866Y97441D01*
X199803D01*
X200787Y98425D01*
Y101378D01*
X199803Y77756D02*
Y97441D01*
X194488Y61811D02*
X194601Y61924D01*
X200436Y67459D02*
Y69865D01*
X199999Y66479D02*
Y67022D01*
X194601Y61924D02*
X195444D01*
X199999Y67022D02*
X200436Y67459D01*
X195444Y61924D02*
X199999Y66479D01*
X182720Y66493D02*
X187402Y61811D01*
X182720Y66493D02*
Y69820D01*
X200436Y69865D02*
X201004Y70433D01*
X182106D02*
X182720Y69820D01*
X186634Y70433D02*
Y76161D01*
X184055Y78740D02*
Y91535D01*
Y78740D02*
X186634Y76161D01*
X184449Y91142D02*
X188189D01*
X184055Y91535D02*
X184449Y91142D01*
X182087Y98133D02*
Y101378D01*
Y98133D02*
X182779Y97441D01*
X184055D01*
X187008D02*
X187992Y98425D01*
Y101378D01*
X184055Y97441D02*
X187008D01*
X184055Y91535D02*
Y97441D01*
X176291Y82677D02*
X181102D01*
X175921Y83047D02*
X176291Y82677D01*
X152594Y171433D02*
X159386D01*
X152594Y181276D02*
X152594Y181276D01*
X159386D01*
D38*
X186429Y135528D02*
X186516Y135614D01*
X186024Y140748D02*
X186516Y140256D01*
Y135614D02*
Y140256D01*
X186024Y140748D02*
Y141732D01*
X195845D02*
X195855Y141722D01*
X196389Y135528D02*
X196429D01*
X195855Y136061D02*
Y141722D01*
Y136061D02*
X196389Y135528D01*
D39*
X223425Y64961D02*
X223618Y65153D01*
Y68893D02*
X227461Y72736D01*
Y87598D01*
X223618Y65153D02*
Y68893D01*
D40*
X140945Y58268D02*
D03*
Y209842D02*
D03*
X240945Y58268D02*
D03*
Y209842D02*
D03*
D41*
X217520Y142717D02*
D03*
X232721Y144248D02*
D03*
X210630Y89567D02*
D03*
X203740Y207677D02*
D03*
X199803Y204724D02*
D03*
X192913Y201772D02*
D03*
X187008D02*
D03*
X180118Y195866D02*
D03*
X174213D02*
D03*
X180118Y189961D02*
D03*
X175000Y104331D02*
D03*
X171457Y122069D02*
D03*
X166339Y121063D02*
D03*
X169291Y115157D02*
D03*
X191929Y98425D02*
D03*
X201772Y157480D02*
D03*
X174016Y189764D02*
D03*
X214173Y210236D02*
D03*
X214567Y205118D02*
D03*
X187402Y157874D02*
D03*
X190044Y159169D02*
D03*
X215748Y150000D02*
D03*
X207473Y174873D02*
D03*
X181102Y141732D02*
D03*
X164173Y142913D02*
D03*
X182677Y161417D02*
D03*
X162402Y146653D02*
D03*
X234252Y170276D02*
D03*
X201772Y74803D02*
D03*
Y146653D02*
D03*
Y125984D02*
D03*
X175197Y151575D02*
D03*
X169291D02*
D03*
X181102Y146653D02*
D03*
Y125984D02*
D03*
X165453Y88386D02*
D03*
X164370Y101378D02*
D03*
X158465Y95472D02*
D03*
X161909Y88386D02*
D03*
Y91142D02*
D03*
X175984Y181890D02*
D03*
X165354Y152559D02*
D03*
X193307Y177559D02*
D03*
X165532Y177520D02*
D03*
X194414Y187870D02*
D03*
X189764Y194095D02*
D03*
X179921Y211417D02*
D03*
X202165Y194488D02*
D03*
Y188583D02*
D03*
Y182677D02*
D03*
X208071Y194488D02*
D03*
Y188583D02*
D03*
Y182677D02*
D03*
X165532Y205079D02*
D03*
X192913Y157480D02*
D03*
X198611Y157568D02*
D03*
X195374Y157480D02*
D03*
X152559Y95472D02*
D03*
X162402Y80709D02*
D03*
X158465Y101378D02*
D03*
Y107283D02*
D03*
X164370Y107283D02*
D03*
X162402Y114173D02*
D03*
X165354D02*
D03*
X170079Y52756D02*
D03*
Y50000D02*
D03*
X169685Y68110D02*
D03*
Y65354D02*
D03*
X172441D02*
D03*
X172835Y50000D02*
D03*
Y52756D02*
D03*
X172441Y68110D02*
D03*
X172244Y88583D02*
D03*
X181102Y107283D02*
D03*
Y113189D02*
D03*
X152559Y128937D02*
D03*
X169291Y157480D02*
D03*
X165291Y171433D02*
D03*
X165532Y199567D02*
D03*
Y210591D02*
D03*
Y216102D02*
D03*
X181102Y131890D02*
D03*
X171024Y168484D02*
D03*
X173228Y180118D02*
D03*
X175197Y157480D02*
D03*
X191929Y82677D02*
D03*
X195866Y128937D02*
D03*
X201772Y107283D02*
D03*
X205709Y113189D02*
D03*
X210236Y52756D02*
D03*
Y50000D02*
D03*
X210630Y68110D02*
D03*
Y65354D02*
D03*
X212992Y52756D02*
D03*
Y50000D02*
D03*
X213386Y65354D02*
D03*
Y68110D02*
D03*
X212992Y122047D02*
D03*
X187008Y128937D02*
D03*
X201772Y131890D02*
D03*
Y140748D02*
D03*
X229331Y149606D02*
D03*
X222441Y160433D02*
D03*
X217520Y177165D02*
D03*
X234252Y160433D02*
D03*
X222441Y182087D02*
D03*
X234252Y191929D02*
D03*
X165256Y79331D02*
D03*
Y82284D02*
D03*
X159326Y207800D02*
D03*
X158563Y128839D02*
D03*
X195866Y113189D02*
D03*
X213583Y140748D02*
D03*
X217918Y138386D02*
D03*
X195866Y125000D02*
D03*
X190453D02*
D03*
X191206Y112749D02*
D03*
X205709Y99410D02*
D03*
X160630Y143701D02*
D03*
X146653Y171260D02*
D03*
X181319Y90976D02*
D03*
X207677Y110236D02*
D03*
X188199Y82759D02*
D03*
X187992Y125000D02*
D03*
X186024Y140748D02*
D03*
X218293Y135662D02*
D03*
X183563Y135318D02*
D03*
X207677Y104331D02*
D03*
X146653Y181102D02*
D03*
X181102Y136811D02*
D03*
X201612D02*
D03*
X218279Y132958D02*
D03*
X216142Y129921D02*
D03*
X195733Y82836D02*
D03*
X185039Y125000D02*
D03*
X195845Y141732D02*
D03*
X215748Y125984D02*
D03*
X207677Y119095D02*
D03*
X177165Y112205D02*
D03*
X194488Y61811D02*
D03*
X187402D02*
D03*
X206693Y83661D02*
D03*
X159449Y59055D02*
D03*
X181102Y82677D02*
D03*
M02*
