G04*
G04 #@! TF.GenerationSoftware,Altium Limited,Altium Designer,25.8.1 (18)*
G04*
G04 Layer_Color=32896*
%FSLAX25Y25*%
%MOIN*%
G70*
G04*
G04 #@! TF.SameCoordinates,47D8EFF9-3140-4044-9253-19D122A8EBA5*
G04*
G04*
G04 #@! TF.FilePolarity,Positive*
G04*
G01*
G75*
%ADD10C,0.00984*%
%ADD12C,0.00394*%
%ADD13C,0.00787*%
%ADD15C,0.00602*%
G36*
X230217Y51378D02*
Y51355D01*
Y48996D01*
X216339D01*
Y62850D01*
X230217D01*
Y51378D01*
D02*
G37*
%LPC*%
G36*
X223694Y59173D02*
X218582D01*
Y57739D01*
X221127D01*
Y57715D01*
X221265D01*
Y57692D01*
X221358D01*
Y57669D01*
X221427D01*
Y57646D01*
X221473D01*
Y57623D01*
X221520D01*
Y57600D01*
X221566D01*
Y57577D01*
X221589D01*
Y57554D01*
X221635D01*
Y57530D01*
X221658D01*
Y57507D01*
X221705D01*
Y57484D01*
X221728D01*
Y57461D01*
X221751D01*
Y57438D01*
X221774D01*
Y57415D01*
X221797D01*
Y57392D01*
X221820D01*
Y57369D01*
X221844D01*
Y57345D01*
X221867D01*
Y57299D01*
X221890D01*
Y57276D01*
X221913D01*
Y57253D01*
X221936D01*
Y57207D01*
X221959D01*
Y57160D01*
X221982D01*
Y57114D01*
X222005D01*
Y57068D01*
X222028D01*
Y56975D01*
X222052D01*
Y56860D01*
X222075D01*
Y51794D01*
Y51771D01*
Y51285D01*
X223694D01*
Y59173D01*
D02*
G37*
G36*
X227973Y60746D02*
X223694D01*
Y59173D01*
X227996D01*
Y60722D01*
X227973D01*
Y60746D01*
D02*
G37*
%LPD*%
D10*
X178268Y154626D02*
G03*
X178268Y154626I-492J0D01*
G01*
D12*
X221811Y216102D02*
G03*
X222205Y216102I197J0D01*
G01*
D02*
G03*
X221811Y216102I-197J0D01*
G01*
D13*
X135689Y74394D02*
G03*
X135689Y74394I-394J0D01*
G01*
X245689D02*
G03*
X245689Y74394I-394J0D01*
G01*
X213150Y167677D02*
X216299D01*
Y174370D01*
X164331Y167677D02*
X167480D01*
X164331D02*
Y174370D01*
Y219252D02*
Y258228D01*
X216299D01*
Y219252D02*
Y258228D01*
X179154Y148425D02*
X203957D01*
Y123622D02*
Y148425D01*
X179154Y123622D02*
X203957D01*
X179154D02*
Y148425D01*
X196476Y67079D02*
X210256D01*
X196476Y65110D02*
Y67079D01*
X186634Y65110D02*
X196476D01*
X186634D02*
Y67079D01*
X172854D02*
X186634D01*
X172854D02*
Y98575D01*
X210256D01*
Y67079D02*
Y98575D01*
X130295Y76953D02*
X140295D01*
X132795Y197957D02*
X137795D01*
X140295Y76953D02*
Y197898D01*
X130295Y76953D02*
Y197898D01*
Y197957D02*
X132795D01*
X137795D02*
X140295D01*
X247795D02*
X250295D01*
X240295D02*
X242795D01*
X240295Y76953D02*
Y197898D01*
X250295Y76953D02*
Y197898D01*
X242795Y197957D02*
X247795D01*
X240295Y76953D02*
X250295D01*
D15*
X196727Y60310D02*
Y63737D01*
X196358Y59941D02*
X196727Y60310D01*
X193209Y56791D02*
X196358Y59941D01*
X192027Y57973D02*
X193128Y56872D01*
X192027Y57973D02*
Y59252D01*
X192028Y63779D01*
X200394Y57382D02*
Y65650D01*
X202756Y105413D02*
X203937D01*
X201772Y100295D02*
Y104429D01*
X202756Y105413D01*
X194685Y105512D02*
X195669Y104528D01*
Y100394D02*
Y104528D01*
X193504Y105512D02*
X194685D01*
X161646Y59230D02*
X162958D01*
X162302D01*
Y55950D01*
X162958Y55295D01*
X163614D01*
X164270Y55950D01*
X160334Y55295D02*
Y55950D01*
X159678D01*
Y55295D01*
X160334D01*
X154430Y59230D02*
X155742D01*
X155086D01*
Y55950D01*
X155742Y55295D01*
X156398D01*
X157054Y55950D01*
X153119Y55295D02*
Y55950D01*
X152462D01*
Y55295D01*
X153119D01*
X167222Y53062D02*
Y49126D01*
X165254D01*
X164598Y49782D01*
Y50438D01*
X165254Y51094D01*
X167222D01*
X165254D01*
X164598Y51750D01*
Y52406D01*
X165254Y53062D01*
X167222D01*
X162630Y51750D02*
X161318D01*
X160662Y51094D01*
Y49126D01*
X162630D01*
X163286Y49782D01*
X162630Y50438D01*
X160662D01*
X159350Y51750D02*
Y49782D01*
X158694Y49126D01*
X156726D01*
Y51750D01*
X153446Y49126D02*
X154758D01*
X155414Y49782D01*
Y51094D01*
X154758Y51750D01*
X153446D01*
X152790Y51094D01*
Y50438D01*
X155414D01*
X151479Y51750D02*
Y49126D01*
Y50438D01*
X150823Y51094D01*
X150167Y51750D01*
X149511D01*
X191951Y54669D02*
X192607Y55326D01*
X193919D01*
X194575Y54669D01*
Y52046D01*
X193919Y51390D01*
X192607D01*
X191951Y52046D01*
Y53358D01*
X193263D01*
X190639Y51390D02*
Y55326D01*
X188015Y51390D01*
Y55326D01*
X186703D02*
Y51390D01*
X184736D01*
X184080Y52046D01*
Y54669D01*
X184736Y55326D01*
X186703D01*
X208453Y55129D02*
Y52505D01*
X207141Y51193D01*
X205829Y52505D01*
Y55129D01*
X201893Y54473D02*
X202549Y55129D01*
X203861D01*
X204517Y54473D01*
Y51849D01*
X203861Y51193D01*
X202549D01*
X201893Y51849D01*
X197958Y54473D02*
X198613Y55129D01*
X199925D01*
X200581Y54473D01*
Y51849D01*
X199925Y51193D01*
X198613D01*
X197958Y51849D01*
X143307Y74409D02*
X144619D01*
X143963D01*
Y71129D01*
X144619Y70473D01*
X145275D01*
X145931Y71129D01*
X141995Y70473D02*
X140683D01*
X141339D01*
Y74409D01*
X141995Y73753D01*
X172900Y104330D02*
X174212D01*
X173556D01*
Y101050D01*
X174212Y100394D01*
X174868D01*
X175524Y101050D01*
X168964Y104330D02*
X171588D01*
Y102362D01*
X170276Y103018D01*
X169620D01*
X168964Y102362D01*
Y101050D01*
X169620Y100394D01*
X170932D01*
X171588Y101050D01*
X212073Y160629D02*
Y157350D01*
X211417Y156694D01*
X210105D01*
X209449Y157350D01*
Y160629D01*
X208137Y156694D02*
X206825D01*
X207481D01*
Y160629D01*
X208137Y159973D01*
X229264Y211417D02*
Y208137D01*
X228608Y207481D01*
X227296D01*
X226640Y208137D01*
Y211417D01*
X222705D02*
X225328D01*
Y209449D01*
X224016Y210105D01*
X223360D01*
X222705Y209449D01*
Y208137D01*
X223360Y207481D01*
X224672D01*
X225328Y208137D01*
X240813Y74015D02*
X242125D01*
X241469D01*
Y70735D01*
X242125Y70079D01*
X242781D01*
X243437Y70735D01*
X236878Y70079D02*
X239502D01*
X236878Y72703D01*
Y73359D01*
X237534Y74015D01*
X238846D01*
X239502Y73359D01*
X170854Y77079D02*
Y81015D01*
X168886D01*
X168230Y80358D01*
Y79047D01*
X168886Y78391D01*
X170854D01*
X169542D02*
X168230Y77079D01*
X166919Y81015D02*
X164295Y77079D01*
Y81015D02*
X166919Y77079D01*
X170854Y92826D02*
X168230D01*
X169542D01*
Y88890D01*
X166919Y92826D02*
X164295Y88890D01*
Y92826D02*
X166919Y88890D01*
X188900Y106933D02*
X189556Y107589D01*
X190868D01*
X191524Y106933D01*
Y104309D01*
X190868Y103654D01*
X189556D01*
X188900Y104309D01*
X187588Y107589D02*
Y103654D01*
X184964D01*
X183652Y107589D02*
Y103654D01*
Y104965D01*
X181028Y107589D01*
X182996Y105621D01*
X181028Y103654D01*
X215933Y107885D02*
Y103949D01*
X213965D01*
X213309Y104605D01*
Y107229D01*
X213965Y107885D01*
X215933D01*
X211997D02*
X210685D01*
X211341D01*
Y103949D01*
X211997D01*
X210685D01*
X206750Y107885D02*
X208062D01*
X208717Y107229D01*
Y104605D01*
X208062Y103949D01*
X206750D01*
X206094Y104605D01*
Y107229D01*
X206750Y107885D01*
X238965Y95188D02*
Y91252D01*
Y95188D02*
X237278D01*
X236715Y95001D01*
X236528Y94813D01*
X236340Y94438D01*
Y94064D01*
X236528Y93689D01*
X236715Y93501D01*
X237278Y93314D01*
X238965D02*
X237278D01*
X236715Y93126D01*
X236528Y92939D01*
X236340Y92564D01*
Y92002D01*
X236528Y91627D01*
X236715Y91439D01*
X237278Y91252D01*
X238965D01*
X235459Y94438D02*
X235085Y94626D01*
X234522Y95188D01*
Y91252D01*
X230699Y95188D02*
X232573Y92564D01*
X229761D01*
X230699Y95188D02*
Y91252D01*
X157857Y92235D02*
X156357Y88299D01*
X154858Y92235D02*
X156357Y88299D01*
X154351Y90923D02*
Y89049D01*
X154164Y88487D01*
X153789Y88299D01*
X153227D01*
X152852Y88487D01*
X152290Y89049D01*
Y90923D02*
Y88299D01*
X149197Y90361D02*
X149384Y90736D01*
X149947Y90923D01*
X150509D01*
X151071Y90736D01*
X151259Y90361D01*
X151071Y89986D01*
X150697Y89799D01*
X149759Y89611D01*
X149384Y89424D01*
X149197Y89049D01*
Y88862D01*
X149384Y88487D01*
X149947Y88299D01*
X150509D01*
X151071Y88487D01*
X151259Y88862D01*
X146123Y90923D02*
Y88299D01*
Y90361D02*
X146498Y90736D01*
X146873Y90923D01*
X147435D01*
X147810Y90736D01*
X148185Y90361D01*
X148372Y89799D01*
Y89424D01*
X148185Y88862D01*
X147810Y88487D01*
X147435Y88299D01*
X146873D01*
X146498Y88487D01*
X146123Y88862D01*
X145073Y90923D02*
Y88299D01*
Y89799D02*
X144886Y90361D01*
X144511Y90736D01*
X144136Y90923D01*
X143574D01*
X142656Y92235D02*
Y89049D01*
X142468Y88487D01*
X142093Y88299D01*
X141718D01*
X143218Y90923D02*
X141906D01*
X236153Y82046D02*
X236340Y82421D01*
X236715Y82796D01*
X237090Y82983D01*
X237840D01*
X238215Y82796D01*
X238590Y82421D01*
X238777Y82046D01*
X238965Y81484D01*
Y80547D01*
X238777Y79984D01*
X238590Y79610D01*
X238215Y79235D01*
X237840Y79047D01*
X237090D01*
X236715Y79235D01*
X236340Y79610D01*
X236153Y79984D01*
Y80547D01*
X237090D02*
X236153D01*
X235253Y82983D02*
Y79047D01*
Y82983D02*
X232629Y79047D01*
Y82983D02*
Y79047D01*
X231542Y82983D02*
Y79047D01*
Y82983D02*
X230230D01*
X229668Y82796D01*
X229293Y82421D01*
X229105Y82046D01*
X228918Y81484D01*
Y80547D01*
X229105Y79984D01*
X229293Y79610D01*
X229668Y79235D01*
X230230Y79047D01*
X231542D01*
X238965Y104637D02*
Y100701D01*
Y104637D02*
X237278D01*
X236715Y104449D01*
X236528Y104262D01*
X236340Y103887D01*
Y103512D01*
X236528Y103137D01*
X236715Y102950D01*
X237278Y102763D01*
X238965D02*
X237278D01*
X236715Y102575D01*
X236528Y102388D01*
X236340Y102013D01*
Y101451D01*
X236528Y101076D01*
X236715Y100888D01*
X237278Y100701D01*
X238965D01*
X235459Y103887D02*
X235085Y104075D01*
X234522Y104637D01*
Y100701D01*
X232198Y104637D02*
X230136D01*
X231261Y103137D01*
X230699D01*
X230324Y102950D01*
X230136Y102763D01*
X229949Y102200D01*
Y101825D01*
X230136Y101263D01*
X230511Y100888D01*
X231073Y100701D01*
X231636D01*
X232198Y100888D01*
X232386Y101076D01*
X232573Y101451D01*
X238965Y114479D02*
Y110543D01*
Y114479D02*
X237278D01*
X236715Y114292D01*
X236528Y114105D01*
X236340Y113730D01*
Y113355D01*
X236528Y112980D01*
X236715Y112793D01*
X237278Y112605D01*
X238965D02*
X237278D01*
X236715Y112418D01*
X236528Y112230D01*
X236340Y111855D01*
Y111293D01*
X236528Y110918D01*
X236715Y110731D01*
X237278Y110543D01*
X238965D01*
X235459Y113730D02*
X235085Y113917D01*
X234522Y114479D01*
Y110543D01*
X232386Y113542D02*
Y113730D01*
X232198Y114105D01*
X232011Y114292D01*
X231636Y114479D01*
X230886D01*
X230511Y114292D01*
X230324Y114105D01*
X230136Y113730D01*
Y113355D01*
X230324Y112980D01*
X230699Y112418D01*
X232573Y110543D01*
X229949D01*
X238965Y123829D02*
Y119894D01*
X236997D01*
X236341Y120550D01*
Y121206D01*
X236997Y121862D01*
X238965D01*
X236997D01*
X236341Y122518D01*
Y123173D01*
X236997Y123829D01*
X238965D01*
X235029Y119894D02*
X233717D01*
X234373D01*
Y123829D01*
X235029Y123173D01*
X231749Y119894D02*
X230437D01*
X231093D01*
Y123829D01*
X231749Y123173D01*
X238965Y136264D02*
Y132328D01*
Y136264D02*
X237465Y132328D01*
X235966Y136264D02*
X237465Y132328D01*
X235966Y136264D02*
Y132328D01*
X232029Y135327D02*
X232217Y135702D01*
X232592Y136076D01*
X232967Y136264D01*
X233716D01*
X234091Y136076D01*
X234466Y135702D01*
X234653Y135327D01*
X234841Y134765D01*
Y133827D01*
X234653Y133265D01*
X234466Y132890D01*
X234091Y132515D01*
X233716Y132328D01*
X232967D01*
X232592Y132515D01*
X232217Y132890D01*
X232029Y133265D01*
X230924Y136264D02*
Y133452D01*
X230736Y132890D01*
X230361Y132515D01*
X229799Y132328D01*
X229424D01*
X228862Y132515D01*
X228487Y132890D01*
X228299Y133452D01*
Y136264D01*
X227212Y131016D02*
X224213D01*
X223332Y136264D02*
X221271D01*
X222395Y134765D01*
X221833D01*
X221458Y134577D01*
X221271Y134390D01*
X221083Y133827D01*
Y133452D01*
X221271Y132890D01*
X221645Y132515D01*
X222208Y132328D01*
X222770D01*
X223332Y132515D01*
X223520Y132703D01*
X223707Y133078D01*
X220202Y136264D02*
X218703Y132328D01*
X217203Y136264D02*
X218703Y132328D01*
X216322Y136264D02*
X214261D01*
X215385Y134765D01*
X214823D01*
X214448Y134577D01*
X214261Y134390D01*
X214073Y133827D01*
Y133452D01*
X214261Y132890D01*
X214635Y132515D01*
X215198Y132328D01*
X215760D01*
X216322Y132515D01*
X216510Y132703D01*
X216697Y133078D01*
X238965Y144269D02*
Y140333D01*
Y144269D02*
X237278D01*
X236715Y144082D01*
X236528Y143895D01*
X236340Y143520D01*
Y143145D01*
X236528Y142770D01*
X236715Y142582D01*
X237278Y142395D01*
X238965D02*
X237278D01*
X236715Y142208D01*
X236528Y142020D01*
X236340Y141645D01*
Y141083D01*
X236528Y140708D01*
X236715Y140521D01*
X237278Y140333D01*
X238965D01*
X235459Y143520D02*
X235085Y143707D01*
X234522Y144269D01*
Y140333D01*
X231448Y144269D02*
X232011Y144082D01*
X232385Y143520D01*
X232573Y142582D01*
Y142020D01*
X232385Y141083D01*
X232011Y140521D01*
X231448Y140333D01*
X231073D01*
X230511Y140521D01*
X230136Y141083D01*
X229949Y142020D01*
Y142582D01*
X230136Y143520D01*
X230511Y144082D01*
X231073Y144269D01*
X231448D01*
X238965Y154374D02*
Y150438D01*
Y154374D02*
X237278D01*
X236715Y154187D01*
X236528Y153999D01*
X236340Y153625D01*
Y153250D01*
X236528Y152875D01*
X236715Y152687D01*
X237278Y152500D01*
X238965D02*
X237278D01*
X236715Y152313D01*
X236528Y152125D01*
X236340Y151750D01*
Y151188D01*
X236528Y150813D01*
X236715Y150626D01*
X237278Y150438D01*
X238965D01*
X235272Y153437D02*
Y153625D01*
X235085Y153999D01*
X234897Y154187D01*
X234522Y154374D01*
X233773D01*
X233398Y154187D01*
X233210Y153999D01*
X233023Y153625D01*
Y153250D01*
X233210Y152875D01*
X233585Y152313D01*
X235459Y150438D01*
X232835D01*
X238965Y164479D02*
Y160543D01*
Y164479D02*
X237278D01*
X236715Y164292D01*
X236528Y164104D01*
X236340Y163730D01*
Y163355D01*
X236528Y162980D01*
X236715Y162792D01*
X237278Y162605D01*
X238965D02*
X237278D01*
X236715Y162418D01*
X236528Y162230D01*
X236340Y161855D01*
Y161293D01*
X236528Y160918D01*
X236715Y160731D01*
X237278Y160543D01*
X238965D01*
X235459Y163730D02*
X235085Y163917D01*
X234522Y164479D01*
Y160543D01*
X238965Y174584D02*
Y170648D01*
Y174584D02*
X237278D01*
X236715Y174397D01*
X236528Y174209D01*
X236340Y173835D01*
Y173460D01*
X236528Y173085D01*
X236715Y172897D01*
X237278Y172710D01*
X238965D02*
X237278D01*
X236715Y172523D01*
X236528Y172335D01*
X236340Y171960D01*
Y171398D01*
X236528Y171023D01*
X236715Y170836D01*
X237278Y170648D01*
X238965D01*
X234335Y174584D02*
X234897Y174397D01*
X235272Y173835D01*
X235459Y172897D01*
Y172335D01*
X235272Y171398D01*
X234897Y170836D01*
X234335Y170648D01*
X233960D01*
X233398Y170836D01*
X233023Y171398D01*
X232835Y172335D01*
Y172897D01*
X233023Y173835D01*
X233398Y174397D01*
X233960Y174584D01*
X234335D01*
X235966Y180753D02*
X237465Y184689D01*
X238965Y180753D01*
X238402Y182065D02*
X236528D01*
X235047Y183940D02*
X234672Y184127D01*
X234110Y184689D01*
Y180753D01*
X236153Y193857D02*
X236340Y194232D01*
X236715Y194607D01*
X237090Y194794D01*
X237840D01*
X238215Y194607D01*
X238590Y194232D01*
X238777Y193857D01*
X238965Y193295D01*
Y192358D01*
X238777Y191795D01*
X238590Y191420D01*
X238215Y191046D01*
X237840Y190858D01*
X237090D01*
X236715Y191046D01*
X236340Y191420D01*
X236153Y191795D01*
Y192358D01*
X237090D02*
X236153D01*
X235253Y194794D02*
Y190858D01*
Y194794D02*
X232629Y190858D01*
Y194794D02*
Y190858D01*
X231542Y194794D02*
Y190858D01*
Y194794D02*
X230230D01*
X229668Y194607D01*
X229293Y194232D01*
X229105Y193857D01*
X228918Y193295D01*
Y192358D01*
X229105Y191795D01*
X229293Y191420D01*
X229668Y191046D01*
X230230Y190858D01*
X231542D01*
X148953Y192873D02*
X149141Y193248D01*
X149516Y193623D01*
X149890Y193810D01*
X150640D01*
X151015Y193623D01*
X151390Y193248D01*
X151577Y192873D01*
X151765Y192311D01*
Y191373D01*
X151577Y190811D01*
X151390Y190436D01*
X151015Y190061D01*
X150640Y189874D01*
X149890D01*
X149516Y190061D01*
X149141Y190436D01*
X148953Y190811D01*
Y191373D01*
X149890D02*
X148953D01*
X148054Y193810D02*
Y189874D01*
Y193810D02*
X145430Y189874D01*
Y193810D02*
Y189874D01*
X144342Y193810D02*
Y189874D01*
Y193810D02*
X143030D01*
X142468Y193623D01*
X142093Y193248D01*
X141906Y192873D01*
X141718Y192311D01*
Y191373D01*
X141906Y190811D01*
X142093Y190436D01*
X142468Y190061D01*
X143030Y189874D01*
X144342D01*
X147847Y183705D02*
Y179769D01*
Y183705D02*
X146161D01*
X145598Y183518D01*
X145411Y183330D01*
X145223Y182955D01*
Y182580D01*
X145411Y182206D01*
X145598Y182018D01*
X146161Y181831D01*
X147847D02*
X146161D01*
X145598Y181643D01*
X145411Y181456D01*
X145223Y181081D01*
Y180519D01*
X145411Y180144D01*
X145598Y179956D01*
X146161Y179769D01*
X147847D01*
X141718Y183705D02*
X143593Y179769D01*
X144342Y183705D02*
X141718D01*
X147660Y173600D02*
Y169664D01*
Y173600D02*
X145973D01*
X145411Y173413D01*
X145223Y173225D01*
X145036Y172850D01*
Y172476D01*
X145223Y172101D01*
X145411Y171913D01*
X145973Y171726D01*
X147660D02*
X145973D01*
X145411Y171538D01*
X145223Y171351D01*
X145036Y170976D01*
Y170414D01*
X145223Y170039D01*
X145411Y169851D01*
X145973Y169664D01*
X147660D01*
X141906Y173038D02*
X142093Y173413D01*
X142656Y173600D01*
X143030D01*
X143593Y173413D01*
X143968Y172850D01*
X144155Y171913D01*
Y170976D01*
X143968Y170226D01*
X143593Y169851D01*
X143030Y169664D01*
X142843D01*
X142281Y169851D01*
X141906Y170226D01*
X141718Y170789D01*
Y170976D01*
X141906Y171538D01*
X142281Y171913D01*
X142843Y172101D01*
X143030D01*
X143593Y171913D01*
X143968Y171538D01*
X144155Y170976D01*
X148335Y162558D02*
X148522Y162933D01*
X148897Y163308D01*
X149272Y163495D01*
X150022D01*
X150397Y163308D01*
X150771Y162933D01*
X150959Y162558D01*
X151146Y161996D01*
Y161058D01*
X150959Y160496D01*
X150771Y160121D01*
X150397Y159746D01*
X150022Y159559D01*
X149272D01*
X148897Y159746D01*
X148522Y160121D01*
X148335Y160496D01*
X147229Y162745D02*
X146854Y162933D01*
X146292Y163495D01*
Y159559D01*
X143968Y163495D02*
X141906D01*
X143030Y161996D01*
X142468D01*
X142093Y161808D01*
X141906Y161621D01*
X141718Y161058D01*
Y160684D01*
X141906Y160121D01*
X142281Y159746D01*
X142843Y159559D01*
X143405D01*
X143968Y159746D01*
X144155Y159934D01*
X144342Y160309D01*
X145261Y149454D02*
X146760Y153390D01*
X148260Y149454D01*
X147697Y150766D02*
X145823D01*
X143405Y153390D02*
X143968Y153203D01*
X144155Y152828D01*
Y152453D01*
X143968Y152078D01*
X143593Y151891D01*
X142843Y151703D01*
X142281Y151516D01*
X141906Y151141D01*
X141718Y150766D01*
Y150204D01*
X141906Y149829D01*
X142093Y149641D01*
X142656Y149454D01*
X143405D01*
X143968Y149641D01*
X144155Y149829D01*
X144342Y150204D01*
Y150766D01*
X144155Y151141D01*
X143780Y151516D01*
X143218Y151703D01*
X142468Y151891D01*
X142093Y152078D01*
X141906Y152453D01*
Y152828D01*
X142093Y153203D01*
X142656Y153390D01*
X143405D01*
X150734Y143285D02*
Y139349D01*
Y143285D02*
X149047D01*
X148485Y143098D01*
X148297Y142910D01*
X148110Y142535D01*
Y142160D01*
X148297Y141786D01*
X148485Y141598D01*
X149047Y141411D01*
X150734D02*
X149047D01*
X148485Y141223D01*
X148297Y141036D01*
X148110Y140661D01*
Y140099D01*
X148297Y139724D01*
X148485Y139536D01*
X149047Y139349D01*
X150734D01*
X147229Y142535D02*
X146854Y142723D01*
X146292Y143285D01*
Y139349D01*
X142093Y143285D02*
X143968D01*
X144155Y141598D01*
X143968Y141786D01*
X143405Y141973D01*
X142843D01*
X142281Y141786D01*
X141906Y141411D01*
X141718Y140848D01*
Y140474D01*
X141906Y139911D01*
X142281Y139536D01*
X142843Y139349D01*
X143405D01*
X143968Y139536D01*
X144155Y139724D01*
X144342Y140099D01*
X155064Y133180D02*
Y129244D01*
Y133180D02*
X152440Y129244D01*
Y133180D02*
Y129244D01*
X151353Y133180D02*
Y129244D01*
Y133180D02*
X149666D01*
X149103Y132993D01*
X148916Y132805D01*
X148728Y132430D01*
Y132055D01*
X148916Y131681D01*
X149103Y131493D01*
X149666Y131306D01*
X151353D01*
X150040D02*
X148728Y129244D01*
X145223Y132618D02*
X145598Y132993D01*
X146161Y133180D01*
X146910D01*
X147473Y132993D01*
X147847Y132618D01*
Y132243D01*
X147660Y131868D01*
X147473Y131681D01*
X147098Y131493D01*
X145973Y131118D01*
X145598Y130931D01*
X145411Y130743D01*
X145223Y130369D01*
Y129806D01*
X145598Y129431D01*
X146161Y129244D01*
X146910D01*
X147473Y129431D01*
X147847Y129806D01*
X143030Y133180D02*
Y129244D01*
X144342Y133180D02*
X141718D01*
X167022Y123075D02*
Y119139D01*
Y123075D02*
X165710D01*
X165148Y122888D01*
X164773Y122513D01*
X164586Y122138D01*
X164398Y121576D01*
Y120639D01*
X164586Y120076D01*
X164773Y119701D01*
X165148Y119326D01*
X165710Y119139D01*
X167022D01*
X163517Y123075D02*
X162580Y119139D01*
X161643Y123075D02*
X162580Y119139D01*
X161643Y123075D02*
X160706Y119139D01*
X159768Y123075D02*
X160706Y119139D01*
X158981Y123075D02*
Y119139D01*
Y123075D02*
X157482Y119139D01*
X155982Y123075D02*
X157482Y119139D01*
X155982Y123075D02*
Y119139D01*
X154858Y117827D02*
X151859D01*
X150978Y123075D02*
X148916D01*
X150040Y121576D01*
X149478D01*
X149103Y121388D01*
X148916Y121201D01*
X148728Y120639D01*
Y120264D01*
X148916Y119701D01*
X149291Y119326D01*
X149853Y119139D01*
X150415D01*
X150978Y119326D01*
X151165Y119514D01*
X151353Y119889D01*
X147847Y123075D02*
X146348Y119139D01*
X144849Y123075D02*
X146348Y119139D01*
X143968Y123075D02*
X141906D01*
X143030Y121576D01*
X142468D01*
X142093Y121388D01*
X141906Y121201D01*
X141718Y120639D01*
Y120264D01*
X141906Y119701D01*
X142281Y119326D01*
X142843Y119139D01*
X143405D01*
X143968Y119326D01*
X144155Y119514D01*
X144342Y119889D01*
X153114Y112314D02*
X151615Y108378D01*
X150116Y112314D02*
X151615Y108378D01*
X149609Y112314D02*
Y108378D01*
Y110440D02*
X149234Y110815D01*
X148860Y111002D01*
X148297D01*
X147923Y110815D01*
X147548Y110440D01*
X147360Y109878D01*
Y109503D01*
X147548Y108940D01*
X147923Y108565D01*
X148297Y108378D01*
X148860D01*
X149234Y108565D01*
X149609Y108940D01*
X144267Y111002D02*
Y108378D01*
Y110440D02*
X144642Y110815D01*
X145017Y111002D01*
X145580D01*
X145954Y110815D01*
X146329Y110440D01*
X146517Y109878D01*
Y109503D01*
X146329Y108940D01*
X145954Y108565D01*
X145580Y108378D01*
X145017D01*
X144642Y108565D01*
X144267Y108940D01*
X142656Y112314D02*
Y109128D01*
X142468Y108565D01*
X142093Y108378D01*
X141718D01*
X143218Y111002D02*
X141906D01*
X155064Y102209D02*
X153564Y98273D01*
X152065Y102209D02*
X153564Y98273D01*
X151559Y102209D02*
Y98273D01*
Y102209D02*
X149872D01*
X149310Y102022D01*
X149122Y101834D01*
X148935Y101459D01*
Y101084D01*
X149122Y100710D01*
X149310Y100522D01*
X149872Y100335D01*
X151559D02*
X149872D01*
X149310Y100147D01*
X149122Y99960D01*
X148935Y99585D01*
Y99023D01*
X149122Y98648D01*
X149310Y98460D01*
X149872Y98273D01*
X151559D01*
X148054Y102209D02*
Y99398D01*
X147866Y98835D01*
X147491Y98460D01*
X146929Y98273D01*
X146554D01*
X145992Y98460D01*
X145617Y98835D01*
X145430Y99398D01*
Y102209D01*
X141718Y101647D02*
X142093Y102022D01*
X142656Y102209D01*
X143405D01*
X143968Y102022D01*
X144342Y101647D01*
Y101272D01*
X144155Y100897D01*
X143968Y100710D01*
X143593Y100522D01*
X142468Y100147D01*
X142093Y99960D01*
X141906Y99773D01*
X141718Y99398D01*
Y98835D01*
X142093Y98460D01*
X142656Y98273D01*
X143405D01*
X143968Y98460D01*
X144342Y98835D01*
X148953Y81062D02*
X149141Y81437D01*
X149516Y81812D01*
X149890Y81999D01*
X150640D01*
X151015Y81812D01*
X151390Y81437D01*
X151577Y81062D01*
X151765Y80500D01*
Y79562D01*
X151577Y79000D01*
X151390Y78625D01*
X151015Y78250D01*
X150640Y78063D01*
X149890D01*
X149516Y78250D01*
X149141Y78625D01*
X148953Y79000D01*
Y79562D01*
X149890D02*
X148953D01*
X148054Y81999D02*
Y78063D01*
Y81999D02*
X145430Y78063D01*
Y81999D02*
Y78063D01*
X144342Y81999D02*
Y78063D01*
Y81999D02*
X143030D01*
X142468Y81812D01*
X142093Y81437D01*
X141906Y81062D01*
X141718Y80500D01*
Y79562D01*
X141906Y79000D01*
X142093Y78625D01*
X142468Y78250D01*
X143030Y78063D01*
X144342D01*
M02*
