G04*
G04 #@! TF.GenerationSoftware,Altium Limited,Altium Designer,26.1.1 (7)*
G04*
G04 Layer_Physical_Order=6*
G04 Layer_Color=16711680*
%FSLAX25Y25*%
%MOIN*%
G70*
G04*
G04 #@! TF.SameCoordinates,2C92732F-79F3-4126-9C79-97B6404CCAC7*
G04*
G04*
G04 #@! TF.FilePolarity,Positive*
G04*
G01*
G75*
%ADD29C,0.05394*%
%ADD30R,0.05394X0.05394*%
%ADD32C,0.05937*%
%ADD33R,0.05937X0.05937*%
%ADD34C,0.01280*%
%ADD36C,0.01968*%
%ADD37C,0.01181*%
%ADD40C,0.14173*%
%ADD41C,0.01772*%
%ADD43R,0.01181X0.05807*%
%ADD44R,0.05807X0.01181*%
%ADD45R,0.02913X0.10984*%
%ADD46R,0.09646X0.03937*%
%ADD47R,0.03937X0.09646*%
%ADD48C,0.00591*%
G36*
X251953Y46472D02*
X128756D01*
Y221638D01*
X251953D01*
Y46472D01*
D02*
G37*
%LPC*%
G36*
X170704Y218421D02*
X165707D01*
Y216277D01*
X170704D01*
Y218421D01*
D02*
G37*
G36*
X165357D02*
X160359D01*
Y216277D01*
X165357D01*
Y218421D01*
D02*
G37*
G36*
X220271D02*
X209926D01*
Y213784D01*
X220271D01*
Y218421D01*
D02*
G37*
G36*
X170704Y215927D02*
X165707D01*
Y213784D01*
X170704D01*
Y215927D01*
D02*
G37*
G36*
X165357D02*
X160359D01*
Y213784D01*
X165357D01*
Y215927D01*
D02*
G37*
G36*
X170704Y212909D02*
X165707D01*
Y210766D01*
X170704D01*
Y212909D01*
D02*
G37*
G36*
X165357D02*
X160359D01*
Y210766D01*
X165357D01*
Y212909D01*
D02*
G37*
G36*
X220271D02*
X209926D01*
Y208272D01*
X220271D01*
Y212909D01*
D02*
G37*
G36*
X170704Y210416D02*
X165707D01*
Y208272D01*
X170704D01*
Y210416D01*
D02*
G37*
G36*
X165357D02*
X160359D01*
Y208272D01*
X165357D01*
Y210416D01*
D02*
G37*
G36*
X220271Y207397D02*
X209926D01*
Y202760D01*
X220271D01*
Y207397D01*
D02*
G37*
G36*
X193227Y203346D02*
X192600D01*
X192021Y203107D01*
X191578Y202664D01*
X191339Y202085D01*
Y201458D01*
X191578Y200880D01*
X192021Y200437D01*
X192600Y200197D01*
X193227D01*
X193805Y200437D01*
X194248Y200880D01*
X194488Y201458D01*
Y202085D01*
X194248Y202664D01*
X193805Y203107D01*
X193227Y203346D01*
D02*
G37*
G36*
X170704Y201885D02*
X165707D01*
Y199742D01*
X170704D01*
Y201885D01*
D02*
G37*
G36*
X165357D02*
X160359D01*
Y199742D01*
X165357D01*
Y201885D01*
D02*
G37*
G36*
X208581Y201969D02*
X207955D01*
X207376Y201729D01*
X206933Y201286D01*
X206693Y200707D01*
Y200080D01*
X206933Y199502D01*
X207376Y199059D01*
X207955Y198819D01*
X208581D01*
X209160Y199059D01*
X209576Y199475D01*
X209701Y199461D01*
X209926Y199367D01*
Y197248D01*
X220271D01*
Y201885D01*
X209926D01*
Y201420D01*
X209701Y201327D01*
X209576Y201313D01*
X209160Y201729D01*
X208581Y201969D01*
D02*
G37*
G36*
X170704Y199392D02*
X165707D01*
Y197248D01*
X170704D01*
Y199392D01*
D02*
G37*
G36*
X165357D02*
X160359D01*
Y197248D01*
X165357D01*
Y199392D01*
D02*
G37*
G36*
X210288Y196390D02*
X210247Y196374D01*
X209926D01*
Y196066D01*
X209909Y196032D01*
X209901Y195870D01*
X209880Y195756D01*
X209851Y195668D01*
X209815Y195603D01*
X209774Y195553D01*
X209723Y195512D01*
X209656Y195477D01*
X209565Y195447D01*
X209448Y195426D01*
X209284Y195418D01*
X209279Y195415D01*
X209174D01*
X208766Y195823D01*
X208187Y196063D01*
X207561D01*
X206982Y195823D01*
X206539Y195380D01*
X206299Y194801D01*
Y194175D01*
X206539Y193596D01*
X206982Y193153D01*
X207561Y192913D01*
X207614D01*
X207786Y192798D01*
X208307Y192695D01*
X209279D01*
X209284Y192692D01*
X209448Y192684D01*
X209565Y192664D01*
X209656Y192634D01*
X209723Y192598D01*
X209774Y192557D01*
X209815Y192507D01*
X209851Y192442D01*
X209880Y192354D01*
X209901Y192240D01*
X209909Y192078D01*
X209926Y192044D01*
Y191737D01*
X210247D01*
X210288Y191720D01*
X210298Y191724D01*
X210308Y191720D01*
X210342Y191737D01*
X220271D01*
Y196374D01*
X210342D01*
X210308Y196390D01*
X210298Y196386D01*
X210288Y196390D01*
D02*
G37*
G36*
X174329Y197441D02*
X173703D01*
X173124Y197201D01*
X172681Y196758D01*
X172441Y196179D01*
Y195553D01*
X172681Y194974D01*
X173124Y194531D01*
X173703Y194291D01*
X174329D01*
X174908Y194531D01*
X175351Y194974D01*
X175591Y195553D01*
Y196179D01*
X175351Y196758D01*
X174908Y197201D01*
X174329Y197441D01*
D02*
G37*
G36*
X245696Y195000D02*
X245470D01*
Y192128D01*
X248342D01*
Y192354D01*
X248134Y193129D01*
X247733Y193824D01*
X247166Y194391D01*
X246471Y194792D01*
X245696Y195000D01*
D02*
G37*
G36*
X135696D02*
X135470D01*
Y192128D01*
X138342D01*
Y192354D01*
X138135Y193129D01*
X137733Y193824D01*
X137166Y194391D01*
X136471Y194792D01*
X135696Y195000D01*
D02*
G37*
G36*
X245120D02*
X244894D01*
X244119Y194792D01*
X243425Y194391D01*
X242857Y193824D01*
X242456Y193129D01*
X242248Y192354D01*
Y192128D01*
X245120D01*
Y195000D01*
D02*
G37*
G36*
X135120D02*
X134894D01*
X134119Y194792D01*
X133424Y194391D01*
X132857Y193824D01*
X132456Y193129D01*
X132248Y192354D01*
Y192128D01*
X135120D01*
Y195000D01*
D02*
G37*
G36*
X170704Y196374D02*
X160359D01*
Y195116D01*
X160342Y195082D01*
X160338Y194993D01*
X160329Y194943D01*
X160319Y194912D01*
X160310Y194896D01*
X160304Y194888D01*
X160296Y194882D01*
X160281Y194874D01*
X160249Y194863D01*
X160199Y194854D01*
X160110Y194850D01*
X160090Y194840D01*
X159235D01*
X158868Y194767D01*
X158557Y194559D01*
X153849Y189851D01*
X153642Y189540D01*
X153569Y189173D01*
Y155867D01*
X153245Y155733D01*
X153219Y155760D01*
X152640Y155999D01*
X152013D01*
X151435Y155760D01*
X150992Y155317D01*
X150752Y154738D01*
Y154111D01*
X150992Y153533D01*
X151368Y153156D01*
Y139381D01*
X137652Y125666D01*
X137631Y125659D01*
X137489Y125532D01*
X137342Y125431D01*
X137174Y125339D01*
X136983Y125257D01*
X136767Y125187D01*
X136527Y125128D01*
X136267Y125083D01*
X135657Y125032D01*
X135318Y125028D01*
X135251Y125000D01*
X134894D01*
X134119Y124792D01*
X133424Y124391D01*
X132857Y123824D01*
X132456Y123129D01*
X132248Y122354D01*
Y121552D01*
X132456Y120777D01*
X132857Y120082D01*
X133424Y119515D01*
X134119Y119114D01*
X134894Y118906D01*
X135696D01*
X136471Y119114D01*
X137166Y119515D01*
X137733Y120082D01*
X138135Y120777D01*
X138342Y121552D01*
Y121908D01*
X138371Y121976D01*
X138375Y122319D01*
X138393Y122632D01*
X138425Y122920D01*
X138470Y123184D01*
X138529Y123424D01*
X138600Y123640D01*
X138681Y123832D01*
X138773Y124000D01*
X138875Y124146D01*
X139001Y124289D01*
X139009Y124310D01*
X153005Y138306D01*
X153213Y138617D01*
X153286Y138984D01*
Y140377D01*
X153636Y140411D01*
X153642Y140381D01*
X153849Y140070D01*
X165464Y128456D01*
X165775Y128248D01*
X166142Y128175D01*
X169171D01*
X169281Y127904D01*
X169287Y127825D01*
X168613Y127152D01*
X168405Y126840D01*
X168332Y126473D01*
Y124235D01*
X168405Y123868D01*
X168613Y123557D01*
X169647Y122523D01*
X169633Y122317D01*
X169401Y122022D01*
X167607D01*
X167231Y122398D01*
X166652Y122638D01*
X166025D01*
X165446Y122398D01*
X165004Y121955D01*
X164764Y121376D01*
Y120750D01*
X165004Y120171D01*
X165446Y119728D01*
X166025Y119488D01*
X166652D01*
X167231Y119728D01*
X167607Y120104D01*
X169004D01*
X171285Y117823D01*
Y99087D01*
X171358Y98720D01*
X171566Y98409D01*
X174168Y95807D01*
X174176Y95785D01*
X174242Y95711D01*
X174292Y95645D01*
X174336Y95571D01*
X174375Y95489D01*
X174410Y95397D01*
X174440Y95295D01*
X174463Y95184D01*
X174481Y95061D01*
X174492Y94929D01*
X174495Y94776D01*
X174512Y94739D01*
Y85134D01*
X178126D01*
Y96819D01*
X176592D01*
X176554Y96835D01*
X176402Y96839D01*
X176269Y96850D01*
X176147Y96867D01*
X176035Y96891D01*
X175934Y96921D01*
X175842Y96955D01*
X175760Y96995D01*
X175686Y97039D01*
X175620Y97088D01*
X175546Y97155D01*
X175524Y97163D01*
X173203Y99484D01*
Y103639D01*
X173553Y103709D01*
X173665Y103439D01*
X174041Y103063D01*
Y101282D01*
X174114Y100915D01*
X174322Y100604D01*
X175211Y99716D01*
X175522Y99508D01*
X175889Y99435D01*
X185540D01*
X187806Y97168D01*
X187661Y96819D01*
X184512D01*
Y85134D01*
X188126D01*
Y96354D01*
X188476Y96499D01*
X189168Y95807D01*
X189176Y95785D01*
X189242Y95711D01*
X189292Y95645D01*
X189336Y95571D01*
X189375Y95489D01*
X189410Y95397D01*
X189440Y95295D01*
X189463Y95184D01*
X189481Y95061D01*
X189492Y94929D01*
X189496Y94776D01*
X189512Y94739D01*
Y85134D01*
X193126D01*
Y96819D01*
X193010D01*
X192900Y97168D01*
X193264Y97533D01*
X193504Y98112D01*
Y98738D01*
X193264Y99317D01*
X192821Y99760D01*
X192242Y100000D01*
X191616D01*
X191037Y99760D01*
X190594Y99317D01*
X190354Y98738D01*
Y98112D01*
X190555Y97627D01*
X190259Y97428D01*
X186615Y101072D01*
X186304Y101280D01*
X185937Y101353D01*
X176286D01*
X175959Y101680D01*
Y103063D01*
X176335Y103439D01*
X176575Y104017D01*
Y104644D01*
X176335Y105223D01*
X175892Y105666D01*
X175313Y105905D01*
X174687D01*
X174108Y105666D01*
X173665Y105223D01*
X173553Y104953D01*
X173203Y105022D01*
Y118220D01*
X173130Y118587D01*
X172922Y118898D01*
X171649Y120171D01*
X171806Y120509D01*
X172349Y120734D01*
X172792Y121177D01*
X173031Y121756D01*
Y122383D01*
X172792Y122961D01*
X172349Y123404D01*
X171770Y123644D01*
X171238D01*
X170250Y124632D01*
Y126076D01*
X170380Y126206D01*
X171295D01*
X171616Y126137D01*
X171616Y125856D01*
Y124256D01*
X173635D01*
X173669Y124240D01*
X173758Y124235D01*
X173808Y124226D01*
X173839Y124216D01*
X173855Y124207D01*
X173863Y124201D01*
X173869Y124194D01*
X173877Y124178D01*
X173888Y124147D01*
X173897Y124097D01*
X173901Y124008D01*
X173911Y123987D01*
Y110453D01*
X173984Y110087D01*
X174192Y109775D01*
X179527Y104440D01*
X179839Y104232D01*
X180205Y104159D01*
X193697D01*
X195360Y102497D01*
Y97088D01*
X195350Y97067D01*
X195345Y96978D01*
X195336Y96928D01*
X195326Y96897D01*
X195318Y96881D01*
X195311Y96873D01*
X195304Y96867D01*
X195288Y96859D01*
X195257Y96848D01*
X195207Y96839D01*
X195118Y96835D01*
X195084Y96819D01*
X194512D01*
Y85134D01*
X198126D01*
Y96819D01*
X197554D01*
X197520Y96835D01*
X197431Y96839D01*
X197381Y96848D01*
X197350Y96859D01*
X197334Y96867D01*
X197326Y96873D01*
X197320Y96881D01*
X197312Y96897D01*
X197301Y96928D01*
X197292Y96978D01*
X197288Y97067D01*
X197278Y97088D01*
Y102894D01*
X197205Y103261D01*
X196997Y103572D01*
X194773Y105796D01*
X194462Y106004D01*
X194095Y106077D01*
X180603D01*
X176080Y110600D01*
X176273Y110870D01*
X176852Y110630D01*
X177384D01*
X178456Y109558D01*
X178767Y109350D01*
X179134Y109277D01*
X191756D01*
X192123Y109350D01*
X192434Y109558D01*
X194050Y111174D01*
X194257Y111485D01*
X194330Y111852D01*
Y112003D01*
X194680Y112148D01*
X194974Y111854D01*
X195553Y111614D01*
X196179D01*
X196758Y111854D01*
X197136Y112232D01*
X197442Y112151D01*
X197486Y112124D01*
Y106673D01*
X197559Y106306D01*
X197767Y105995D01*
X200109Y103653D01*
X200420Y103445D01*
X200787Y103372D01*
X206409D01*
X206785Y102996D01*
X207364Y102756D01*
X207990D01*
X208569Y102996D01*
X209012Y103439D01*
X209252Y104017D01*
Y104644D01*
X209012Y105223D01*
X208569Y105666D01*
X207990Y105905D01*
X207364D01*
X206785Y105666D01*
X206409Y105290D01*
X201185D01*
X199404Y107071D01*
Y110673D01*
X199675Y110782D01*
X199754Y110788D01*
X200984Y109558D01*
X201295Y109350D01*
X201662Y109277D01*
X206409D01*
X206785Y108901D01*
X207364Y108661D01*
X207990D01*
X208569Y108901D01*
X209012Y109344D01*
X209252Y109923D01*
Y110549D01*
X209012Y111128D01*
X208569Y111571D01*
X207990Y111811D01*
X207364D01*
X206785Y111571D01*
X206409Y111195D01*
X202059D01*
X201372Y111882D01*
Y115764D01*
X201441Y116085D01*
X201722Y116085D01*
X203322D01*
Y118103D01*
X203339Y118138D01*
X203344Y118227D01*
X203352Y118277D01*
X203363Y118308D01*
X203371Y118324D01*
X203377Y118331D01*
X203385Y118337D01*
X203401Y118346D01*
X203432Y118356D01*
X203482Y118365D01*
X203571Y118370D01*
X203592Y118380D01*
X206269D01*
X206342Y118202D01*
X206785Y117759D01*
X207364Y117520D01*
X207990D01*
X208569Y117759D01*
X209012Y118202D01*
X209252Y118781D01*
Y119408D01*
X209012Y119986D01*
X208569Y120430D01*
X207990Y120669D01*
X207364D01*
X206785Y120430D01*
X206653Y120298D01*
X203592D01*
X203571Y120307D01*
X203482Y120312D01*
X203432Y120321D01*
X203401Y120331D01*
X203385Y120340D01*
X203377Y120346D01*
X203371Y120353D01*
X203363Y120369D01*
X203352Y120400D01*
X203344Y120450D01*
X203339Y120540D01*
X203322Y120574D01*
Y122592D01*
X201704D01*
X201441Y122592D01*
X201091Y122592D01*
X199473Y122592D01*
X199123Y122592D01*
X197504Y122592D01*
X197154Y122592D01*
X195536D01*
X195467Y122914D01*
Y123245D01*
X195648Y123425D01*
X196179D01*
X196758Y123665D01*
X197201Y124108D01*
X197441Y124687D01*
Y125313D01*
X197201Y125892D01*
X196758Y126335D01*
X196179Y126575D01*
X195553D01*
X194974Y126335D01*
X194531Y125892D01*
X194291Y125313D01*
Y124781D01*
X193927Y124417D01*
X193577Y124555D01*
Y126389D01*
X193504Y126756D01*
X193296Y127067D01*
X185138Y135225D01*
Y135631D01*
X184898Y136210D01*
X184455Y136653D01*
X183876Y136893D01*
X183250D01*
X182968Y136776D01*
X182677Y136971D01*
Y137124D01*
X182591Y137333D01*
X182785Y137624D01*
X196544D01*
X196911Y137697D01*
X197222Y137905D01*
X201316Y141999D01*
X201461Y142027D01*
X201772Y142235D01*
X204615Y145079D01*
X204637Y145111D01*
X204987Y145005D01*
Y143941D01*
X204987D01*
Y143854D01*
X204987D01*
Y141973D01*
X204987D01*
Y141885D01*
X204987D01*
X204987Y140004D01*
X204665Y139935D01*
X203937D01*
X203570Y139862D01*
X203259Y139655D01*
X201971Y138367D01*
X201925Y138386D01*
X201299D01*
X200720Y138146D01*
X200277Y137703D01*
X200037Y137124D01*
Y136498D01*
X200277Y135919D01*
X200720Y135476D01*
X201299Y135236D01*
X201925D01*
X202504Y135476D01*
X202947Y135919D01*
X203187Y136498D01*
Y136870D01*
X204334Y138017D01*
X204665D01*
X204987Y137948D01*
X204987Y137667D01*
Y136067D01*
X204987D01*
Y135980D01*
X204987D01*
Y134099D01*
X204987D01*
Y134011D01*
X204987D01*
Y132393D01*
X204987Y132130D01*
X204987Y131780D01*
X204987Y130162D01*
X204987Y129812D01*
X204987Y128193D01*
X204987Y127843D01*
Y127340D01*
X208240D01*
X211494D01*
X211494Y128106D01*
X211815Y128175D01*
X212201D01*
X214173Y126203D01*
Y125671D01*
X214413Y125092D01*
X214856Y124649D01*
X215435Y124409D01*
X216061D01*
X216640Y124649D01*
X217083Y125092D01*
X217323Y125671D01*
Y126297D01*
X217083Y126876D01*
X216640Y127319D01*
X216061Y127559D01*
X215529D01*
X213295Y129793D01*
X213301Y129873D01*
X213410Y130143D01*
X214404D01*
X214567Y129980D01*
Y129608D01*
X214807Y129029D01*
X215250Y128586D01*
X215828Y128347D01*
X216455D01*
X217034Y128586D01*
X217477Y129029D01*
X217717Y129608D01*
Y130235D01*
X217477Y130813D01*
X217034Y131256D01*
X216455Y131496D01*
X215828D01*
X215782Y131477D01*
X215497Y131762D01*
X215504Y131841D01*
X215613Y132112D01*
X216925D01*
X216944Y132066D01*
X217387Y131623D01*
X217966Y131383D01*
X218190D01*
X218369Y131128D01*
X218397Y131033D01*
X218332Y130709D01*
Y119291D01*
X218405Y118924D01*
X218613Y118613D01*
X226041Y111186D01*
X226034Y111126D01*
X225996Y110933D01*
X225944Y110752D01*
X225878Y110582D01*
X225797Y110421D01*
X225702Y110269D01*
X225592Y110125D01*
X225466Y109989D01*
X225311Y109849D01*
X225295Y109815D01*
X225262Y109795D01*
X225256Y109772D01*
X224805Y109321D01*
X224368Y108564D01*
X224142Y107720D01*
Y106847D01*
X224368Y106003D01*
X224805Y105246D01*
X225423Y104628D01*
X226180Y104191D01*
X227024Y103965D01*
X227898D01*
X228742Y104191D01*
X229498Y104628D01*
X230116Y105246D01*
X230553Y106003D01*
X230779Y106847D01*
Y107720D01*
X230553Y108564D01*
X230116Y109321D01*
X229498Y109939D01*
X228861Y110307D01*
X228856Y110316D01*
X228837Y110321D01*
X228809Y110337D01*
X228795Y110353D01*
X228622Y110437D01*
X228486Y110521D01*
X228371Y110613D01*
X228275Y110712D01*
X228194Y110819D01*
X228128Y110936D01*
X228076Y111066D01*
X228037Y111210D01*
X228013Y111371D01*
X228004Y111566D01*
X227980Y111616D01*
X227921Y111915D01*
X227713Y112226D01*
X226300Y113639D01*
X226481Y113953D01*
X227024Y113807D01*
X227898D01*
X228742Y114034D01*
X229498Y114471D01*
X230116Y115088D01*
X230553Y115845D01*
X230779Y116689D01*
Y117563D01*
X230553Y118407D01*
X230116Y119164D01*
X229498Y119781D01*
X228742Y120218D01*
X227898Y120445D01*
X227506D01*
X227443Y120473D01*
X226675Y120496D01*
X226347Y120530D01*
X226045Y120579D01*
X225771Y120642D01*
X225526Y120717D01*
X225310Y120805D01*
X225123Y120903D01*
X224964Y121011D01*
X224811Y121145D01*
X224791Y121152D01*
X223400Y122543D01*
Y130508D01*
X224103Y131212D01*
X224311Y131523D01*
X224384Y131890D01*
Y143701D01*
X224311Y144068D01*
X224103Y144379D01*
X220954Y147529D01*
X220643Y147736D01*
X220276Y147809D01*
X208240D01*
X208148Y147791D01*
X206170D01*
X206036Y148114D01*
X206963Y149041D01*
X214480D01*
X214856Y148665D01*
X215435Y148425D01*
X216061D01*
X216640Y148665D01*
X217083Y149108D01*
X217323Y149687D01*
Y150313D01*
X217083Y150892D01*
X216640Y151335D01*
X216484Y151400D01*
X216554Y151750D01*
X222769D01*
X228372Y146147D01*
Y130556D01*
X228362Y130535D01*
X228357Y130446D01*
X228348Y130396D01*
X228338Y130365D01*
X228329Y130349D01*
X228323Y130342D01*
X228316Y130336D01*
X228300Y130327D01*
X228269Y130317D01*
X228219Y130308D01*
X228130Y130303D01*
X228096Y130287D01*
X224142D01*
Y123650D01*
X230779D01*
Y129868D01*
X230795Y129901D01*
X230791Y129913D01*
X230796Y129925D01*
X230779Y129966D01*
Y130287D01*
X230474D01*
X230441Y130303D01*
X230374Y130307D01*
X230348Y130313D01*
X230338Y130317D01*
X230337Y130318D01*
X230336Y130318D01*
X230332Y130324D01*
X230323Y130344D01*
X230312Y130382D01*
X230304Y130439D01*
X230300Y130532D01*
X230290Y130554D01*
Y146544D01*
X230217Y146911D01*
X230009Y147222D01*
X223844Y153387D01*
X223533Y153595D01*
X223166Y153668D01*
X203592D01*
X203571Y153677D01*
X203482Y153682D01*
X203432Y153691D01*
X203401Y153701D01*
X203385Y153710D01*
X203377Y153716D01*
X203371Y153724D01*
X203363Y153739D01*
X203352Y153770D01*
X203344Y153821D01*
X203339Y153910D01*
X203322Y153944D01*
Y155962D01*
X202976D01*
X202831Y156312D01*
X203107Y156588D01*
X203346Y157167D01*
Y157794D01*
X203107Y158372D01*
X202664Y158815D01*
X202085Y159055D01*
X201458D01*
X200880Y158815D01*
X200437Y158372D01*
X200399Y158282D01*
X200020D01*
X199946Y158460D01*
X199503Y158903D01*
X198925Y159143D01*
X198298D01*
X197719Y158903D01*
X197276Y158460D01*
X197036Y157881D01*
Y157255D01*
X197276Y156676D01*
X197486Y156466D01*
Y156284D01*
X197417Y155962D01*
X197136Y155962D01*
X196651D01*
Y152709D01*
Y149455D01*
X197417D01*
X197767Y149455D01*
X199385D01*
Y149455D01*
X199473D01*
Y149455D01*
X201354D01*
Y149455D01*
X201441D01*
Y149455D01*
X203322D01*
Y151473D01*
X203339Y151508D01*
X203344Y151597D01*
X203352Y151647D01*
X203363Y151678D01*
X203371Y151694D01*
X203377Y151701D01*
X203385Y151707D01*
X203401Y151716D01*
X203432Y151726D01*
X203482Y151735D01*
X203571Y151740D01*
X203592Y151750D01*
X214942D01*
X215012Y151400D01*
X214856Y151335D01*
X214480Y150959D01*
X206565D01*
X206199Y150886D01*
X205887Y150678D01*
X203259Y148050D01*
X203194Y147953D01*
X202753Y147899D01*
X202664Y147989D01*
X202085Y148228D01*
X201458D01*
X200880Y147989D01*
X200503Y147613D01*
X199024D01*
X198657Y147539D01*
X198578Y147487D01*
X196707D01*
X195467Y148727D01*
Y149134D01*
X195536Y149455D01*
X195817Y149455D01*
X196301D01*
Y152709D01*
Y155962D01*
X195536D01*
X195186Y155962D01*
X194117D01*
X193972Y156312D01*
X194248Y156588D01*
X194488Y157167D01*
Y157794D01*
X194248Y158372D01*
X193805Y158815D01*
X193227Y159055D01*
X192600D01*
X192021Y158815D01*
X191942Y158736D01*
X191761Y158803D01*
X191619Y158908D01*
Y159482D01*
X191379Y160061D01*
X190936Y160503D01*
X190357Y160743D01*
X189731D01*
X189152Y160503D01*
X188709Y160061D01*
X188471Y159486D01*
X188468Y159481D01*
X188119Y159281D01*
X187715Y159449D01*
X187088D01*
X186510Y159209D01*
X186066Y158766D01*
X185827Y158187D01*
Y157561D01*
X186066Y156982D01*
X186510Y156539D01*
X187088Y156299D01*
X187057Y155962D01*
X185693Y155962D01*
X185343Y155962D01*
X183725Y155962D01*
X183656Y156284D01*
Y160169D01*
X184012Y160525D01*
X184252Y161104D01*
Y161731D01*
X184012Y162309D01*
X183569Y162752D01*
X183064Y162961D01*
X183134Y163311D01*
X184366D01*
Y173657D01*
X179729D01*
Y163311D01*
X182220D01*
X182290Y162961D01*
X181785Y162752D01*
X181342Y162309D01*
X181102Y161731D01*
Y161104D01*
X181342Y160525D01*
X181738Y160129D01*
Y156284D01*
X181669Y155962D01*
X181388Y155962D01*
X179788D01*
Y152810D01*
X179771Y152776D01*
X179767Y152687D01*
X179758Y152637D01*
X179748Y152605D01*
X179739Y152590D01*
X179733Y152582D01*
X179726Y152576D01*
X179710Y152568D01*
X179678Y152557D01*
X179629Y152548D01*
X179539Y152544D01*
X179519Y152534D01*
X176465D01*
X176089Y152910D01*
X175510Y153150D01*
X174884D01*
X174305Y152910D01*
X173929Y152534D01*
X170560D01*
X170183Y152910D01*
X169605Y153150D01*
X168978D01*
X168399Y152910D01*
X167956Y152467D01*
X167717Y151888D01*
Y151262D01*
X167956Y150683D01*
X168399Y150240D01*
X168978Y150000D01*
X169605D01*
X170183Y150240D01*
X170560Y150616D01*
X173929D01*
X174305Y150240D01*
X174884Y150000D01*
X175510D01*
X176089Y150240D01*
X176465Y150616D01*
X179519D01*
X179539Y150606D01*
X179629Y150601D01*
X179678Y150592D01*
X179710Y150582D01*
X179726Y150574D01*
X179733Y150567D01*
X179739Y150560D01*
X179748Y150544D01*
X179758Y150513D01*
X179767Y150463D01*
X179771Y150374D01*
X179788Y150340D01*
Y149455D01*
X181406D01*
X181669Y149455D01*
X182019Y149455D01*
X183637Y149455D01*
X183706Y149134D01*
Y142266D01*
X183779Y141899D01*
X183987Y141588D01*
X184468Y141107D01*
X184449Y141061D01*
Y140435D01*
X184674Y139892D01*
X184546Y139542D01*
X182790D01*
X182677Y139655D01*
X182366Y139862D01*
X181999Y139935D01*
X178445D01*
X178124Y140004D01*
X178124Y140285D01*
X178124Y141885D01*
X178124Y142235D01*
X178124Y143854D01*
X178124Y144204D01*
Y144707D01*
X174870D01*
X171616D01*
X171616Y143941D01*
X171295Y143872D01*
X170870D01*
X166313Y148429D01*
Y150307D01*
X166689Y150683D01*
X166929Y151262D01*
Y151888D01*
X166689Y152467D01*
X166246Y152910D01*
X165668Y153150D01*
X165041D01*
X164462Y152910D01*
X164019Y152467D01*
X163779Y151888D01*
Y151262D01*
X164019Y150683D01*
X164395Y150307D01*
Y148031D01*
X164468Y147664D01*
X164590Y147482D01*
X164368Y147224D01*
X164057Y147432D01*
X163759Y147491D01*
X163737Y147546D01*
X163294Y147989D01*
X162715Y148228D01*
X162088D01*
X161510Y147989D01*
X161066Y147546D01*
X160827Y146967D01*
Y146340D01*
X161066Y145762D01*
X161337Y145492D01*
X161138Y145195D01*
X160943Y145276D01*
X160317D01*
X159774Y145051D01*
X159424Y145179D01*
Y180902D01*
X159969Y181447D01*
X160100Y181448D01*
X160359Y181196D01*
Y180713D01*
X170704D01*
Y185350D01*
X160359D01*
Y183699D01*
X160342Y183665D01*
X160338Y183575D01*
X160329Y183525D01*
X160319Y183494D01*
X160310Y183478D01*
X160304Y183471D01*
X160296Y183465D01*
X160281Y183456D01*
X160249Y183446D01*
X160199Y183437D01*
X160110Y183432D01*
X160090Y183423D01*
X159629D01*
X159262Y183350D01*
X158951Y183142D01*
X157805Y181996D01*
X157726Y182002D01*
X157455Y182111D01*
Y184052D01*
X160007Y186604D01*
X160205Y186577D01*
X160346Y186551D01*
X160359Y186527D01*
Y186225D01*
X160680D01*
X160721Y186208D01*
X160735Y186214D01*
X160750Y186209D01*
X160781Y186225D01*
X170704D01*
Y190862D01*
X160359D01*
Y188817D01*
X160342Y188783D01*
X160338Y188693D01*
X160329Y188644D01*
X160319Y188612D01*
X160310Y188596D01*
X160304Y188589D01*
X160296Y188583D01*
X160281Y188574D01*
X160249Y188564D01*
X160199Y188555D01*
X160110Y188550D01*
X160090Y188541D01*
X159629D01*
X159262Y188468D01*
X158951Y188260D01*
X155836Y185145D01*
X155757Y185151D01*
X155487Y185261D01*
Y188776D01*
X159632Y192922D01*
X160090D01*
X160110Y192912D01*
X160199Y192907D01*
X160249Y192898D01*
X160281Y192888D01*
X160296Y192880D01*
X160304Y192873D01*
X160310Y192866D01*
X160319Y192850D01*
X160329Y192819D01*
X160338Y192769D01*
X160342Y192680D01*
X160359Y192646D01*
Y191737D01*
X170704D01*
Y196374D01*
D02*
G37*
G36*
X210288Y190879D02*
X210247Y190862D01*
X209926D01*
Y190554D01*
X209909Y190520D01*
X209901Y190359D01*
X209880Y190244D01*
X209851Y190156D01*
X209815Y190091D01*
X209774Y190041D01*
X209723Y190001D01*
X209656Y189965D01*
X209565Y189935D01*
X209448Y189914D01*
X209284Y189906D01*
X209279Y189904D01*
X208780D01*
X208766Y189918D01*
X208187Y190157D01*
X207561D01*
X206982Y189918D01*
X206539Y189475D01*
X206299Y188896D01*
Y188269D01*
X206539Y187691D01*
X206982Y187248D01*
X207561Y187008D01*
X208187D01*
X208610Y187183D01*
X209279D01*
X209284Y187181D01*
X209448Y187172D01*
X209565Y187152D01*
X209656Y187122D01*
X209723Y187086D01*
X209774Y187045D01*
X209815Y186996D01*
X209851Y186930D01*
X209880Y186842D01*
X209901Y186728D01*
X209909Y186567D01*
X209926Y186533D01*
Y186225D01*
X210247D01*
X210288Y186208D01*
X210298Y186212D01*
X210308Y186208D01*
X210342Y186225D01*
X220271D01*
Y190862D01*
X210342D01*
X210308Y190878D01*
X210298Y190875D01*
X210288Y190879D01*
D02*
G37*
G36*
X248342Y191778D02*
X245470D01*
Y188906D01*
X245696D01*
X246471Y189114D01*
X247166Y189515D01*
X247733Y190082D01*
X248134Y190777D01*
X248342Y191552D01*
Y191778D01*
D02*
G37*
G36*
X245120D02*
X242248D01*
Y191552D01*
X242456Y190777D01*
X242857Y190082D01*
X243425Y189515D01*
X244119Y189114D01*
X244894Y188906D01*
X245120D01*
Y191778D01*
D02*
G37*
G36*
X138342D02*
X135470D01*
Y188906D01*
X135696D01*
X136471Y189114D01*
X137166Y189515D01*
X137733Y190082D01*
X138135Y190777D01*
X138342Y191552D01*
Y191778D01*
D02*
G37*
G36*
X135120D02*
X132248D01*
Y191552D01*
X132456Y190777D01*
X132857Y190082D01*
X133424Y189515D01*
X134119Y189114D01*
X134894Y188906D01*
X135120D01*
Y191778D01*
D02*
G37*
G36*
X180431Y191535D02*
X179805D01*
X179226Y191296D01*
X178783Y190853D01*
X178543Y190274D01*
Y189647D01*
X178783Y189069D01*
X179226Y188626D01*
X179805Y188386D01*
X180431D01*
X181010Y188626D01*
X181453Y189069D01*
X181693Y189647D01*
Y190274D01*
X181453Y190853D01*
X181010Y191296D01*
X180431Y191535D01*
D02*
G37*
G36*
X174329Y191339D02*
X173703D01*
X173124Y191099D01*
X172681Y190656D01*
X172441Y190077D01*
Y189451D01*
X172681Y188872D01*
X173124Y188429D01*
X173703Y188189D01*
X174329D01*
X174908Y188429D01*
X175351Y188872D01*
X175591Y189451D01*
Y190077D01*
X175351Y190656D01*
X174908Y191099D01*
X174329Y191339D01*
D02*
G37*
G36*
X220271Y185350D02*
X209926D01*
Y184700D01*
X209909Y184666D01*
X209901Y184502D01*
X209880Y184385D01*
X209850Y184294D01*
X209814Y184227D01*
X209772Y184177D01*
X209722Y184135D01*
X209654Y184099D01*
X209564Y184069D01*
X209447Y184048D01*
X209283Y184040D01*
X209279Y184038D01*
X209099D01*
X208581Y184252D01*
X207955D01*
X207376Y184012D01*
X206933Y183569D01*
X206693Y182990D01*
Y182364D01*
X206933Y181785D01*
X207376Y181342D01*
X207955Y181102D01*
X208581D01*
X209099Y181317D01*
X209285D01*
X209291Y181314D01*
X209463Y181309D01*
X209598Y181294D01*
X209705Y181271D01*
X209785Y181244D01*
X209838Y181217D01*
X209868Y181194D01*
X209884Y181175D01*
X209894Y181156D01*
X209903Y181125D01*
X209910Y181043D01*
X209926Y181013D01*
Y180713D01*
X210247D01*
X210288Y180696D01*
X210303Y180703D01*
X210319Y180698D01*
X210349Y180713D01*
X220271D01*
Y185350D01*
D02*
G37*
G36*
X176297Y183465D02*
X175671D01*
X175092Y183225D01*
X174649Y182782D01*
X174409Y182203D01*
Y181577D01*
X174649Y180998D01*
X175092Y180555D01*
X175671Y180315D01*
X176297D01*
X176876Y180555D01*
X177319Y180998D01*
X177559Y181577D01*
Y182203D01*
X177319Y182782D01*
X176876Y183225D01*
X176297Y183465D01*
D02*
G37*
G36*
X146967Y182677D02*
X146340D01*
X145762Y182437D01*
X145318Y181994D01*
X145079Y181416D01*
Y180789D01*
X145318Y180210D01*
X145762Y179767D01*
X146340Y179528D01*
X146967D01*
X147546Y179767D01*
X147989Y180210D01*
X148228Y180789D01*
Y181416D01*
X147989Y181994D01*
X147546Y182437D01*
X146967Y182677D01*
D02*
G37*
G36*
X170704Y207397D02*
X160359D01*
Y202760D01*
X170704D01*
Y203843D01*
X170721Y203878D01*
X170725Y203967D01*
X170734Y204017D01*
X170745Y204048D01*
X170753Y204064D01*
X170759Y204071D01*
X170767Y204077D01*
X170782Y204086D01*
X170814Y204096D01*
X170864Y204105D01*
X170953Y204110D01*
X170974Y204120D01*
X194130D01*
X197073Y201178D01*
Y181890D01*
X197145Y181523D01*
X197353Y181212D01*
X204370Y174195D01*
X204378Y174190D01*
X204467Y173714D01*
X204428Y173657D01*
X201776D01*
Y163311D01*
X206413D01*
Y173249D01*
X206763Y173463D01*
X207160Y173298D01*
X207288D01*
Y163311D01*
X211925D01*
Y173289D01*
X222987D01*
X223354Y173362D01*
X223665Y173570D01*
X231089Y180994D01*
X241003D01*
X241023Y180984D01*
X241213Y180972D01*
X241388Y180941D01*
X241573Y180887D01*
X241766Y180809D01*
X241968Y180707D01*
X242179Y180578D01*
X242394Y180427D01*
X242862Y180031D01*
X243105Y179794D01*
X243172Y179767D01*
X243425Y179515D01*
X244119Y179114D01*
X244894Y178906D01*
X245696D01*
X246471Y179114D01*
X247166Y179515D01*
X247733Y180082D01*
X248134Y180777D01*
X248342Y181552D01*
Y182354D01*
X248134Y183129D01*
X247733Y183824D01*
X247166Y184391D01*
X246471Y184792D01*
X245696Y185000D01*
X244894D01*
X244119Y184792D01*
X243425Y184391D01*
X243172Y184139D01*
X243105Y184111D01*
X242859Y183871D01*
X242625Y183663D01*
X242399Y183482D01*
X242179Y183327D01*
X241968Y183199D01*
X241766Y183096D01*
X241573Y183018D01*
X241388Y182965D01*
X241213Y182933D01*
X241023Y182922D01*
X241003Y182912D01*
X230692D01*
X230325Y182839D01*
X230014Y182631D01*
X222589Y175207D01*
X220271D01*
Y177345D01*
X215098D01*
X209926D01*
Y175207D01*
X209039D01*
X208808Y175765D01*
X208365Y176208D01*
X207786Y176448D01*
X207160D01*
X206581Y176208D01*
X206205Y175832D01*
X205445D01*
X198990Y182287D01*
Y201575D01*
X198917Y201942D01*
X198710Y202253D01*
X195206Y205757D01*
X194895Y205965D01*
X194528Y206038D01*
X170974D01*
X170953Y206048D01*
X170864Y206052D01*
X170814Y206061D01*
X170782Y206071D01*
X170767Y206080D01*
X170759Y206086D01*
X170753Y206094D01*
X170745Y206109D01*
X170734Y206141D01*
X170725Y206191D01*
X170721Y206280D01*
X170704Y206314D01*
Y207397D01*
D02*
G37*
G36*
X135696Y185000D02*
X134894D01*
X134119Y184792D01*
X133424Y184391D01*
X132857Y183824D01*
X132456Y183129D01*
X132248Y182354D01*
Y181552D01*
X132456Y180777D01*
X132857Y180082D01*
X133424Y179515D01*
X134119Y179114D01*
X134894Y178906D01*
X135696D01*
X136471Y179114D01*
X137166Y179515D01*
X137733Y180082D01*
X138135Y180777D01*
X138342Y181552D01*
Y182354D01*
X138135Y183129D01*
X137733Y183824D01*
X137166Y184391D01*
X136471Y184792D01*
X135696Y185000D01*
D02*
G37*
G36*
X220271Y179838D02*
X215273D01*
Y177695D01*
X220271D01*
Y179838D01*
D02*
G37*
G36*
X214923D02*
X209926D01*
Y177695D01*
X214923D01*
Y179838D01*
D02*
G37*
G36*
X193620Y179134D02*
X192994D01*
X192415Y178894D01*
X191972Y178451D01*
X191732Y177872D01*
Y177246D01*
X191972Y176667D01*
X192415Y176224D01*
X192994Y175984D01*
X193620D01*
X194199Y176224D01*
X194642Y176667D01*
X194882Y177246D01*
Y177872D01*
X194642Y178451D01*
X194199Y178894D01*
X193620Y179134D01*
D02*
G37*
G36*
X170704Y179838D02*
X160359D01*
Y175201D01*
X170704D01*
Y179838D01*
D02*
G37*
G36*
X146967Y172835D02*
X146340D01*
X145762Y172595D01*
X145318Y172152D01*
X145079Y171573D01*
Y170947D01*
X145318Y170368D01*
X145762Y169925D01*
X146340Y169685D01*
X146967D01*
X147546Y169925D01*
X147989Y170368D01*
X148228Y170947D01*
Y171573D01*
X147989Y172152D01*
X147546Y172595D01*
X146967Y172835D01*
D02*
G37*
G36*
X245696Y175000D02*
X244894D01*
X244119Y174792D01*
X243425Y174391D01*
X242857Y173824D01*
X242456Y173129D01*
X242248Y172354D01*
Y171552D01*
X242456Y170777D01*
X242857Y170082D01*
X243425Y169515D01*
X244119Y169114D01*
X244894Y168906D01*
X245696D01*
X246471Y169114D01*
X247166Y169515D01*
X247733Y170082D01*
X248134Y170777D01*
X248342Y171552D01*
Y172354D01*
X248134Y173129D01*
X247733Y173824D01*
X247166Y174391D01*
X246471Y174792D01*
X245696Y175000D01*
D02*
G37*
G36*
X135696D02*
X134894D01*
X134119Y174792D01*
X133424Y174391D01*
X132857Y173824D01*
X132456Y173129D01*
X132248Y172354D01*
Y171552D01*
X132456Y170777D01*
X132857Y170082D01*
X133424Y169515D01*
X134119Y169114D01*
X134894Y168906D01*
X135696D01*
X136471Y169114D01*
X137166Y169515D01*
X137733Y170082D01*
X138135Y170777D01*
X138342Y171552D01*
Y172354D01*
X138135Y173129D01*
X137733Y173824D01*
X137166Y174391D01*
X136471Y174792D01*
X135696Y175000D01*
D02*
G37*
G36*
X234565Y171850D02*
X233939D01*
X233360Y171611D01*
X232917Y171168D01*
X232677Y170589D01*
Y169962D01*
X232917Y169384D01*
X233360Y168940D01*
X233939Y168701D01*
X234565D01*
X235144Y168940D01*
X235587Y169384D01*
X235827Y169962D01*
Y170589D01*
X235587Y171168D01*
X235144Y171611D01*
X234565Y171850D01*
D02*
G37*
G36*
X173342Y173657D02*
X171199D01*
Y168659D01*
X173342D01*
Y173657D01*
D02*
G37*
G36*
X170849D02*
X168705D01*
Y168659D01*
X170849D01*
Y173657D01*
D02*
G37*
G36*
X200901D02*
X196264D01*
Y163311D01*
X200901D01*
Y173657D01*
D02*
G37*
G36*
X195389D02*
X190752D01*
Y163311D01*
X195389D01*
Y173657D01*
D02*
G37*
G36*
X189877D02*
X185241D01*
Y163311D01*
X189877D01*
Y173657D01*
D02*
G37*
G36*
X178854D02*
X174217D01*
Y163311D01*
X178854D01*
Y173657D01*
D02*
G37*
G36*
X173342Y168309D02*
X171199D01*
Y163311D01*
X173342D01*
Y168309D01*
D02*
G37*
G36*
X170849D02*
X168705D01*
Y163311D01*
X170849D01*
Y168309D01*
D02*
G37*
G36*
X207105Y162894D02*
X206478D01*
X205899Y162654D01*
X205456Y162211D01*
X205217Y161632D01*
Y161006D01*
X205456Y160427D01*
X205899Y159984D01*
X206478Y159744D01*
X207105D01*
X207683Y159984D01*
X208126Y160427D01*
X208366Y161006D01*
Y161632D01*
X208126Y162211D01*
X207683Y162654D01*
X207105Y162894D01*
D02*
G37*
G36*
X245696Y165000D02*
X244894D01*
X244119Y164792D01*
X243425Y164391D01*
X242857Y163824D01*
X242456Y163129D01*
X242248Y162354D01*
Y161552D01*
X242456Y160777D01*
X242857Y160082D01*
X243425Y159515D01*
X244119Y159114D01*
X244894Y158906D01*
X245696D01*
X246471Y159114D01*
X247166Y159515D01*
X247733Y160082D01*
X248134Y160777D01*
X248342Y161552D01*
Y162354D01*
X248134Y163129D01*
X247733Y163824D01*
X247166Y164391D01*
X246471Y164792D01*
X245696Y165000D01*
D02*
G37*
G36*
X135696D02*
X134894D01*
X134119Y164792D01*
X133424Y164391D01*
X132857Y163824D01*
X132456Y163129D01*
X132248Y162354D01*
Y161552D01*
X132456Y160777D01*
X132857Y160082D01*
X133424Y159515D01*
X134119Y159114D01*
X134894Y158906D01*
X135696D01*
X136471Y159114D01*
X137166Y159515D01*
X137733Y160082D01*
X138135Y160777D01*
X138342Y161552D01*
Y162354D01*
X138135Y163129D01*
X137733Y163824D01*
X137166Y164391D01*
X136471Y164792D01*
X135696Y165000D01*
D02*
G37*
G36*
X245696Y155000D02*
X244894D01*
X244119Y154792D01*
X243425Y154391D01*
X242857Y153824D01*
X242456Y153129D01*
X242248Y152354D01*
Y151552D01*
X242456Y150777D01*
X242857Y150082D01*
X243425Y149515D01*
X244119Y149114D01*
X244894Y148906D01*
X245696D01*
X246471Y149114D01*
X247166Y149515D01*
X247733Y150082D01*
X248134Y150777D01*
X248342Y151552D01*
Y152354D01*
X248134Y153129D01*
X247733Y153824D01*
X247166Y154391D01*
X246471Y154792D01*
X245696Y155000D01*
D02*
G37*
G36*
X135696D02*
X134894D01*
X134119Y154792D01*
X133424Y154391D01*
X132857Y153824D01*
X132456Y153129D01*
X132248Y152354D01*
Y151552D01*
X132456Y150777D01*
X132857Y150082D01*
X133424Y149515D01*
X134119Y149114D01*
X134894Y148906D01*
X135696D01*
X136471Y149114D01*
X137166Y149515D01*
X137733Y150082D01*
X138135Y150777D01*
X138342Y151552D01*
Y152354D01*
X138135Y153129D01*
X137733Y153824D01*
X137166Y154391D01*
X136471Y154792D01*
X135696Y155000D01*
D02*
G37*
G36*
X181416Y148228D02*
X180789D01*
X180210Y147989D01*
X180031Y147809D01*
X174870D01*
X174777Y147791D01*
X171616D01*
Y146172D01*
X171616Y145910D01*
X171616Y145560D01*
Y145057D01*
X174870D01*
X178124D01*
X178124Y145822D01*
X178445Y145891D01*
X179713D01*
X179767Y145762D01*
X180210Y145318D01*
X180789Y145079D01*
X181416D01*
X181994Y145318D01*
X182437Y145762D01*
X182677Y146340D01*
Y146967D01*
X182437Y147546D01*
X181994Y147989D01*
X181416Y148228D01*
D02*
G37*
G36*
X233034Y145823D02*
X232408D01*
X231829Y145583D01*
X231386Y145140D01*
X231146Y144561D01*
Y143934D01*
X231386Y143356D01*
X231829Y142913D01*
X232408Y142673D01*
X233034D01*
X233613Y142913D01*
X234056Y143356D01*
X234296Y143934D01*
Y144561D01*
X234056Y145140D01*
X233613Y145583D01*
X233034Y145823D01*
D02*
G37*
G36*
X245696Y145000D02*
X244894D01*
X244119Y144792D01*
X243425Y144391D01*
X242857Y143824D01*
X242456Y143129D01*
X242248Y142354D01*
Y141552D01*
X242456Y140777D01*
X242857Y140082D01*
X243425Y139515D01*
X244119Y139114D01*
X244894Y138906D01*
X245696D01*
X246471Y139114D01*
X247166Y139515D01*
X247733Y140082D01*
X248134Y140777D01*
X248342Y141552D01*
Y142354D01*
X248134Y143129D01*
X247733Y143824D01*
X247166Y144391D01*
X246471Y144792D01*
X245696Y145000D01*
D02*
G37*
G36*
X135696D02*
X134894D01*
X134119Y144792D01*
X133424Y144391D01*
X132857Y143824D01*
X132456Y143129D01*
X132248Y142354D01*
Y141552D01*
X132456Y140777D01*
X132857Y140082D01*
X133424Y139515D01*
X134119Y139114D01*
X134894Y138906D01*
X135696D01*
X136471Y139114D01*
X137166Y139515D01*
X137733Y140082D01*
X138135Y140777D01*
X138342Y141552D01*
Y142354D01*
X138135Y143129D01*
X137733Y143824D01*
X137166Y144391D01*
X136471Y144792D01*
X135696Y145000D01*
D02*
G37*
G36*
X245696Y135000D02*
X244894D01*
X244119Y134792D01*
X243425Y134391D01*
X242857Y133824D01*
X242456Y133129D01*
X242248Y132354D01*
Y131552D01*
X242456Y130777D01*
X242857Y130082D01*
X243425Y129515D01*
X244119Y129114D01*
X244894Y128906D01*
X245696D01*
X246471Y129114D01*
X247166Y129515D01*
X247733Y130082D01*
X248134Y130777D01*
X248342Y131552D01*
Y132354D01*
X248134Y133129D01*
X247733Y133824D01*
X247166Y134391D01*
X246471Y134792D01*
X245696Y135000D01*
D02*
G37*
G36*
X135696D02*
X134894D01*
X134119Y134792D01*
X133424Y134391D01*
X132857Y133824D01*
X132456Y133129D01*
X132248Y132354D01*
Y131552D01*
X132456Y130777D01*
X132857Y130082D01*
X133424Y129515D01*
X134119Y129114D01*
X134894Y128906D01*
X135696D01*
X136471Y129114D01*
X137166Y129515D01*
X137733Y130082D01*
X138135Y130777D01*
X138342Y131552D01*
Y132354D01*
X138135Y133129D01*
X137733Y133824D01*
X137166Y134391D01*
X136471Y134792D01*
X135696Y135000D01*
D02*
G37*
G36*
X202085Y127559D02*
X201458D01*
X200880Y127319D01*
X200437Y126876D01*
X200197Y126297D01*
Y125671D01*
X200437Y125092D01*
X200880Y124649D01*
X201458Y124409D01*
X202085D01*
X202159Y124440D01*
X202352Y124311D01*
X202719Y124238D01*
X208240D01*
X208333Y124256D01*
X211494D01*
Y125875D01*
X211494Y126137D01*
X211494Y126487D01*
Y126990D01*
X208240D01*
X204987D01*
X204987Y126225D01*
X204665Y126156D01*
X203346D01*
Y126297D01*
X203107Y126876D01*
X202664Y127319D01*
X202085Y127559D01*
D02*
G37*
G36*
X245696Y125000D02*
X244894D01*
X244119Y124792D01*
X243425Y124391D01*
X242857Y123824D01*
X242456Y123129D01*
X242248Y122354D01*
Y121552D01*
X242456Y120777D01*
X242857Y120082D01*
X243425Y119515D01*
X244119Y119114D01*
X244894Y118906D01*
X245696D01*
X246471Y119114D01*
X247166Y119515D01*
X247733Y120082D01*
X248134Y120777D01*
X248342Y121552D01*
Y122354D01*
X248134Y123129D01*
X247733Y123824D01*
X247166Y124391D01*
X246471Y124792D01*
X245696Y125000D01*
D02*
G37*
G36*
Y115000D02*
X244894D01*
X244119Y114792D01*
X243425Y114391D01*
X242857Y113824D01*
X242456Y113129D01*
X242248Y112354D01*
Y111552D01*
X242456Y110777D01*
X242857Y110082D01*
X243425Y109515D01*
X244119Y109114D01*
X244894Y108906D01*
X245696D01*
X246471Y109114D01*
X247166Y109515D01*
X247733Y110082D01*
X248134Y110777D01*
X248342Y111552D01*
Y112354D01*
X248134Y113129D01*
X247733Y113824D01*
X247166Y114391D01*
X246471Y114792D01*
X245696Y115000D01*
D02*
G37*
G36*
X135696D02*
X134894D01*
X134119Y114792D01*
X133424Y114391D01*
X132857Y113824D01*
X132456Y113129D01*
X132248Y112354D01*
Y111552D01*
X132456Y110777D01*
X132857Y110082D01*
X133424Y109515D01*
X134119Y109114D01*
X134894Y108906D01*
X135696D01*
X136471Y109114D01*
X137166Y109515D01*
X137733Y110082D01*
X138135Y110777D01*
X138342Y111552D01*
Y112354D01*
X138135Y113129D01*
X137733Y113824D01*
X137166Y114391D01*
X136471Y114792D01*
X135696Y115000D01*
D02*
G37*
G36*
X160845Y107776D02*
X160218D01*
X159639Y107536D01*
X159196Y107093D01*
X158957Y106514D01*
Y105887D01*
X159196Y105309D01*
X159639Y104866D01*
X160151Y104654D01*
Y104303D01*
X159639Y104091D01*
X159196Y103648D01*
X158957Y103069D01*
Y102443D01*
X159196Y101864D01*
X159639Y101421D01*
X160218Y101181D01*
X160845D01*
X161424Y101421D01*
X161866Y101864D01*
X162106Y102443D01*
Y103069D01*
X161866Y103648D01*
X161424Y104091D01*
X160913Y104303D01*
Y104654D01*
X161424Y104866D01*
X161866Y105309D01*
X162106Y105887D01*
Y106514D01*
X161866Y107093D01*
X161424Y107536D01*
X160845Y107776D01*
D02*
G37*
G36*
X245696Y105000D02*
X244894D01*
X244119Y104792D01*
X243425Y104391D01*
X242857Y103824D01*
X242456Y103129D01*
X242248Y102354D01*
Y101552D01*
X242456Y100777D01*
X242857Y100082D01*
X243425Y99515D01*
X244119Y99114D01*
X244894Y98906D01*
X245696D01*
X246471Y99114D01*
X247166Y99515D01*
X247733Y100082D01*
X248134Y100777D01*
X248342Y101552D01*
Y102354D01*
X248134Y103129D01*
X247733Y103824D01*
X247166Y104391D01*
X246471Y104792D01*
X245696Y105000D01*
D02*
G37*
G36*
X135696D02*
X134894D01*
X134119Y104792D01*
X133424Y104391D01*
X132857Y103824D01*
X132456Y103129D01*
X132248Y102354D01*
Y101552D01*
X132456Y100777D01*
X132857Y100082D01*
X133424Y99515D01*
X134119Y99114D01*
X134894Y98906D01*
X135696D01*
X136471Y99114D01*
X137166Y99515D01*
X137733Y100082D01*
X138135Y100777D01*
X138342Y101552D01*
Y102354D01*
X138135Y103129D01*
X137733Y103824D01*
X137166Y104391D01*
X136471Y104792D01*
X135696Y105000D01*
D02*
G37*
G36*
X206022Y100984D02*
X205395D01*
X204817Y100744D01*
X204440Y100368D01*
X203346D01*
X202979Y100295D01*
X202668Y100087D01*
X200807Y98226D01*
X200599Y97915D01*
X200526Y97548D01*
Y97088D01*
X200516Y97067D01*
X200512Y96978D01*
X200503Y96928D01*
X200493Y96897D01*
X200484Y96881D01*
X200478Y96873D01*
X200470Y96867D01*
X200454Y96859D01*
X200424Y96848D01*
X200373Y96839D01*
X200284Y96835D01*
X200250Y96819D01*
X199512D01*
Y85134D01*
X203126D01*
Y96819D01*
X202752D01*
X202501Y97078D01*
X202502Y97208D01*
X203744Y98450D01*
X204440D01*
X204817Y98074D01*
X205395Y97835D01*
X206022D01*
X206601Y98074D01*
X207044Y98517D01*
X207283Y99096D01*
Y99723D01*
X207044Y100302D01*
X206601Y100744D01*
X206022Y100984D01*
D02*
G37*
G36*
X227898Y100759D02*
X227636D01*
Y97616D01*
X230779D01*
Y97878D01*
X230553Y98722D01*
X230116Y99479D01*
X229498Y100096D01*
X228742Y100533D01*
X227898Y100759D01*
D02*
G37*
G36*
X227286D02*
X227024D01*
X226180Y100533D01*
X225423Y100096D01*
X224805Y99479D01*
X224368Y98722D01*
X224142Y97878D01*
Y97616D01*
X227286D01*
Y100759D01*
D02*
G37*
G36*
X230779Y97266D02*
X227636D01*
Y94122D01*
X227898D01*
X228742Y94349D01*
X229498Y94785D01*
X230116Y95403D01*
X230553Y96160D01*
X230779Y97004D01*
Y97266D01*
D02*
G37*
G36*
X227286D02*
X224142D01*
Y97004D01*
X224368Y96160D01*
X224805Y95403D01*
X225423Y94785D01*
X226180Y94349D01*
X227024Y94122D01*
X227286D01*
Y97266D01*
D02*
G37*
G36*
X245696Y95000D02*
X244894D01*
X244119Y94792D01*
X243425Y94391D01*
X242857Y93824D01*
X242456Y93129D01*
X242248Y92354D01*
Y91552D01*
X242456Y90777D01*
X242857Y90082D01*
X243425Y89515D01*
X244119Y89113D01*
X244894Y88906D01*
X245696D01*
X246471Y89113D01*
X247166Y89515D01*
X247733Y90082D01*
X248134Y90777D01*
X248342Y91552D01*
Y92354D01*
X248134Y93129D01*
X247733Y93824D01*
X247166Y94391D01*
X246471Y94792D01*
X245696Y95000D01*
D02*
G37*
G36*
X135696D02*
X134894D01*
X134119Y94792D01*
X133424Y94391D01*
X132857Y93824D01*
X132456Y93129D01*
X132248Y92354D01*
Y91552D01*
X132456Y90777D01*
X132857Y90082D01*
X133424Y89515D01*
X134119Y89113D01*
X134894Y88906D01*
X135696D01*
X136471Y89113D01*
X137166Y89515D01*
X137733Y90082D01*
X138135Y90777D01*
X138342Y91552D01*
Y92354D01*
X138135Y93129D01*
X137733Y93824D01*
X137166Y94391D01*
X136471Y94792D01*
X135696Y95000D01*
D02*
G37*
G36*
X183126Y96819D02*
X179512D01*
Y85134D01*
X183126D01*
Y96819D01*
D02*
G37*
G36*
X227898Y90917D02*
X227024D01*
X226180Y90691D01*
X225423Y90254D01*
X224805Y89636D01*
X224368Y88879D01*
X224142Y88035D01*
Y87161D01*
X224368Y86317D01*
X224805Y85561D01*
X225423Y84943D01*
X226180Y84506D01*
X227024Y84280D01*
X227898D01*
X228742Y84506D01*
X229498Y84943D01*
X230116Y85561D01*
X230553Y86317D01*
X230779Y87161D01*
Y88035D01*
X230553Y88879D01*
X230116Y89636D01*
X229498Y90254D01*
X228742Y90691D01*
X227898Y90917D01*
D02*
G37*
G36*
X248342Y85000D02*
X245470D01*
Y82128D01*
X248342D01*
Y85000D01*
D02*
G37*
G36*
X138342D02*
X135470D01*
Y82128D01*
X138342D01*
Y85000D01*
D02*
G37*
G36*
X245120D02*
X242248D01*
Y82128D01*
X245120D01*
Y85000D01*
D02*
G37*
G36*
X135120D02*
X132248D01*
Y82128D01*
X135120D01*
Y85000D01*
D02*
G37*
G36*
X208126Y96819D02*
X204512D01*
Y85134D01*
X205444D01*
X205589Y84784D01*
X205358Y84553D01*
X205118Y83975D01*
Y83348D01*
X205358Y82769D01*
X205801Y82326D01*
X206380Y82087D01*
X207006D01*
X207585Y82326D01*
X208028Y82769D01*
X208268Y83348D01*
Y83975D01*
X208028Y84553D01*
X207797Y84784D01*
X207942Y85134D01*
X208126D01*
Y96819D01*
D02*
G37*
G36*
X196046Y84411D02*
X195420D01*
X194841Y84171D01*
X194398Y83728D01*
X194158Y83149D01*
Y82522D01*
X194398Y81944D01*
X194841Y81501D01*
X195420Y81261D01*
X196046D01*
X196625Y81501D01*
X197068Y81944D01*
X197308Y82522D01*
Y83149D01*
X197068Y83728D01*
X196625Y84171D01*
X196046Y84411D01*
D02*
G37*
G36*
X188512Y84333D02*
X187886D01*
X187307Y84094D01*
X186864Y83651D01*
X186624Y83072D01*
Y82445D01*
X186864Y81867D01*
X187307Y81423D01*
X187886Y81184D01*
X188512D01*
X189091Y81423D01*
X189534Y81867D01*
X189774Y82445D01*
Y83072D01*
X189534Y83651D01*
X189091Y84094D01*
X188512Y84333D01*
D02*
G37*
G36*
X248342Y81778D02*
X245470D01*
Y78906D01*
X248342D01*
Y81778D01*
D02*
G37*
G36*
X245120D02*
X242248D01*
Y78906D01*
X245120D01*
Y81778D01*
D02*
G37*
G36*
X138342D02*
X135470D01*
Y78906D01*
X138342D01*
Y81778D01*
D02*
G37*
G36*
X135120D02*
X132248D01*
Y78906D01*
X135120D01*
Y81778D01*
D02*
G37*
G36*
X198126Y80795D02*
X196494D01*
Y75128D01*
X198126D01*
Y80795D01*
D02*
G37*
G36*
X193126D02*
X191938D01*
X191963Y80722D01*
X192004Y80646D01*
X192057Y80581D01*
X192122Y80527D01*
X192199Y80486D01*
X192287Y80457D01*
X192388Y80439D01*
X192500Y80433D01*
X191494D01*
Y75128D01*
X193126D01*
Y80795D01*
D02*
G37*
G36*
X196144D02*
X194512D01*
Y75128D01*
X196144D01*
Y80795D01*
D02*
G37*
G36*
X190699D02*
X189512D01*
Y75128D01*
X191144D01*
Y80433D01*
X190138D01*
X190250Y80439D01*
X190350Y80457D01*
X190439Y80486D01*
X190516Y80527D01*
X190581Y80581D01*
X190634Y80646D01*
X190675Y80722D01*
X190699Y80795D01*
D02*
G37*
G36*
X208126D02*
X204512D01*
Y69111D01*
X208126D01*
Y80795D01*
D02*
G37*
G36*
X203126D02*
X199512D01*
Y69111D01*
X203126D01*
Y73957D01*
X203346Y74490D01*
Y75116D01*
X203126Y75650D01*
Y80795D01*
D02*
G37*
G36*
X198126Y74778D02*
X196494D01*
Y69473D01*
X197500D01*
X197388Y69467D01*
X197287Y69449D01*
X197199Y69419D01*
X197122Y69378D01*
X197057Y69325D01*
X197004Y69260D01*
X196963Y69183D01*
X196938Y69111D01*
X198126D01*
Y74778D01*
D02*
G37*
G36*
X196144D02*
X194512D01*
Y69111D01*
X195699D01*
X195675Y69183D01*
X195634Y69260D01*
X195581Y69325D01*
X195516Y69378D01*
X195439Y69419D01*
X195350Y69449D01*
X195250Y69467D01*
X195138Y69473D01*
X196144D01*
Y74778D01*
D02*
G37*
G36*
X193126D02*
X191494D01*
Y69473D01*
X192643D01*
X192531Y69467D01*
X192430Y69449D01*
X192342Y69419D01*
X192265Y69378D01*
X192200Y69325D01*
X192147Y69260D01*
X192105Y69183D01*
X192081Y69111D01*
X193126D01*
Y74778D01*
D02*
G37*
G36*
X191144D02*
X189512D01*
Y69111D01*
X190842D01*
X190818Y69183D01*
X190777Y69260D01*
X190724Y69325D01*
X190658Y69378D01*
X190582Y69419D01*
X190493Y69449D01*
X190393Y69467D01*
X190281Y69473D01*
X191144D01*
Y74778D01*
D02*
G37*
G36*
X188126Y80795D02*
X184512D01*
Y69111D01*
X188126D01*
Y80795D01*
D02*
G37*
G36*
X181416Y84252D02*
X180789D01*
X180210Y84012D01*
X179767Y83569D01*
X179528Y82990D01*
Y82364D01*
X179767Y81785D01*
X180210Y81342D01*
X180296Y81159D01*
X180289Y81103D01*
X180278Y81063D01*
X180124Y80812D01*
X180118Y80811D01*
X180084Y80795D01*
X179512D01*
Y69111D01*
X183126D01*
Y80795D01*
X182554D01*
X182520Y80811D01*
X182431Y80816D01*
X182381Y80825D01*
X182350Y80835D01*
X182334Y80844D01*
X182326Y80850D01*
X182320Y80857D01*
X182312Y80873D01*
X182301Y80904D01*
X182292Y80954D01*
X182288Y81043D01*
X182278Y81064D01*
Y81248D01*
X182288Y81269D01*
X182281Y81288D01*
X182288Y81308D01*
X182278Y81486D01*
Y81626D01*
X182437Y81785D01*
X182677Y82364D01*
Y82990D01*
X182437Y83569D01*
X181994Y84012D01*
X181416Y84252D01*
D02*
G37*
G36*
X169605Y116732D02*
X168978D01*
X168399Y116492D01*
X167956Y116050D01*
X167717Y115471D01*
Y114844D01*
X167956Y114265D01*
X168332Y113889D01*
Y87795D01*
X168405Y87428D01*
X168613Y87117D01*
X169191Y86539D01*
X169193Y86531D01*
X169401Y86220D01*
X174487Y81134D01*
X174512Y80795D01*
X174512Y80795D01*
X174502Y80449D01*
X174495Y80433D01*
X174510Y80398D01*
X174502Y80361D01*
X174512Y80346D01*
Y69111D01*
X178126D01*
Y80795D01*
X176861D01*
X176827Y80811D01*
X176737Y80816D01*
X176687Y80825D01*
X176656Y80835D01*
X176640Y80844D01*
X176633Y80850D01*
X176627Y80857D01*
X176618Y80873D01*
X176608Y80904D01*
X176599Y80954D01*
X176594Y81043D01*
X176584Y81064D01*
Y81352D01*
X176512Y81718D01*
X176304Y82030D01*
X170966Y87367D01*
X170965Y87375D01*
X170757Y87686D01*
X170250Y88192D01*
Y113889D01*
X170626Y114265D01*
X170866Y114844D01*
Y115471D01*
X170626Y116050D01*
X170183Y116492D01*
X169605Y116732D01*
D02*
G37*
G36*
X203406Y67164D02*
X202506D01*
X201674Y66819D01*
X201037Y66182D01*
X200692Y65350D01*
Y64450D01*
X201037Y63618D01*
X201674Y62981D01*
X202506Y62636D01*
X203406D01*
X204238Y62981D01*
X204875Y63618D01*
X205220Y64450D01*
Y65350D01*
X204875Y66182D01*
X204238Y66819D01*
X203406Y67164D01*
D02*
G37*
G36*
X180650D02*
X179750D01*
X178918Y66819D01*
X178281Y66182D01*
X177936Y65350D01*
Y64450D01*
X178281Y63618D01*
X178918Y62981D01*
X179750Y62636D01*
X180650D01*
X181482Y62981D01*
X182119Y63618D01*
X182464Y64450D01*
Y65350D01*
X182119Y66182D01*
X181482Y66819D01*
X180650Y67164D01*
D02*
G37*
G36*
X194801Y63386D02*
X194175D01*
X193596Y63146D01*
X193153Y62703D01*
X192913Y62124D01*
Y61498D01*
X193153Y60919D01*
X193596Y60476D01*
X194175Y60236D01*
X194801D01*
X195380Y60476D01*
X195823Y60919D01*
X196063Y61498D01*
Y62124D01*
X195823Y62703D01*
X195380Y63146D01*
X194801Y63386D01*
D02*
G37*
G36*
X187715D02*
X187088D01*
X186510Y63146D01*
X186066Y62703D01*
X185827Y62124D01*
Y61498D01*
X186066Y60919D01*
X186510Y60476D01*
X187088Y60236D01*
X187715D01*
X188294Y60476D01*
X188737Y60919D01*
X188976Y61498D01*
Y62124D01*
X188737Y62703D01*
X188294Y63146D01*
X187715Y63386D01*
D02*
G37*
G36*
X159762Y60630D02*
X159136D01*
X158557Y60390D01*
X158114Y59947D01*
X157874Y59368D01*
Y58742D01*
X158114Y58163D01*
X158557Y57720D01*
X159136Y57480D01*
X159762D01*
X160341Y57720D01*
X160784Y58163D01*
X161024Y58742D01*
Y59368D01*
X160784Y59947D01*
X160341Y60390D01*
X159762Y60630D01*
D02*
G37*
%LPD*%
G36*
X210288Y192099D02*
X210278Y192283D01*
X210248Y192449D01*
X210199Y192595D01*
X210130Y192721D01*
X210041Y192828D01*
X209933Y192915D01*
X209805Y192983D01*
X209658Y193032D01*
X209490Y193061D01*
X209303Y193071D01*
Y195039D01*
X209490Y195049D01*
X209658Y195078D01*
X209805Y195127D01*
X209933Y195195D01*
X210041Y195282D01*
X210130Y195389D01*
X210199Y195516D01*
X210248Y195662D01*
X210278Y195827D01*
X210288Y196012D01*
Y192099D01*
D02*
G37*
G36*
X160721Y192700D02*
X160715Y192812D01*
X160697Y192912D01*
X160668Y193001D01*
X160626Y193078D01*
X160573Y193143D01*
X160508Y193196D01*
X160431Y193237D01*
X160343Y193267D01*
X160242Y193284D01*
X160130Y193290D01*
Y194471D01*
X160242Y194477D01*
X160343Y194495D01*
X160431Y194525D01*
X160508Y194566D01*
X160573Y194619D01*
X160626Y194684D01*
X160668Y194761D01*
X160697Y194849D01*
X160715Y194950D01*
X160721Y195062D01*
Y192700D01*
D02*
G37*
G36*
Y186587D02*
X160715Y186664D01*
X160697Y186732D01*
X160668Y186793D01*
X160626Y186846D01*
X160573Y186890D01*
X160508Y186926D01*
X160431Y186955D01*
X160343Y186975D01*
X160242Y186987D01*
X160130Y186991D01*
Y188172D01*
X160242Y188178D01*
X160343Y188196D01*
X160431Y188225D01*
X160508Y188267D01*
X160573Y188320D01*
X160626Y188385D01*
X160668Y188462D01*
X160697Y188550D01*
X160715Y188651D01*
X160721Y188763D01*
Y186587D01*
D02*
G37*
G36*
Y181282D02*
X160715Y181395D01*
X160697Y181495D01*
X160668Y181584D01*
X160626Y181660D01*
X160573Y181725D01*
X160508Y181779D01*
X160431Y181820D01*
X160343Y181849D01*
X160242Y181867D01*
X160130Y181873D01*
Y183054D01*
X160242Y183060D01*
X160343Y183078D01*
X160431Y183107D01*
X160508Y183149D01*
X160573Y183202D01*
X160626Y183267D01*
X160668Y183344D01*
X160697Y183432D01*
X160715Y183532D01*
X160721Y183645D01*
Y181282D01*
D02*
G37*
G36*
X183307Y160789D02*
X183303Y160769D01*
X183299Y160739D01*
X183293Y160648D01*
X183287Y160244D01*
X182106Y160208D01*
X182106Y160310D01*
X182078Y160760D01*
X182071Y160771D01*
X183311Y160799D01*
X183307Y160789D01*
D02*
G37*
G36*
X191161Y157925D02*
X189980Y157754D01*
X189980Y157854D01*
X189959Y158201D01*
X189952Y158239D01*
X189943Y158267D01*
X189933Y158284D01*
X189922Y158291D01*
X190903Y158953D01*
X191161Y157925D01*
D02*
G37*
G36*
X188291Y157854D02*
X188302Y157835D01*
X188321Y157810D01*
X188381Y157740D01*
X188591Y157521D01*
X188662Y157449D01*
X187827Y156614D01*
X187410Y156988D01*
X188287Y157865D01*
X188291Y157854D01*
D02*
G37*
G36*
X199101Y156830D02*
X199089Y156816D01*
X199078Y156793D01*
X199068Y156760D01*
X199059Y156718D01*
X199052Y156665D01*
X199041Y156532D01*
X199035Y156259D01*
X197854Y156576D01*
X197883Y157063D01*
X199101Y156830D01*
D02*
G37*
G36*
X201763Y156595D02*
X201751Y156591D01*
X201733Y156580D01*
X201708Y156561D01*
X201638Y156501D01*
X201418Y156291D01*
X201346Y156220D01*
X200511Y157055D01*
X200886Y157472D01*
X201763Y156595D01*
D02*
G37*
G36*
X193208Y156645D02*
X193193Y156634D01*
X193180Y156614D01*
X193168Y156583D01*
X193158Y156543D01*
X193149Y156492D01*
X193142Y156432D01*
X193133Y156281D01*
X193130Y156090D01*
X191949Y156146D01*
X192088Y157159D01*
X193208Y156645D01*
D02*
G37*
G36*
X152941Y153781D02*
X152936Y153760D01*
X152932Y153729D01*
X152925Y153638D01*
X152918Y153334D01*
X152917Y153233D01*
X151736D01*
X151707Y153792D01*
X152947D01*
X152941Y153781D01*
D02*
G37*
G36*
X202966Y153778D02*
X202984Y153677D01*
X203014Y153589D01*
X203055Y153512D01*
X203108Y153447D01*
X203173Y153394D01*
X203250Y153352D01*
X203338Y153323D01*
X203439Y153305D01*
X203551Y153299D01*
Y152118D01*
X203439Y152112D01*
X203338Y152094D01*
X203250Y152065D01*
X203173Y152024D01*
X203108Y151971D01*
X203055Y151906D01*
X203014Y151829D01*
X202984Y151740D01*
X202966Y151640D01*
X202960Y151528D01*
Y153890D01*
X202966Y153778D01*
D02*
G37*
G36*
X175840Y152189D02*
X175861Y152184D01*
X175892Y152180D01*
X175984Y152173D01*
X176288Y152166D01*
X176389Y152165D01*
Y150984D01*
X175830Y150955D01*
Y152195D01*
X175840Y152189D01*
D02*
G37*
G36*
X174564Y150955D02*
X174553Y150960D01*
X174533Y150965D01*
X174502Y150970D01*
X174410Y150977D01*
X174106Y150984D01*
X174005Y150984D01*
Y152165D01*
X174564Y152195D01*
Y150955D01*
D02*
G37*
G36*
X169935Y152189D02*
X169956Y152184D01*
X169986Y152180D01*
X170078Y152173D01*
X170382Y152166D01*
X170483Y152165D01*
Y150984D01*
X169924Y150955D01*
Y152195D01*
X169935Y152189D01*
D02*
G37*
G36*
X180150Y150394D02*
X180144Y150506D01*
X180126Y150606D01*
X180097Y150695D01*
X180055Y150772D01*
X180002Y150837D01*
X179937Y150890D01*
X179860Y150931D01*
X179772Y150961D01*
X179672Y150978D01*
X179559Y150984D01*
Y152165D01*
X179672Y152171D01*
X179772Y152189D01*
X179860Y152218D01*
X179937Y152260D01*
X180002Y152313D01*
X180055Y152378D01*
X180097Y152455D01*
X180126Y152543D01*
X180144Y152644D01*
X180150Y152756D01*
Y150394D01*
D02*
G37*
G36*
X165969Y150931D02*
X165964Y150911D01*
X165959Y150880D01*
X165952Y150788D01*
X165945Y150484D01*
X165945Y150383D01*
X164764D01*
X164734Y150942D01*
X165974D01*
X165969Y150931D01*
D02*
G37*
G36*
X215115Y149380D02*
X215105Y149385D01*
X215084Y149391D01*
X215053Y149395D01*
X214961Y149402D01*
X214657Y149409D01*
X214556Y149409D01*
Y150591D01*
X215115Y150620D01*
Y149380D01*
D02*
G37*
G36*
X201139Y146034D02*
X201128Y146039D01*
X201107Y146044D01*
X201077Y146048D01*
X200985Y146056D01*
X200681Y146063D01*
X200580Y146063D01*
Y147244D01*
X201139Y147274D01*
Y146034D01*
D02*
G37*
G36*
X217041Y143462D02*
X216765Y142253D01*
X216752Y142266D01*
X216728Y142278D01*
X216696Y142288D01*
X216653Y142297D01*
X216601Y142305D01*
X216467Y142316D01*
X216195Y142323D01*
X216582Y143504D01*
X217041Y143462D01*
D02*
G37*
G36*
X161486Y143456D02*
X161494Y143431D01*
X161509Y143401D01*
X161533Y143364D01*
X161564Y143321D01*
X161650Y143219D01*
X161767Y143093D01*
X161838Y143022D01*
X161042Y142147D01*
X160422Y142840D01*
X161487Y143476D01*
X161486Y143456D01*
D02*
G37*
G36*
X195212Y141112D02*
X195202Y141118D01*
X195181Y141123D01*
X195150Y141127D01*
X195058Y141134D01*
X194754Y141141D01*
X194653Y141142D01*
Y142323D01*
X195212Y142352D01*
Y141112D01*
D02*
G37*
G36*
X186128Y141628D02*
X185146Y140870D01*
X185144Y140887D01*
X185135Y140910D01*
X185118Y140939D01*
X185093Y140975D01*
X185060Y141016D01*
X184917Y141176D01*
X184783Y141314D01*
X185765Y142002D01*
X186128Y141628D01*
D02*
G37*
G36*
X213104Y141493D02*
X212828Y140284D01*
X212815Y140297D01*
X212791Y140309D01*
X212759Y140320D01*
X212716Y140329D01*
X212664Y140337D01*
X212530Y140348D01*
X212258Y140354D01*
X212645Y141535D01*
X213104Y141493D01*
D02*
G37*
G36*
X217796Y137508D02*
X217779Y137506D01*
X217756Y137497D01*
X217726Y137480D01*
X217691Y137455D01*
X217650Y137422D01*
X217489Y137279D01*
X217352Y137145D01*
X216664Y138127D01*
X217038Y138490D01*
X217796Y137508D01*
D02*
G37*
G36*
X202866Y137070D02*
X202491Y136707D01*
X201734Y137688D01*
X201751Y137690D01*
X201774Y137700D01*
X201803Y137717D01*
X201838Y137742D01*
X201880Y137775D01*
X202040Y137918D01*
X202178Y138052D01*
X202866Y137070D01*
D02*
G37*
G36*
X180623Y137556D02*
X180348Y136347D01*
X180334Y136360D01*
X180311Y136372D01*
X180278Y136383D01*
X180236Y136392D01*
X180184Y136400D01*
X180050Y136411D01*
X179777Y136417D01*
X180165Y137598D01*
X180623Y137556D01*
D02*
G37*
G36*
X184821Y135021D02*
X184101Y134071D01*
X184029Y134142D01*
X183728Y134408D01*
X183700Y134425D01*
X183677Y134435D01*
X183661Y134438D01*
X184445Y135398D01*
X184821Y135021D01*
D02*
G37*
G36*
X217731Y133654D02*
X217573Y132424D01*
X217559Y132434D01*
X217536Y132444D01*
X217503Y132452D01*
X217461Y132460D01*
X217408Y132466D01*
X217193Y132478D01*
X217002Y132480D01*
X217209Y133661D01*
X217731Y133654D01*
D02*
G37*
G36*
X229926Y130403D02*
X229941Y130303D01*
X229966Y130214D01*
X230001Y130138D01*
X230045Y130073D01*
X230100Y130019D01*
X230164Y129978D01*
X230239Y129949D01*
X230323Y129931D01*
X230417Y129925D01*
X228150D01*
X228262Y129931D01*
X228362Y129949D01*
X228451Y129978D01*
X228528Y130019D01*
X228592Y130073D01*
X228646Y130138D01*
X228687Y130214D01*
X228716Y130303D01*
X228734Y130403D01*
X228740Y130516D01*
X229921D01*
X229926Y130403D01*
D02*
G37*
G36*
X215648Y131091D02*
X215950Y130827D01*
X215980Y130810D01*
X216003Y130800D01*
X216020Y130799D01*
X215262Y129817D01*
X214888Y130180D01*
X215576Y131162D01*
X215648Y131091D01*
D02*
G37*
G36*
X179767Y135919D02*
X180210Y135476D01*
X180789Y135236D01*
X181416D01*
X181697Y135353D01*
X181988Y135158D01*
Y135005D01*
X182228Y134426D01*
X182671Y133983D01*
X183250Y133743D01*
X183876D01*
X183898Y133753D01*
X190726Y126925D01*
X190581Y126575D01*
X190139D01*
X189561Y126335D01*
X189222Y125997D01*
X188884Y126335D01*
X188305Y126575D01*
X187679D01*
X187100Y126335D01*
X186725Y125960D01*
X186516Y125919D01*
X186306Y125960D01*
X185931Y126335D01*
X185353Y126575D01*
X184726D01*
X184147Y126335D01*
X183704Y125892D01*
X183465Y125313D01*
Y124687D01*
X183704Y124108D01*
X184147Y123665D01*
X184726Y123425D01*
X185073D01*
Y122873D01*
X184807Y122592D01*
X183725Y122592D01*
X183375Y122592D01*
X182872D01*
Y119339D01*
Y116085D01*
X183375D01*
X183637Y116085D01*
X183916Y115912D01*
X183987Y115805D01*
X187721Y112071D01*
X188032Y111863D01*
X188399Y111790D01*
X189938D01*
X190183Y111545D01*
X190038Y111195D01*
X179531D01*
X178740Y111986D01*
Y112518D01*
X178500Y113097D01*
X178057Y113540D01*
X177479Y113779D01*
X176852D01*
X176273Y113540D01*
X176179Y113445D01*
X175829Y113591D01*
Y123987D01*
X175839Y124008D01*
X175844Y124097D01*
X175853Y124147D01*
X175863Y124178D01*
X175871Y124194D01*
X175877Y124202D01*
X175885Y124207D01*
X175901Y124216D01*
X175932Y124226D01*
X175982Y124235D01*
X176071Y124240D01*
X176105Y124256D01*
X178124D01*
Y125875D01*
X178124Y126137D01*
X178124Y126487D01*
X178124Y128106D01*
X178124Y128456D01*
X178124Y130074D01*
X178124Y130424D01*
X178124Y132043D01*
X178124Y132393D01*
Y134011D01*
X178124D01*
Y134099D01*
X178124D01*
X178124Y135980D01*
X178445Y136049D01*
X179713D01*
X179767Y135919D01*
D02*
G37*
G36*
X215739Y126870D02*
X214862Y125993D01*
X214859Y126005D01*
X214847Y126023D01*
X214829Y126048D01*
X214769Y126118D01*
X214559Y126338D01*
X214488Y126409D01*
X215323Y127244D01*
X215739Y126870D01*
D02*
G37*
G36*
X175939Y124612D02*
X175839Y124595D01*
X175750Y124565D01*
X175673Y124524D01*
X175608Y124471D01*
X175555Y124406D01*
X175514Y124329D01*
X175484Y124240D01*
X175467Y124140D01*
X175461Y124028D01*
X174279D01*
X174274Y124140D01*
X174256Y124240D01*
X174226Y124329D01*
X174185Y124406D01*
X174132Y124471D01*
X174067Y124524D01*
X173990Y124565D01*
X173902Y124595D01*
X173801Y124612D01*
X173689Y124618D01*
X176051D01*
X175939Y124612D01*
D02*
G37*
G36*
X185919Y124861D02*
X185928Y124838D01*
X185945Y124809D01*
X185970Y124773D01*
X186003Y124732D01*
X186146Y124572D01*
X186280Y124434D01*
X185298Y123746D01*
X184935Y124120D01*
X185917Y124878D01*
X185919Y124861D01*
D02*
G37*
G36*
X195857Y124114D02*
X195846Y124110D01*
X195827Y124099D01*
X195802Y124081D01*
X195732Y124021D01*
X195513Y123811D01*
X195441Y123740D01*
X194606Y124575D01*
X194980Y124991D01*
X195857Y124114D01*
D02*
G37*
G36*
X191161Y123937D02*
X189980Y123719D01*
X189980Y123820D01*
X189952Y124221D01*
X189943Y124254D01*
X189934Y124277D01*
X189923Y124290D01*
X191152Y124456D01*
X191161Y123937D01*
D02*
G37*
G36*
X171448Y122955D02*
X170571Y122078D01*
X170567Y122090D01*
X170556Y122108D01*
X170537Y122133D01*
X170477Y122203D01*
X170268Y122423D01*
X170196Y122494D01*
X171032Y123330D01*
X171448Y122955D01*
D02*
G37*
G36*
X138718Y124540D02*
X138577Y124381D01*
X138451Y124200D01*
X138340Y123997D01*
X138244Y123773D01*
X138164Y123528D01*
X138099Y123261D01*
X138050Y122973D01*
X138015Y122663D01*
X137996Y122332D01*
X137992Y121980D01*
X135322Y124650D01*
X135675Y124653D01*
X136316Y124707D01*
X136604Y124757D01*
X136871Y124822D01*
X137116Y124902D01*
X137340Y124997D01*
X137542Y125108D01*
X137723Y125234D01*
X137882Y125375D01*
X138718Y124540D01*
D02*
G37*
G36*
X166982Y121677D02*
X167003Y121672D01*
X167034Y121668D01*
X167125Y121661D01*
X167429Y121654D01*
X167530Y121653D01*
Y120472D01*
X166971Y120443D01*
Y121683D01*
X166982Y121677D01*
D02*
G37*
G36*
X207240Y119865D02*
X206898Y118673D01*
X206885Y118687D01*
X206862Y118700D01*
X206830Y118711D01*
X206788Y118721D01*
X206736Y118729D01*
X206603Y118741D01*
X206431Y118747D01*
X206330Y118748D01*
X206849Y119929D01*
X207240Y119865D01*
D02*
G37*
G36*
X202966Y120407D02*
X202984Y120307D01*
X203014Y120219D01*
X203055Y120142D01*
X203108Y120077D01*
X203173Y120024D01*
X203250Y119982D01*
X203338Y119953D01*
X203439Y119935D01*
X203551Y119929D01*
Y118748D01*
X203439Y118742D01*
X203338Y118724D01*
X203250Y118695D01*
X203173Y118654D01*
X203108Y118600D01*
X203055Y118535D01*
X203014Y118459D01*
X202984Y118370D01*
X202966Y118270D01*
X202960Y118157D01*
Y120520D01*
X202966Y120407D01*
D02*
G37*
G36*
X224732Y120711D02*
X224928Y120578D01*
X225150Y120461D01*
X225398Y120360D01*
X225672Y120275D01*
X225972Y120207D01*
X226298Y120155D01*
X226650Y120118D01*
X227431Y120094D01*
X224492Y117156D01*
X224488Y117559D01*
X224432Y118289D01*
X224380Y118614D01*
X224311Y118914D01*
X224227Y119188D01*
X224126Y119436D01*
X224009Y119658D01*
X223876Y119855D01*
X223727Y120025D01*
X224562Y120860D01*
X224732Y120711D01*
D02*
G37*
G36*
X190573Y112129D02*
X190563Y112134D01*
X190542Y112139D01*
X190511Y112144D01*
X190419Y112151D01*
X190115Y112158D01*
X190014Y112158D01*
Y113339D01*
X190573Y113369D01*
Y112129D01*
D02*
G37*
G36*
X178055Y112184D02*
X178066Y112166D01*
X178085Y112141D01*
X178145Y112071D01*
X178354Y111851D01*
X178426Y111780D01*
X177591Y110944D01*
X177174Y111319D01*
X178051Y112196D01*
X178055Y112184D01*
D02*
G37*
G36*
X207045Y109616D02*
X207034Y109622D01*
X207013Y109627D01*
X206982Y109631D01*
X206890Y109638D01*
X206587Y109645D01*
X206485Y109646D01*
Y110827D01*
X207045Y110856D01*
Y109616D01*
D02*
G37*
G36*
X227635Y111334D02*
X227665Y111133D01*
X227716Y110945D01*
X227786Y110771D01*
X227876Y110611D01*
X227987Y110464D01*
X228117Y110331D01*
X228268Y110211D01*
X228438Y110105D01*
X228629Y110012D01*
X225565Y109568D01*
X225732Y109719D01*
X225882Y109881D01*
X226014Y110053D01*
X226128Y110235D01*
X226224Y110428D01*
X226304Y110631D01*
X226365Y110844D01*
X226409Y111068D01*
X226435Y111303D01*
X226444Y111548D01*
X227625D01*
X227635Y111334D01*
D02*
G37*
G36*
X207045Y103711D02*
X207034Y103716D01*
X207013Y103721D01*
X206982Y103726D01*
X206890Y103733D01*
X206587Y103740D01*
X206485Y103740D01*
Y104921D01*
X207045Y104951D01*
Y103711D01*
D02*
G37*
G36*
X175615Y103687D02*
X175609Y103666D01*
X175605Y103636D01*
X175598Y103544D01*
X175591Y103240D01*
X175591Y103139D01*
X174409D01*
X174380Y103698D01*
X175620D01*
X175615Y103687D01*
D02*
G37*
G36*
X196915Y96935D02*
X196933Y96834D01*
X196963Y96746D01*
X197004Y96669D01*
X197057Y96604D01*
X197122Y96551D01*
X197199Y96510D01*
X197287Y96480D01*
X197388Y96462D01*
X197500Y96456D01*
X195138D01*
X195250Y96462D01*
X195350Y96480D01*
X195439Y96510D01*
X195516Y96551D01*
X195581Y96604D01*
X195634Y96669D01*
X195675Y96746D01*
X195705Y96834D01*
X195722Y96935D01*
X195728Y97047D01*
X196909D01*
X196915Y96935D01*
D02*
G37*
G36*
X190380Y96795D02*
X190475Y96724D01*
X190580Y96661D01*
X190693Y96607D01*
X190814Y96561D01*
X190943Y96523D01*
X191081Y96494D01*
X191227Y96473D01*
X191382Y96461D01*
X191544Y96456D01*
X189874Y94786D01*
X189870Y94949D01*
X189857Y95104D01*
X189837Y95250D01*
X189807Y95388D01*
X189770Y95517D01*
X189724Y95638D01*
X189670Y95751D01*
X189607Y95855D01*
X189536Y95951D01*
X189457Y96039D01*
X190292Y96874D01*
X190380Y96795D01*
D02*
G37*
G36*
X175380D02*
X175476Y96724D01*
X175580Y96661D01*
X175693Y96607D01*
X175814Y96561D01*
X175943Y96523D01*
X176081Y96494D01*
X176227Y96473D01*
X176382Y96461D01*
X176544Y96456D01*
X174874Y94786D01*
X174870Y94949D01*
X174857Y95104D01*
X174837Y95250D01*
X174807Y95388D01*
X174770Y95517D01*
X174724Y95638D01*
X174670Y95751D01*
X174607Y95855D01*
X174536Y95951D01*
X174457Y96039D01*
X175292Y96874D01*
X175380Y96795D01*
D02*
G37*
%LPC*%
G36*
X181416Y127559D02*
X180789D01*
X180210Y127319D01*
X179767Y126876D01*
X179528Y126297D01*
Y125671D01*
X179767Y125092D01*
X179769Y125090D01*
Y124751D01*
X179762Y124701D01*
X179767Y124684D01*
X179759Y124668D01*
X179769Y124640D01*
Y119339D01*
X179788Y119246D01*
Y116085D01*
X181406D01*
X181669Y116085D01*
X182019Y116085D01*
X182522D01*
Y119339D01*
Y122592D01*
X181756Y122592D01*
X181687Y122914D01*
Y124522D01*
X181994Y124649D01*
X182437Y125092D01*
X182677Y125671D01*
Y126297D01*
X182437Y126876D01*
X181994Y127319D01*
X181416Y127559D01*
D02*
G37*
%LPD*%
G36*
X181397Y125149D02*
X181382Y125138D01*
X181369Y125118D01*
X181357Y125087D01*
X181347Y125047D01*
X181339Y124996D01*
X181331Y124936D01*
X181322Y124785D01*
X181319Y124594D01*
X180138Y124650D01*
X180277Y125663D01*
X181397Y125149D01*
D02*
G37*
G36*
X210288Y186587D02*
X210278Y186772D01*
X210248Y186937D01*
X210199Y187083D01*
X210130Y187209D01*
X210041Y187316D01*
X209933Y187404D01*
X209805Y187472D01*
X209658Y187520D01*
X209490Y187549D01*
X209303Y187559D01*
Y189528D01*
X209490Y189537D01*
X209658Y189567D01*
X209805Y189615D01*
X209933Y189683D01*
X210041Y189771D01*
X210130Y189878D01*
X210199Y190004D01*
X210248Y190150D01*
X210278Y190315D01*
X210288Y190500D01*
Y186587D01*
D02*
G37*
G36*
Y181075D02*
X210278Y181192D01*
X210248Y181298D01*
X210199Y181390D01*
X210130Y181471D01*
X210041Y181538D01*
X209933Y181594D01*
X209805Y181637D01*
X209658Y181668D01*
X209490Y181687D01*
X209303Y181693D01*
Y183661D01*
X209490Y183671D01*
X209658Y183701D01*
X209805Y183750D01*
X209933Y183819D01*
X210041Y183907D01*
X210130Y184016D01*
X210199Y184144D01*
X210248Y184291D01*
X210278Y184459D01*
X210288Y184646D01*
Y181075D01*
D02*
G37*
G36*
X166175Y205693D02*
X166196Y205688D01*
X166227Y205684D01*
X166318Y205677D01*
X166622Y205670D01*
X166723Y205669D01*
Y204488D01*
X166164Y204459D01*
Y205699D01*
X166175Y205693D01*
D02*
G37*
G36*
X170348Y206148D02*
X170366Y206047D01*
X170396Y205959D01*
X170437Y205882D01*
X170490Y205817D01*
X170555Y205764D01*
X170632Y205722D01*
X170720Y205693D01*
X170821Y205675D01*
X170933Y205669D01*
Y204488D01*
X170821Y204482D01*
X170720Y204465D01*
X170632Y204435D01*
X170555Y204394D01*
X170490Y204341D01*
X170437Y204276D01*
X170396Y204199D01*
X170366Y204110D01*
X170348Y204010D01*
X170342Y203898D01*
Y206260D01*
X170348Y206148D01*
D02*
G37*
G36*
X243369Y180065D02*
X243117Y180311D01*
X242626Y180727D01*
X242387Y180895D01*
X242153Y181038D01*
X241922Y181155D01*
X241697Y181246D01*
X241475Y181310D01*
X241258Y181349D01*
X241046Y181362D01*
Y182543D01*
X241258Y182556D01*
X241475Y182595D01*
X241697Y182660D01*
X241922Y182751D01*
X242153Y182868D01*
X242387Y183010D01*
X242626Y183179D01*
X242869Y183374D01*
X243117Y183594D01*
X243369Y183841D01*
Y180065D01*
D02*
G37*
G36*
X206840Y174253D02*
X206830Y174259D01*
X206809Y174264D01*
X206778Y174268D01*
X206686Y174275D01*
X206382Y174282D01*
X206281Y174283D01*
Y175464D01*
X206840Y175493D01*
Y174253D01*
D02*
G37*
G36*
X180623Y147399D02*
X180348Y146190D01*
X180334Y146203D01*
X180311Y146215D01*
X180278Y146225D01*
X180236Y146235D01*
X180184Y146242D01*
X180050Y146254D01*
X179777Y146260D01*
X180165Y147441D01*
X180623Y147399D01*
D02*
G37*
G36*
X205076Y98789D02*
X205065Y98795D01*
X205044Y98800D01*
X205014Y98804D01*
X204922Y98812D01*
X204618Y98819D01*
X204517Y98819D01*
Y100000D01*
X205076Y100030D01*
Y98789D01*
D02*
G37*
G36*
X202082Y96935D02*
X202099Y96834D01*
X202129Y96746D01*
X202170Y96669D01*
X202223Y96604D01*
X202288Y96551D01*
X202365Y96510D01*
X202454Y96480D01*
X202554Y96462D01*
X202666Y96456D01*
X200304D01*
X200416Y96462D01*
X200517Y96480D01*
X200605Y96510D01*
X200682Y96551D01*
X200747Y96604D01*
X200800Y96669D01*
X200842Y96746D01*
X200871Y96834D01*
X200889Y96935D01*
X200895Y97047D01*
X202076D01*
X202082Y96935D01*
D02*
G37*
G36*
X181909Y81287D02*
X180728Y81343D01*
X180728Y81443D01*
X180702Y81801D01*
X180693Y81843D01*
X180682Y81876D01*
X180669Y81899D01*
X180656Y81912D01*
X181858Y82215D01*
X181909Y81287D01*
D02*
G37*
G36*
X181915Y80911D02*
X181933Y80811D01*
X181963Y80722D01*
X182004Y80646D01*
X182057Y80581D01*
X182122Y80527D01*
X182199Y80486D01*
X182287Y80457D01*
X182388Y80439D01*
X182500Y80433D01*
X180138D01*
X180250Y80439D01*
X180350Y80457D01*
X180439Y80486D01*
X180516Y80527D01*
X180581Y80581D01*
X180634Y80646D01*
X180675Y80722D01*
X180705Y80811D01*
X180722Y80911D01*
X180728Y81023D01*
X181909D01*
X181915Y80911D01*
D02*
G37*
G36*
X169906Y114514D02*
X169901Y114493D01*
X169896Y114462D01*
X169889Y114371D01*
X169882Y114067D01*
X169882Y113966D01*
X168701D01*
X168671Y114525D01*
X169911D01*
X169906Y114514D01*
D02*
G37*
G36*
X176222Y80911D02*
X176240Y80811D01*
X176269Y80722D01*
X176311Y80646D01*
X176364Y80581D01*
X176429Y80527D01*
X176505Y80486D01*
X176594Y80457D01*
X176695Y80439D01*
X176807Y80433D01*
X174874D01*
X174905Y80439D01*
X174932Y80457D01*
X174956Y80486D01*
X174977Y80527D01*
X174995Y80581D01*
X175009Y80646D01*
X175021Y80722D01*
X175029Y80811D01*
X175035Y81023D01*
X176216D01*
X176222Y80911D01*
D02*
G37*
D29*
X245295Y91953D02*
D03*
Y101953D02*
D03*
Y111953D02*
D03*
Y121953D02*
D03*
Y131953D02*
D03*
Y141953D02*
D03*
Y151953D02*
D03*
Y161953D02*
D03*
Y171953D02*
D03*
Y181953D02*
D03*
Y191953D02*
D03*
X135295D02*
D03*
Y161953D02*
D03*
Y121953D02*
D03*
Y151953D02*
D03*
Y171953D02*
D03*
Y131953D02*
D03*
Y181953D02*
D03*
Y141953D02*
D03*
Y91953D02*
D03*
Y101953D02*
D03*
Y111953D02*
D03*
D30*
X245295Y81953D02*
D03*
X135295D02*
D03*
D32*
X227461Y97441D02*
D03*
Y117126D02*
D03*
Y107283D02*
D03*
Y87598D02*
D03*
D33*
Y126969D02*
D03*
D34*
X202956Y64900D02*
D03*
X180200D02*
D03*
D36*
X207874Y194488D02*
X208307Y194055D01*
X215098D01*
X207874Y188583D02*
X207913Y188543D01*
X215098D01*
X208268Y182677D02*
X214744D01*
X215098Y183031D01*
D37*
X135295Y121953D02*
X152327Y138984D01*
Y154425D01*
X165354Y148031D02*
X170473Y142913D01*
X165354Y148031D02*
Y151575D01*
X222441Y130905D02*
X223425Y131890D01*
X222441Y122146D02*
X227461Y117126D01*
X222441Y122146D02*
Y130905D01*
X223425Y131890D02*
Y143701D01*
X219291Y119291D02*
Y130709D01*
X220459Y131876D01*
Y143023D01*
X220276Y146850D02*
X223425Y143701D01*
X219291Y119291D02*
X227035Y111548D01*
X208240Y144882D02*
X218600D01*
X220459Y143023D01*
X208240Y146850D02*
X220276D01*
X198445Y106673D02*
Y119339D01*
X200787Y104331D02*
X207677D01*
X198445Y106673D02*
X200787Y104331D01*
X200413Y111485D02*
Y119339D01*
X201662Y110236D02*
X207677D01*
X200413Y111485D02*
X201662Y110236D01*
X207433Y119339D02*
X207677Y119095D01*
X202382Y119339D02*
X207433D01*
X215748Y125984D02*
Y125984D01*
X208240Y129134D02*
X212598D01*
X215748Y125984D01*
X202719Y125197D02*
X208240D01*
X201932Y125984D02*
X202719Y125197D01*
X194508Y148330D02*
Y152709D01*
Y148330D02*
X196310Y146528D01*
X199024Y146653D02*
X201772D01*
Y125984D02*
X201932D01*
X196310Y146528D02*
X198898D01*
X199024Y146653D01*
X180728Y151575D02*
Y152709D01*
X180943Y146653D02*
X181102D01*
X180746Y146850D02*
X180943Y146653D01*
X175197Y151575D02*
X180728D01*
X174870Y146850D02*
X180746D01*
X169291Y151575D02*
X175197D01*
X181102Y125824D02*
Y125984D01*
X180728Y119339D02*
Y125450D01*
X181102Y125824D01*
X208240Y131102D02*
X214801D01*
X215982Y129921D01*
X216142D01*
X208240Y133071D02*
X218166D01*
X218279Y132958D01*
X218180Y135549D02*
X218293Y135662D01*
X217087Y135549D02*
X218180D01*
X216577Y135039D02*
X217087Y135549D01*
X208240Y135039D02*
X216577D01*
X217758Y138386D02*
X217918D01*
X216380Y137008D02*
X217758Y138386D01*
X208240Y137008D02*
X216380D01*
X230692Y181953D02*
X245295D01*
X208258Y174248D02*
X222987D01*
X207633Y174873D02*
X208258Y174248D01*
X205048Y174873D02*
X207473D01*
X207633D01*
X222987Y174248D02*
X230692Y181953D01*
X198611Y157408D02*
Y157568D01*
X165532Y205079D02*
X194528D01*
X198031Y181890D02*
X205048Y174873D01*
X198445Y157242D02*
X198611Y157408D01*
X198031Y181890D02*
Y201575D01*
X194528Y205079D02*
X198031Y201575D01*
X198445Y152709D02*
Y157242D01*
X195374Y157320D02*
Y157480D01*
X196476Y152709D02*
Y156218D01*
X195374Y157320D02*
X196476Y156218D01*
X211417Y127165D02*
X212992Y125591D01*
Y122047D02*
Y125591D01*
X208240Y127165D02*
X211417D01*
X191929Y82517D02*
Y82677D01*
X191319Y81907D02*
X191929Y82517D01*
X195627Y66929D02*
X196319Y67621D01*
Y74953D01*
X191319D02*
X191462Y74810D01*
X191319Y74953D02*
Y81907D01*
X191462Y67621D02*
X192154Y66929D01*
X195627D01*
X191462Y67621D02*
Y74810D01*
X182697Y114784D02*
Y119339D01*
X177953Y144882D02*
X178714Y144121D01*
Y144121D02*
Y144121D01*
X174870Y144882D02*
X177953D01*
X178714Y144121D02*
X181102Y141732D01*
Y113189D02*
X182697Y114784D01*
X217360Y142717D02*
X217520D01*
X217163Y142913D02*
X217360Y142717D01*
X208240Y142913D02*
X217163D01*
X176319Y90976D02*
Y95012D01*
X172244Y99087D02*
X176319Y95012D01*
X172244Y99087D02*
Y118220D01*
X175000Y101282D02*
Y104331D01*
Y101282D02*
X175889Y100394D01*
X185937D01*
X191319Y95012D01*
X169401Y121063D02*
X172244Y118220D01*
X169291Y124235D02*
X171457Y122069D01*
X169291Y124235D02*
Y126473D01*
X169983Y127165D01*
X174870D01*
X166339Y121063D02*
X169401D01*
X169291Y87795D02*
Y115157D01*
X191319Y90976D02*
Y95012D01*
X180205Y105118D02*
X194095D01*
X196319Y102894D01*
X174870Y110453D02*
X180205Y105118D01*
X196319Y90976D02*
Y102894D01*
X200413Y156122D02*
X201772Y157480D01*
X200413Y152709D02*
Y156122D01*
X187402Y157874D02*
X188602Y156673D01*
Y152709D02*
Y156673D01*
X190571Y152709D02*
Y158642D01*
X190044Y159169D02*
X190571Y158642D01*
X206565Y150000D02*
X215748D01*
X203937Y147371D02*
X206565Y150000D01*
X203937Y145757D02*
Y147371D01*
X201094Y142913D02*
X203937Y145757D01*
X200875Y142913D02*
X201094D01*
X196544Y138583D02*
X200875Y142913D01*
X182393Y138583D02*
X196544D01*
X181999Y138976D02*
X182393Y138583D01*
X174870Y138976D02*
X181999D01*
X182697Y152709D02*
Y161398D01*
X182677Y161417D02*
X182697Y161398D01*
X169291Y140945D02*
X174870D01*
X162509Y146546D02*
X163690D01*
X169291Y140945D01*
X162402Y146653D02*
X162509Y146546D01*
X170473Y142913D02*
X174870D01*
X154528Y140748D02*
Y189173D01*
X159235Y193881D01*
X167126Y131102D02*
X174870D01*
X156496Y141732D02*
X167126Y131102D01*
X156496Y141732D02*
Y184449D01*
X164570Y187582D02*
X165532Y188543D01*
X159629Y187582D02*
X164570D01*
X156496Y184449D02*
X159629Y187582D01*
X168110Y133071D02*
X174870D01*
X158465Y142717D02*
X168110Y133071D01*
X158465Y181299D02*
X159629Y182464D01*
X164963D01*
X158465Y142717D02*
Y181299D01*
X164963Y182464D02*
X165532Y183031D01*
X154528Y140748D02*
X166142Y129134D01*
X174870D01*
X165357Y193881D02*
X165532Y194055D01*
X159235Y193881D02*
X165357D01*
X213423Y140748D02*
X213583D01*
X213226Y140945D02*
X213423Y140748D01*
X208240Y140945D02*
X213226D01*
X194508Y119339D02*
Y123642D01*
X195866Y125000D01*
X169291Y87795D02*
X170079Y87008D01*
Y86898D02*
Y87008D01*
X175626Y75646D02*
X176319Y74953D01*
X175626Y75646D02*
Y81352D01*
X170079Y86898D02*
X175626Y81352D01*
X190571Y119339D02*
Y124722D01*
X190453Y124840D02*
X190571Y124722D01*
X190453Y124840D02*
Y125000D01*
X203346Y99410D02*
X205709D01*
X201485Y97548D02*
X203346Y99410D01*
X201319Y90976D02*
X201485Y91143D01*
Y97548D01*
X188399Y112749D02*
X191206D01*
X184665Y116483D02*
Y119339D01*
Y116483D02*
X188399Y112749D01*
X160630Y143541D02*
Y143701D01*
Y143541D02*
X160925Y143246D01*
X168985Y135039D02*
X174870D01*
X160925Y143099D02*
Y143246D01*
Y143099D02*
X168985Y135039D01*
X192539Y152709D02*
Y156947D01*
X192913Y157320D01*
Y157480D01*
X227461Y126969D02*
X229331Y128839D01*
X202382Y152709D02*
X223166D01*
X229331Y146544D01*
Y128839D02*
Y146544D01*
X188000Y123612D02*
X188602Y123010D01*
X188000Y123612D02*
Y124992D01*
X188602Y119339D02*
Y123010D01*
X187992Y125000D02*
X188000Y124992D01*
X184665Y142266D02*
Y152709D01*
Y142266D02*
X186024Y140908D01*
Y140748D02*
Y140908D01*
X192539Y119339D02*
Y124014D01*
X192618Y124092D01*
Y126389D01*
X183689Y135318D02*
X192618Y126389D01*
X183563Y135318D02*
X183689D01*
X174870Y110453D02*
Y125197D01*
Y137008D02*
X180746D01*
X180943Y136811D02*
X181102D01*
X180746Y137008D02*
X180943Y136811D01*
X203937Y138976D02*
X208240D01*
X201772Y136811D02*
X203937Y138976D01*
X201612Y136811D02*
X201772D01*
X186032Y122797D02*
X186634Y122194D01*
X185039Y124840D02*
X186032Y123848D01*
Y122797D02*
Y123848D01*
X186634Y119339D02*
Y122194D01*
X185039Y124840D02*
Y125000D01*
X186634Y145562D02*
Y152709D01*
Y145562D02*
X190464Y141732D01*
X195845D01*
X227035Y107709D02*
X227461Y107283D01*
X227035Y107709D02*
Y111548D01*
X195784Y115354D02*
X196476Y116046D01*
Y119339D01*
X177165Y112205D02*
X179134Y110236D01*
X191756D02*
X193371Y111852D01*
X179134Y110236D02*
X191756D01*
X194063Y115354D02*
X195784D01*
X193371Y111852D02*
Y114662D01*
X194063Y115354D01*
X181319Y74953D02*
Y82301D01*
X181102Y82517D02*
X181319Y82301D01*
X181102Y82517D02*
Y82677D01*
D40*
X240945Y209842D02*
D03*
Y58268D02*
D03*
X140945Y209842D02*
D03*
Y58268D02*
D03*
D41*
X174016Y195866D02*
D03*
X154352Y106124D02*
D03*
X152327Y154425D02*
D03*
X165354Y151575D02*
D03*
X208268Y200394D02*
D03*
X207874Y194488D02*
D03*
Y188583D02*
D03*
X208268Y182677D02*
D03*
X174213Y211614D02*
D03*
X160531Y102756D02*
D03*
Y106201D02*
D03*
X150394Y95472D02*
D03*
X160630Y91732D02*
D03*
X207677Y104331D02*
D03*
Y110236D02*
D03*
Y119095D02*
D03*
X215748Y125984D02*
D03*
X192913Y201772D02*
D03*
X234252Y170276D02*
D03*
X201772Y125984D02*
D03*
Y74803D02*
D03*
Y146653D02*
D03*
X180118Y189961D02*
D03*
X181102Y146653D02*
D03*
X175197Y151575D02*
D03*
X169291D02*
D03*
X181102Y125984D02*
D03*
X206791Y161319D02*
D03*
X216142Y129921D02*
D03*
X218279Y132958D02*
D03*
X218293Y135662D02*
D03*
X217918Y138386D02*
D03*
X207473Y174873D02*
D03*
X165532Y205079D02*
D03*
X198611Y157568D02*
D03*
X234252Y191929D02*
D03*
X222441Y182087D02*
D03*
X202165Y182677D02*
D03*
Y194488D02*
D03*
Y188583D02*
D03*
X234252Y160433D02*
D03*
X222441D02*
D03*
X229331Y149606D02*
D03*
X217520Y177165D02*
D03*
X201772Y140748D02*
D03*
Y131890D02*
D03*
X199803Y204724D02*
D03*
X189764Y194095D02*
D03*
X195374Y157480D02*
D03*
X194414Y187870D02*
D03*
X212992Y122047D02*
D03*
X210630Y89567D02*
D03*
X213386Y68110D02*
D03*
Y65354D02*
D03*
X212992Y50000D02*
D03*
Y52756D02*
D03*
X210630Y65354D02*
D03*
Y68110D02*
D03*
X210236Y50000D02*
D03*
Y52756D02*
D03*
X205709Y113189D02*
D03*
X201772Y107283D02*
D03*
X195866Y128937D02*
D03*
X191929Y82677D02*
D03*
X187008Y201772D02*
D03*
X180118Y195866D02*
D03*
X181102Y131890D02*
D03*
X187008Y128937D02*
D03*
X181102Y141732D02*
D03*
X165532Y210591D02*
D03*
Y199567D02*
D03*
Y216102D02*
D03*
X171024Y168484D02*
D03*
X169291Y157480D02*
D03*
X175197D02*
D03*
X165291Y171433D02*
D03*
X181102Y113189D02*
D03*
Y107283D02*
D03*
X172244Y88583D02*
D03*
X172441Y68110D02*
D03*
X172835Y52756D02*
D03*
Y50000D02*
D03*
X172441Y65354D02*
D03*
X170079Y50000D02*
D03*
Y52756D02*
D03*
X206791Y155413D02*
D03*
X169685Y68110D02*
D03*
Y65354D02*
D03*
X217520Y142717D02*
D03*
X232721Y144248D02*
D03*
X175000Y104331D02*
D03*
X171457Y122069D02*
D03*
X166339Y121063D02*
D03*
X169291Y115157D02*
D03*
X191929Y98425D02*
D03*
X201772Y157480D02*
D03*
X174016Y189764D02*
D03*
X214173Y210236D02*
D03*
X214567Y205118D02*
D03*
X187402Y157874D02*
D03*
X190044Y159169D02*
D03*
X215748Y150000D02*
D03*
X164173Y142913D02*
D03*
X182677Y161417D02*
D03*
X162402Y146653D02*
D03*
X175984Y181890D02*
D03*
X193307Y177559D02*
D03*
X165532Y177520D02*
D03*
X192913Y157480D02*
D03*
X195866Y113189D02*
D03*
X213583Y140748D02*
D03*
X195866Y125000D02*
D03*
X190453D02*
D03*
X191206Y112749D02*
D03*
X205709Y99410D02*
D03*
X160630Y143701D02*
D03*
X146653Y171260D02*
D03*
X181319Y90976D02*
D03*
X188199Y82759D02*
D03*
X187992Y125000D02*
D03*
X186024Y140748D02*
D03*
X183563Y135318D02*
D03*
X146653Y181102D02*
D03*
X181102Y136811D02*
D03*
X201612D02*
D03*
X195733Y82836D02*
D03*
X185039Y125000D02*
D03*
X195845Y141732D02*
D03*
X177165Y112205D02*
D03*
X194488Y61811D02*
D03*
X187402D02*
D03*
X206693Y83661D02*
D03*
X159449Y59055D02*
D03*
X181102Y82677D02*
D03*
D43*
X198445Y119339D02*
D03*
X200413D02*
D03*
X202382D02*
D03*
X194508Y152709D02*
D03*
X180728D02*
D03*
Y119339D02*
D03*
X198445Y152709D02*
D03*
X196476D02*
D03*
X182697Y119339D02*
D03*
Y152709D02*
D03*
X190571D02*
D03*
X188602D02*
D03*
X194508Y119339D02*
D03*
X190571D02*
D03*
X184665D02*
D03*
X192539Y152709D02*
D03*
X202382D02*
D03*
X188602Y119339D02*
D03*
X184665Y152709D02*
D03*
X192539Y119339D02*
D03*
X186634D02*
D03*
Y152709D02*
D03*
X200413D02*
D03*
X196476Y119339D02*
D03*
D44*
X208240Y129134D02*
D03*
Y125197D02*
D03*
X174870Y146850D02*
D03*
X208240Y131102D02*
D03*
Y133071D02*
D03*
Y135039D02*
D03*
Y137008D02*
D03*
Y127165D02*
D03*
X174870Y144882D02*
D03*
Y140945D02*
D03*
Y142913D02*
D03*
Y131102D02*
D03*
Y127165D02*
D03*
Y133071D02*
D03*
Y129134D02*
D03*
X208240Y140945D02*
D03*
X174870Y135039D02*
D03*
X208240Y142913D02*
D03*
X174870Y125197D02*
D03*
Y137008D02*
D03*
X208240Y146850D02*
D03*
Y138976D02*
D03*
X174870D02*
D03*
X208240Y144882D02*
D03*
D45*
X201319Y74953D02*
D03*
X196319D02*
D03*
X191319D02*
D03*
X176319D02*
D03*
X201319Y90976D02*
D03*
X181319D02*
D03*
X176319D02*
D03*
X196319D02*
D03*
X186319D02*
D03*
X191319D02*
D03*
X206319D02*
D03*
X181319Y74953D02*
D03*
X186319D02*
D03*
X206319D02*
D03*
D46*
X165532Y205079D02*
D03*
X215098Y177520D02*
D03*
X165532Y216102D02*
D03*
Y210591D02*
D03*
Y199567D02*
D03*
X215098Y205079D02*
D03*
X165532Y188543D02*
D03*
Y177520D02*
D03*
Y183031D02*
D03*
X215098Y210591D02*
D03*
X165532Y194055D02*
D03*
X215098Y183031D02*
D03*
Y188543D02*
D03*
Y194055D02*
D03*
Y199567D02*
D03*
Y216102D02*
D03*
D47*
X171024Y168484D02*
D03*
X176535D02*
D03*
X182047D02*
D03*
X187559D02*
D03*
X193071D02*
D03*
X198583D02*
D03*
X204095D02*
D03*
X209606D02*
D03*
D48*
X214552Y210044D02*
X215098Y210591D01*
M02*
