G04*
G04 #@! TF.GenerationSoftware,Altium Limited,Altium Designer,26.1.1 (7)*
G04*
G04 Layer_Color=32896*
%FSLAX25Y25*%
%MOIN*%
G70*
G04*
G04 #@! TF.SameCoordinates,2C92732F-79F3-4126-9C79-97B6404CCAC7*
G04*
G04*
G04 #@! TF.FilePolarity,Positive*
G04*
G01*
G75*
%ADD49C,0.01181*%
D49*
X181102Y82677D02*
D03*
X159449Y59055D02*
D03*
X206693Y83661D02*
D03*
X187402Y61811D02*
D03*
X194488D02*
D03*
X177165Y112205D02*
D03*
X195845Y141732D02*
D03*
X185039Y125000D02*
D03*
X195733Y82836D02*
D03*
X201612Y136811D02*
D03*
X181102D02*
D03*
X146653Y181102D02*
D03*
X183563Y135318D02*
D03*
X186024Y140748D02*
D03*
X187992Y125000D02*
D03*
X188199Y82759D02*
D03*
X181319Y90976D02*
D03*
X146653Y171260D02*
D03*
X160630Y143701D02*
D03*
X205709Y99410D02*
D03*
X191206Y112749D02*
D03*
X190453Y125000D02*
D03*
X195866D02*
D03*
X213583Y140748D02*
D03*
X195866Y113189D02*
D03*
X192913Y157480D02*
D03*
X165532Y177520D02*
D03*
X193307Y177559D02*
D03*
X175984Y181890D02*
D03*
X162402Y146653D02*
D03*
X182677Y161417D02*
D03*
X164173Y142913D02*
D03*
X215748Y150000D02*
D03*
X190044Y159169D02*
D03*
X187402Y157874D02*
D03*
X214567Y205118D02*
D03*
X214173Y210236D02*
D03*
X174016Y189764D02*
D03*
X201772Y157480D02*
D03*
X191929Y98425D02*
D03*
X169291Y115157D02*
D03*
X166339Y121063D02*
D03*
X171457Y122069D02*
D03*
X175000Y104331D02*
D03*
X232721Y144248D02*
D03*
X217520Y142717D02*
D03*
X169685Y65354D02*
D03*
Y68110D02*
D03*
X206791Y155413D02*
D03*
X170079Y52756D02*
D03*
Y50000D02*
D03*
X172441Y65354D02*
D03*
X172835Y50000D02*
D03*
Y52756D02*
D03*
X172441Y68110D02*
D03*
X172244Y88583D02*
D03*
X181102Y107283D02*
D03*
Y113189D02*
D03*
X165291Y171433D02*
D03*
X175197Y157480D02*
D03*
X169291D02*
D03*
X171024Y168484D02*
D03*
X165532Y216102D02*
D03*
Y199567D02*
D03*
Y210591D02*
D03*
X181102Y141732D02*
D03*
X187008Y128937D02*
D03*
X181102Y131890D02*
D03*
X180118Y195866D02*
D03*
X187008Y201772D02*
D03*
X191929Y82677D02*
D03*
X195866Y128937D02*
D03*
X201772Y107283D02*
D03*
X205709Y113189D02*
D03*
X210236Y52756D02*
D03*
Y50000D02*
D03*
X210630Y68110D02*
D03*
Y65354D02*
D03*
X212992Y52756D02*
D03*
Y50000D02*
D03*
X213386Y65354D02*
D03*
Y68110D02*
D03*
X210630Y89567D02*
D03*
X212992Y122047D02*
D03*
X194414Y187870D02*
D03*
X195374Y157480D02*
D03*
X189764Y194095D02*
D03*
X199803Y204724D02*
D03*
X201772Y131890D02*
D03*
Y140748D02*
D03*
X217520Y177165D02*
D03*
X229331Y149606D02*
D03*
X222441Y160433D02*
D03*
X234252D02*
D03*
X202165Y188583D02*
D03*
Y194488D02*
D03*
Y182677D02*
D03*
X222441Y182087D02*
D03*
X234252Y191929D02*
D03*
X198611Y157568D02*
D03*
X165532Y205079D02*
D03*
X207473Y174873D02*
D03*
X217918Y138386D02*
D03*
X218293Y135662D02*
D03*
X218279Y132958D02*
D03*
X216142Y129921D02*
D03*
X206791Y161319D02*
D03*
X181102Y125984D02*
D03*
X169291Y151575D02*
D03*
X175197D02*
D03*
X181102Y146653D02*
D03*
X180118Y189961D02*
D03*
X201772Y146653D02*
D03*
Y74803D02*
D03*
Y125984D02*
D03*
X234252Y170276D02*
D03*
X192913Y201772D02*
D03*
X215748Y125984D02*
D03*
X207677Y119095D02*
D03*
Y110236D02*
D03*
Y104331D02*
D03*
X160630Y91732D02*
D03*
X150394Y95472D02*
D03*
X160531Y106201D02*
D03*
Y102756D02*
D03*
X174213Y211614D02*
D03*
X208268Y182677D02*
D03*
X207874Y188583D02*
D03*
Y194488D02*
D03*
X208268Y200394D02*
D03*
X165354Y151575D02*
D03*
X152327Y154425D02*
D03*
X154352Y106124D02*
D03*
X174016Y195866D02*
D03*
M02*
