G04*
G04 #@! TF.GenerationSoftware,Altium Limited,Altium Designer,26.1.1 (7)*
G04*
G04 Layer_Physical_Order=6*
G04 Layer_Color=16711680*
%FSLAX25Y25*%
%MOIN*%
G70*
G04*
G04 #@! TF.SameCoordinates,21E4D09F-D184-4A1B-8AE9-C821449E0F92*
G04*
G04*
G04 #@! TF.FilePolarity,Positive*
G04*
G01*
G75*
%ADD29C,0.05394*%
%ADD31R,0.05394X0.05394*%
%ADD32C,0.05937*%
%ADD33R,0.05937X0.05937*%
%ADD34C,0.01280*%
%ADD36C,0.01968*%
%ADD37C,0.01181*%
%ADD40C,0.14173*%
%ADD41C,0.01772*%
%ADD43R,0.05807X0.01181*%
%ADD44R,0.01181X0.05807*%
%ADD45R,0.02913X0.10984*%
%ADD46R,0.09646X0.03937*%
%ADD47R,0.03937X0.09646*%
%ADD48C,0.00591*%
G36*
X251953Y46472D02*
X128755D01*
Y221638D01*
X251953D01*
Y46472D01*
D02*
G37*
%LPC*%
G36*
X170704Y218421D02*
X165707D01*
Y216277D01*
X170704D01*
Y218421D01*
D02*
G37*
G36*
X165357D02*
X160359D01*
Y216277D01*
X165357D01*
Y218421D01*
D02*
G37*
G36*
X220271D02*
X209926D01*
Y213784D01*
X220271D01*
Y218421D01*
D02*
G37*
G36*
X170704Y215927D02*
X165707D01*
Y213784D01*
X170704D01*
Y215927D01*
D02*
G37*
G36*
X165357D02*
X160359D01*
Y213784D01*
X165357D01*
Y215927D01*
D02*
G37*
G36*
X170704Y212909D02*
X165707D01*
Y210766D01*
X170704D01*
Y212909D01*
D02*
G37*
G36*
X165357D02*
X160359D01*
Y210766D01*
X165357D01*
Y212909D01*
D02*
G37*
G36*
Y210416D02*
X160359D01*
Y209452D01*
X160009Y209222D01*
X159639Y209375D01*
X159012D01*
X158605Y209206D01*
X154697D01*
X154176Y209103D01*
X153735Y208808D01*
X148644Y203718D01*
X148349Y203276D01*
X148246Y202756D01*
Y182218D01*
X147896Y182087D01*
X147546Y182437D01*
X146967Y182677D01*
X146340D01*
X145762Y182437D01*
X145318Y181994D01*
X145079Y181416D01*
Y180789D01*
X145318Y180210D01*
X145762Y179767D01*
X146340Y179528D01*
X146967D01*
X147546Y179767D01*
X147896Y180118D01*
X148246Y179987D01*
Y172376D01*
X147896Y172245D01*
X147546Y172595D01*
X146967Y172835D01*
X146340D01*
X145762Y172595D01*
X145318Y172152D01*
X145079Y171573D01*
Y170947D01*
X145318Y170368D01*
X145762Y169925D01*
X146340Y169685D01*
X146967D01*
X147546Y169925D01*
X147896Y170275D01*
X148246Y170144D01*
Y137894D01*
X148349Y137373D01*
X148644Y136932D01*
X156988Y128588D01*
Y128525D01*
X157228Y127946D01*
X157671Y127504D01*
X158250Y127264D01*
X158876D01*
X159455Y127504D01*
X159898Y127946D01*
X160138Y128525D01*
Y129152D01*
X159898Y129731D01*
X159455Y130174D01*
X159105Y130318D01*
X150967Y138457D01*
Y202192D01*
X155260Y206486D01*
X158413D01*
X158434Y206465D01*
X159012Y206226D01*
X159639D01*
X160009Y206379D01*
X160359Y206149D01*
Y202760D01*
X170704D01*
Y204120D01*
X194130D01*
X197073Y201178D01*
Y181890D01*
X197145Y181523D01*
X197353Y181212D01*
X204370Y174195D01*
X204378Y174190D01*
X204467Y173714D01*
X204428Y173657D01*
X201776D01*
Y163311D01*
X206413D01*
Y173249D01*
X206763Y173463D01*
X207160Y173298D01*
X207288D01*
Y163311D01*
X211925D01*
Y173289D01*
X222987D01*
X223354Y173362D01*
X223665Y173570D01*
X231089Y180994D01*
X242398D01*
X242456Y180777D01*
X242857Y180082D01*
X243425Y179515D01*
X244119Y179114D01*
X244894Y178906D01*
X245696D01*
X246471Y179114D01*
X247166Y179515D01*
X247733Y180082D01*
X248134Y180777D01*
X248342Y181552D01*
Y182354D01*
X248134Y183129D01*
X247733Y183824D01*
X247166Y184391D01*
X246471Y184792D01*
X245696Y185000D01*
X244894D01*
X244119Y184792D01*
X243425Y184391D01*
X242857Y183824D01*
X242456Y183129D01*
X242398Y182912D01*
X230692D01*
X230325Y182839D01*
X230014Y182631D01*
X222589Y175207D01*
X220271D01*
Y177345D01*
X215098D01*
X209926D01*
Y175207D01*
X209039D01*
X208808Y175765D01*
X208365Y176208D01*
X207786Y176448D01*
X207160D01*
X206581Y176208D01*
X206205Y175832D01*
X205445D01*
X198990Y182287D01*
Y201575D01*
X198917Y201942D01*
X198710Y202253D01*
X195206Y205757D01*
X194895Y205965D01*
X194528Y206038D01*
X170704D01*
Y207397D01*
X160960D01*
X160900Y207487D01*
Y208114D01*
X161006Y208272D01*
X165357D01*
Y210416D01*
D02*
G37*
G36*
X220271Y212909D02*
X209926D01*
Y208272D01*
X220271D01*
Y212909D01*
D02*
G37*
G36*
X170704Y210416D02*
X165707D01*
Y208272D01*
X170704D01*
Y210416D01*
D02*
G37*
G36*
X204053Y209252D02*
X203427D01*
X202848Y209012D01*
X202405Y208569D01*
X202165Y207990D01*
Y207364D01*
X202405Y206785D01*
X202848Y206342D01*
X203427Y206102D01*
X204053D01*
X204632Y206342D01*
X205075Y206785D01*
X205315Y207364D01*
Y207990D01*
X205075Y208569D01*
X204632Y209012D01*
X204053Y209252D01*
D02*
G37*
G36*
X220271Y207397D02*
X209926D01*
Y202760D01*
X220271D01*
Y207397D01*
D02*
G37*
G36*
X193227Y203346D02*
X192600D01*
X192021Y203107D01*
X191578Y202664D01*
X191339Y202085D01*
Y201458D01*
X191578Y200880D01*
X192021Y200437D01*
X192600Y200197D01*
X193227D01*
X193805Y200437D01*
X194248Y200880D01*
X194488Y201458D01*
Y202085D01*
X194248Y202664D01*
X193805Y203107D01*
X193227Y203346D01*
D02*
G37*
G36*
X170704Y201885D02*
X165707D01*
Y199742D01*
X170704D01*
Y201885D01*
D02*
G37*
G36*
X165357D02*
X160359D01*
Y199742D01*
X165357D01*
Y201885D01*
D02*
G37*
G36*
X220271D02*
X209926D01*
Y197248D01*
X220271D01*
Y201885D01*
D02*
G37*
G36*
X170704Y199392D02*
X165707D01*
Y197248D01*
X170704D01*
Y199392D01*
D02*
G37*
G36*
X165357D02*
X160359D01*
Y197248D01*
X165357D01*
Y199392D01*
D02*
G37*
G36*
X220271Y196374D02*
X209926D01*
Y195014D01*
X209558D01*
X209406Y195380D01*
X208963Y195823D01*
X208384Y196063D01*
X207758D01*
X207179Y195823D01*
X206736Y195380D01*
X206496Y194801D01*
Y194175D01*
X206736Y193596D01*
X207179Y193153D01*
X207758Y192913D01*
X208384D01*
X208825Y193096D01*
X209926D01*
Y191737D01*
X220271D01*
Y196374D01*
D02*
G37*
G36*
X174526Y197441D02*
X173899D01*
X173321Y197201D01*
X172878Y196758D01*
X172638Y196179D01*
Y195553D01*
X172878Y194974D01*
X173321Y194531D01*
X173899Y194291D01*
X174526D01*
X175105Y194531D01*
X175548Y194974D01*
X175787Y195553D01*
Y196179D01*
X175548Y196758D01*
X175105Y197201D01*
X174526Y197441D01*
D02*
G37*
G36*
X245696Y195000D02*
X245470D01*
Y192128D01*
X248342D01*
Y192354D01*
X248134Y193129D01*
X247733Y193824D01*
X247166Y194391D01*
X246471Y194792D01*
X245696Y195000D01*
D02*
G37*
G36*
X135696D02*
X135470D01*
Y192128D01*
X138342D01*
Y192354D01*
X138135Y193129D01*
X137733Y193824D01*
X137166Y194391D01*
X136471Y194792D01*
X135696Y195000D01*
D02*
G37*
G36*
X245120D02*
X244894D01*
X244119Y194792D01*
X243425Y194391D01*
X242857Y193824D01*
X242456Y193129D01*
X242248Y192354D01*
Y192128D01*
X245120D01*
Y195000D01*
D02*
G37*
G36*
X135120D02*
X134894D01*
X134119Y194792D01*
X133424Y194391D01*
X132857Y193824D01*
X132456Y193129D01*
X132248Y192354D01*
Y192128D01*
X135120D01*
Y195000D01*
D02*
G37*
G36*
X170704Y196374D02*
X160359D01*
Y194840D01*
X159235D01*
X158868Y194767D01*
X158557Y194559D01*
X153849Y189851D01*
X153642Y189540D01*
X153569Y189173D01*
Y140748D01*
X153642Y140381D01*
X153849Y140070D01*
X165464Y128456D01*
X165775Y128248D01*
X166142Y128175D01*
X169171D01*
X169281Y127904D01*
X169287Y127825D01*
X168613Y127152D01*
X168405Y126840D01*
X168332Y126473D01*
Y124235D01*
X168405Y123868D01*
X168613Y123557D01*
X169647Y122523D01*
X169633Y122317D01*
X169401Y122022D01*
X167607D01*
X167231Y122398D01*
X166652Y122638D01*
X166025D01*
X165446Y122398D01*
X165004Y121955D01*
X164764Y121376D01*
Y120750D01*
X165004Y120171D01*
X165446Y119728D01*
X166025Y119488D01*
X166652D01*
X167231Y119728D01*
X167607Y120104D01*
X169004D01*
X171285Y117823D01*
Y99087D01*
X171358Y98720D01*
X171566Y98409D01*
X174512Y95462D01*
Y85134D01*
X178126D01*
Y96819D01*
X175868D01*
X173203Y99484D01*
Y103639D01*
X173553Y103709D01*
X173665Y103439D01*
X174041Y103063D01*
Y101282D01*
X174114Y100915D01*
X174322Y100604D01*
X175211Y99716D01*
X175522Y99508D01*
X175889Y99435D01*
X185540D01*
X187806Y97168D01*
X187661Y96819D01*
X184512D01*
Y85134D01*
X188126D01*
Y96354D01*
X188476Y96499D01*
X189512Y95462D01*
Y85134D01*
X193126D01*
Y96819D01*
X193010D01*
X192900Y97168D01*
X193264Y97533D01*
X193504Y98112D01*
Y98738D01*
X193264Y99317D01*
X192821Y99760D01*
X192242Y100000D01*
X191616D01*
X191037Y99760D01*
X190594Y99317D01*
X190354Y98738D01*
Y98112D01*
X190555Y97627D01*
X190259Y97428D01*
X186615Y101072D01*
X186304Y101280D01*
X185937Y101353D01*
X176286D01*
X175959Y101680D01*
Y103063D01*
X176335Y103439D01*
X176575Y104017D01*
Y104644D01*
X176335Y105223D01*
X175892Y105666D01*
X175313Y105905D01*
X174687D01*
X174108Y105666D01*
X173665Y105223D01*
X173553Y104953D01*
X173203Y105022D01*
Y118220D01*
X173130Y118587D01*
X172922Y118898D01*
X171649Y120171D01*
X171806Y120509D01*
X172349Y120734D01*
X172792Y121177D01*
X173031Y121756D01*
Y122383D01*
X172792Y122961D01*
X172349Y123404D01*
X171770Y123644D01*
X171238D01*
X170250Y124632D01*
Y126076D01*
X170380Y126206D01*
X171295D01*
X171616Y126137D01*
X171616Y125856D01*
Y124256D01*
X173911D01*
Y110453D01*
X173984Y110087D01*
X174192Y109775D01*
X179527Y104440D01*
X179839Y104232D01*
X180205Y104159D01*
X193697D01*
X195360Y102497D01*
Y96819D01*
X194512D01*
Y85134D01*
X198126D01*
Y96819D01*
X197278D01*
Y102894D01*
X197205Y103261D01*
X196997Y103572D01*
X194773Y105796D01*
X194462Y106004D01*
X194095Y106077D01*
X180603D01*
X176080Y110600D01*
X176273Y110870D01*
X176852Y110630D01*
X177384D01*
X178456Y109558D01*
X178767Y109350D01*
X179134Y109277D01*
X191756D01*
X192123Y109350D01*
X192434Y109558D01*
X194050Y111174D01*
X194257Y111485D01*
X194330Y111852D01*
Y112003D01*
X194680Y112148D01*
X194974Y111854D01*
X195553Y111614D01*
X196179D01*
X196758Y111854D01*
X197136Y112232D01*
X197442Y112151D01*
X197486Y112124D01*
Y106673D01*
X197559Y106306D01*
X197767Y105995D01*
X200109Y103653D01*
X200420Y103445D01*
X200787Y103372D01*
X206409D01*
X206785Y102996D01*
X207364Y102756D01*
X207990D01*
X208569Y102996D01*
X209012Y103439D01*
X209252Y104017D01*
Y104644D01*
X209012Y105223D01*
X208569Y105666D01*
X207990Y105905D01*
X207364D01*
X206785Y105666D01*
X206409Y105290D01*
X201185D01*
X199404Y107071D01*
Y110673D01*
X199675Y110782D01*
X199754Y110788D01*
X200984Y109558D01*
X201295Y109350D01*
X201662Y109277D01*
X206409D01*
X206785Y108901D01*
X207364Y108661D01*
X207990D01*
X208569Y108901D01*
X209012Y109344D01*
X209252Y109923D01*
Y110549D01*
X209012Y111128D01*
X208569Y111571D01*
X207990Y111811D01*
X207364D01*
X206785Y111571D01*
X206409Y111195D01*
X202059D01*
X201372Y111882D01*
Y115764D01*
X201441Y116085D01*
X201722Y116085D01*
X203322D01*
Y118380D01*
X206269D01*
X206342Y118202D01*
X206785Y117759D01*
X207364Y117520D01*
X207990D01*
X208569Y117759D01*
X209012Y118202D01*
X209252Y118781D01*
Y119408D01*
X209012Y119986D01*
X208569Y120430D01*
X207990Y120669D01*
X207364D01*
X206785Y120430D01*
X206653Y120298D01*
X203322D01*
Y122592D01*
X201704D01*
X201441Y122592D01*
X201091Y122592D01*
X199473Y122592D01*
X199123Y122592D01*
X197504Y122592D01*
X197154Y122592D01*
X195536D01*
X195467Y122914D01*
Y123245D01*
X195648Y123425D01*
X196179D01*
X196758Y123665D01*
X197201Y124108D01*
X197441Y124687D01*
Y125313D01*
X197201Y125892D01*
X196758Y126335D01*
X196179Y126575D01*
X195553D01*
X194974Y126335D01*
X194531Y125892D01*
X194291Y125313D01*
Y124781D01*
X193927Y124417D01*
X193577Y124555D01*
Y126389D01*
X193504Y126756D01*
X193296Y127067D01*
X185138Y135225D01*
Y135631D01*
X184898Y136210D01*
X184455Y136653D01*
X183876Y136893D01*
X183250D01*
X182968Y136776D01*
X182677Y136971D01*
Y137124D01*
X182591Y137333D01*
X182785Y137624D01*
X196544D01*
X196911Y137697D01*
X197222Y137905D01*
X201316Y141999D01*
X201461Y142027D01*
X201772Y142235D01*
X204615Y145079D01*
X204637Y145111D01*
X204987Y145005D01*
Y143941D01*
X204987D01*
Y143854D01*
X204987D01*
Y141973D01*
X204987D01*
Y141885D01*
X204987D01*
X204987Y140004D01*
X204665Y139935D01*
X203937D01*
X203570Y139862D01*
X203259Y139655D01*
X201971Y138367D01*
X201925Y138386D01*
X201299D01*
X200720Y138146D01*
X200277Y137703D01*
X200037Y137124D01*
Y136498D01*
X200277Y135919D01*
X200720Y135476D01*
X201299Y135236D01*
X201925D01*
X202504Y135476D01*
X202947Y135919D01*
X203187Y136498D01*
Y136870D01*
X204334Y138017D01*
X204665D01*
X204987Y137948D01*
X204987Y137667D01*
Y136067D01*
X204987D01*
Y135980D01*
X204987D01*
Y134099D01*
X204987D01*
Y134011D01*
X204987D01*
Y132393D01*
X204987Y132130D01*
X204987Y131780D01*
X204987Y130162D01*
X204987Y129812D01*
X204987Y128193D01*
X204987Y127843D01*
Y127340D01*
X208240D01*
X211494D01*
X211494Y128106D01*
X211815Y128175D01*
X212201D01*
X214173Y126203D01*
Y125671D01*
X214413Y125092D01*
X214856Y124649D01*
X215435Y124409D01*
X216061D01*
X216640Y124649D01*
X217083Y125092D01*
X217323Y125671D01*
Y126297D01*
X217083Y126876D01*
X216640Y127319D01*
X216061Y127559D01*
X215529D01*
X213295Y129793D01*
X213301Y129873D01*
X213410Y130143D01*
X214404D01*
X214567Y129980D01*
Y129608D01*
X214807Y129029D01*
X215250Y128586D01*
X215828Y128347D01*
X216455D01*
X217034Y128586D01*
X217477Y129029D01*
X217717Y129608D01*
Y130235D01*
X217477Y130813D01*
X217034Y131256D01*
X216455Y131496D01*
X215828D01*
X215782Y131477D01*
X215497Y131762D01*
X215504Y131841D01*
X215613Y132112D01*
X216925D01*
X216944Y132066D01*
X217387Y131623D01*
X217966Y131383D01*
X218592D01*
X219171Y131623D01*
X219614Y132066D01*
X219854Y132645D01*
Y133271D01*
X219614Y133850D01*
X219390Y134074D01*
X219194Y134317D01*
X219390Y134532D01*
X219629Y134770D01*
X219868Y135349D01*
Y135976D01*
X219629Y136554D01*
X219185Y136997D01*
X219173Y137003D01*
X219105Y137346D01*
X219253Y137494D01*
X219493Y138073D01*
Y138699D01*
X219253Y139278D01*
X218810Y139721D01*
X218231Y139961D01*
X217604D01*
X217026Y139721D01*
X216583Y139278D01*
X216343Y138699D01*
Y138327D01*
X215983Y137967D01*
X211815D01*
X211494Y138036D01*
X211494Y138317D01*
X211494Y139917D01*
X211815Y139986D01*
X212194D01*
X212248Y139856D01*
X212691Y139413D01*
X213269Y139173D01*
X213896D01*
X214475Y139413D01*
X214918Y139856D01*
X215158Y140435D01*
Y141061D01*
X214932Y141604D01*
X215061Y141954D01*
X216131D01*
X216185Y141824D01*
X216628Y141382D01*
X217206Y141142D01*
X217833D01*
X218412Y141382D01*
X218855Y141824D01*
X219094Y142403D01*
Y143030D01*
X218869Y143573D01*
X218998Y143923D01*
X222336D01*
X222466Y143793D01*
Y136224D01*
X220779Y134536D01*
X220571Y134225D01*
X220498Y133858D01*
Y117126D01*
X220571Y116759D01*
X220779Y116448D01*
X226076Y111151D01*
Y110316D01*
X225423Y109939D01*
X224805Y109321D01*
X224368Y108564D01*
X224142Y107720D01*
Y106847D01*
X224368Y106003D01*
X224805Y105246D01*
X225423Y104628D01*
X226180Y104191D01*
X227024Y103965D01*
X227898D01*
X228742Y104191D01*
X229498Y104628D01*
X230116Y105246D01*
X230553Y106003D01*
X230779Y106847D01*
Y107720D01*
X230553Y108564D01*
X230116Y109321D01*
X229498Y109939D01*
X228742Y110376D01*
X227994Y110576D01*
Y111548D01*
X227921Y111915D01*
X227713Y112226D01*
X226300Y113639D01*
X226481Y113953D01*
X227024Y113807D01*
X227898D01*
X228742Y114034D01*
X229498Y114471D01*
X230116Y115088D01*
X230553Y115845D01*
X230779Y116689D01*
Y117563D01*
X230553Y118407D01*
X230116Y119164D01*
X229498Y119781D01*
X228742Y120218D01*
X227898Y120445D01*
X227024D01*
X226180Y120218D01*
X225891Y120052D01*
X224511Y121432D01*
Y123650D01*
X230779D01*
Y130287D01*
X230290D01*
Y146544D01*
X230217Y146911D01*
X230009Y147222D01*
X223844Y153387D01*
X223533Y153595D01*
X223166Y153668D01*
X203322D01*
Y155962D01*
X202976D01*
X202831Y156312D01*
X203107Y156588D01*
X203346Y157167D01*
Y157794D01*
X203107Y158372D01*
X202664Y158815D01*
X202085Y159055D01*
X201458D01*
X200880Y158815D01*
X200437Y158372D01*
X200399Y158282D01*
X200020D01*
X199946Y158460D01*
X199503Y158903D01*
X198925Y159143D01*
X198298D01*
X197719Y158903D01*
X197276Y158460D01*
X197036Y157881D01*
Y157255D01*
X197276Y156676D01*
X197486Y156466D01*
Y156284D01*
X197417Y155962D01*
X197136Y155962D01*
X196651D01*
Y152709D01*
Y149455D01*
X197417D01*
X197767Y149455D01*
X199385D01*
Y149455D01*
X199473D01*
Y149455D01*
X201354D01*
Y149455D01*
X201441D01*
Y149455D01*
X203322D01*
Y151750D01*
X214942D01*
X215012Y151400D01*
X214856Y151335D01*
X214480Y150959D01*
X206565D01*
X206199Y150886D01*
X205887Y150678D01*
X203259Y148050D01*
X203194Y147953D01*
X202753Y147899D01*
X202664Y147989D01*
X202085Y148228D01*
X201458D01*
X200880Y147989D01*
X200503Y147613D01*
X199024D01*
X198657Y147539D01*
X198578Y147487D01*
X196707D01*
X195467Y148727D01*
Y149134D01*
X195536Y149455D01*
X195817Y149455D01*
X196301D01*
Y152709D01*
Y155962D01*
X195536D01*
X195186Y155962D01*
X194117D01*
X193972Y156312D01*
X194248Y156588D01*
X194488Y157167D01*
Y157794D01*
X194248Y158372D01*
X193805Y158815D01*
X193227Y159055D01*
X192600D01*
X192021Y158815D01*
X191942Y158736D01*
X191761Y158803D01*
X191619Y158908D01*
Y159482D01*
X191379Y160061D01*
X190936Y160503D01*
X190357Y160743D01*
X189731D01*
X189152Y160503D01*
X188709Y160061D01*
X188471Y159486D01*
X188468Y159481D01*
X188119Y159281D01*
X187715Y159449D01*
X187088D01*
X186510Y159209D01*
X186066Y158766D01*
X185827Y158187D01*
Y157561D01*
X186066Y156982D01*
X186510Y156539D01*
X187088Y156299D01*
X187057Y155962D01*
X185693Y155962D01*
X185343Y155962D01*
X183725Y155962D01*
X183656Y156284D01*
Y160169D01*
X184012Y160525D01*
X184252Y161104D01*
Y161731D01*
X184012Y162309D01*
X183569Y162752D01*
X183064Y162961D01*
X183134Y163311D01*
X184366D01*
Y173657D01*
X179729D01*
Y163311D01*
X182220D01*
X182290Y162961D01*
X181785Y162752D01*
X181342Y162309D01*
X181102Y161731D01*
Y161104D01*
X181342Y160525D01*
X181738Y160129D01*
Y156284D01*
X181669Y155962D01*
X181388Y155962D01*
X179788D01*
Y152801D01*
X179769Y152709D01*
Y152534D01*
X176465D01*
X176089Y152910D01*
X175510Y153150D01*
X174884D01*
X174305Y152910D01*
X173929Y152534D01*
X170560D01*
X170183Y152910D01*
X169605Y153150D01*
X168978D01*
X168399Y152910D01*
X167956Y152467D01*
X167717Y151888D01*
Y151262D01*
X167956Y150683D01*
X168399Y150240D01*
X168978Y150000D01*
X169605D01*
X170183Y150240D01*
X170560Y150616D01*
X173929D01*
X174305Y150240D01*
X174884Y150000D01*
X175510D01*
X176089Y150240D01*
X176465Y150616D01*
X179788D01*
Y149455D01*
X181406D01*
X181669Y149455D01*
X182019Y149455D01*
X183637Y149455D01*
X183706Y149134D01*
Y142266D01*
X183779Y141899D01*
X183987Y141588D01*
X184468Y141107D01*
X184449Y141061D01*
Y140435D01*
X184674Y139892D01*
X184546Y139542D01*
X182790D01*
X182677Y139655D01*
X182366Y139862D01*
X181999Y139935D01*
X178445D01*
X178124Y140004D01*
X178124Y140285D01*
X178124Y141885D01*
X178124Y142235D01*
X178124Y143854D01*
X178124Y144204D01*
Y144707D01*
X174870D01*
X171616D01*
X171616Y143941D01*
X171295Y143872D01*
X170870D01*
X166426Y148316D01*
Y151404D01*
X166689Y151667D01*
X166929Y152246D01*
Y152872D01*
X166689Y153451D01*
X166246Y153894D01*
X165668Y154134D01*
X165041D01*
X164462Y153894D01*
X164019Y153451D01*
X163779Y152872D01*
Y152246D01*
X164019Y151667D01*
X164462Y151224D01*
X164508Y151205D01*
Y147918D01*
X164581Y147552D01*
X164673Y147415D01*
X164401Y147191D01*
X164368Y147224D01*
X164057Y147432D01*
X163759Y147491D01*
X163737Y147546D01*
X163294Y147989D01*
X162715Y148228D01*
X162088D01*
X161510Y147989D01*
X161066Y147546D01*
X160827Y146967D01*
Y146340D01*
X161066Y145762D01*
X161337Y145492D01*
X161138Y145195D01*
X160943Y145276D01*
X160317D01*
X159774Y145051D01*
X159424Y145179D01*
Y180902D01*
X160009Y181487D01*
X160359Y181462D01*
Y180713D01*
X170704D01*
Y185350D01*
X160359D01*
Y183423D01*
X159629D01*
X159262Y183350D01*
X158951Y183142D01*
X157805Y181996D01*
X157726Y182002D01*
X157455Y182111D01*
Y184052D01*
X160009Y186605D01*
X160359Y186581D01*
Y186225D01*
X170704D01*
Y190862D01*
X160359D01*
Y188541D01*
X159629D01*
X159262Y188468D01*
X158951Y188260D01*
X155836Y185145D01*
X155757Y185151D01*
X155487Y185261D01*
Y188776D01*
X159632Y192922D01*
X160359D01*
Y191737D01*
X170704D01*
Y196374D01*
D02*
G37*
G36*
X220271Y190862D02*
X209926D01*
Y189542D01*
X209339D01*
X208963Y189918D01*
X208384Y190157D01*
X207758D01*
X207179Y189918D01*
X206736Y189475D01*
X206496Y188896D01*
Y188269D01*
X206736Y187691D01*
X207179Y187248D01*
X207758Y187008D01*
X208384D01*
X208963Y187248D01*
X209339Y187624D01*
X209926D01*
Y186225D01*
X220271D01*
Y190862D01*
D02*
G37*
G36*
X248342Y191778D02*
X245470D01*
Y188906D01*
X245696D01*
X246471Y189114D01*
X247166Y189515D01*
X247733Y190082D01*
X248134Y190777D01*
X248342Y191552D01*
Y191778D01*
D02*
G37*
G36*
X245120D02*
X242248D01*
Y191552D01*
X242456Y190777D01*
X242857Y190082D01*
X243425Y189515D01*
X244119Y189114D01*
X244894Y188906D01*
X245120D01*
Y191778D01*
D02*
G37*
G36*
X138342D02*
X135470D01*
Y188906D01*
X135696D01*
X136471Y189114D01*
X137166Y189515D01*
X137733Y190082D01*
X138135Y190777D01*
X138342Y191552D01*
Y191778D01*
D02*
G37*
G36*
X135120D02*
X132248D01*
Y191552D01*
X132456Y190777D01*
X132857Y190082D01*
X133424Y189515D01*
X134119Y189114D01*
X134894Y188906D01*
X135120D01*
Y191778D01*
D02*
G37*
G36*
X180431Y191535D02*
X179805D01*
X179226Y191296D01*
X178783Y190853D01*
X178543Y190274D01*
Y189647D01*
X178783Y189069D01*
X179226Y188626D01*
X179805Y188386D01*
X180431D01*
X181010Y188626D01*
X181453Y189069D01*
X181693Y189647D01*
Y190274D01*
X181453Y190853D01*
X181010Y191296D01*
X180431Y191535D01*
D02*
G37*
G36*
X174329Y191339D02*
X173703D01*
X173124Y191099D01*
X172681Y190656D01*
X172441Y190077D01*
Y189451D01*
X172681Y188872D01*
X173124Y188429D01*
X173703Y188189D01*
X174329D01*
X174908Y188429D01*
X175351Y188872D01*
X175591Y189451D01*
Y190077D01*
X175351Y190656D01*
X174908Y191099D01*
X174329Y191339D01*
D02*
G37*
G36*
X220271Y185350D02*
X209926D01*
Y183991D01*
X208985D01*
X208963Y184012D01*
X208384Y184252D01*
X207758D01*
X207179Y184012D01*
X206736Y183569D01*
X206496Y182990D01*
Y182364D01*
X206736Y181785D01*
X207179Y181342D01*
X207758Y181102D01*
X208384D01*
X208963Y181342D01*
X209406Y181785D01*
X209525Y182072D01*
X209926D01*
Y180713D01*
X220271D01*
Y185350D01*
D02*
G37*
G36*
X176297Y183465D02*
X175671D01*
X175092Y183225D01*
X174649Y182782D01*
X174409Y182203D01*
Y181577D01*
X174649Y180998D01*
X175092Y180555D01*
X175671Y180315D01*
X176297D01*
X176876Y180555D01*
X177319Y180998D01*
X177559Y181577D01*
Y182203D01*
X177319Y182782D01*
X176876Y183225D01*
X176297Y183465D01*
D02*
G37*
G36*
X135696Y185000D02*
X134894D01*
X134119Y184792D01*
X133424Y184391D01*
X132857Y183824D01*
X132456Y183129D01*
X132248Y182354D01*
Y181552D01*
X132456Y180777D01*
X132857Y180082D01*
X133424Y179515D01*
X134119Y179114D01*
X134894Y178906D01*
X135696D01*
X136471Y179114D01*
X137166Y179515D01*
X137733Y180082D01*
X138135Y180777D01*
X138342Y181552D01*
Y182354D01*
X138135Y183129D01*
X137733Y183824D01*
X137166Y184391D01*
X136471Y184792D01*
X135696Y185000D01*
D02*
G37*
G36*
X220271Y179838D02*
X215273D01*
Y177695D01*
X220271D01*
Y179838D01*
D02*
G37*
G36*
X214923D02*
X209926D01*
Y177695D01*
X214923D01*
Y179838D01*
D02*
G37*
G36*
X193620Y179134D02*
X192994D01*
X192415Y178894D01*
X191972Y178451D01*
X191732Y177872D01*
Y177246D01*
X191972Y176667D01*
X192415Y176224D01*
X192994Y175984D01*
X193620D01*
X194199Y176224D01*
X194642Y176667D01*
X194882Y177246D01*
Y177872D01*
X194642Y178451D01*
X194199Y178894D01*
X193620Y179134D01*
D02*
G37*
G36*
X170704Y179838D02*
X160359D01*
Y175201D01*
X170704D01*
Y179838D01*
D02*
G37*
G36*
X245696Y175000D02*
X244894D01*
X244119Y174792D01*
X243425Y174391D01*
X242857Y173824D01*
X242456Y173129D01*
X242248Y172354D01*
Y171552D01*
X242456Y170777D01*
X242857Y170082D01*
X243425Y169515D01*
X244119Y169114D01*
X244894Y168906D01*
X245696D01*
X246471Y169114D01*
X247166Y169515D01*
X247733Y170082D01*
X248134Y170777D01*
X248342Y171552D01*
Y172354D01*
X248134Y173129D01*
X247733Y173824D01*
X247166Y174391D01*
X246471Y174792D01*
X245696Y175000D01*
D02*
G37*
G36*
X135696D02*
X134894D01*
X134119Y174792D01*
X133424Y174391D01*
X132857Y173824D01*
X132456Y173129D01*
X132248Y172354D01*
Y171552D01*
X132456Y170777D01*
X132857Y170082D01*
X133424Y169515D01*
X134119Y169114D01*
X134894Y168906D01*
X135696D01*
X136471Y169114D01*
X137166Y169515D01*
X137733Y170082D01*
X138135Y170777D01*
X138342Y171552D01*
Y172354D01*
X138135Y173129D01*
X137733Y173824D01*
X137166Y174391D01*
X136471Y174792D01*
X135696Y175000D01*
D02*
G37*
G36*
X234565Y171850D02*
X233939D01*
X233360Y171611D01*
X232917Y171168D01*
X232677Y170589D01*
Y169962D01*
X232917Y169384D01*
X233360Y168940D01*
X233939Y168701D01*
X234565D01*
X235144Y168940D01*
X235587Y169384D01*
X235827Y169962D01*
Y170589D01*
X235587Y171168D01*
X235144Y171611D01*
X234565Y171850D01*
D02*
G37*
G36*
X173342Y173657D02*
X171199D01*
Y168659D01*
X173342D01*
Y173657D01*
D02*
G37*
G36*
X170849D02*
X168705D01*
Y168659D01*
X170849D01*
Y173657D01*
D02*
G37*
G36*
X200901D02*
X196264D01*
Y163311D01*
X200901D01*
Y173657D01*
D02*
G37*
G36*
X195389D02*
X190752D01*
Y163311D01*
X195389D01*
Y173657D01*
D02*
G37*
G36*
X189877D02*
X185241D01*
Y163311D01*
X189877D01*
Y173657D01*
D02*
G37*
G36*
X178854D02*
X174217D01*
Y163311D01*
X178854D01*
Y173657D01*
D02*
G37*
G36*
X173342Y168309D02*
X171199D01*
Y163311D01*
X173342D01*
Y168309D01*
D02*
G37*
G36*
X170849D02*
X168705D01*
Y163311D01*
X170849D01*
Y168309D01*
D02*
G37*
G36*
X245696Y165000D02*
X244894D01*
X244119Y164792D01*
X243425Y164391D01*
X242857Y163824D01*
X242456Y163129D01*
X242248Y162354D01*
Y161552D01*
X242456Y160777D01*
X242857Y160082D01*
X243425Y159515D01*
X244119Y159114D01*
X244894Y158906D01*
X245696D01*
X246471Y159114D01*
X247166Y159515D01*
X247733Y160082D01*
X248134Y160777D01*
X248342Y161552D01*
Y162354D01*
X248134Y163129D01*
X247733Y163824D01*
X247166Y164391D01*
X246471Y164792D01*
X245696Y165000D01*
D02*
G37*
G36*
X135696D02*
X134894D01*
X134119Y164792D01*
X133424Y164391D01*
X132857Y163824D01*
X132456Y163129D01*
X132248Y162354D01*
Y161552D01*
X132456Y160777D01*
X132857Y160082D01*
X133424Y159515D01*
X134119Y159114D01*
X134894Y158906D01*
X135696D01*
X136471Y159114D01*
X137166Y159515D01*
X137733Y160082D01*
X138135Y160777D01*
X138342Y161552D01*
Y162354D01*
X138135Y163129D01*
X137733Y163824D01*
X137166Y164391D01*
X136471Y164792D01*
X135696Y165000D01*
D02*
G37*
G36*
X245696Y155000D02*
X244894D01*
X244119Y154792D01*
X243425Y154391D01*
X242857Y153824D01*
X242456Y153129D01*
X242248Y152354D01*
Y151552D01*
X242456Y150777D01*
X242857Y150082D01*
X243425Y149515D01*
X244119Y149114D01*
X244894Y148906D01*
X245696D01*
X246471Y149114D01*
X247166Y149515D01*
X247733Y150082D01*
X248134Y150777D01*
X248342Y151552D01*
Y152354D01*
X248134Y153129D01*
X247733Y153824D01*
X247166Y154391D01*
X246471Y154792D01*
X245696Y155000D01*
D02*
G37*
G36*
X135696D02*
X134894D01*
X134119Y154792D01*
X133424Y154391D01*
X132857Y153824D01*
X132456Y153129D01*
X132248Y152354D01*
Y151552D01*
X132456Y150777D01*
X132857Y150082D01*
X133424Y149515D01*
X134119Y149114D01*
X134894Y148906D01*
X135696D01*
X136471Y149114D01*
X137166Y149515D01*
X137733Y150082D01*
X138135Y150777D01*
X138342Y151552D01*
Y152354D01*
X138135Y153129D01*
X137733Y153824D01*
X137166Y154391D01*
X136471Y154792D01*
X135696Y155000D01*
D02*
G37*
G36*
X181416Y148228D02*
X180789D01*
X180210Y147989D01*
X180031Y147809D01*
X174870D01*
X174777Y147791D01*
X171616D01*
Y146172D01*
X171616Y145910D01*
X171616Y145560D01*
Y145057D01*
X174870D01*
X178124D01*
X178124Y145822D01*
X178445Y145891D01*
X179713D01*
X179767Y145762D01*
X180210Y145318D01*
X180789Y145079D01*
X181416D01*
X181994Y145318D01*
X182437Y145762D01*
X182677Y146340D01*
Y146967D01*
X182437Y147546D01*
X181994Y147989D01*
X181416Y148228D01*
D02*
G37*
G36*
X233034Y145823D02*
X232408D01*
X231829Y145583D01*
X231386Y145140D01*
X231146Y144561D01*
Y143934D01*
X231386Y143356D01*
X231829Y142913D01*
X232408Y142673D01*
X233034D01*
X233613Y142913D01*
X234056Y143356D01*
X234296Y143934D01*
Y144561D01*
X234056Y145140D01*
X233613Y145583D01*
X233034Y145823D01*
D02*
G37*
G36*
X245696Y145000D02*
X244894D01*
X244119Y144792D01*
X243425Y144391D01*
X242857Y143824D01*
X242456Y143129D01*
X242248Y142354D01*
Y141552D01*
X242456Y140777D01*
X242857Y140082D01*
X243425Y139515D01*
X244119Y139114D01*
X244894Y138906D01*
X245696D01*
X246471Y139114D01*
X247166Y139515D01*
X247733Y140082D01*
X248134Y140777D01*
X248342Y141552D01*
Y142354D01*
X248134Y143129D01*
X247733Y143824D01*
X247166Y144391D01*
X246471Y144792D01*
X245696Y145000D01*
D02*
G37*
G36*
X135696D02*
X134894D01*
X134119Y144792D01*
X133424Y144391D01*
X132857Y143824D01*
X132456Y143129D01*
X132248Y142354D01*
Y141552D01*
X132456Y140777D01*
X132857Y140082D01*
X133424Y139515D01*
X134119Y139114D01*
X134894Y138906D01*
X135696D01*
X136471Y139114D01*
X137166Y139515D01*
X137733Y140082D01*
X138135Y140777D01*
X138342Y141552D01*
Y142354D01*
X138135Y143129D01*
X137733Y143824D01*
X137166Y144391D01*
X136471Y144792D01*
X135696Y145000D01*
D02*
G37*
G36*
X245696Y135000D02*
X244894D01*
X244119Y134792D01*
X243425Y134391D01*
X242857Y133824D01*
X242456Y133129D01*
X242248Y132354D01*
Y131552D01*
X242456Y130777D01*
X242857Y130082D01*
X243425Y129515D01*
X244119Y129114D01*
X244894Y128906D01*
X245696D01*
X246471Y129114D01*
X247166Y129515D01*
X247733Y130082D01*
X248134Y130777D01*
X248342Y131552D01*
Y132354D01*
X248134Y133129D01*
X247733Y133824D01*
X247166Y134391D01*
X246471Y134792D01*
X245696Y135000D01*
D02*
G37*
G36*
X135696D02*
X134894D01*
X134119Y134792D01*
X133424Y134391D01*
X132857Y133824D01*
X132456Y133129D01*
X132248Y132354D01*
Y131552D01*
X132456Y130777D01*
X132857Y130082D01*
X133424Y129515D01*
X134119Y129114D01*
X134894Y128906D01*
X135696D01*
X136471Y129114D01*
X137166Y129515D01*
X137733Y130082D01*
X138135Y130777D01*
X138342Y131552D01*
Y132354D01*
X138135Y133129D01*
X137733Y133824D01*
X137166Y134391D01*
X136471Y134792D01*
X135696Y135000D01*
D02*
G37*
G36*
X202085Y127559D02*
X201458D01*
X200880Y127319D01*
X200437Y126876D01*
X200197Y126297D01*
Y125671D01*
X200437Y125092D01*
X200880Y124649D01*
X201458Y124409D01*
X202085D01*
X202159Y124440D01*
X202352Y124311D01*
X202719Y124238D01*
X208240D01*
X208333Y124256D01*
X211494D01*
Y125875D01*
X211494Y126137D01*
X211494Y126487D01*
Y126990D01*
X208240D01*
X204987D01*
X204987Y126225D01*
X204665Y126156D01*
X203346D01*
Y126297D01*
X203107Y126876D01*
X202664Y127319D01*
X202085Y127559D01*
D02*
G37*
G36*
X245696Y125000D02*
X244894D01*
X244119Y124792D01*
X243425Y124391D01*
X242857Y123824D01*
X242456Y123129D01*
X242248Y122354D01*
Y121552D01*
X242456Y120777D01*
X242857Y120082D01*
X243425Y119515D01*
X244119Y119114D01*
X244894Y118906D01*
X245696D01*
X246471Y119114D01*
X247166Y119515D01*
X247733Y120082D01*
X248134Y120777D01*
X248342Y121552D01*
Y122354D01*
X248134Y123129D01*
X247733Y123824D01*
X247166Y124391D01*
X246471Y124792D01*
X245696Y125000D01*
D02*
G37*
G36*
X135696D02*
X134894D01*
X134119Y124792D01*
X133424Y124391D01*
X132857Y123824D01*
X132456Y123129D01*
X132248Y122354D01*
Y121552D01*
X132456Y120777D01*
X132857Y120082D01*
X133424Y119515D01*
X134119Y119114D01*
X134894Y118906D01*
X135696D01*
X136471Y119114D01*
X137166Y119515D01*
X137733Y120082D01*
X138135Y120777D01*
X138342Y121552D01*
Y122354D01*
X138135Y123129D01*
X137733Y123824D01*
X137166Y124391D01*
X136471Y124792D01*
X135696Y125000D01*
D02*
G37*
G36*
X245696Y115000D02*
X244894D01*
X244119Y114792D01*
X243425Y114391D01*
X242857Y113824D01*
X242456Y113129D01*
X242248Y112354D01*
Y111552D01*
X242456Y110777D01*
X242857Y110082D01*
X243425Y109515D01*
X244119Y109114D01*
X244894Y108906D01*
X245696D01*
X246471Y109114D01*
X247166Y109515D01*
X247733Y110082D01*
X248134Y110777D01*
X248342Y111552D01*
Y112354D01*
X248134Y113129D01*
X247733Y113824D01*
X247166Y114391D01*
X246471Y114792D01*
X245696Y115000D01*
D02*
G37*
G36*
X135696D02*
X134894D01*
X134119Y114792D01*
X133424Y114391D01*
X132857Y113824D01*
X132456Y113129D01*
X132248Y112354D01*
Y111552D01*
X132456Y110777D01*
X132857Y110082D01*
X133424Y109515D01*
X134119Y109114D01*
X134894Y108906D01*
X135696D01*
X136471Y109114D01*
X137166Y109515D01*
X137733Y110082D01*
X138135Y110777D01*
X138342Y111552D01*
Y112354D01*
X138135Y113129D01*
X137733Y113824D01*
X137166Y114391D01*
X136471Y114792D01*
X135696Y115000D01*
D02*
G37*
G36*
X164683Y102953D02*
X164057D01*
X163478Y102713D01*
X163035Y102270D01*
X162795Y101691D01*
Y101065D01*
X163035Y100486D01*
X163478Y100043D01*
X164057Y99803D01*
X164683D01*
X165262Y100043D01*
X165705Y100486D01*
X165945Y101065D01*
Y101691D01*
X165705Y102270D01*
X165262Y102713D01*
X164683Y102953D01*
D02*
G37*
G36*
X245696Y105000D02*
X244894D01*
X244119Y104792D01*
X243425Y104391D01*
X242857Y103824D01*
X242456Y103129D01*
X242248Y102354D01*
Y101552D01*
X242456Y100777D01*
X242857Y100082D01*
X243425Y99515D01*
X244119Y99114D01*
X244894Y98906D01*
X245696D01*
X246471Y99114D01*
X247166Y99515D01*
X247733Y100082D01*
X248134Y100777D01*
X248342Y101552D01*
Y102354D01*
X248134Y103129D01*
X247733Y103824D01*
X247166Y104391D01*
X246471Y104792D01*
X245696Y105000D01*
D02*
G37*
G36*
X135696D02*
X134894D01*
X134119Y104792D01*
X133424Y104391D01*
X132857Y103824D01*
X132456Y103129D01*
X132248Y102354D01*
Y101552D01*
X132456Y100777D01*
X132857Y100082D01*
X133424Y99515D01*
X134119Y99114D01*
X134894Y98906D01*
X135696D01*
X136471Y99114D01*
X137166Y99515D01*
X137733Y100082D01*
X138135Y100777D01*
X138342Y101552D01*
Y102354D01*
X138135Y103129D01*
X137733Y103824D01*
X137166Y104391D01*
X136471Y104792D01*
X135696Y105000D01*
D02*
G37*
G36*
X206022Y100984D02*
X205395D01*
X204817Y100744D01*
X204440Y100368D01*
X203346D01*
X202979Y100295D01*
X202668Y100087D01*
X200807Y98226D01*
X200599Y97915D01*
X200526Y97548D01*
Y96819D01*
X199512D01*
Y85134D01*
X203126D01*
Y96819D01*
X202486D01*
X202462Y97168D01*
X203744Y98450D01*
X204440D01*
X204817Y98074D01*
X205395Y97835D01*
X206022D01*
X206601Y98074D01*
X207044Y98517D01*
X207283Y99096D01*
Y99723D01*
X207044Y100302D01*
X206601Y100744D01*
X206022Y100984D01*
D02*
G37*
G36*
X227898Y100759D02*
X227636D01*
Y97616D01*
X230779D01*
Y97878D01*
X230553Y98722D01*
X230116Y99479D01*
X229498Y100096D01*
X228742Y100533D01*
X227898Y100759D01*
D02*
G37*
G36*
X227286D02*
X227024D01*
X226180Y100533D01*
X225423Y100096D01*
X224805Y99479D01*
X224368Y98722D01*
X224142Y97878D01*
Y97616D01*
X227286D01*
Y100759D01*
D02*
G37*
G36*
X230779Y97266D02*
X227636D01*
Y94122D01*
X227898D01*
X228742Y94349D01*
X229498Y94785D01*
X230116Y95403D01*
X230553Y96160D01*
X230779Y97004D01*
Y97266D01*
D02*
G37*
G36*
X227286D02*
X224142D01*
Y97004D01*
X224368Y96160D01*
X224805Y95403D01*
X225423Y94785D01*
X226180Y94349D01*
X227024Y94122D01*
X227286D01*
Y97266D01*
D02*
G37*
G36*
X158778Y97047D02*
X158151D01*
X157572Y96807D01*
X157130Y96364D01*
X156890Y95786D01*
Y95159D01*
X157130Y94580D01*
X157572Y94137D01*
X158151Y93898D01*
X158778D01*
X159357Y94137D01*
X159800Y94580D01*
X160039Y95159D01*
Y95786D01*
X159800Y96364D01*
X159357Y96807D01*
X158778Y97047D01*
D02*
G37*
G36*
X245696Y95000D02*
X244894D01*
X244119Y94792D01*
X243425Y94391D01*
X242857Y93824D01*
X242456Y93129D01*
X242248Y92354D01*
Y91552D01*
X242456Y90777D01*
X242857Y90082D01*
X243425Y89515D01*
X244119Y89113D01*
X244894Y88906D01*
X245696D01*
X246471Y89113D01*
X247166Y89515D01*
X247733Y90082D01*
X248134Y90777D01*
X248342Y91552D01*
Y92354D01*
X248134Y93129D01*
X247733Y93824D01*
X247166Y94391D01*
X246471Y94792D01*
X245696Y95000D01*
D02*
G37*
G36*
X135696D02*
X134894D01*
X134119Y94792D01*
X133424Y94391D01*
X132857Y93824D01*
X132456Y93129D01*
X132248Y92354D01*
Y91552D01*
X132456Y90777D01*
X132857Y90082D01*
X133424Y89515D01*
X134119Y89113D01*
X134894Y88906D01*
X135696D01*
X136471Y89113D01*
X137166Y89515D01*
X137733Y90082D01*
X138135Y90777D01*
X138342Y91552D01*
Y92354D01*
X138135Y93129D01*
X137733Y93824D01*
X137166Y94391D01*
X136471Y94792D01*
X135696Y95000D01*
D02*
G37*
G36*
X165766Y89961D02*
X165139D01*
X164561Y89721D01*
X164118Y89278D01*
X163878Y88699D01*
Y88073D01*
X164118Y87494D01*
X164561Y87051D01*
X165139Y86811D01*
X165766D01*
X166345Y87051D01*
X166788Y87494D01*
X167028Y88073D01*
Y88699D01*
X166788Y89278D01*
X166345Y89721D01*
X165766Y89961D01*
D02*
G37*
G36*
X162223Y92716D02*
X161596D01*
X161017Y92477D01*
X160574Y92034D01*
X160335Y91455D01*
Y90829D01*
X160574Y90250D01*
X160832Y89992D01*
X160988Y89764D01*
X160832Y89535D01*
X160574Y89278D01*
X160335Y88699D01*
Y88073D01*
X160574Y87494D01*
X161017Y87051D01*
X161596Y86811D01*
X162223D01*
X162802Y87051D01*
X163244Y87494D01*
X163484Y88073D01*
Y88699D01*
X163244Y89278D01*
X162987Y89535D01*
X162831Y89764D01*
X162987Y89992D01*
X163244Y90250D01*
X163484Y90829D01*
Y91455D01*
X163244Y92034D01*
X162802Y92477D01*
X162223Y92716D01*
D02*
G37*
G36*
X183126Y96819D02*
X179512D01*
Y85134D01*
X183126D01*
Y96819D01*
D02*
G37*
G36*
X227898Y90917D02*
X227024D01*
X226180Y90691D01*
X225423Y90254D01*
X224805Y89636D01*
X224368Y88879D01*
X224142Y88035D01*
Y87161D01*
X224368Y86317D01*
X224805Y85561D01*
X225423Y84943D01*
X226180Y84506D01*
X227024Y84280D01*
X227898D01*
X228742Y84506D01*
X229498Y84943D01*
X230116Y85561D01*
X230553Y86317D01*
X230779Y87161D01*
Y88035D01*
X230553Y88879D01*
X230116Y89636D01*
X229498Y90254D01*
X228742Y90691D01*
X227898Y90917D01*
D02*
G37*
G36*
X248342Y85000D02*
X245470D01*
Y82128D01*
X248342D01*
Y85000D01*
D02*
G37*
G36*
X138342D02*
X135470D01*
Y82128D01*
X138342D01*
Y85000D01*
D02*
G37*
G36*
X245120D02*
X242248D01*
Y82128D01*
X245120D01*
Y85000D01*
D02*
G37*
G36*
X135120D02*
X132248D01*
Y82128D01*
X135120D01*
Y85000D01*
D02*
G37*
G36*
X208126Y96819D02*
X204512D01*
Y85134D01*
X205444D01*
X205589Y84784D01*
X205358Y84553D01*
X205118Y83975D01*
Y83348D01*
X205358Y82769D01*
X205801Y82326D01*
X206380Y82087D01*
X207006D01*
X207585Y82326D01*
X208028Y82769D01*
X208268Y83348D01*
Y83975D01*
X208028Y84553D01*
X207797Y84784D01*
X207942Y85134D01*
X208126D01*
Y96819D01*
D02*
G37*
G36*
X196046Y84411D02*
X195420D01*
X194841Y84171D01*
X194398Y83728D01*
X194158Y83149D01*
Y82522D01*
X194398Y81944D01*
X194841Y81501D01*
X195420Y81261D01*
X196046D01*
X196625Y81501D01*
X197068Y81944D01*
X197308Y82522D01*
Y83149D01*
X197068Y83728D01*
X196625Y84171D01*
X196046Y84411D01*
D02*
G37*
G36*
X188512Y84333D02*
X187886D01*
X187307Y84094D01*
X186864Y83651D01*
X186624Y83072D01*
Y82445D01*
X186864Y81867D01*
X187307Y81423D01*
X187886Y81184D01*
X188512D01*
X189091Y81423D01*
X189534Y81867D01*
X189774Y82445D01*
Y83072D01*
X189534Y83651D01*
X189091Y84094D01*
X188512Y84333D01*
D02*
G37*
G36*
X248342Y81778D02*
X245470D01*
Y78906D01*
X248342D01*
Y81778D01*
D02*
G37*
G36*
X245120D02*
X242248D01*
Y78906D01*
X245120D01*
Y81778D01*
D02*
G37*
G36*
X138342D02*
X135470D01*
Y78906D01*
X138342D01*
Y81778D01*
D02*
G37*
G36*
X135120D02*
X132248D01*
Y78906D01*
X135120D01*
Y81778D01*
D02*
G37*
G36*
X198126Y80795D02*
X196494D01*
Y75128D01*
X198126D01*
Y80795D01*
D02*
G37*
G36*
X193126D02*
X191494D01*
Y75128D01*
X193126D01*
Y80795D01*
D02*
G37*
G36*
X196144D02*
X194512D01*
Y75128D01*
X196144D01*
Y80795D01*
D02*
G37*
G36*
X191144D02*
X189512D01*
Y75128D01*
X191144D01*
Y80795D01*
D02*
G37*
G36*
X208126D02*
X204512D01*
Y69111D01*
X208126D01*
Y80795D01*
D02*
G37*
G36*
X203126D02*
X199512D01*
Y69111D01*
X203126D01*
Y73957D01*
X203346Y74490D01*
Y75116D01*
X203126Y75650D01*
Y80795D01*
D02*
G37*
G36*
X198126Y74778D02*
X196494D01*
Y69111D01*
X198126D01*
Y74778D01*
D02*
G37*
G36*
X196144D02*
X194512D01*
Y69111D01*
X196144D01*
Y74778D01*
D02*
G37*
G36*
X193126D02*
X191494D01*
Y69111D01*
X193126D01*
Y74778D01*
D02*
G37*
G36*
X191144D02*
X189512D01*
Y69111D01*
X191144D01*
Y74778D01*
D02*
G37*
G36*
X188126Y80795D02*
X184512D01*
Y69111D01*
X188126D01*
Y80795D01*
D02*
G37*
G36*
X181416Y84252D02*
X180789D01*
X180210Y84012D01*
X179767Y83569D01*
X179528Y82990D01*
Y82364D01*
X179767Y81785D01*
X180210Y81342D01*
X180360Y81280D01*
Y80795D01*
X179512D01*
Y69111D01*
X183126D01*
Y80795D01*
X182278D01*
Y81626D01*
X182437Y81785D01*
X182677Y82364D01*
Y82990D01*
X182437Y83569D01*
X181994Y84012D01*
X181416Y84252D01*
D02*
G37*
G36*
X169605Y116732D02*
X168978D01*
X168399Y116492D01*
X167956Y116050D01*
X167717Y115471D01*
Y114844D01*
X167956Y114265D01*
X168332Y113889D01*
Y87795D01*
X168405Y87428D01*
X168613Y87117D01*
X169191Y86539D01*
X169193Y86531D01*
X169401Y86220D01*
X174487Y81134D01*
X174512Y80795D01*
X174512D01*
Y69111D01*
X178126D01*
Y80795D01*
X176584D01*
Y81352D01*
X176512Y81718D01*
X176304Y82030D01*
X170966Y87367D01*
X170965Y87375D01*
X170757Y87686D01*
X170250Y88192D01*
Y113889D01*
X170626Y114265D01*
X170866Y114844D01*
Y115471D01*
X170626Y116050D01*
X170183Y116492D01*
X169605Y116732D01*
D02*
G37*
G36*
X203406Y67164D02*
X202506D01*
X201674Y66819D01*
X201037Y66182D01*
X200692Y65350D01*
Y64450D01*
X201037Y63618D01*
X201674Y62981D01*
X202506Y62636D01*
X203406D01*
X204238Y62981D01*
X204875Y63618D01*
X205220Y64450D01*
Y65350D01*
X204875Y66182D01*
X204238Y66819D01*
X203406Y67164D01*
D02*
G37*
G36*
X180650D02*
X179750D01*
X178918Y66819D01*
X178281Y66182D01*
X177936Y65350D01*
Y64450D01*
X178281Y63618D01*
X178918Y62981D01*
X179750Y62636D01*
X180650D01*
X181482Y62981D01*
X182119Y63618D01*
X182464Y64450D01*
Y65350D01*
X182119Y66182D01*
X181482Y66819D01*
X180650Y67164D01*
D02*
G37*
G36*
X194801Y63386D02*
X194175D01*
X193596Y63146D01*
X193153Y62703D01*
X192913Y62124D01*
Y61498D01*
X193153Y60919D01*
X193596Y60476D01*
X194175Y60236D01*
X194801D01*
X195380Y60476D01*
X195823Y60919D01*
X196063Y61498D01*
Y62124D01*
X195823Y62703D01*
X195380Y63146D01*
X194801Y63386D01*
D02*
G37*
G36*
X187715D02*
X187088D01*
X186510Y63146D01*
X186066Y62703D01*
X185827Y62124D01*
Y61498D01*
X186066Y60919D01*
X186510Y60476D01*
X187088Y60236D01*
X187715D01*
X188294Y60476D01*
X188737Y60919D01*
X188976Y61498D01*
Y62124D01*
X188737Y62703D01*
X188294Y63146D01*
X187715Y63386D01*
D02*
G37*
G36*
X159762Y60630D02*
X159136D01*
X158557Y60390D01*
X158114Y59947D01*
X157874Y59368D01*
Y58742D01*
X158114Y58163D01*
X158557Y57720D01*
X159136Y57480D01*
X159762D01*
X160341Y57720D01*
X160784Y58163D01*
X161024Y58742D01*
Y59368D01*
X160784Y59947D01*
X160341Y60390D01*
X159762Y60630D01*
D02*
G37*
%LPD*%
G36*
X179767Y135919D02*
X180210Y135476D01*
X180789Y135236D01*
X181416D01*
X181697Y135353D01*
X181988Y135158D01*
Y135005D01*
X182228Y134426D01*
X182671Y133983D01*
X183250Y133743D01*
X183876D01*
X183898Y133753D01*
X190726Y126925D01*
X190581Y126575D01*
X190139D01*
X189561Y126335D01*
X189222Y125997D01*
X188884Y126335D01*
X188305Y126575D01*
X187679D01*
X187100Y126335D01*
X186725Y125960D01*
X186516Y125919D01*
X186306Y125960D01*
X185931Y126335D01*
X185353Y126575D01*
X184726D01*
X184147Y126335D01*
X183704Y125892D01*
X183465Y125313D01*
Y124687D01*
X183704Y124108D01*
X184147Y123665D01*
X184726Y123425D01*
X185073D01*
Y122873D01*
X184807Y122592D01*
X183725Y122592D01*
X183375Y122592D01*
X182872D01*
Y119339D01*
Y116085D01*
X183375D01*
X183637Y116085D01*
X183916Y115912D01*
X183987Y115805D01*
X187721Y112071D01*
X188032Y111863D01*
X188399Y111790D01*
X189938D01*
X190183Y111545D01*
X190038Y111195D01*
X179531D01*
X178740Y111986D01*
Y112518D01*
X178500Y113097D01*
X178057Y113540D01*
X177479Y113779D01*
X176852D01*
X176273Y113540D01*
X176179Y113445D01*
X175829Y113591D01*
Y124256D01*
X178124D01*
Y125875D01*
X178124Y126137D01*
X178124Y126487D01*
X178124Y128106D01*
X178124Y128456D01*
X178124Y130074D01*
X178124Y130424D01*
X178124Y132043D01*
X178124Y132393D01*
Y134011D01*
X178124D01*
Y134099D01*
X178124D01*
X178124Y135980D01*
X178445Y136049D01*
X179713D01*
X179767Y135919D01*
D02*
G37*
%LPC*%
G36*
X181416Y127559D02*
X180789D01*
X180210Y127319D01*
X179767Y126876D01*
X179528Y126297D01*
Y125671D01*
X179767Y125092D01*
X179769Y125090D01*
Y119339D01*
X179788Y119246D01*
Y116085D01*
X181406D01*
X181669Y116085D01*
X182019Y116085D01*
X182522D01*
Y119339D01*
Y122592D01*
X181756Y122592D01*
X181687Y122914D01*
Y124522D01*
X181994Y124649D01*
X182437Y125092D01*
X182677Y125671D01*
Y126297D01*
X182437Y126876D01*
X181994Y127319D01*
X181416Y127559D01*
D02*
G37*
%LPD*%
D29*
X135295Y161953D02*
D03*
X245295Y131953D02*
D03*
Y191953D02*
D03*
X135295D02*
D03*
Y121953D02*
D03*
X245295Y171953D02*
D03*
X135295Y151953D02*
D03*
Y171953D02*
D03*
Y131953D02*
D03*
X245295Y101953D02*
D03*
Y161953D02*
D03*
Y91953D02*
D03*
X135295Y181953D02*
D03*
X245295Y151953D02*
D03*
Y141953D02*
D03*
Y181953D02*
D03*
Y121953D02*
D03*
Y111953D02*
D03*
X135295Y141953D02*
D03*
Y91953D02*
D03*
Y101953D02*
D03*
Y111953D02*
D03*
D31*
X245295Y81953D02*
D03*
X135295D02*
D03*
D32*
X227461Y97441D02*
D03*
Y117126D02*
D03*
Y107283D02*
D03*
Y87598D02*
D03*
D33*
Y126969D02*
D03*
D34*
X202956Y64900D02*
D03*
X180200D02*
D03*
D36*
X149606Y137894D02*
Y202756D01*
X154697Y207846D01*
X159280D01*
X149606Y137894D02*
X158563Y128937D01*
X159280Y207846D02*
X159326Y207800D01*
X158563Y128839D02*
Y128937D01*
D37*
X217360Y142717D02*
X217520D01*
X217163Y142913D02*
X217360Y142717D01*
X208240Y142913D02*
X217163D01*
X165532Y205079D02*
X194528D01*
X198031Y201575D01*
Y181890D02*
Y201575D01*
X176319Y90976D02*
Y95012D01*
X172244Y99087D02*
X176319Y95012D01*
X172244Y99087D02*
Y118220D01*
X175000Y101282D02*
Y104331D01*
Y101282D02*
X175889Y100394D01*
X185937D01*
X191319Y95012D01*
X169401Y121063D02*
X172244Y118220D01*
X169291Y124235D02*
X171457Y122069D01*
X169291Y124235D02*
Y126473D01*
X169983Y127165D01*
X174870D01*
X166339Y121063D02*
X169401D01*
X169291Y87795D02*
Y115157D01*
X191319Y90976D02*
Y95012D01*
X180205Y105118D02*
X194095D01*
X196319Y102894D01*
X174870Y110453D02*
X180205Y105118D01*
X196319Y90976D02*
Y102894D01*
X200413Y156122D02*
X201772Y157480D01*
X200413Y152709D02*
Y156122D01*
X208258Y174248D02*
X222987D01*
X230692Y181953D01*
X207633Y174873D02*
X208258Y174248D01*
X205048Y174873D02*
X207633D01*
X230692Y181953D02*
X245295D01*
X198031Y181890D02*
X205048Y174873D01*
X187402Y157874D02*
X188602Y156673D01*
Y152709D02*
Y156673D01*
X190571Y152709D02*
Y158642D01*
X190044Y159169D02*
X190571Y158642D01*
X206565Y150000D02*
X215748D01*
X203937Y147371D02*
X206565Y150000D01*
X203937Y145757D02*
Y147371D01*
X201094Y142913D02*
X203937Y145757D01*
X200875Y142913D02*
X201094D01*
X196544Y138583D02*
X200875Y142913D01*
X182393Y138583D02*
X196544D01*
X181999Y138976D02*
X182393Y138583D01*
X174870Y138976D02*
X181999D01*
X178714Y144121D02*
X181102Y141732D01*
X182697Y152709D02*
Y161398D01*
X182677Y161417D02*
X182697Y161398D01*
X169291Y140945D02*
X174870D01*
X162509Y146546D02*
X163690D01*
X169291Y140945D01*
X162402Y146653D02*
X162509Y146546D01*
X202719Y125197D02*
X208240D01*
X201932Y125984D02*
X202719Y125197D01*
X194508Y148330D02*
X196310Y146528D01*
X194508Y148330D02*
Y152709D01*
X201772Y125984D02*
X201932D01*
X199024Y146653D02*
X201772D01*
X196310Y146528D02*
X198898D01*
X199024Y146653D01*
X180746Y146850D02*
X180943Y146653D01*
X181102D01*
X175197Y151575D02*
X180728D01*
X174870Y146850D02*
X180746D01*
X180728Y151575D02*
Y152709D01*
X169291Y151575D02*
X175197D01*
X181102Y125824D02*
Y125984D01*
X180728Y125450D02*
X181102Y125824D01*
X180728Y119339D02*
Y125450D01*
X170473Y142913D02*
X174870D01*
X165467Y147918D02*
X170473Y142913D01*
X165354Y152559D02*
X165467Y152446D01*
Y147918D02*
Y152446D01*
X208071Y194488D02*
X208231D01*
X208664Y194055D01*
X215098D01*
X208071Y188583D02*
X215059D01*
X215098Y188543D01*
X208071Y182677D02*
X208231D01*
X208585Y183031D01*
X215098D01*
X198445Y157242D02*
X198611Y157408D01*
Y157568D01*
X198445Y152709D02*
Y157242D01*
X196476Y152709D02*
Y156218D01*
X195374Y157320D02*
X196476Y156218D01*
X195374Y157320D02*
Y157480D01*
X154528Y140748D02*
Y189173D01*
X159235Y193881D01*
X167126Y131102D02*
X174870D01*
X156496Y141732D02*
X167126Y131102D01*
X156496Y141732D02*
Y184449D01*
X164570Y187582D02*
X165532Y188543D01*
X159629Y187582D02*
X164570D01*
X156496Y184449D02*
X159629Y187582D01*
X181102Y113189D02*
X182697Y114784D01*
X174870Y144882D02*
X177953D01*
X178714Y144121D02*
Y144121D01*
X177953Y144882D02*
X178714Y144121D01*
X182697Y114784D02*
Y119339D01*
X191462Y67621D02*
Y74810D01*
Y67621D02*
X192154Y66929D01*
X191319Y74953D02*
Y81907D01*
Y74953D02*
X191462Y74810D01*
X191319Y81907D02*
X191929Y82517D01*
X192154Y66929D02*
X195627D01*
X196319Y67621D01*
Y74953D01*
X191929Y82517D02*
Y82677D01*
X208240Y127165D02*
X211417D01*
X212992Y122047D02*
Y125591D01*
X211417Y127165D02*
X212992Y125591D01*
X168110Y133071D02*
X174870D01*
X158465Y142717D02*
X168110Y133071D01*
X158465Y181299D02*
X159629Y182464D01*
X164963D01*
X158465Y142717D02*
Y181299D01*
X164963Y182464D02*
X165532Y183031D01*
X154528Y140748D02*
X166142Y129134D01*
X174870D01*
X165357Y193881D02*
X165532Y194055D01*
X159235Y193881D02*
X165357D01*
X213423Y140748D02*
X213583D01*
X213226Y140945D02*
X213423Y140748D01*
X208240Y140945D02*
X213226D01*
X217758Y138386D02*
X217918D01*
X208240Y137008D02*
X216380D01*
X217758Y138386D01*
X194508Y119339D02*
Y123642D01*
X195866Y125000D01*
X169291Y87795D02*
X170079Y87008D01*
Y86898D02*
Y87008D01*
X175626Y75646D02*
X176319Y74953D01*
X175626Y75646D02*
Y81352D01*
X170079Y86898D02*
X175626Y81352D01*
X190571Y119339D02*
Y124722D01*
X190453Y124840D02*
X190571Y124722D01*
X190453Y124840D02*
Y125000D01*
X203346Y99410D02*
X205709D01*
X201485Y97548D02*
X203346Y99410D01*
X201319Y90976D02*
X201485Y91143D01*
Y97548D01*
X188399Y112749D02*
X191206D01*
X184665Y116483D02*
Y119339D01*
Y116483D02*
X188399Y112749D01*
X160630Y143541D02*
Y143701D01*
Y143541D02*
X160925Y143246D01*
X168985Y135039D02*
X174870D01*
X160925Y143099D02*
Y143246D01*
Y143099D02*
X168985Y135039D01*
X192539Y152709D02*
Y156947D01*
X192913Y157320D01*
Y157480D01*
X227461Y126969D02*
X229331Y128839D01*
X202382Y152709D02*
X223166D01*
X229331Y146544D01*
Y128839D02*
Y146544D01*
X201662Y110236D02*
X207677D01*
X200413Y111485D02*
X201662Y110236D01*
X200413Y111485D02*
Y119339D01*
X188000Y123612D02*
X188602Y123010D01*
X188000Y123612D02*
Y124992D01*
X188602Y119339D02*
Y123010D01*
X187992Y125000D02*
X188000Y124992D01*
X184665Y142266D02*
Y152709D01*
Y142266D02*
X186024Y140908D01*
Y140748D02*
Y140908D01*
X217087Y135549D02*
X218180D01*
X208240Y135039D02*
X216577D01*
X218180Y135549D02*
X218293Y135662D01*
X216577Y135039D02*
X217087Y135549D01*
X192539Y119339D02*
Y124014D01*
X192618Y124092D01*
Y126389D01*
X183689Y135318D02*
X192618Y126389D01*
X183563Y135318D02*
X183689D01*
X198445Y106673D02*
X200787Y104331D01*
X207677D01*
X198445Y106673D02*
Y119339D01*
X174870Y110453D02*
Y125197D01*
Y137008D02*
X180746D01*
X180943Y136811D02*
X181102D01*
X180746Y137008D02*
X180943Y136811D01*
X212205Y146850D02*
X212992Y147638D01*
X208240Y146850D02*
X212205D01*
X212992Y147638D02*
X225394D01*
X223552Y132440D02*
X226378Y135267D01*
X225394Y147638D02*
X226378Y146653D01*
Y135267D02*
Y146653D01*
X223552Y121035D02*
X227461Y117126D01*
X223552Y121035D02*
Y132440D01*
X203937Y138976D02*
X208240D01*
X201772Y136811D02*
X203937Y138976D01*
X201612Y136811D02*
X201772D01*
X208240Y133071D02*
X218166D01*
X218279Y132958D01*
X214801Y131102D02*
X215982Y129921D01*
X208240Y131102D02*
X214801D01*
X215982Y129921D02*
X216142D01*
X186032Y122797D02*
X186634Y122194D01*
X185039Y124840D02*
X186032Y123848D01*
Y122797D02*
Y123848D01*
X186634Y119339D02*
Y122194D01*
X185039Y124840D02*
Y125000D01*
X186634Y145562D02*
Y152709D01*
Y145562D02*
X190464Y141732D01*
X195845D01*
X222733Y144882D02*
X223425Y144190D01*
X208240Y144882D02*
X222733D01*
X223425Y135827D02*
Y144190D01*
X221457Y133858D02*
X223425Y135827D01*
X227035Y107709D02*
X227461Y107283D01*
X221457Y117126D02*
Y133858D01*
Y117126D02*
X227035Y111548D01*
Y107709D02*
Y111548D01*
X212598Y129134D02*
X215748Y125984D01*
Y125984D02*
Y125984D01*
X208240Y129134D02*
X212598D01*
X202382Y119339D02*
X207433D01*
X207677Y119095D01*
X195784Y115354D02*
X196476Y116046D01*
Y119339D01*
X177165Y112205D02*
X179134Y110236D01*
X191756D02*
X193371Y111852D01*
X179134Y110236D02*
X191756D01*
X194063Y115354D02*
X195784D01*
X193371Y111852D02*
Y114662D01*
X194063Y115354D01*
X181319Y74953D02*
Y82301D01*
X181102Y82517D02*
X181319Y82301D01*
X181102Y82517D02*
Y82677D01*
D40*
X140945Y58268D02*
D03*
Y209842D02*
D03*
X240945Y58268D02*
D03*
Y209842D02*
D03*
D41*
X217520Y142717D02*
D03*
X232721Y144248D02*
D03*
X210630Y89567D02*
D03*
X203740Y207677D02*
D03*
X199803Y204724D02*
D03*
X192913Y201772D02*
D03*
X187008D02*
D03*
X180118Y195866D02*
D03*
X174213D02*
D03*
X180118Y189961D02*
D03*
X175000Y104331D02*
D03*
X171457Y122069D02*
D03*
X166339Y121063D02*
D03*
X169291Y115157D02*
D03*
X191929Y98425D02*
D03*
X201772Y157480D02*
D03*
X174016Y189764D02*
D03*
X214173Y210236D02*
D03*
X214567Y205118D02*
D03*
X187402Y157874D02*
D03*
X190044Y159169D02*
D03*
X215748Y150000D02*
D03*
X207473Y174873D02*
D03*
X181102Y141732D02*
D03*
X164173Y142913D02*
D03*
X182677Y161417D02*
D03*
X162402Y146653D02*
D03*
X234252Y170276D02*
D03*
X201772Y74803D02*
D03*
Y146653D02*
D03*
Y125984D02*
D03*
X175197Y151575D02*
D03*
X169291D02*
D03*
X181102Y146653D02*
D03*
Y125984D02*
D03*
X165453Y88386D02*
D03*
X164370Y101378D02*
D03*
X158465Y95472D02*
D03*
X161909Y88386D02*
D03*
Y91142D02*
D03*
X175984Y181890D02*
D03*
X165354Y152559D02*
D03*
X193307Y177559D02*
D03*
X165532Y177520D02*
D03*
X194414Y187870D02*
D03*
X189764Y194095D02*
D03*
X179921Y211417D02*
D03*
X202165Y194488D02*
D03*
Y188583D02*
D03*
Y182677D02*
D03*
X208071Y194488D02*
D03*
Y188583D02*
D03*
Y182677D02*
D03*
X165532Y205079D02*
D03*
X192913Y157480D02*
D03*
X198611Y157568D02*
D03*
X195374Y157480D02*
D03*
X152559Y95472D02*
D03*
X162402Y80709D02*
D03*
X158465Y101378D02*
D03*
Y107283D02*
D03*
X164370Y107283D02*
D03*
X162402Y114173D02*
D03*
X165354D02*
D03*
X170079Y52756D02*
D03*
Y50000D02*
D03*
X169685Y68110D02*
D03*
Y65354D02*
D03*
X172441D02*
D03*
X172835Y50000D02*
D03*
Y52756D02*
D03*
X172441Y68110D02*
D03*
X172244Y88583D02*
D03*
X181102Y107283D02*
D03*
Y113189D02*
D03*
X152559Y128937D02*
D03*
X169291Y157480D02*
D03*
X165291Y171433D02*
D03*
X165532Y199567D02*
D03*
Y210591D02*
D03*
Y216102D02*
D03*
X181102Y131890D02*
D03*
X171024Y168484D02*
D03*
X173228Y180118D02*
D03*
X175197Y157480D02*
D03*
X191929Y82677D02*
D03*
X195866Y128937D02*
D03*
X201772Y107283D02*
D03*
X205709Y113189D02*
D03*
X210236Y52756D02*
D03*
Y50000D02*
D03*
X210630Y68110D02*
D03*
Y65354D02*
D03*
X212992Y52756D02*
D03*
Y50000D02*
D03*
X213386Y65354D02*
D03*
Y68110D02*
D03*
X212992Y122047D02*
D03*
X187008Y128937D02*
D03*
X201772Y131890D02*
D03*
Y140748D02*
D03*
X229331Y149606D02*
D03*
X222441Y160433D02*
D03*
X217520Y177165D02*
D03*
X234252Y160433D02*
D03*
X222441Y182087D02*
D03*
X234252Y191929D02*
D03*
X165256Y79331D02*
D03*
Y82284D02*
D03*
X159326Y207800D02*
D03*
X158563Y128839D02*
D03*
X195866Y113189D02*
D03*
X213583Y140748D02*
D03*
X217918Y138386D02*
D03*
X195866Y125000D02*
D03*
X190453D02*
D03*
X191206Y112749D02*
D03*
X205709Y99410D02*
D03*
X160630Y143701D02*
D03*
X146653Y171260D02*
D03*
X181319Y90976D02*
D03*
X207677Y110236D02*
D03*
X188199Y82759D02*
D03*
X187992Y125000D02*
D03*
X186024Y140748D02*
D03*
X218293Y135662D02*
D03*
X183563Y135318D02*
D03*
X207677Y104331D02*
D03*
X146653Y181102D02*
D03*
X181102Y136811D02*
D03*
X201612D02*
D03*
X218279Y132958D02*
D03*
X216142Y129921D02*
D03*
X195733Y82836D02*
D03*
X185039Y125000D02*
D03*
X195845Y141732D02*
D03*
X215748Y125984D02*
D03*
X207677Y119095D02*
D03*
X177165Y112205D02*
D03*
X194488Y61811D02*
D03*
X187402D02*
D03*
X206693Y83661D02*
D03*
X159449Y59055D02*
D03*
X181102Y82677D02*
D03*
D43*
X174870Y140945D02*
D03*
X208240Y125197D02*
D03*
X174870Y146850D02*
D03*
Y142913D02*
D03*
Y131102D02*
D03*
Y144882D02*
D03*
X208240Y127165D02*
D03*
X174870D02*
D03*
Y133071D02*
D03*
Y129134D02*
D03*
X208240Y140945D02*
D03*
Y137008D02*
D03*
X174870Y135039D02*
D03*
X208240Y142913D02*
D03*
Y135039D02*
D03*
X174870Y125197D02*
D03*
Y137008D02*
D03*
X208240Y146850D02*
D03*
Y138976D02*
D03*
Y133071D02*
D03*
Y131102D02*
D03*
X174870Y138976D02*
D03*
X208240Y144882D02*
D03*
Y129134D02*
D03*
D44*
X182697Y152709D02*
D03*
X194508D02*
D03*
X180728D02*
D03*
Y119339D02*
D03*
X190571Y152709D02*
D03*
X182697Y119339D02*
D03*
X196476Y152709D02*
D03*
X198445D02*
D03*
X188602D02*
D03*
X194508Y119339D02*
D03*
X190571D02*
D03*
X184665D02*
D03*
X192539Y152709D02*
D03*
X202382D02*
D03*
X200413Y119339D02*
D03*
X188602D02*
D03*
X184665Y152709D02*
D03*
X192539Y119339D02*
D03*
X198445D02*
D03*
X186634D02*
D03*
Y152709D02*
D03*
X200413D02*
D03*
X202382Y119339D02*
D03*
X196476D02*
D03*
D45*
X201319Y74953D02*
D03*
X191319D02*
D03*
X196319D02*
D03*
X176319D02*
D03*
X201319Y90976D02*
D03*
X181319D02*
D03*
X176319D02*
D03*
X196319D02*
D03*
X186319D02*
D03*
X191319D02*
D03*
X206319D02*
D03*
X181319Y74953D02*
D03*
X186319D02*
D03*
X206319D02*
D03*
D46*
X215098Y205079D02*
D03*
X165532Y188543D02*
D03*
X215098Y177520D02*
D03*
X165532Y210591D02*
D03*
Y216102D02*
D03*
Y199567D02*
D03*
Y177520D02*
D03*
Y183031D02*
D03*
Y205079D02*
D03*
X215098Y210591D02*
D03*
X165532Y194055D02*
D03*
X215098Y183031D02*
D03*
Y188543D02*
D03*
Y194055D02*
D03*
Y199567D02*
D03*
Y216102D02*
D03*
D47*
X171024Y168484D02*
D03*
X176535D02*
D03*
X182047D02*
D03*
X187559D02*
D03*
X193071D02*
D03*
X198583D02*
D03*
X204095D02*
D03*
X209606D02*
D03*
D48*
X214552Y210044D02*
X215098Y210591D01*
M02*
