G04*
G04 #@! TF.GenerationSoftware,Altium Limited,Altium Designer,26.1.1 (7)*
G04*
G04 Layer_Physical_Order=3*
G04 Layer_Color=16440176*
%FSLAX25Y25*%
%MOIN*%
G70*
G04*
G04 #@! TF.SameCoordinates,2C92732F-79F3-4126-9C79-97B6404CCAC7*
G04*
G04*
G04 #@! TF.FilePolarity,Positive*
G04*
G01*
G75*
%ADD29C,0.05394*%
%ADD30R,0.05394X0.05394*%
%ADD32C,0.05937*%
%ADD34C,0.01280*%
%ADD37C,0.01181*%
%ADD39C,0.02362*%
%ADD40C,0.14173*%
%ADD41C,0.01772*%
%ADD42C,0.00406*%
G36*
X251953Y46472D02*
X128756D01*
Y221638D01*
X251953D01*
Y46472D01*
D02*
G37*
%LPC*%
G36*
X214487Y211811D02*
X213860D01*
X213281Y211571D01*
X212905Y211195D01*
X210236D01*
X209869Y211122D01*
X209558Y210914D01*
X186723Y188080D01*
X186516Y187769D01*
X186443Y187402D01*
Y159142D01*
X186066Y158766D01*
X185827Y158187D01*
Y157561D01*
X186066Y156982D01*
X186510Y156539D01*
X187088Y156299D01*
X187715D01*
X188294Y156539D01*
X188737Y156982D01*
X188975Y157557D01*
X188978Y157562D01*
X189326Y157761D01*
X189731Y157594D01*
X190357D01*
X190936Y157833D01*
X191015Y157913D01*
X191197Y157846D01*
X191339Y157741D01*
Y157167D01*
X191578Y156588D01*
X192021Y156145D01*
X192600Y155905D01*
X193227D01*
X193805Y156145D01*
X194248Y156588D01*
X194488Y157167D01*
Y157794D01*
X194248Y158372D01*
X193805Y158815D01*
X193227Y159055D01*
X192600D01*
X192021Y158815D01*
X191942Y158736D01*
X191761Y158803D01*
X191619Y158908D01*
Y159482D01*
X191379Y160061D01*
X191003Y160437D01*
Y186165D01*
X208997Y204159D01*
X213299D01*
X213675Y203783D01*
X214254Y203543D01*
X214880D01*
X215459Y203783D01*
X215902Y204226D01*
X216142Y204805D01*
Y205431D01*
X215902Y206010D01*
X215459Y206453D01*
X214880Y206693D01*
X214254D01*
X213675Y206453D01*
X213299Y206077D01*
X208600D01*
X208233Y206004D01*
X207922Y205796D01*
X189366Y187240D01*
X189158Y186929D01*
X189085Y186562D01*
Y160437D01*
X188710Y160062D01*
X188702Y160062D01*
X188361Y160134D01*
Y187004D01*
X210633Y209277D01*
X212905D01*
X213281Y208901D01*
X213860Y208661D01*
X214487D01*
X215065Y208901D01*
X215508Y209344D01*
X215748Y209923D01*
Y210549D01*
X215508Y211128D01*
X215065Y211571D01*
X214487Y211811D01*
D02*
G37*
G36*
X165845Y206653D02*
X165218D01*
X164639Y206414D01*
X164197Y205971D01*
X163957Y205392D01*
Y204766D01*
X164197Y204187D01*
X164639Y203744D01*
X165218Y203504D01*
X165845D01*
X166424Y203744D01*
X166867Y204187D01*
X167106Y204766D01*
Y205392D01*
X166867Y205971D01*
X166424Y206414D01*
X165845Y206653D01*
D02*
G37*
G36*
X193227Y203346D02*
X192600D01*
X192021Y203107D01*
X191578Y202664D01*
X191339Y202085D01*
Y201458D01*
X191578Y200880D01*
X192021Y200437D01*
X192600Y200197D01*
X193227D01*
X193805Y200437D01*
X194248Y200880D01*
X194488Y201458D01*
Y202085D01*
X194248Y202664D01*
X193805Y203107D01*
X193227Y203346D01*
D02*
G37*
G36*
X208581Y201969D02*
X207955D01*
X207376Y201729D01*
X206933Y201286D01*
X206693Y200707D01*
Y200080D01*
X206933Y199502D01*
X207376Y199059D01*
X207955Y198819D01*
X208581D01*
X209160Y199059D01*
X209603Y199502D01*
X209842Y200080D01*
Y200707D01*
X209603Y201286D01*
X209160Y201729D01*
X208581Y201969D01*
D02*
G37*
G36*
X174329Y197441D02*
X173703D01*
X173124Y197201D01*
X172681Y196758D01*
X172441Y196179D01*
Y195553D01*
X172681Y194974D01*
X173124Y194531D01*
X173703Y194291D01*
X174329D01*
X174908Y194531D01*
X175351Y194974D01*
X175591Y195553D01*
Y196179D01*
X175351Y196758D01*
X174908Y197201D01*
X174329Y197441D01*
D02*
G37*
G36*
X208187Y196063D02*
X207561D01*
X206982Y195823D01*
X206539Y195380D01*
X206299Y194801D01*
Y194175D01*
X206539Y193596D01*
X206982Y193153D01*
X207561Y192913D01*
X208187D01*
X208766Y193153D01*
X209209Y193596D01*
X209449Y194175D01*
Y194801D01*
X209209Y195380D01*
X208766Y195823D01*
X208187Y196063D01*
D02*
G37*
G36*
X245696Y195000D02*
X245470D01*
Y192128D01*
X248342D01*
Y192354D01*
X248134Y193129D01*
X247733Y193824D01*
X247166Y194391D01*
X246471Y194792D01*
X245696Y195000D01*
D02*
G37*
G36*
X135696D02*
X135470D01*
Y192128D01*
X138342D01*
Y192354D01*
X138135Y193129D01*
X137733Y193824D01*
X137166Y194391D01*
X136471Y194792D01*
X135696Y195000D01*
D02*
G37*
G36*
X245120D02*
X244894D01*
X244119Y194792D01*
X243425Y194391D01*
X242857Y193824D01*
X242456Y193129D01*
X242248Y192354D01*
Y192128D01*
X245120D01*
Y195000D01*
D02*
G37*
G36*
X135120D02*
X134894D01*
X134119Y194792D01*
X133424Y194391D01*
X132857Y193824D01*
X132456Y193129D01*
X132248Y192354D01*
Y192128D01*
X135120D01*
Y195000D01*
D02*
G37*
G36*
X248342Y191778D02*
X245470D01*
Y188906D01*
X245696D01*
X246471Y189114D01*
X247166Y189515D01*
X247733Y190082D01*
X248134Y190777D01*
X248342Y191552D01*
Y191778D01*
D02*
G37*
G36*
X245120D02*
X242248D01*
Y191552D01*
X242456Y190777D01*
X242857Y190082D01*
X243425Y189515D01*
X244119Y189114D01*
X244894Y188906D01*
X245120D01*
Y191778D01*
D02*
G37*
G36*
X138342D02*
X135470D01*
Y188906D01*
X135696D01*
X136471Y189114D01*
X137166Y189515D01*
X137733Y190082D01*
X138135Y190777D01*
X138342Y191552D01*
Y191778D01*
D02*
G37*
G36*
X135120D02*
X132248D01*
Y191552D01*
X132456Y190777D01*
X132857Y190082D01*
X133424Y189515D01*
X134119Y189114D01*
X134894Y188906D01*
X135120D01*
Y191778D01*
D02*
G37*
G36*
X180431Y191535D02*
X179805D01*
X179226Y191296D01*
X178783Y190853D01*
X178543Y190274D01*
Y189647D01*
X178783Y189069D01*
X179226Y188626D01*
X179805Y188386D01*
X180431D01*
X181010Y188626D01*
X181453Y189069D01*
X181693Y189647D01*
Y190274D01*
X181453Y190853D01*
X181010Y191296D01*
X180431Y191535D01*
D02*
G37*
G36*
X208187Y190157D02*
X207561D01*
X206982Y189918D01*
X206539Y189475D01*
X206299Y188896D01*
Y188269D01*
X206539Y187691D01*
X206982Y187248D01*
X207561Y187008D01*
X208187D01*
X208766Y187248D01*
X209209Y187691D01*
X209449Y188269D01*
Y188896D01*
X209209Y189475D01*
X208766Y189918D01*
X208187Y190157D01*
D02*
G37*
G36*
X208581Y184252D02*
X207955D01*
X207376Y184012D01*
X206933Y183569D01*
X206693Y182990D01*
Y182364D01*
X206933Y181785D01*
X207376Y181342D01*
X207955Y181102D01*
X208581D01*
X209160Y181342D01*
X209603Y181785D01*
X209842Y182364D01*
Y182990D01*
X209603Y183569D01*
X209160Y184012D01*
X208581Y184252D01*
D02*
G37*
G36*
X245696Y185000D02*
X244894D01*
X244119Y184792D01*
X243425Y184391D01*
X242857Y183824D01*
X242456Y183129D01*
X242248Y182354D01*
Y181552D01*
X242456Y180777D01*
X242857Y180082D01*
X243425Y179515D01*
X244119Y179114D01*
X244894Y178906D01*
X245696D01*
X246471Y179114D01*
X247166Y179515D01*
X247733Y180082D01*
X248134Y180777D01*
X248342Y181552D01*
Y182354D01*
X248134Y183129D01*
X247733Y183824D01*
X247166Y184391D01*
X246471Y184792D01*
X245696Y185000D01*
D02*
G37*
G36*
X135696D02*
X134894D01*
X134119Y184792D01*
X133424Y184391D01*
X132857Y183824D01*
X132456Y183129D01*
X132248Y182354D01*
Y181552D01*
X132456Y180777D01*
X132857Y180082D01*
X133424Y179515D01*
X134119Y179114D01*
X134894Y178906D01*
X135696D01*
X136471Y179114D01*
X137166Y179515D01*
X137733Y180082D01*
X138135Y180777D01*
X138342Y181552D01*
Y182354D01*
X138135Y183129D01*
X137733Y183824D01*
X137166Y184391D01*
X136471Y184792D01*
X135696Y185000D01*
D02*
G37*
G36*
X174329Y191339D02*
X173703D01*
X173124Y191099D01*
X172681Y190656D01*
X172441Y190077D01*
Y189545D01*
X167629Y184733D01*
X167421Y184422D01*
X167348Y184055D01*
Y178164D01*
X166998Y178094D01*
X166867Y178412D01*
X166424Y178855D01*
X165845Y179095D01*
X165218D01*
X164639Y178855D01*
X164197Y178412D01*
X163957Y177833D01*
Y177206D01*
X164197Y176628D01*
X164639Y176185D01*
X165218Y175945D01*
X165845D01*
X166424Y176185D01*
X166867Y176628D01*
X166998Y176945D01*
X167348Y176876D01*
Y169689D01*
X161723Y164064D01*
X161516Y163753D01*
X161443Y163386D01*
Y147922D01*
X161066Y147546D01*
X160827Y146967D01*
Y146340D01*
X161066Y145762D01*
X161337Y145492D01*
X161138Y145195D01*
X160943Y145276D01*
X160317D01*
X159738Y145036D01*
X159362Y144660D01*
X155909D01*
X150565Y150004D01*
Y153647D01*
X150915Y153717D01*
X150992Y153533D01*
X151435Y153089D01*
X152013Y152850D01*
X152640D01*
X153219Y153089D01*
X153662Y153533D01*
X153901Y154111D01*
Y154738D01*
X153662Y155317D01*
X153219Y155760D01*
X152640Y155999D01*
X152013D01*
X151435Y155760D01*
X150992Y155317D01*
X150915Y155132D01*
X150565Y155202D01*
Y168307D01*
X150492Y168674D01*
X150284Y168985D01*
X148228Y171041D01*
Y171573D01*
X147989Y172152D01*
X147546Y172595D01*
X146967Y172835D01*
X146340D01*
X145762Y172595D01*
X145318Y172152D01*
X145079Y171573D01*
Y170947D01*
X145318Y170368D01*
X145762Y169925D01*
X146340Y169685D01*
X146872D01*
X148647Y167910D01*
Y165182D01*
X148377Y165073D01*
X148297Y165067D01*
X144660Y168704D01*
Y177752D01*
X146435Y179528D01*
X146967D01*
X147546Y179767D01*
X147989Y180210D01*
X148228Y180789D01*
Y181416D01*
X147989Y181994D01*
X147546Y182437D01*
X146967Y182677D01*
X146340D01*
X145762Y182437D01*
X145318Y181994D01*
X145079Y181416D01*
Y180884D01*
X143023Y178828D01*
X142815Y178517D01*
X142742Y178150D01*
Y168307D01*
X142815Y167940D01*
X143023Y167629D01*
X146679Y163973D01*
Y147638D01*
X146752Y147271D01*
X146960Y146960D01*
X158771Y135149D01*
X159082Y134941D01*
X159449Y134868D01*
X168450D01*
X168595Y134518D01*
X165661Y131584D01*
X165453Y131272D01*
X165380Y130905D01*
Y122331D01*
X165004Y121955D01*
X164764Y121376D01*
Y120750D01*
X165004Y120171D01*
X165446Y119728D01*
X166025Y119488D01*
X166652D01*
X167231Y119728D01*
X167674Y120171D01*
X167913Y120750D01*
Y121376D01*
X167674Y121955D01*
X167298Y122331D01*
Y130508D01*
X169885Y133096D01*
X182140D01*
X182507Y133169D01*
X182818Y133377D01*
X183204Y133762D01*
X183250Y133743D01*
X183876D01*
X184455Y133983D01*
X184898Y134426D01*
X185138Y135005D01*
Y135631D01*
X184986Y135997D01*
X185283Y136196D01*
X191025Y130454D01*
Y129796D01*
X190701Y129662D01*
X188583Y131780D01*
X188272Y131988D01*
X187905Y132061D01*
X183377D01*
X183010Y131988D01*
X182699Y131780D01*
X180027Y129109D01*
X170180D01*
X169813Y129036D01*
X169502Y128828D01*
X168613Y127939D01*
X168405Y127628D01*
X168332Y127261D01*
Y116426D01*
X167956Y116050D01*
X167717Y115471D01*
Y114844D01*
X167956Y114265D01*
X168399Y113822D01*
X168978Y113583D01*
X169605D01*
X170183Y113822D01*
X170626Y114265D01*
X170866Y114844D01*
Y115471D01*
X170626Y116050D01*
X170250Y116426D01*
Y120591D01*
X170600Y120720D01*
X171143Y120495D01*
X171770D01*
X172349Y120734D01*
X172792Y121177D01*
X173031Y121756D01*
Y122383D01*
X172792Y122961D01*
X172349Y123404D01*
X171770Y123644D01*
X171143D01*
X170600Y123419D01*
X170250Y123547D01*
Y126864D01*
X170577Y127191D01*
X179624D01*
X179753Y126841D01*
X179528Y126297D01*
Y125671D01*
X179767Y125092D01*
X180210Y124649D01*
X180789Y124409D01*
X181416D01*
X181994Y124649D01*
X182314Y124968D01*
X182664Y124823D01*
Y122888D01*
X182839Y122465D01*
X187394Y117910D01*
Y100394D01*
Y97718D01*
X182857D01*
X182434Y97543D01*
X181728Y96837D01*
X181553Y96414D01*
Y93011D01*
X181598Y92901D01*
X181365Y92551D01*
X181006D01*
X180427Y92311D01*
X179984Y91868D01*
X179744Y91290D01*
Y90663D01*
X179984Y90084D01*
X180427Y89641D01*
X181006Y89402D01*
X181632D01*
X182211Y89641D01*
X182654Y90084D01*
X182894Y90663D01*
Y91290D01*
X182866Y91357D01*
X183100Y91707D01*
X187752D01*
X190749Y88709D01*
Y84940D01*
X189497Y83688D01*
X189091Y84094D01*
X188512Y84333D01*
X187886D01*
X187307Y84094D01*
X186864Y83651D01*
X186624Y83072D01*
Y82445D01*
X186864Y81867D01*
X187307Y81423D01*
X187886Y81184D01*
X188512D01*
X189091Y81423D01*
X189534Y81867D01*
X189774Y82445D01*
Y82463D01*
X190098Y82597D01*
X191771Y84269D01*
X192129Y84269D01*
X193816Y82583D01*
X194199Y82424D01*
X194398Y81944D01*
X194841Y81501D01*
X195420Y81261D01*
X196046D01*
X196625Y81501D01*
X196888Y81764D01*
X197225Y81606D01*
X197214Y81481D01*
X197161Y81159D01*
X197089Y80893D01*
X197003Y80683D01*
X196909Y80529D01*
X196812Y80424D01*
X196711Y80357D01*
X196597Y80317D01*
X196448Y80301D01*
X174790D01*
Y80669D01*
X174671Y81266D01*
X174332Y81773D01*
X169371Y86734D01*
X168865Y87072D01*
X168268Y87191D01*
X152265D01*
X139229Y100227D01*
X139079Y100384D01*
X138923Y100568D01*
X138787Y100749D01*
X138671Y100927D01*
X138576Y101101D01*
X138499Y101271D01*
X138441Y101438D01*
X138401Y101602D01*
X138378Y101762D01*
X138371Y101941D01*
X138342Y102003D01*
Y102354D01*
X138135Y103129D01*
X137733Y103824D01*
X137166Y104391D01*
X136471Y104792D01*
X135696Y105000D01*
X134894D01*
X134119Y104792D01*
X133424Y104391D01*
X132857Y103824D01*
X132456Y103129D01*
X132248Y102354D01*
Y101552D01*
X132456Y100777D01*
X132857Y100082D01*
X133424Y99515D01*
X134119Y99114D01*
X134894Y98906D01*
X135245D01*
X135307Y98878D01*
X135485Y98870D01*
X135646Y98847D01*
X135810Y98807D01*
X135977Y98749D01*
X136147Y98672D01*
X136321Y98577D01*
X136499Y98461D01*
X136680Y98325D01*
X136864Y98168D01*
X137022Y98019D01*
X150514Y84526D01*
X151021Y84188D01*
X151618Y84069D01*
X167621D01*
X171667Y80023D01*
Y79387D01*
X158345Y66065D01*
X158007Y65558D01*
X157888Y64961D01*
Y59401D01*
X157874Y59368D01*
Y58742D01*
X158080Y58245D01*
X157783Y58047D01*
X145459Y70371D01*
Y83350D01*
X145340Y83948D01*
X145001Y84454D01*
X139229Y90227D01*
X139079Y90384D01*
X138923Y90568D01*
X138787Y90749D01*
X138671Y90927D01*
X138576Y91101D01*
X138499Y91271D01*
X138441Y91438D01*
X138401Y91602D01*
X138378Y91763D01*
X138371Y91941D01*
X138342Y92003D01*
Y92354D01*
X138135Y93129D01*
X137733Y93824D01*
X137166Y94391D01*
X136471Y94792D01*
X135696Y95000D01*
X134894D01*
X134119Y94792D01*
X133424Y94391D01*
X132857Y93824D01*
X132456Y93129D01*
X132248Y92354D01*
Y91552D01*
X132456Y90777D01*
X132857Y90082D01*
X133424Y89515D01*
X134119Y89113D01*
X134894Y88906D01*
X135245D01*
X135307Y88877D01*
X135485Y88870D01*
X135646Y88847D01*
X135810Y88807D01*
X135977Y88749D01*
X136147Y88672D01*
X136321Y88577D01*
X136499Y88461D01*
X136680Y88325D01*
X136864Y88169D01*
X137021Y88019D01*
X142336Y82704D01*
Y69725D01*
X142455Y69127D01*
X142794Y68621D01*
X156219Y55195D01*
X156726Y54857D01*
X157323Y54738D01*
X168311D01*
X168909Y54857D01*
X169415Y55195D01*
X169745Y55525D01*
X214961D01*
X215558Y55644D01*
X216065Y55983D01*
X228565Y68483D01*
X228903Y68989D01*
X229022Y69587D01*
Y83126D01*
X229029Y83365D01*
X229053Y83622D01*
X229094Y83865D01*
X229150Y84094D01*
X229221Y84309D01*
X229307Y84512D01*
X229408Y84702D01*
X229524Y84881D01*
X229656Y85050D01*
X229815Y85220D01*
X229839Y85284D01*
X230116Y85561D01*
X230553Y86317D01*
X230779Y87161D01*
Y88035D01*
X230553Y88879D01*
X230116Y89636D01*
X229498Y90254D01*
X228742Y90691D01*
X227898Y90917D01*
X227024D01*
X226180Y90691D01*
X225423Y90254D01*
X224805Y89636D01*
X224368Y88879D01*
X224142Y88035D01*
Y87161D01*
X224368Y86317D01*
X224805Y85561D01*
X225082Y85284D01*
X225106Y85220D01*
X225265Y85050D01*
X225397Y84881D01*
X225513Y84702D01*
X225614Y84512D01*
X225700Y84309D01*
X225771Y84094D01*
X225827Y83865D01*
X225868Y83622D01*
X225892Y83365D01*
X225900Y83126D01*
Y70233D01*
X214314Y58648D01*
X169098D01*
X168501Y58529D01*
X167995Y58191D01*
X167665Y57860D01*
X160938D01*
X160803Y58210D01*
X161024Y58742D01*
Y59368D01*
X161010Y59401D01*
Y64314D01*
X173875Y77179D01*
X196448D01*
X196597Y77163D01*
X196711Y77123D01*
X196812Y77056D01*
X196909Y76951D01*
X197003Y76797D01*
X197089Y76587D01*
X197161Y76321D01*
X197214Y75999D01*
X197248Y75624D01*
X197258Y75236D01*
Y65607D01*
X195023Y63372D01*
X194834D01*
X194801Y63386D01*
X194175D01*
X194142Y63372D01*
X187748D01*
X187715Y63386D01*
X187088D01*
X186510Y63146D01*
X186066Y62703D01*
X185827Y62124D01*
Y61498D01*
X186066Y60919D01*
X186510Y60476D01*
X187088Y60236D01*
X187715D01*
X187748Y60250D01*
X194142D01*
X194175Y60236D01*
X194801D01*
X194834Y60250D01*
X195669D01*
X196267Y60369D01*
X196773Y60707D01*
X199923Y63857D01*
X200261Y64363D01*
X200342Y64770D01*
X200692Y64736D01*
Y64450D01*
X201037Y63618D01*
X201674Y62981D01*
X202506Y62636D01*
X203406D01*
X204238Y62981D01*
X204875Y63618D01*
X205220Y64450D01*
Y65350D01*
X204875Y66182D01*
X204238Y66819D01*
X203406Y67164D01*
X202506D01*
X201674Y66819D01*
X201037Y66182D01*
X200730Y65442D01*
X200380Y65511D01*
Y73473D01*
X200730Y73618D01*
X200880Y73468D01*
X201458Y73228D01*
X202085D01*
X202664Y73468D01*
X203107Y73911D01*
X203346Y74490D01*
Y75116D01*
X203107Y75695D01*
X202664Y76138D01*
X202085Y76378D01*
X201458D01*
X200880Y76138D01*
X200730Y75989D01*
X200380Y76134D01*
Y80157D01*
X200390Y80545D01*
X200423Y80921D01*
X200477Y81242D01*
X200549Y81508D01*
X200634Y81718D01*
X200729Y81872D01*
X200826Y81977D01*
X200927Y82044D01*
X201041Y82085D01*
X201190Y82100D01*
X206347D01*
X206380Y82087D01*
X207006D01*
X207585Y82326D01*
X207750Y82491D01*
X207783Y82509D01*
X207873Y82548D01*
X207977Y82584D01*
X208095Y82616D01*
X208227Y82642D01*
X208370Y82663D01*
X208713Y82689D01*
X208903Y82692D01*
X208927Y82702D01*
X216535D01*
X216902Y82775D01*
X217214Y82983D01*
X225791Y91561D01*
X230315D01*
X230682Y91634D01*
X230993Y91842D01*
X235914Y96763D01*
X236122Y97074D01*
X236195Y97441D01*
Y141732D01*
X236122Y142099D01*
X235914Y142410D01*
X234296Y144029D01*
Y144561D01*
X234056Y145140D01*
X233613Y145583D01*
X233034Y145823D01*
X232408D01*
X231829Y145583D01*
X231386Y145140D01*
X231146Y144561D01*
Y143934D01*
X231386Y143356D01*
X231829Y142913D01*
X232408Y142673D01*
X232939D01*
X234277Y141335D01*
Y97838D01*
X229918Y93479D01*
X225394D01*
X225027Y93406D01*
X224716Y93198D01*
X216138Y84620D01*
X208927D01*
X208903Y84631D01*
X208713Y84634D01*
X208370Y84660D01*
X208227Y84681D01*
X208095Y84707D01*
X207977Y84739D01*
X207873Y84775D01*
X207783Y84814D01*
X207750Y84832D01*
X207585Y84996D01*
X207006Y85236D01*
X206380D01*
X206347Y85223D01*
X201190D01*
X201041Y85238D01*
X200927Y85278D01*
X200826Y85346D01*
X200729Y85450D01*
X200634Y85605D01*
X200549Y85814D01*
X200477Y86081D01*
X200423Y86402D01*
X200390Y86778D01*
X200380Y87166D01*
Y87598D01*
X200261Y88196D01*
X199923Y88702D01*
X197949Y90677D01*
X197442Y91015D01*
X196845Y91134D01*
X195534D01*
X193490Y93178D01*
Y98079D01*
X193504Y98112D01*
Y98738D01*
X193264Y99317D01*
X192821Y99760D01*
X192242Y100000D01*
X191616D01*
X191037Y99760D01*
X190594Y99317D01*
X190354Y98738D01*
Y98112D01*
X190368Y98079D01*
Y92981D01*
X190018Y92836D01*
X188922Y93933D01*
X188922Y93933D01*
X188499Y94108D01*
X183954D01*
Y95317D01*
X188254D01*
X188677Y95492D01*
X189620Y96435D01*
X189795Y96858D01*
Y100394D01*
Y111438D01*
X190145Y111583D01*
X190314Y111414D01*
X190893Y111174D01*
X191519D01*
X192098Y111414D01*
X192223Y111539D01*
X204134Y99628D01*
Y99096D01*
X204374Y98517D01*
X204817Y98074D01*
X205395Y97835D01*
X206022D01*
X206601Y98074D01*
X207044Y98517D01*
X207283Y99096D01*
Y99723D01*
X207044Y100302D01*
X206601Y100744D01*
X206022Y100984D01*
X205490D01*
X195017Y111457D01*
X195215Y111754D01*
X195553Y111614D01*
X196179D01*
X196758Y111854D01*
X197201Y112297D01*
X197441Y112876D01*
Y113408D01*
X205402Y121369D01*
X205610Y121680D01*
X205683Y122047D01*
Y137215D01*
X208258Y139789D01*
X212315D01*
X212691Y139413D01*
X213269Y139173D01*
X213896D01*
X214475Y139413D01*
X214918Y139856D01*
X215158Y140435D01*
Y141061D01*
X214918Y141640D01*
X214475Y142083D01*
X213896Y142323D01*
X213269D01*
X212691Y142083D01*
X212315Y141707D01*
X207860D01*
X207493Y141634D01*
X207182Y141426D01*
X204046Y138290D01*
X203838Y137979D01*
X203765Y137612D01*
Y122444D01*
X196085Y114764D01*
X195553D01*
X194974Y114524D01*
X194531Y114081D01*
X194291Y113502D01*
Y112876D01*
X194431Y112538D01*
X194134Y112340D01*
X193160Y113314D01*
X192849Y113522D01*
X192567Y113578D01*
X192541Y113641D01*
X192098Y114084D01*
X191519Y114324D01*
X190893D01*
X190314Y114084D01*
X190145Y113915D01*
X189795Y114060D01*
Y118657D01*
X189620Y119080D01*
X185565Y123135D01*
X185647Y123547D01*
X185931Y123665D01*
X186306Y124040D01*
X186516Y124081D01*
X186725Y124040D01*
X187100Y123665D01*
X187679Y123425D01*
X188305D01*
X188884Y123665D01*
X189222Y124003D01*
X189561Y123665D01*
X190139Y123425D01*
X190766D01*
X191345Y123665D01*
X191788Y124108D01*
X192028Y124687D01*
Y125313D01*
X191788Y125892D01*
X191412Y126268D01*
Y127641D01*
X191735Y127775D01*
X194291Y125219D01*
Y124687D01*
X194531Y124108D01*
X194974Y123665D01*
X195553Y123425D01*
X196179D01*
X196758Y123665D01*
X197201Y124108D01*
X197441Y124687D01*
Y125313D01*
X197201Y125892D01*
X196758Y126335D01*
X196179Y126575D01*
X195648D01*
X192943Y129279D01*
Y130851D01*
X192870Y131218D01*
X192662Y131529D01*
X185175Y139016D01*
X185373Y139313D01*
X185710Y139173D01*
X186337D01*
X186916Y139413D01*
X187359Y139856D01*
X187598Y140435D01*
Y141061D01*
X187359Y141640D01*
X186916Y142083D01*
X186337Y142323D01*
X185710D01*
X185167Y142098D01*
X184817Y142226D01*
Y142520D01*
X184744Y142887D01*
X184536Y143198D01*
X182962Y144773D01*
X182650Y144981D01*
X182283Y145054D01*
X182200D01*
X182079Y145404D01*
X182437Y145762D01*
X182677Y146340D01*
Y146967D01*
X182437Y147546D01*
X181994Y147989D01*
X181416Y148228D01*
X180789D01*
X180210Y147989D01*
X179767Y147546D01*
X179528Y146967D01*
Y146340D01*
X179767Y145762D01*
X180125Y145404D01*
X180005Y145054D01*
X165354D01*
X164987Y144981D01*
X164676Y144773D01*
X164392Y144488D01*
X163860D01*
X163281Y144248D01*
X162838Y143805D01*
X162598Y143227D01*
Y142600D01*
X162838Y142021D01*
X163281Y141578D01*
X163860Y141339D01*
X164487D01*
X165065Y141578D01*
X165508Y142021D01*
X165748Y142600D01*
Y143132D01*
X165752Y143135D01*
X181886D01*
X182899Y142122D01*
Y138976D01*
X182972Y138609D01*
X183180Y138298D01*
X184440Y137038D01*
X184242Y136741D01*
X183876Y136893D01*
X183250D01*
X182968Y136776D01*
X182677Y136971D01*
Y137124D01*
X182437Y137703D01*
X181994Y138146D01*
X181416Y138386D01*
X180789D01*
X180210Y138146D01*
X179767Y137703D01*
X179528Y137124D01*
Y136786D01*
X159846D01*
X148597Y148035D01*
Y148794D01*
X148867Y148904D01*
X148947Y148910D01*
X154834Y143023D01*
X155145Y142815D01*
X155512Y142742D01*
X159362D01*
X159738Y142366D01*
X160317Y142126D01*
X160943D01*
X161522Y142366D01*
X161965Y142809D01*
X162205Y143387D01*
Y144014D01*
X161965Y144593D01*
X161695Y144863D01*
X161893Y145159D01*
X162088Y145079D01*
X162715D01*
X163294Y145318D01*
X163737Y145762D01*
X163976Y146340D01*
Y146967D01*
X163737Y147546D01*
X163361Y147922D01*
Y162989D01*
X168985Y168613D01*
X169193Y168924D01*
X169266Y169291D01*
Y183658D01*
X173797Y188189D01*
X174329D01*
X174908Y188429D01*
X175351Y188872D01*
X175591Y189451D01*
Y190077D01*
X175351Y190656D01*
X174908Y191099D01*
X174329Y191339D01*
D02*
G37*
G36*
X207786Y176448D02*
X207160D01*
X206581Y176208D01*
X206138Y175765D01*
X205898Y175187D01*
Y174560D01*
X206138Y173981D01*
X206581Y173538D01*
X207160Y173298D01*
X207786D01*
X208365Y173538D01*
X208808Y173981D01*
X209048Y174560D01*
Y175187D01*
X208808Y175765D01*
X208365Y176208D01*
X207786Y176448D01*
D02*
G37*
G36*
X245696Y175000D02*
X244894D01*
X244119Y174792D01*
X243425Y174391D01*
X242857Y173824D01*
X242456Y173129D01*
X242248Y172354D01*
Y171552D01*
X242456Y170777D01*
X242857Y170082D01*
X243425Y169515D01*
X244119Y169114D01*
X244894Y168906D01*
X245696D01*
X246471Y169114D01*
X247166Y169515D01*
X247733Y170082D01*
X248134Y170777D01*
X248342Y171552D01*
Y172354D01*
X248134Y173129D01*
X247733Y173824D01*
X247166Y174391D01*
X246471Y174792D01*
X245696Y175000D01*
D02*
G37*
G36*
X135696D02*
X134894D01*
X134119Y174792D01*
X133424Y174391D01*
X132857Y173824D01*
X132456Y173129D01*
X132248Y172354D01*
Y171552D01*
X132456Y170777D01*
X132857Y170082D01*
X133424Y169515D01*
X134119Y169114D01*
X134894Y168906D01*
X135696D01*
X136471Y169114D01*
X137166Y169515D01*
X137733Y170082D01*
X138135Y170777D01*
X138342Y171552D01*
Y172354D01*
X138135Y173129D01*
X137733Y173824D01*
X137166Y174391D01*
X136471Y174792D01*
X135696Y175000D01*
D02*
G37*
G36*
X234565Y171850D02*
X233939D01*
X233360Y171611D01*
X232917Y171168D01*
X232677Y170589D01*
Y169962D01*
X232917Y169384D01*
X233360Y168940D01*
X233939Y168701D01*
X234565D01*
X235144Y168940D01*
X235587Y169384D01*
X235827Y169962D01*
Y170589D01*
X235587Y171168D01*
X235144Y171611D01*
X234565Y171850D01*
D02*
G37*
G36*
X182990Y162992D02*
X182364D01*
X181785Y162752D01*
X181342Y162309D01*
X181102Y161731D01*
Y161104D01*
X181342Y160525D01*
X181785Y160082D01*
X182364Y159843D01*
X182990D01*
X183569Y160082D01*
X184012Y160525D01*
X184252Y161104D01*
Y161731D01*
X184012Y162309D01*
X183569Y162752D01*
X182990Y162992D01*
D02*
G37*
G36*
X207105Y162894D02*
X206478D01*
X205899Y162654D01*
X205456Y162211D01*
X205217Y161632D01*
Y161006D01*
X205456Y160427D01*
X205899Y159984D01*
X206478Y159744D01*
X207105D01*
X207683Y159984D01*
X208126Y160427D01*
X208366Y161006D01*
Y161632D01*
X208126Y162211D01*
X207683Y162654D01*
X207105Y162894D01*
D02*
G37*
G36*
X245696Y165000D02*
X244894D01*
X244119Y164792D01*
X243425Y164391D01*
X242857Y163824D01*
X242456Y163129D01*
X242248Y162354D01*
Y161552D01*
X242456Y160777D01*
X242857Y160082D01*
X243425Y159515D01*
X244119Y159114D01*
X244894Y158906D01*
X245696D01*
X246471Y159114D01*
X247166Y159515D01*
X247733Y160082D01*
X248134Y160777D01*
X248342Y161552D01*
Y162354D01*
X248134Y163129D01*
X247733Y163824D01*
X247166Y164391D01*
X246471Y164792D01*
X245696Y165000D01*
D02*
G37*
G36*
X135696D02*
X134894D01*
X134119Y164792D01*
X133424Y164391D01*
X132857Y163824D01*
X132456Y163129D01*
X132248Y162354D01*
Y161552D01*
X132456Y160777D01*
X132857Y160082D01*
X133424Y159515D01*
X134119Y159114D01*
X134894Y158906D01*
X135696D01*
X136471Y159114D01*
X137166Y159515D01*
X137733Y160082D01*
X138135Y160777D01*
X138342Y161552D01*
Y162354D01*
X138135Y163129D01*
X137733Y163824D01*
X137166Y164391D01*
X136471Y164792D01*
X135696Y165000D01*
D02*
G37*
G36*
X193620Y179134D02*
X192994D01*
X192415Y178894D01*
X191972Y178451D01*
X191732Y177872D01*
Y177246D01*
X191972Y176667D01*
X192415Y176224D01*
X192994Y175984D01*
X193526D01*
X200813Y168697D01*
Y158748D01*
X200437Y158372D01*
X200399Y158282D01*
X200020D01*
X199946Y158460D01*
X199503Y158903D01*
X198925Y159143D01*
X198298D01*
X197719Y158903D01*
X197276Y158460D01*
X197036Y157881D01*
Y157255D01*
X197276Y156676D01*
X197719Y156233D01*
X198298Y155993D01*
X198925D01*
X199503Y156233D01*
X199946Y156676D01*
X199984Y156767D01*
X200363D01*
X200437Y156588D01*
X200880Y156145D01*
X201458Y155905D01*
X202085D01*
X202664Y156145D01*
X203107Y156588D01*
X203346Y157167D01*
Y157794D01*
X203107Y158372D01*
X202731Y158748D01*
Y169095D01*
X202658Y169462D01*
X202450Y169773D01*
X194882Y177340D01*
Y177872D01*
X194642Y178451D01*
X194199Y178894D01*
X193620Y179134D01*
D02*
G37*
G36*
X175510Y153150D02*
X174884D01*
X174305Y152910D01*
X173862Y152467D01*
X173622Y151888D01*
Y151262D01*
X173862Y150683D01*
X174305Y150240D01*
X174884Y150000D01*
X175510D01*
X176089Y150240D01*
X176532Y150683D01*
X176772Y151262D01*
Y151888D01*
X176532Y152467D01*
X176089Y152910D01*
X175510Y153150D01*
D02*
G37*
G36*
X169605D02*
X168978D01*
X168399Y152910D01*
X167956Y152467D01*
X167717Y151888D01*
Y151262D01*
X167956Y150683D01*
X168399Y150240D01*
X168978Y150000D01*
X169605D01*
X170183Y150240D01*
X170626Y150683D01*
X170866Y151262D01*
Y151888D01*
X170626Y152467D01*
X170183Y152910D01*
X169605Y153150D01*
D02*
G37*
G36*
X176297Y183465D02*
X175671D01*
X175092Y183225D01*
X174649Y182782D01*
X174409Y182203D01*
Y181577D01*
X174649Y180998D01*
X175025Y180622D01*
Y179444D01*
X172511Y176929D01*
X172303Y176618D01*
X172230Y176251D01*
Y167985D01*
X164676Y160431D01*
X164468Y160120D01*
X164395Y159753D01*
Y152843D01*
X164019Y152467D01*
X163779Y151888D01*
Y151262D01*
X164019Y150683D01*
X164462Y150240D01*
X165041Y150000D01*
X165668D01*
X166246Y150240D01*
X166689Y150683D01*
X166929Y151262D01*
Y151888D01*
X166689Y152467D01*
X166313Y152843D01*
Y159355D01*
X173867Y166909D01*
X174075Y167220D01*
X174148Y167587D01*
Y175854D01*
X176662Y178368D01*
X176870Y178680D01*
X176943Y179046D01*
Y180622D01*
X177319Y180998D01*
X177559Y181577D01*
Y182203D01*
X177319Y182782D01*
X176876Y183225D01*
X176297Y183465D01*
D02*
G37*
G36*
X245696Y155000D02*
X244894D01*
X244119Y154792D01*
X243425Y154391D01*
X242857Y153824D01*
X242456Y153129D01*
X242248Y152354D01*
Y151552D01*
X242456Y150777D01*
X242857Y150082D01*
X243425Y149515D01*
X244119Y149114D01*
X244894Y148906D01*
X245696D01*
X246471Y149114D01*
X247166Y149515D01*
X247733Y150082D01*
X248134Y150777D01*
X248342Y151552D01*
Y152354D01*
X248134Y153129D01*
X247733Y153824D01*
X247166Y154391D01*
X246471Y154792D01*
X245696Y155000D01*
D02*
G37*
G36*
X135696D02*
X134894D01*
X134119Y154792D01*
X133424Y154391D01*
X132857Y153824D01*
X132456Y153129D01*
X132248Y152354D01*
Y151552D01*
X132456Y150777D01*
X132857Y150082D01*
X133424Y149515D01*
X134119Y149114D01*
X134894Y148906D01*
X135696D01*
X136471Y149114D01*
X137166Y149515D01*
X137733Y150082D01*
X138135Y150777D01*
X138342Y151552D01*
Y152354D01*
X138135Y153129D01*
X137733Y153824D01*
X137166Y154391D01*
X136471Y154792D01*
X135696Y155000D01*
D02*
G37*
G36*
X216061Y151575D02*
X215435D01*
X214856Y151335D01*
X214413Y150892D01*
X214173Y150313D01*
Y149687D01*
X214413Y149108D01*
X214856Y148665D01*
X215435Y148425D01*
X216061D01*
X216640Y148665D01*
X217083Y149108D01*
X217323Y149687D01*
Y150313D01*
X217083Y150892D01*
X216640Y151335D01*
X216061Y151575D01*
D02*
G37*
G36*
X202085Y148228D02*
X201458D01*
X200880Y147989D01*
X200437Y147546D01*
X200197Y146967D01*
Y146340D01*
X200437Y145762D01*
X200880Y145318D01*
X201458Y145079D01*
X202085D01*
X202664Y145318D01*
X203107Y145762D01*
X203346Y146340D01*
Y146967D01*
X203107Y147546D01*
X202664Y147989D01*
X202085Y148228D01*
D02*
G37*
G36*
X217833Y144291D02*
X217206D01*
X216628Y144052D01*
X216185Y143609D01*
X215945Y143030D01*
Y142403D01*
X216185Y141824D01*
X216628Y141382D01*
X217206Y141142D01*
X217833D01*
X218412Y141382D01*
X218855Y141824D01*
X219094Y142403D01*
Y143030D01*
X218855Y143609D01*
X218412Y144052D01*
X217833Y144291D01*
D02*
G37*
G36*
X196158Y143307D02*
X195532D01*
X194953Y143067D01*
X194510Y142624D01*
X194270Y142045D01*
Y141419D01*
X194510Y140840D01*
X194953Y140397D01*
X195532Y140157D01*
X196158D01*
X196737Y140397D01*
X197180Y140840D01*
X197420Y141419D01*
Y142045D01*
X197180Y142624D01*
X196737Y143067D01*
X196158Y143307D01*
D02*
G37*
G36*
X245696Y145000D02*
X244894D01*
X244119Y144792D01*
X243425Y144391D01*
X242857Y143824D01*
X242456Y143129D01*
X242248Y142354D01*
Y141552D01*
X242456Y140777D01*
X242857Y140082D01*
X243425Y139515D01*
X244119Y139114D01*
X244894Y138906D01*
X245696D01*
X246471Y139114D01*
X247166Y139515D01*
X247733Y140082D01*
X248134Y140777D01*
X248342Y141552D01*
Y142354D01*
X248134Y143129D01*
X247733Y143824D01*
X247166Y144391D01*
X246471Y144792D01*
X245696Y145000D01*
D02*
G37*
G36*
X201925Y138386D02*
X201299D01*
X200720Y138146D01*
X200277Y137703D01*
X200037Y137124D01*
Y136498D01*
X200277Y135919D01*
X200720Y135476D01*
X201299Y135236D01*
X201925D01*
X202504Y135476D01*
X202947Y135919D01*
X203187Y136498D01*
Y137124D01*
X202947Y137703D01*
X202504Y138146D01*
X201925Y138386D01*
D02*
G37*
G36*
X218231Y139961D02*
X217604D01*
X217026Y139721D01*
X216583Y139278D01*
X216343Y138699D01*
Y138073D01*
X216583Y137494D01*
X217026Y137051D01*
X217038Y137046D01*
X217106Y136702D01*
X216958Y136554D01*
X216719Y135976D01*
Y135349D01*
X216958Y134770D01*
X217183Y134546D01*
X217379Y134303D01*
X217183Y134089D01*
X216944Y133850D01*
X216704Y133271D01*
Y132645D01*
X216944Y132066D01*
X217387Y131623D01*
X217966Y131383D01*
X218592D01*
X219171Y131623D01*
X219614Y132066D01*
X219854Y132645D01*
Y133271D01*
X219614Y133850D01*
X219390Y134074D01*
X219194Y134317D01*
X219390Y134532D01*
X219629Y134770D01*
X219868Y135349D01*
Y135976D01*
X219629Y136554D01*
X219185Y136997D01*
X219173Y137003D01*
X219105Y137346D01*
X219253Y137494D01*
X219493Y138073D01*
Y138699D01*
X219253Y139278D01*
X218810Y139721D01*
X218231Y139961D01*
D02*
G37*
G36*
X245696Y135000D02*
X244894D01*
X244119Y134792D01*
X243425Y134391D01*
X242857Y133824D01*
X242456Y133129D01*
X242248Y132354D01*
Y131552D01*
X242456Y130777D01*
X242857Y130082D01*
X243425Y129515D01*
X244119Y129114D01*
X244894Y128906D01*
X245696D01*
X246471Y129114D01*
X247166Y129515D01*
X247733Y130082D01*
X248134Y130777D01*
X248342Y131552D01*
Y132354D01*
X248134Y133129D01*
X247733Y133824D01*
X247166Y134391D01*
X246471Y134792D01*
X245696Y135000D01*
D02*
G37*
G36*
X135696D02*
X134894D01*
X134119Y134792D01*
X133424Y134391D01*
X132857Y133824D01*
X132456Y133129D01*
X132248Y132354D01*
Y131552D01*
X132456Y130777D01*
X132857Y130082D01*
X133424Y129515D01*
X134119Y129114D01*
X134894Y128906D01*
X135696D01*
X136471Y129114D01*
X137166Y129515D01*
X137733Y130082D01*
X138135Y130777D01*
X138342Y131552D01*
Y132354D01*
X138135Y133129D01*
X137733Y133824D01*
X137166Y134391D01*
X136471Y134792D01*
X135696Y135000D01*
D02*
G37*
G36*
X216455Y131496D02*
X215828D01*
X215250Y131256D01*
X214807Y130813D01*
X214567Y130235D01*
Y129608D01*
X214807Y129029D01*
X215250Y128586D01*
X215828Y128347D01*
X216455D01*
X217034Y128586D01*
X217477Y129029D01*
X217717Y129608D01*
Y130235D01*
X217477Y130813D01*
X217034Y131256D01*
X216455Y131496D01*
D02*
G37*
G36*
X202085Y127559D02*
X201458D01*
X200880Y127319D01*
X200437Y126876D01*
X200197Y126297D01*
Y125671D01*
X200437Y125092D01*
X200880Y124649D01*
X201458Y124409D01*
X202085D01*
X202664Y124649D01*
X203107Y125092D01*
X203346Y125671D01*
Y126297D01*
X203107Y126876D01*
X202664Y127319D01*
X202085Y127559D01*
D02*
G37*
G36*
X216061Y127559D02*
X215435D01*
X214856Y127319D01*
X214413Y126876D01*
X214173Y126297D01*
Y125671D01*
X214413Y125092D01*
X214856Y124649D01*
X215435Y124409D01*
X216061D01*
X216640Y124649D01*
X217083Y125092D01*
X217323Y125671D01*
Y126297D01*
X217083Y126876D01*
X216640Y127319D01*
X216061Y127559D01*
D02*
G37*
G36*
X227898Y130287D02*
X227024D01*
X226180Y130061D01*
X225423Y129624D01*
X224805Y129006D01*
X224368Y128249D01*
X224142Y127405D01*
Y126532D01*
X224368Y125688D01*
X224805Y124931D01*
X225423Y124313D01*
X226180Y123876D01*
X227024Y123650D01*
X227898D01*
X228742Y123876D01*
X229498Y124313D01*
X230116Y124931D01*
X230553Y125688D01*
X230779Y126532D01*
Y127405D01*
X230553Y128249D01*
X230116Y129006D01*
X229498Y129624D01*
X228742Y130061D01*
X227898Y130287D01*
D02*
G37*
G36*
X245696Y125000D02*
X244894D01*
X244119Y124792D01*
X243425Y124391D01*
X242857Y123824D01*
X242456Y123129D01*
X242248Y122354D01*
Y121552D01*
X242456Y120777D01*
X242857Y120082D01*
X243425Y119515D01*
X244119Y119114D01*
X244894Y118906D01*
X245696D01*
X246471Y119114D01*
X247166Y119515D01*
X247733Y120082D01*
X248134Y120777D01*
X248342Y121552D01*
Y122354D01*
X248134Y123129D01*
X247733Y123824D01*
X247166Y124391D01*
X246471Y124792D01*
X245696Y125000D01*
D02*
G37*
G36*
X135696D02*
X134894D01*
X134119Y124792D01*
X133424Y124391D01*
X132857Y123824D01*
X132456Y123129D01*
X132248Y122354D01*
Y121552D01*
X132456Y120777D01*
X132857Y120082D01*
X133424Y119515D01*
X134119Y119114D01*
X134894Y118906D01*
X135696D01*
X136471Y119114D01*
X137166Y119515D01*
X137733Y120082D01*
X138135Y120777D01*
X138342Y121552D01*
Y122354D01*
X138135Y123129D01*
X137733Y123824D01*
X137166Y124391D01*
X136471Y124792D01*
X135696Y125000D01*
D02*
G37*
G36*
X207990Y120669D02*
X207364D01*
X206785Y120430D01*
X206342Y119986D01*
X206102Y119408D01*
Y118781D01*
X206342Y118202D01*
X206785Y117759D01*
X207364Y117520D01*
X207990D01*
X208569Y117759D01*
X209012Y118202D01*
X209252Y118781D01*
Y119408D01*
X209012Y119986D01*
X208569Y120430D01*
X207990Y120669D01*
D02*
G37*
G36*
X227898Y120445D02*
X227024D01*
X226180Y120218D01*
X225423Y119781D01*
X224805Y119164D01*
X224368Y118407D01*
X224142Y117563D01*
Y116689D01*
X224368Y115845D01*
X224805Y115088D01*
X225423Y114471D01*
X226180Y114034D01*
X227024Y113807D01*
X227898D01*
X228742Y114034D01*
X229498Y114471D01*
X230116Y115088D01*
X230553Y115845D01*
X230779Y116689D01*
Y117563D01*
X230553Y118407D01*
X230116Y119164D01*
X229498Y119781D01*
X228742Y120218D01*
X227898Y120445D01*
D02*
G37*
G36*
X135696Y145000D02*
X134894D01*
X134119Y144792D01*
X133424Y144391D01*
X132857Y143824D01*
X132456Y143129D01*
X132248Y142354D01*
Y141552D01*
X132456Y140777D01*
X132857Y140082D01*
X133424Y139515D01*
X134119Y139114D01*
X134894Y138906D01*
X135251D01*
X135318Y138877D01*
X135662Y138873D01*
X135974Y138855D01*
X136262Y138823D01*
X136527Y138777D01*
X136767Y138719D01*
X136982Y138648D01*
X137174Y138567D01*
X137342Y138475D01*
X137488Y138373D01*
X137631Y138247D01*
X137652Y138239D01*
X144710Y131182D01*
Y127843D01*
X144783Y127476D01*
X144991Y127165D01*
X161811Y110345D01*
X162122Y110138D01*
X162489Y110065D01*
X172602D01*
X172969Y110138D01*
X173280Y110345D01*
X174180Y111246D01*
X175897D01*
X176273Y110870D01*
X176852Y110630D01*
X177479D01*
X178057Y110870D01*
X178500Y111313D01*
X178740Y111891D01*
Y112518D01*
X178500Y113097D01*
X178057Y113540D01*
X177479Y113779D01*
X176852D01*
X176273Y113540D01*
X175897Y113164D01*
X173783D01*
X173416Y113091D01*
X173105Y112883D01*
X172204Y111983D01*
X162886D01*
X146628Y128241D01*
Y131579D01*
X146555Y131946D01*
X146347Y132257D01*
X139009Y139596D01*
X139001Y139617D01*
X138875Y139760D01*
X138773Y139906D01*
X138681Y140074D01*
X138600Y140266D01*
X138529Y140481D01*
X138470Y140721D01*
X138426Y140981D01*
X138375Y141591D01*
X138371Y141930D01*
X138342Y141997D01*
Y142354D01*
X138135Y143129D01*
X137733Y143824D01*
X137166Y144391D01*
X136471Y144792D01*
X135696Y145000D01*
D02*
G37*
G36*
X245696Y115000D02*
X244894D01*
X244119Y114792D01*
X243425Y114391D01*
X242857Y113824D01*
X242456Y113129D01*
X242248Y112354D01*
Y111552D01*
X242456Y110777D01*
X242857Y110082D01*
X243425Y109515D01*
X244119Y109114D01*
X244894Y108906D01*
X245696D01*
X246471Y109114D01*
X247166Y109515D01*
X247733Y110082D01*
X248134Y110777D01*
X248342Y111552D01*
Y112354D01*
X248134Y113129D01*
X247733Y113824D01*
X247166Y114391D01*
X246471Y114792D01*
X245696Y115000D01*
D02*
G37*
G36*
X135696D02*
X134894D01*
X134119Y114792D01*
X133424Y114391D01*
X132857Y113824D01*
X132456Y113129D01*
X132248Y112354D01*
Y111552D01*
X132456Y110777D01*
X132857Y110082D01*
X133424Y109515D01*
X134119Y109114D01*
X134894Y108906D01*
X135696D01*
X136471Y109114D01*
X137166Y109515D01*
X137733Y110082D01*
X138135Y110777D01*
X138342Y111552D01*
Y112354D01*
X138135Y113129D01*
X137733Y113824D01*
X137166Y114391D01*
X136471Y114792D01*
X135696Y115000D01*
D02*
G37*
G36*
X207990Y111811D02*
X207364D01*
X206785Y111571D01*
X206342Y111128D01*
X206102Y110549D01*
Y109923D01*
X206342Y109344D01*
X206785Y108901D01*
X207364Y108661D01*
X207990D01*
X208569Y108901D01*
X209012Y109344D01*
X209252Y109923D01*
Y110549D01*
X209012Y111128D01*
X208569Y111571D01*
X207990Y111811D01*
D02*
G37*
G36*
X227898Y110602D02*
X227024D01*
X226180Y110376D01*
X225423Y109939D01*
X224805Y109321D01*
X224368Y108564D01*
X224142Y107720D01*
Y106847D01*
X224368Y106003D01*
X224805Y105246D01*
X225423Y104628D01*
X226180Y104191D01*
X227024Y103965D01*
X227898D01*
X228742Y104191D01*
X229498Y104628D01*
X230116Y105246D01*
X230553Y106003D01*
X230779Y106847D01*
Y107720D01*
X230553Y108564D01*
X230116Y109321D01*
X229498Y109939D01*
X228742Y110376D01*
X227898Y110602D01*
D02*
G37*
G36*
X207990Y105905D02*
X207364D01*
X206785Y105666D01*
X206342Y105223D01*
X206102Y104644D01*
Y104017D01*
X206342Y103439D01*
X206785Y102996D01*
X207364Y102756D01*
X207990D01*
X208569Y102996D01*
X209012Y103439D01*
X209252Y104017D01*
Y104644D01*
X209012Y105223D01*
X208569Y105666D01*
X207990Y105905D01*
D02*
G37*
G36*
X175313D02*
X174687D01*
X174108Y105666D01*
X173665Y105223D01*
X173425Y104644D01*
Y104017D01*
X173665Y103439D01*
X174108Y102996D01*
X174687Y102756D01*
X175313D01*
X175892Y102996D01*
X176335Y103439D01*
X176575Y104017D01*
Y104644D01*
X176335Y105223D01*
X175892Y105666D01*
X175313Y105905D01*
D02*
G37*
G36*
X160845Y107776D02*
X160218D01*
X159639Y107536D01*
X159196Y107093D01*
X158957Y106514D01*
Y105887D01*
X159196Y105309D01*
X159639Y104866D01*
X160151Y104654D01*
Y104303D01*
X159639Y104091D01*
X159196Y103648D01*
X158957Y103069D01*
Y102443D01*
X159196Y101864D01*
X159639Y101421D01*
X160218Y101181D01*
X160845D01*
X161424Y101421D01*
X161866Y101864D01*
X162106Y102443D01*
Y103069D01*
X161866Y103648D01*
X161424Y104091D01*
X160913Y104303D01*
Y104654D01*
X161424Y104866D01*
X161866Y105309D01*
X162106Y105887D01*
Y106514D01*
X161866Y107093D01*
X161424Y107536D01*
X160845Y107776D01*
D02*
G37*
G36*
X245696Y105000D02*
X244894D01*
X244119Y104792D01*
X243425Y104391D01*
X242857Y103824D01*
X242456Y103129D01*
X242248Y102354D01*
Y101552D01*
X242456Y100777D01*
X242857Y100082D01*
X243425Y99515D01*
X244119Y99114D01*
X244894Y98906D01*
X245696D01*
X246471Y99114D01*
X247166Y99515D01*
X247733Y100082D01*
X248134Y100777D01*
X248342Y101552D01*
Y102354D01*
X248134Y103129D01*
X247733Y103824D01*
X247166Y104391D01*
X246471Y104792D01*
X245696Y105000D01*
D02*
G37*
G36*
X227898Y100759D02*
X227636D01*
Y97616D01*
X230779D01*
Y97878D01*
X230553Y98722D01*
X230116Y99479D01*
X229498Y100096D01*
X228742Y100533D01*
X227898Y100759D01*
D02*
G37*
G36*
X227286D02*
X227024D01*
X226180Y100533D01*
X225423Y100096D01*
X224805Y99479D01*
X224368Y98722D01*
X224142Y97878D01*
Y97616D01*
X227286D01*
Y100759D01*
D02*
G37*
G36*
X230779Y97266D02*
X227636D01*
Y94122D01*
X227898D01*
X228742Y94349D01*
X229498Y94785D01*
X230116Y95403D01*
X230553Y96160D01*
X230779Y97004D01*
Y97266D01*
D02*
G37*
G36*
X227286D02*
X224142D01*
Y97004D01*
X224368Y96160D01*
X224805Y95403D01*
X225423Y94785D01*
X226180Y94349D01*
X227024Y94122D01*
X227286D01*
Y97266D01*
D02*
G37*
G36*
X245696Y95000D02*
X244894D01*
X244119Y94792D01*
X243425Y94391D01*
X242857Y93824D01*
X242456Y93129D01*
X242248Y92354D01*
Y91552D01*
X242456Y90777D01*
X242857Y90082D01*
X243425Y89515D01*
X244119Y89113D01*
X244894Y88906D01*
X245696D01*
X246471Y89113D01*
X247166Y89515D01*
X247733Y90082D01*
X248134Y90777D01*
X248342Y91552D01*
Y92354D01*
X248134Y93129D01*
X247733Y93824D01*
X247166Y94391D01*
X246471Y94792D01*
X245696Y95000D01*
D02*
G37*
G36*
X248342Y85000D02*
X245470D01*
Y82128D01*
X248342D01*
Y85000D01*
D02*
G37*
G36*
X138342D02*
X135470D01*
Y82128D01*
X138342D01*
Y85000D01*
D02*
G37*
G36*
X245120D02*
X242248D01*
Y82128D01*
X245120D01*
Y85000D01*
D02*
G37*
G36*
X135120D02*
X132248D01*
Y82128D01*
X135120D01*
Y85000D01*
D02*
G37*
G36*
X181416Y84252D02*
X180789D01*
X180210Y84012D01*
X179767Y83569D01*
X179528Y82990D01*
Y82364D01*
X179767Y81785D01*
X180210Y81342D01*
X180789Y81102D01*
X181416D01*
X181994Y81342D01*
X182437Y81785D01*
X182677Y82364D01*
Y82990D01*
X182437Y83569D01*
X181994Y84012D01*
X181416Y84252D01*
D02*
G37*
G36*
X248342Y81778D02*
X245470D01*
Y78906D01*
X248342D01*
Y81778D01*
D02*
G37*
G36*
X245120D02*
X242248D01*
Y78906D01*
X245120D01*
Y81778D01*
D02*
G37*
G36*
X138342D02*
X135470D01*
Y78906D01*
X138342D01*
Y81778D01*
D02*
G37*
G36*
X135120D02*
X132248D01*
Y78906D01*
X135120D01*
Y81778D01*
D02*
G37*
G36*
X180650Y67164D02*
X179750D01*
X178918Y66819D01*
X178281Y66182D01*
X177936Y65350D01*
Y64450D01*
X178281Y63618D01*
X178918Y62981D01*
X179750Y62636D01*
X180650D01*
X181482Y62981D01*
X182119Y63618D01*
X182464Y64450D01*
Y65350D01*
X182119Y66182D01*
X181482Y66819D01*
X180650Y67164D01*
D02*
G37*
%LPD*%
G36*
X213541Y209616D02*
X213530Y209622D01*
X213509Y209627D01*
X213478Y209631D01*
X213386Y209638D01*
X213083Y209645D01*
X212982Y209646D01*
Y210827D01*
X213541Y210856D01*
Y209616D01*
D02*
G37*
G36*
X213934Y204498D02*
X213924Y204504D01*
X213903Y204509D01*
X213872Y204513D01*
X213780Y204520D01*
X213476Y204527D01*
X213375Y204528D01*
Y205709D01*
X213934Y205738D01*
Y204498D01*
D02*
G37*
G36*
X190664Y159801D02*
X189424D01*
X189430Y159812D01*
X189435Y159833D01*
X189439Y159864D01*
X189446Y159955D01*
X189453Y160259D01*
X189454Y160360D01*
X190635D01*
X190664Y159801D01*
D02*
G37*
G36*
X188022Y158507D02*
X186782D01*
X186787Y158517D01*
X186792Y158538D01*
X186797Y158569D01*
X186804Y158661D01*
X186811Y158965D01*
X186811Y159066D01*
X187992D01*
X188022Y158507D01*
D02*
G37*
G36*
X174007Y188878D02*
X173995Y188874D01*
X173977Y188863D01*
X173952Y188845D01*
X173882Y188785D01*
X173662Y188575D01*
X173591Y188504D01*
X172756Y189339D01*
X173130Y189755D01*
X174007Y188878D01*
D02*
G37*
G36*
X146645Y180217D02*
X146633Y180213D01*
X146615Y180202D01*
X146590Y180183D01*
X146520Y180123D01*
X146300Y179913D01*
X146228Y179842D01*
X145393Y180677D01*
X145768Y181094D01*
X146645Y180217D01*
D02*
G37*
G36*
X147543Y171239D02*
X147554Y171221D01*
X147573Y171196D01*
X147633Y171126D01*
X147843Y170906D01*
X147914Y170835D01*
X147079Y170000D01*
X146662Y170374D01*
X147539Y171251D01*
X147543Y171239D01*
D02*
G37*
G36*
X163022Y147286D02*
X161782D01*
X161787Y147297D01*
X161792Y147318D01*
X161797Y147349D01*
X161804Y147440D01*
X161811Y147744D01*
X161811Y147845D01*
X162992D01*
X163022Y147286D01*
D02*
G37*
G36*
X159997Y143081D02*
X159986Y143086D01*
X159966Y143091D01*
X159935Y143096D01*
X159843Y143103D01*
X159539Y143110D01*
X159438Y143110D01*
Y144291D01*
X159997Y144321D01*
Y143081D01*
D02*
G37*
G36*
X233610Y144227D02*
X233622Y144209D01*
X233640Y144184D01*
X233700Y144114D01*
X233910Y143894D01*
X233981Y143823D01*
X233146Y142987D01*
X232730Y143362D01*
X233607Y144239D01*
X233610Y144227D01*
D02*
G37*
G36*
X165434Y143339D02*
X165059Y142922D01*
X164182Y143799D01*
X164194Y143803D01*
X164212Y143814D01*
X164237Y143833D01*
X164307Y143893D01*
X164527Y144102D01*
X164598Y144174D01*
X165434Y143339D01*
D02*
G37*
G36*
X212950Y140128D02*
X212939Y140134D01*
X212918Y140139D01*
X212888Y140143D01*
X212796Y140150D01*
X212492Y140157D01*
X212391Y140157D01*
Y141339D01*
X212950Y141368D01*
Y140128D01*
D02*
G37*
G36*
X181054Y135926D02*
X181050Y135923D01*
X181038Y135912D01*
X180675Y135551D01*
X179842Y136389D01*
X180218Y136767D01*
X181054Y135926D01*
D02*
G37*
G36*
X183441Y134441D02*
X183424Y134439D01*
X183401Y134429D01*
X183372Y134412D01*
X183336Y134387D01*
X183295Y134355D01*
X183134Y134211D01*
X182997Y134077D01*
X182309Y135059D01*
X182683Y135422D01*
X183441Y134441D01*
D02*
G37*
G36*
X191073Y125633D02*
X189833D01*
X189838Y125643D01*
X189843Y125664D01*
X189848Y125695D01*
X189855Y125787D01*
X189862Y126091D01*
X189862Y126192D01*
X191043D01*
X191073Y125633D01*
D02*
G37*
G36*
X195857Y125886D02*
X194980Y125009D01*
X194977Y125021D01*
X194966Y125039D01*
X194947Y125064D01*
X194887Y125134D01*
X194677Y125354D01*
X194606Y125425D01*
X195441Y126260D01*
X195857Y125886D01*
D02*
G37*
G36*
X187203Y126082D02*
X187263Y126040D01*
X187329Y126003D01*
X187403Y125970D01*
X187483Y125944D01*
X187569Y125922D01*
X187663Y125905D01*
X187763Y125894D01*
X187870Y125887D01*
X187983Y125886D01*
X187106Y125009D01*
X187105Y125122D01*
X187087Y125329D01*
X187070Y125423D01*
X187048Y125509D01*
X187022Y125589D01*
X186990Y125663D01*
X186953Y125729D01*
X186910Y125789D01*
X186863Y125842D01*
X187150Y126129D01*
X187203Y126082D01*
D02*
G37*
G36*
X185445Y124213D02*
X185357Y124163D01*
X185278Y124111D01*
X185208Y124056D01*
X185148Y123997D01*
X185097Y123936D01*
X185055Y123872D01*
X185022Y123804D01*
X184999Y123734D01*
X184985Y123661D01*
X184981Y123585D01*
X184575Y123714D01*
X184572Y123774D01*
X184563Y123839D01*
X184547Y123910D01*
X184525Y123988D01*
X184462Y124161D01*
X184421Y124256D01*
X184260Y124578D01*
X185445Y124213D01*
D02*
G37*
G36*
X166959Y121696D02*
X165718D01*
X165724Y121706D01*
X165729Y121727D01*
X165734Y121758D01*
X165741Y121850D01*
X165748Y122154D01*
X165748Y122255D01*
X166929D01*
X166959Y121696D01*
D02*
G37*
G36*
X169911Y115790D02*
X168671D01*
X168677Y115801D01*
X168682Y115822D01*
X168686Y115853D01*
X168693Y115944D01*
X168701Y116248D01*
X168701Y116349D01*
X169882D01*
X169911Y115790D01*
D02*
G37*
G36*
X197126Y113614D02*
X196752Y113198D01*
X195875Y114075D01*
X195887Y114078D01*
X195905Y114090D01*
X195930Y114108D01*
X196000Y114168D01*
X196220Y114378D01*
X196291Y114449D01*
X197126Y113614D01*
D02*
G37*
G36*
X205700Y100295D02*
X204823Y99418D01*
X204819Y99430D01*
X204808Y99448D01*
X204789Y99473D01*
X204730Y99543D01*
X204520Y99763D01*
X204448Y99835D01*
X205284Y100670D01*
X205700Y100295D01*
D02*
G37*
G36*
X138000Y101728D02*
X138029Y101529D01*
X138078Y101330D01*
X138147Y101131D01*
X138236Y100932D01*
X138346Y100732D01*
X138476Y100532D01*
X138627Y100331D01*
X138798Y100131D01*
X138989Y99929D01*
X137319Y98259D01*
X137117Y98450D01*
X136917Y98621D01*
X136716Y98772D01*
X136516Y98902D01*
X136316Y99012D01*
X136117Y99101D01*
X135917Y99171D01*
X135719Y99219D01*
X135520Y99248D01*
X135322Y99256D01*
X137992Y101926D01*
X138000Y101728D01*
D02*
G37*
G36*
Y91728D02*
X138029Y91529D01*
X138078Y91330D01*
X138147Y91131D01*
X138236Y90932D01*
X138346Y90732D01*
X138476Y90532D01*
X138627Y90331D01*
X138798Y90131D01*
X138989Y89929D01*
X137319Y88259D01*
X137117Y88450D01*
X136917Y88621D01*
X136716Y88772D01*
X136516Y88902D01*
X136316Y89012D01*
X136117Y89101D01*
X135917Y89170D01*
X135719Y89219D01*
X135520Y89248D01*
X135322Y89256D01*
X137992Y91926D01*
X138000Y91728D01*
D02*
G37*
G36*
X207509Y84532D02*
X207616Y84473D01*
X207735Y84421D01*
X207866Y84376D01*
X208009Y84338D01*
X208163Y84307D01*
X208329Y84283D01*
X208696Y84255D01*
X208897Y84252D01*
Y83071D01*
X208696Y83067D01*
X208329Y83040D01*
X208163Y83016D01*
X208009Y82985D01*
X207866Y82946D01*
X207735Y82902D01*
X207616Y82850D01*
X207509Y82791D01*
X207413Y82726D01*
Y83046D01*
X207326Y83041D01*
Y84281D01*
X207336Y84276D01*
X207357Y84271D01*
X207388Y84266D01*
X207413Y84264D01*
Y84597D01*
X207509Y84532D01*
D02*
G37*
G36*
X229368Y85296D02*
X229216Y85102D01*
X229081Y84895D01*
X228965Y84675D01*
X228866Y84443D01*
X228785Y84198D01*
X228722Y83941D01*
X228678Y83671D01*
X228651Y83389D01*
X228642Y83094D01*
X226279D01*
X226271Y83389D01*
X226244Y83671D01*
X226199Y83941D01*
X226136Y84198D01*
X226055Y84443D01*
X225957Y84675D01*
X225840Y84895D01*
X225706Y85102D01*
X225553Y85296D01*
X225383Y85479D01*
X229539D01*
X229368Y85296D01*
D02*
G37*
G36*
X188734Y83478D02*
X189128Y83301D01*
X189211Y83273D01*
X189360Y83235D01*
X189426Y83226D01*
X189485Y83223D01*
X189614Y82817D01*
X189538Y82812D01*
X189465Y82799D01*
X189395Y82775D01*
X189327Y82743D01*
X189263Y82701D01*
X189202Y82650D01*
X189143Y82590D01*
X189088Y82520D01*
X189036Y82441D01*
X188986Y82353D01*
X188620Y83538D01*
X188734Y83478D01*
D02*
G37*
G36*
X194993Y82349D02*
X194932Y82435D01*
X194870Y82512D01*
X194806Y82580D01*
X194741Y82639D01*
X194674Y82689D01*
X194606Y82730D01*
X194536Y82762D01*
X194464Y82785D01*
X194391Y82798D01*
X194316Y82803D01*
X194398Y83209D01*
X194463Y83212D01*
X194532Y83223D01*
X194605Y83241D01*
X194682Y83266D01*
X194763Y83298D01*
X194848Y83337D01*
X195031Y83437D01*
X195129Y83498D01*
X195231Y83566D01*
X194993Y82349D01*
D02*
G37*
G36*
X200012Y86756D02*
X200047Y86354D01*
X200106Y86000D01*
X200189Y85693D01*
X200295Y85433D01*
X200425Y85220D01*
X200579Y85055D01*
X200756Y84937D01*
X200957Y84866D01*
X201181Y84842D01*
Y82480D01*
X200957Y82457D01*
X200756Y82386D01*
X200579Y82268D01*
X200425Y82102D01*
X200295Y81890D01*
X200189Y81630D01*
X200106Y81323D01*
X200047Y80968D01*
X200012Y80567D01*
X200000Y80118D01*
X197638Y83661D01*
X200000Y87205D01*
X200012Y86756D01*
D02*
G37*
G36*
X200000Y78740D02*
X197638Y75197D01*
X197626Y75646D01*
X197591Y76047D01*
X197531Y76402D01*
X197449Y76709D01*
X197343Y76968D01*
X197213Y77181D01*
X197059Y77346D01*
X196882Y77465D01*
X196681Y77535D01*
X196457Y77559D01*
Y79921D01*
X196681Y79945D01*
X196882Y80016D01*
X197059Y80134D01*
X197213Y80299D01*
X197343Y80512D01*
X197449Y80772D01*
X197531Y81079D01*
X197591Y81433D01*
X197626Y81835D01*
X197638Y82284D01*
X200000Y78740D01*
D02*
G37*
G36*
X194196Y177539D02*
X194208Y177520D01*
X194226Y177495D01*
X194286Y177426D01*
X194496Y177206D01*
X194567Y177134D01*
X193732Y176299D01*
X193316Y176673D01*
X194193Y177550D01*
X194196Y177539D01*
D02*
G37*
G36*
X202392Y158113D02*
X201152D01*
X201157Y158124D01*
X201162Y158144D01*
X201167Y158175D01*
X201174Y158267D01*
X201181Y158571D01*
X201181Y158672D01*
X202362D01*
X202392Y158113D01*
D02*
G37*
G36*
X176599Y181246D02*
X176594Y181226D01*
X176589Y181195D01*
X176582Y181103D01*
X176575Y180799D01*
X176575Y180698D01*
X175394D01*
X175364Y181257D01*
X176604D01*
X176599Y181246D01*
D02*
G37*
G36*
X165974Y152207D02*
X164734D01*
X164740Y152218D01*
X164745Y152239D01*
X164749Y152270D01*
X164756Y152362D01*
X164763Y152665D01*
X164764Y152767D01*
X165945D01*
X165974Y152207D01*
D02*
G37*
G36*
X137996Y141573D02*
X138050Y140933D01*
X138099Y140644D01*
X138164Y140377D01*
X138244Y140132D01*
X138340Y139908D01*
X138451Y139706D01*
X138577Y139525D01*
X138718Y139365D01*
X137882Y138530D01*
X137723Y138672D01*
X137542Y138797D01*
X137340Y138908D01*
X137116Y139004D01*
X136871Y139084D01*
X136604Y139149D01*
X136316Y139198D01*
X136006Y139233D01*
X135675Y139252D01*
X135322Y139256D01*
X137992Y141926D01*
X137996Y141573D01*
D02*
G37*
G36*
X176533Y111585D02*
X176522Y111590D01*
X176501Y111595D01*
X176470Y111600D01*
X176379Y111607D01*
X176075Y111614D01*
X175974Y111614D01*
Y112795D01*
X176533Y112825D01*
Y111585D01*
D02*
G37*
D29*
X245295Y91953D02*
D03*
Y101953D02*
D03*
Y111953D02*
D03*
Y121953D02*
D03*
Y131953D02*
D03*
Y141953D02*
D03*
Y151953D02*
D03*
Y161953D02*
D03*
Y171953D02*
D03*
Y181953D02*
D03*
Y191953D02*
D03*
X135295D02*
D03*
Y161953D02*
D03*
Y121953D02*
D03*
Y151953D02*
D03*
Y171953D02*
D03*
Y131953D02*
D03*
Y181953D02*
D03*
Y141953D02*
D03*
Y91953D02*
D03*
Y101953D02*
D03*
Y111953D02*
D03*
D30*
X245295Y81953D02*
D03*
X135295D02*
D03*
D32*
X227461Y97441D02*
D03*
Y126969D02*
D03*
Y117126D02*
D03*
Y107283D02*
D03*
Y87598D02*
D03*
D34*
X202956Y64900D02*
D03*
X180200D02*
D03*
D37*
X165354Y151575D02*
Y159753D01*
X204724Y122047D02*
Y137612D01*
X207860Y140748D02*
X213583D01*
X204724Y137612D02*
X207860Y140748D01*
X235236Y97441D02*
Y141732D01*
X232721Y144248D02*
X235236Y141732D01*
X187402Y187402D02*
X210236Y210236D01*
X187402Y157874D02*
Y187402D01*
X210236Y210236D02*
X214173D01*
X169291Y127261D02*
X170180Y128150D01*
X180424D02*
X183377Y131102D01*
X170180Y128150D02*
X180424D01*
X169291Y115157D02*
Y127261D01*
X166339Y121063D02*
Y130905D01*
X169488Y134055D01*
X182140D01*
X193307Y177559D02*
X201772Y169095D01*
Y157480D02*
Y169095D01*
X208600Y205118D02*
X214567D01*
X190044Y186562D02*
X208600Y205118D01*
X190044Y159169D02*
Y186562D01*
X183858Y138976D02*
Y142520D01*
X165354Y144095D02*
X182283D01*
X183858Y142520D01*
X164173Y142913D02*
X165354Y144095D01*
X147638Y147638D02*
X159449Y135827D01*
X181099Y136811D02*
X181102D01*
X180115Y135827D02*
X181099Y136811D01*
X159449Y135827D02*
X180115D01*
X168307Y184055D02*
X174016Y189764D01*
X162402Y163386D02*
X168307Y169291D01*
Y184055D01*
X162402Y146653D02*
Y163386D01*
X175984Y179046D02*
Y181890D01*
X173189Y176251D02*
X175984Y179046D01*
X173189Y167587D02*
Y176251D01*
X165354Y159753D02*
X173189Y167587D01*
X195866Y113189D02*
X204724Y122047D01*
X183858Y138976D02*
X191984Y130851D01*
Y128882D02*
Y130851D01*
X195783Y125083D02*
Y125083D01*
X191984Y128882D02*
X195783Y125083D01*
X183377Y131102D02*
X187905D01*
X190453Y128554D01*
Y125000D02*
Y128554D01*
X192482Y112636D02*
X205709Y99410D01*
X191319Y112636D02*
X192482D01*
X191206Y112749D02*
X191319Y112636D01*
X149606Y149606D02*
X155512Y143701D01*
X160630D01*
X146653Y171260D02*
X149606Y168307D01*
Y149606D02*
Y168307D01*
X182140Y134055D02*
X183403Y135318D01*
X183563D01*
X147638Y147638D02*
Y164370D01*
X143701Y178150D02*
X146653Y181102D01*
X143701Y168307D02*
X147638Y164370D01*
X143701Y168307D02*
Y178150D01*
X173783Y112205D02*
X177165D01*
X172602Y111024D02*
X173783Y112205D01*
X162489Y111024D02*
X172602D01*
X145669Y127843D02*
X162489Y111024D01*
X145669Y127843D02*
Y131579D01*
X135295Y141953D02*
X145669Y131579D01*
X206693Y83661D02*
X216535D01*
X225394Y92520D01*
X230315D01*
X235236Y97441D01*
D39*
X194488Y61811D02*
X195669D01*
X187402D02*
X194488D01*
X191929Y92531D02*
Y98425D01*
X195669Y61811D02*
X198819Y64961D01*
Y78740D01*
X196845Y89573D02*
X198819Y87598D01*
X194888Y89573D02*
X196845D01*
X191929Y92531D02*
X194888Y89573D01*
X198819Y83661D02*
Y87598D01*
Y83661D02*
X206693D01*
X198819Y78740D02*
Y83661D01*
X173228Y78740D02*
X198819D01*
X159449Y64961D02*
X173228Y78740D01*
X159449Y59055D02*
Y64961D01*
X173228Y78740D02*
Y80669D01*
X168268Y85630D02*
X173228Y80669D01*
X151618Y85630D02*
X168268D01*
X135295Y101953D02*
X151618Y85630D01*
X214961Y57087D02*
X227461Y69587D01*
X169098Y57087D02*
X214961D01*
X227461Y69587D02*
Y87598D01*
X168311Y56299D02*
X169098Y57087D01*
X135295Y91953D02*
X143898Y83350D01*
Y69725D02*
Y83350D01*
Y69725D02*
X157323Y56299D01*
X168311D01*
D40*
X240945Y209842D02*
D03*
Y58268D02*
D03*
X140945Y209842D02*
D03*
Y58268D02*
D03*
D41*
X174016Y195866D02*
D03*
X154352Y106124D02*
D03*
X152327Y154425D02*
D03*
X165354Y151575D02*
D03*
X208268Y200394D02*
D03*
X207874Y194488D02*
D03*
Y188583D02*
D03*
X208268Y182677D02*
D03*
X174213Y211614D02*
D03*
X160531Y102756D02*
D03*
Y106201D02*
D03*
X150394Y95472D02*
D03*
X160630Y91732D02*
D03*
X207677Y104331D02*
D03*
Y110236D02*
D03*
Y119095D02*
D03*
X215748Y125984D02*
D03*
X192913Y201772D02*
D03*
X234252Y170276D02*
D03*
X201772Y125984D02*
D03*
Y74803D02*
D03*
Y146653D02*
D03*
X180118Y189961D02*
D03*
X181102Y146653D02*
D03*
X175197Y151575D02*
D03*
X169291D02*
D03*
X181102Y125984D02*
D03*
X206791Y161319D02*
D03*
X216142Y129921D02*
D03*
X218279Y132958D02*
D03*
X218293Y135662D02*
D03*
X217918Y138386D02*
D03*
X207473Y174873D02*
D03*
X165532Y205079D02*
D03*
X198611Y157568D02*
D03*
X234252Y191929D02*
D03*
X222441Y182087D02*
D03*
X202165Y182677D02*
D03*
Y194488D02*
D03*
Y188583D02*
D03*
X234252Y160433D02*
D03*
X222441D02*
D03*
X229331Y149606D02*
D03*
X217520Y177165D02*
D03*
X201772Y140748D02*
D03*
Y131890D02*
D03*
X199803Y204724D02*
D03*
X189764Y194095D02*
D03*
X195374Y157480D02*
D03*
X194414Y187870D02*
D03*
X212992Y122047D02*
D03*
X210630Y89567D02*
D03*
X213386Y68110D02*
D03*
Y65354D02*
D03*
X212992Y50000D02*
D03*
Y52756D02*
D03*
X210630Y65354D02*
D03*
Y68110D02*
D03*
X210236Y50000D02*
D03*
Y52756D02*
D03*
X205709Y113189D02*
D03*
X201772Y107283D02*
D03*
X195866Y128937D02*
D03*
X191929Y82677D02*
D03*
X187008Y201772D02*
D03*
X180118Y195866D02*
D03*
X181102Y131890D02*
D03*
X187008Y128937D02*
D03*
X181102Y141732D02*
D03*
X165532Y210591D02*
D03*
Y199567D02*
D03*
Y216102D02*
D03*
X171024Y168484D02*
D03*
X169291Y157480D02*
D03*
X175197D02*
D03*
X165291Y171433D02*
D03*
X181102Y113189D02*
D03*
Y107283D02*
D03*
X172244Y88583D02*
D03*
X172441Y68110D02*
D03*
X172835Y52756D02*
D03*
Y50000D02*
D03*
X172441Y65354D02*
D03*
X170079Y50000D02*
D03*
Y52756D02*
D03*
X206791Y155413D02*
D03*
X169685Y68110D02*
D03*
Y65354D02*
D03*
X217520Y142717D02*
D03*
X232721Y144248D02*
D03*
X175000Y104331D02*
D03*
X171457Y122069D02*
D03*
X166339Y121063D02*
D03*
X169291Y115157D02*
D03*
X191929Y98425D02*
D03*
X201772Y157480D02*
D03*
X174016Y189764D02*
D03*
X214173Y210236D02*
D03*
X214567Y205118D02*
D03*
X187402Y157874D02*
D03*
X190044Y159169D02*
D03*
X215748Y150000D02*
D03*
X164173Y142913D02*
D03*
X182677Y161417D02*
D03*
X162402Y146653D02*
D03*
X175984Y181890D02*
D03*
X193307Y177559D02*
D03*
X165532Y177520D02*
D03*
X192913Y157480D02*
D03*
X195866Y113189D02*
D03*
X213583Y140748D02*
D03*
X195866Y125000D02*
D03*
X190453D02*
D03*
X191206Y112749D02*
D03*
X205709Y99410D02*
D03*
X160630Y143701D02*
D03*
X146653Y171260D02*
D03*
X181319Y90976D02*
D03*
X188199Y82759D02*
D03*
X187992Y125000D02*
D03*
X186024Y140748D02*
D03*
X183563Y135318D02*
D03*
X146653Y181102D02*
D03*
X181102Y136811D02*
D03*
X201612D02*
D03*
X195733Y82836D02*
D03*
X185039Y125000D02*
D03*
X195845Y141732D02*
D03*
X177165Y112205D02*
D03*
X194488Y61811D02*
D03*
X187402D02*
D03*
X206693Y83661D02*
D03*
X159449Y59055D02*
D03*
X181102Y82677D02*
D03*
D42*
X184778Y123076D02*
Y124739D01*
Y123076D02*
X189197Y118657D01*
X189675Y83020D02*
X191348Y84692D01*
X188460Y83020D02*
X189675D01*
X188199Y82759D02*
X188460Y83020D01*
X191348Y84692D02*
Y88957D01*
X183262Y125736D02*
X184303Y126778D01*
X186215D01*
X187992Y125000D01*
X183262Y122888D02*
Y125736D01*
X188793Y91512D02*
X191348Y88957D01*
X188000Y92305D02*
X188793Y91512D01*
X182857Y92305D02*
X188000D01*
X182151Y93011D02*
X182857Y92305D01*
X182151Y93011D02*
Y96414D01*
X182857Y97120D01*
X187755D01*
X187992Y97357D01*
Y100394D01*
X183262Y122888D02*
X187992Y118158D01*
Y100394D02*
Y118158D01*
X195563Y83006D02*
X195733Y82836D01*
X194239Y83006D02*
X195563D01*
X192552Y84692D02*
X194239Y83006D01*
X192552Y84692D02*
Y89456D01*
X184778Y124739D02*
X185039Y125000D01*
X190497Y91512D02*
X192552Y89456D01*
X190497Y91512D02*
X190497Y91512D01*
X188499Y93510D02*
X190497Y91512D01*
X183356Y93510D02*
X188499D01*
X183356D02*
Y95915D01*
X188254D01*
X189197Y96858D01*
Y100394D01*
Y118657D01*
M02*
